<svg xmlns="http://www.w3.org/2000/svg" version="1.1" viewBox="0.00 0.00 232.00 230.00">
<g stroke-width="2.00" fill="none" stroke-linecap="butt">
<path stroke="#2c3b69" vector-effect="non-scaling-stroke" d="
  M 141.89 39.31
  Q 141.74 40.00 141.95 40.56
  Q 142.16 41.14 142.58 40.69
  L 145.71 37.33"
/>
<path stroke="#2c3b69" vector-effect="non-scaling-stroke" d="
  M 145.81 57.96
  Q 143.84 56.72 142.67 54.98
  Q 142.36 54.51 141.92 54.85
  Q 141.40 55.24 141.82 56.61"
/>
<path stroke="#58a4c8" vector-effect="non-scaling-stroke" d="
  M 137.91 58.44
  L 135.08 58.65"
/>
<path stroke="#2c3b69" vector-effect="non-scaling-stroke" d="
  M 135.08 58.65
  Q 129.99 54.52 130.34 49.01"
/>
<path stroke="#7891da" vector-effect="non-scaling-stroke" d="
  M 130.34 49.01
  Q 130.37 50.55 131.47 51.51
  A 2.09 1.97 -81.3 0 1 132.01 52.29
  Q 133.13 55.15 135.24 56.35"
/>
<path stroke="#abbae6" vector-effect="non-scaling-stroke" d="
  M 135.24 56.35
  C 138.76 58.37 141.51 54.19 142.48 51.26
  Q 143.14 49.26 142.06 44.43
  Q 140.80 38.77 135.67 38.34"
/>
<path stroke="#7891da" vector-effect="non-scaling-stroke" d="
  M 135.67 38.34
  Q 134.64 38.66 133.19 40.19
  Q 132.88 40.52 131.94 39.96"
/>
<path stroke="#2c3b69" vector-effect="non-scaling-stroke" d="
  M 131.94 39.96
  Q 133.02 38.41 135.13 36.93"
/>
<path stroke="#4582af" vector-effect="non-scaling-stroke" d="
  M 123.82 87.77
  Q 120.83 87.75 117.49 87.88
  Q 117.22 87.89 117.03 87.77
  Q 116.79 87.61 116.63 87.37
  Q 116.36 86.98 116.09 87.37
  Q 115.79 87.83 115.65 88.47"
/>
<path stroke="#7cb0d8" vector-effect="non-scaling-stroke" d="
  M 115.65 88.47
  Q 115.51 88.62 115.30 88.54"
/>
<path stroke="#4582af" vector-effect="non-scaling-stroke" d="
  M 115.30 88.54
  L 115.04 88.21
  Q 114.75 87.83 114.79 87.35
  Q 114.85 86.76 114.72 86.18
  Q 114.52 85.21 114.27 86.17
  L 114.10 86.80
  Q 113.97 87.31 113.56 87.67
  Q 112.90 88.24 112.84 89.50
  Q 112.62 94.97 112.68 100.44
  Q 112.68 100.62 112.49 100.62
  L 112.49 100.62
  Q 112.38 100.62 112.37 100.50
  L 112.20 88.54
  Q 112.19 88.05 111.71 88.04
  Q 108.33 87.93 106.25 88.20
  Q 105.61 88.29 105.71 88.99"
/>
<path stroke="#79c0d4" vector-effect="non-scaling-stroke" d="
  M 105.71 88.99
  Q 105.14 89.06 105.12 89.30"
/>
<path stroke="#4582af" vector-effect="non-scaling-stroke" d="
  M 105.12 89.30
  Q 105.29 88.15 104.50 88.23
  Q 102.29 88.46 99.99 88.56"
/>
<path stroke="#2d6b63" vector-effect="non-scaling-stroke" d="
  M 112.71 52.89
  L 113.53 52.67"
/>
<path stroke="#ccd6f3" vector-effect="non-scaling-stroke" d="
  M 135.67 38.34
  Q 139.49 40.36 140.41 43.48
  C 141.66 47.72 141.27 55.91 135.24 56.35"
/>
<path stroke="#4d5875" vector-effect="non-scaling-stroke" d="
  M 131.94 39.96
  Q 129.80 44.08 130.34 49.01"
/>
<path stroke="#2d6b63" vector-effect="non-scaling-stroke" d="
  M 135.08 58.65
  C 128.05 57.50 128.23 50.08 128.53 44.32"
/>
<path stroke="#2c3b69" vector-effect="non-scaling-stroke" d="
  M 128.53 44.32
  Q 129.25 43.29 129.24 42.02"
/>
<path stroke="#4d5875" vector-effect="non-scaling-stroke" d="
  M 129.24 42.02
  L 131.09 39.08"
/>
<path stroke="#7891da" vector-effect="non-scaling-stroke" d="
  M 129.24 42.02
  Q 128.20 42.36 128.15 43.52"
/>
<path stroke="#79c0d4" vector-effect="non-scaling-stroke" d="
  M 128.15 43.52
  L 128.11 44.17
  Q 128.02 45.55 127.37 44.23
  Q 127.34 44.18 127.33 43.69"
/>
<path stroke="#656fc1" vector-effect="non-scaling-stroke" d="
  M 127.33 43.69
  L 129.16 39.87"
/>
<path stroke="#a7b9a8" vector-effect="non-scaling-stroke" d="
  M 120.46 53.56
  Q 120.99 56.60 120.23 59.22
  A 0.61 0.60 -64.1 0 1 119.29 59.55
  Q 116.30 57.36 115.20 54.11"
/>
<path stroke="#7b5149" vector-effect="non-scaling-stroke" d="
  M 113.52 51.92
  L 112.04 51.04
  Q 111.54 50.75 111.62 51.32
  Q 111.77 52.33 112.71 52.89"
/>
<path stroke="#a7b9a8" vector-effect="non-scaling-stroke" d="
  M 112.71 52.89
  Q 113.01 53.41 112.71 53.79
  Q 112.39 54.18 111.93 53.97
  Q 109.32 52.76 109.10 50.54"
/>
<path stroke="#4582af" vector-effect="non-scaling-stroke" d="
  M 127.33 43.69
  C 125.66 47.49 126.75 49.73 127.52 53.15
  Q 127.63 53.65 128.00 54.03
  Q 128.63 54.67 128.84 55.53
  A 0.23 0.23 0.0 0 1 128.45 55.74
  Q 127.98 55.25 127.38 55.06
  Q 126.85 54.91 126.85 55.46
  Q 126.85 55.82 126.91 56.18
  Q 127.11 57.31 126.69 56.26
  L 126.44 55.62
  Q 126.26 55.14 125.86 54.83
  Q 124.64 53.88 122.79 53.69"
/>
<path stroke="#936895" vector-effect="non-scaling-stroke" d="
  M 120.49 52.96
  Q 120.45 50.25 121.92 47.18
  Q 122.30 46.38 121.64 46.01
  Q 121.32 45.83 121.54 45.53
  Q 121.66 45.37 121.86 45.31
  A 0.58 0.57 -13.6 0 0 122.26 44.66
  Q 122.13 43.99 121.50 43.81
  Q 121.05 43.68 121.16 43.24
  L 121.36 42.38"
/>
<path stroke="#685fc4" vector-effect="non-scaling-stroke" d="
  M 115.30 88.54
  L 115.34 100.46
  Q 115.34 100.64 115.52 100.64
  L 115.53 100.64
  Q 115.71 100.64 115.71 100.46
  L 115.65 88.47"
/>
<path stroke="#685fc4" vector-effect="non-scaling-stroke" d="
  M 127.06 178.14
  Q 126.28 177.86 125.47 178.26"
/>
<path stroke="#656fc1" vector-effect="non-scaling-stroke" d="
  M 125.47 178.26
  Q 124.41 178.07 123.57 178.33"
/>
<path stroke="#685fc4" vector-effect="non-scaling-stroke" d="
  M 123.57 178.33
  Q 123.02 178.22 122.38 178.31"
/>
<path stroke="#656fc1" vector-effect="non-scaling-stroke" d="
  M 122.38 178.31
  Q 121.26 178.04 120.53 178.51"
/>
<path stroke="#685fc4" vector-effect="non-scaling-stroke" d="
  M 120.53 178.51
  Q 120.05 178.22 119.46 178.48"
/>
<path stroke="#656fc1" vector-effect="non-scaling-stroke" d="
  M 119.46 178.48
  Q 118.27 178.06 117.33 178.37"
/>
<path stroke="#685fc4" vector-effect="non-scaling-stroke" d="
  M 117.33 178.37
  Q 116.59 178.30 116.03 178.61"
/>
<path stroke="#685fc4" vector-effect="non-scaling-stroke" d="
  M 96.05 178.57
  L 94.16 177.88"
/>
<path stroke="#656fc1" vector-effect="non-scaling-stroke" d="
  M 94.16 177.88
  L 93.21 177.62"
/>
<path stroke="#685fc4" vector-effect="non-scaling-stroke" d="
  M 93.21 177.62
  L 91.26 177.26"
/>
<path stroke="#656fc1" vector-effect="non-scaling-stroke" d="
  M 91.26 177.26
  Q 90.58 176.69 89.99 176.78"
/>
<path stroke="#685fc4" vector-effect="non-scaling-stroke" d="
  M 89.99 176.78
  L 88.27 176.31"
/>
<path stroke="#656fc1" vector-effect="non-scaling-stroke" d="
  M 88.27 176.31
  Q 87.44 175.84 86.84 176.03"
/>
<path stroke="#685fc4" vector-effect="non-scaling-stroke" d="
  M 86.84 176.03
  Q 85.92 175.50 85.37 175.76"
/>
<path stroke="#656fc1" vector-effect="non-scaling-stroke" d="
  M 105.12 89.30
  C 103.70 94.01 104.18 99.90 99.41 102.67
  Q 99.22 102.78 99.31 102.98
  L 99.31 102.98
  Q 99.41 103.18 99.61 103.09
  C 104.28 101.07 104.51 93.51 105.71 88.99"
/>
<path stroke="#58a4c8" vector-effect="non-scaling-stroke" d="
  M 128.53 44.32
  L 128.15 43.52"
/>
<path stroke="#ca96be" vector-effect="non-scaling-stroke" d="
  M 118.64 41.72
  Q 115.53 42.21 113.23 41.14
  A 0.79 0.79 0.0 0 0 112.10 41.87
  Q 112.12 43.19 111.63 44.38
  Q 111.21 45.40 110.20 44.98
  Q 107.77 43.96 107.09 45.15"
/>
<path stroke="#9c9dea" vector-effect="non-scaling-stroke" d="
  M 94.16 177.88
  L 91.95 188.32"
/>
<path stroke="#ccaca6" vector-effect="non-scaling-stroke" d="
  M 91.95 188.32
  Q 91.62 188.45 91.22 188.23"
/>
<path stroke="#9c9dea" vector-effect="non-scaling-stroke" d="
  M 122.38 178.31
  L 122.13 187.92
  Q 122.13 188.04 122.00 188.05
  L 121.72 188.06
  A 0.34 0.34 0.0 0 1 121.36 187.73
  L 121.20 179.93
  Q 121.19 179.49 120.90 179.17
  Q 120.62 178.87 120.53 178.51"
/>
<path stroke="#9c9dea" vector-effect="non-scaling-stroke" d="
  M 123.57 178.33
  L 124.87 188.83"
/>
<path stroke="#cf9caa" vector-effect="non-scaling-stroke" d="
  M 124.87 188.83
  L 119.00 189.53"
/>
<path stroke="#cf9caa" vector-effect="non-scaling-stroke" d="
  M 127.68 188.25
  Q 126.85 188.81 126.16 188.64"
/>
<path stroke="#9c9dea" vector-effect="non-scaling-stroke" d="
  M 126.16 188.64
  C 125.53 186.31 124.16 180.24 125.47 178.26"
/>
<path stroke="#ccaca6" vector-effect="non-scaling-stroke" d="
  M 126.16 188.64
  Q 125.49 188.59 124.87 188.83"
/>
<path stroke="#9c9dea" vector-effect="non-scaling-stroke" d="
  M 117.33 178.37
  Q 118.04 182.71 118.13 189.25
  Q 118.13 189.82 118.71 189.58"
/>
<path stroke="#cf9caa" vector-effect="non-scaling-stroke" d="
  M 118.71 189.58
  Q 117.71 189.86 116.76 189.79"
/>
<path stroke="#9c9dea" vector-effect="non-scaling-stroke" d="
  M 119.46 178.48
  Q 119.37 178.85 119.09 179.18
  A 1.28 1.27 64.9 0 0 118.78 180.04
  L 119.00 189.53"
/>
<path stroke="#ccaca6" vector-effect="non-scaling-stroke" d="
  M 119.00 189.53
  Q 118.86 189.55 118.71 189.58"
/>
<path stroke="#9c9dea" vector-effect="non-scaling-stroke" d="
  M 91.26 177.26
  L 88.88 187.80"
/>
<path stroke="#ccaca6" vector-effect="non-scaling-stroke" d="
  M 88.88 187.80
  Q 88.60 187.91 88.05 187.82"
/>
<path stroke="#9c9dea" vector-effect="non-scaling-stroke" d="
  M 86.84 176.03
  Q 86.08 181.16 84.86 186.25
  Q 84.52 187.64 83.29 187.34"
/>
<path stroke="#cf9caa" vector-effect="non-scaling-stroke" d="
  M 83.29 187.34
  Q 83.26 187.57 82.93 187.31"
/>
<path stroke="#9c9dea" vector-effect="non-scaling-stroke" d="
  M 93.21 177.62
  L 91.22 188.23"
/>
<path stroke="#cf9caa" vector-effect="non-scaling-stroke" d="
  M 91.22 188.23
  Q 90.16 188.82 88.88 187.80"
/>
<path stroke="#9c9dea" vector-effect="non-scaling-stroke" d="
  M 88.27 176.31
  Q 88.43 176.72 88.00 177.08
  Q 87.63 177.38 87.55 177.86
  L 86.00 187.67"
/>
<path stroke="#ccaca6" vector-effect="non-scaling-stroke" d="
  M 86.00 187.67
  L 83.29 187.34"
/>
<path stroke="#9c9dea" vector-effect="non-scaling-stroke" d="
  M 89.99 176.78
  L 88.05 187.82"
/>
<path stroke="#cf9caa" vector-effect="non-scaling-stroke" d="
  M 88.05 187.82
  Q 87.61 188.26 86.00 187.67"
/>
<path stroke="#cf9caa" vector-effect="non-scaling-stroke" d="
  M 93.49 188.85
  L 91.95 188.32"
/>
<path stroke="#805735" vector-effect="non-scaling-stroke" d="
  M 95.01 196.49
  Q 95.58 197.34 98.19 196.69"
/>
<path stroke="#805735" vector-effect="non-scaling-stroke" d="
  M 129.31 194.95
  L 129.35 195.92
  Q 129.37 196.42 128.89 196.53
  Q 128.01 196.74 127.50 197.45
  Q 127.17 197.90 127.70 197.75
  L 131.96 196.50"
/>
<path stroke="#abbae6" vector-effect="non-scaling-stroke" d="
  M 152.12 52.12
  Q 154.39 45.50 150.79 40.66
  Q 149.31 38.68 146.63 38.55
  Q 146.38 38.54 146.36 38.79
  L 146.32 39.20
  Q 146.30 39.45 146.56 39.47
  C 152.80 40.04 153.42 53.97 146.88 56.23
  Q 146.56 56.34 146.63 56.68
  L 146.68 56.92
  Q 146.70 57.01 146.79 57.00
  Q 150.63 56.48 152.12 52.12"
/>
<path stroke="#936895" vector-effect="non-scaling-stroke" d="
  M 115.01 46.55
  Q 115.36 47.34 114.84 48.27
  Q 114.50 48.88 114.71 49.29
  Q 115.00 49.85 115.32 49.30
  Q 116.40 47.47 115.43 46.00"
/>
<path stroke="#7b5149" vector-effect="non-scaling-stroke" d="
  M 115.43 46.00
  L 114.33 44.31
  Q 114.09 43.94 113.72 44.20
  Q 112.86 44.83 113.02 45.92
  Q 113.09 46.37 113.55 46.41
  L 115.01 46.55"
/>
<path stroke="#191a50" vector-effect="non-scaling-stroke" d="
  M 115.43 46.00
  Q 115.18 46.51 115.01 46.55"
/>
<path stroke="#936895" vector-effect="non-scaling-stroke" d="
  M 117.07 45.39
  C 117.05 45.00 117.11 44.64 117.01 44.31
  A 0.42 0.42 0.0 0 0 116.22 44.27
  Q 115.94 44.97 115.95 45.76
  A 0.40 0.39 -14.4 0 0 116.53 46.10
  Q 117.09 45.78 117.07 45.39"
/>
<path stroke="#7b5149" vector-effect="non-scaling-stroke" d="
  M 119.23 45.36
  Q 119.12 45.46 119.32 45.75
  L 120.15 47.00
  Q 120.23 47.12 120.37 47.06
  L 120.64 46.95
  Q 120.71 46.93 120.68 46.87
  Q 120.24 46.01 119.58 45.36
  Q 119.41 45.21 119.24 45.35
  L 119.23 45.36"
/>
<path stroke="#656fc1" vector-effect="non-scaling-stroke" d="
  M 111.31 121.61
  Q 111.11 122.02 111.39 122.00
  A 0.12 0.12 0.0 0 0 111.49 121.91
  L 112.89 112.45
  Q 112.92 112.28 112.75 112.29
  L 112.50 112.31
  Q 112.35 112.32 112.35 112.47
  C 112.42 115.26 111.06 117.96 111.40 121.07
  Q 111.43 121.35 111.31 121.61"
/>
<path stroke="#656fc1" vector-effect="non-scaling-stroke" d="
  M 110.3845 128.0546
  A 1.69 0.25 94.6 0 0 110.7692 126.3900
  A 1.69 0.25 94.6 0 0 110.6555 124.6854
  A 1.69 0.25 94.6 0 0 110.2708 126.3500
  A 1.69 0.25 94.6 0 0 110.3845 128.0546"
/>
<path stroke="#656fc1" vector-effect="non-scaling-stroke" d="
  M 109.4748 133.7195
  A 1.26 0.21 91.6 0 0 109.7199 132.4659
  A 1.26 0.21 91.6 0 0 109.5452 131.2005
  A 1.26 0.21 91.6 0 0 109.3001 132.4541
  A 1.26 0.21 91.6 0 0 109.4748 133.7195"
/>
<path stroke="#ffd5b3" vector-effect="non-scaling-stroke" d="
  M 83.9725 196.7051
  A 2.97 2.09 102.0 0 0 86.6343 194.2345
  A 2.97 2.09 102.0 0 0 85.2075 190.8949
  A 2.97 2.09 102.0 0 0 82.5457 193.3655
  A 2.97 2.09 102.0 0 0 83.9725 196.7051"
/>
<path stroke="#805735" vector-effect="non-scaling-stroke" d="
  M 91.48 192.77
  Q 92.13 193.21 92.90 193.38
  Q 93.32 193.47 92.98 193.20
  Q 92.05 192.48 90.55 192.37
  Q 90.32 192.36 90.44 192.54
  Q 90.59 192.77 90.93 192.68
  A 0.65 0.62 52.8 0 1 91.48 192.77"
/>
<path stroke="#805735" vector-effect="non-scaling-stroke" d="
  M 91.30 196.91
  Q 91.31 196.77 91.31 196.64
  Q 91.29 196.26 90.93 196.40
  Q 90.18 196.68 89.63 197.27
  Q 88.84 198.10 89.90 197.67
  L 90.47 197.45
  Q 90.94 197.26 91.43 197.36
  Q 93.06 197.68 94.61 197.08
  A 0.07 0.07 0.0 0 0 94.56 196.94
  Q 93.02 197.41 91.38 197.02
  Q 91.29 197.00 91.30 196.91"
/>
<path stroke="#805735" vector-effect="non-scaling-stroke" d="
  M 104.4099 203.6138
  A 0.16 0.16 0.0 0 0 104.2505 203.4533
  L 79.4706 203.3668
  A 0.16 0.16 0.0 0 0 79.3101 203.5262
  L 79.3101 203.5262
  A 0.16 0.16 0.0 0 0 79.4695 203.6867
  L 104.2494 203.7732
  A 0.16 0.16 0.0 0 0 104.4099 203.6138
  L 104.4099 203.6138"
/>
<path stroke="#ffd5b3" vector-effect="non-scaling-stroke" d="
  M 121.4757 198.1296
  A 2.91 2.41 89.1 0 0 123.8397 195.1821
  A 2.91 2.41 89.1 0 0 121.3843 192.3104
  A 2.91 2.41 89.1 0 0 119.0203 195.2579
  A 2.91 2.41 89.1 0 0 121.4757 198.1296"
/>
<path stroke="#805735" vector-effect="non-scaling-stroke" d="
  M 141.1599 203.5917
  A 0.18 0.18 0.0 0 0 140.9806 203.4111
  L 117.4607 203.3290
  A 0.18 0.18 0.0 0 0 117.2801 203.5083
  L 117.2801 203.5083
  A 0.18 0.18 0.0 0 0 117.4594 203.6889
  L 140.9793 203.7710
  A 0.18 0.18 0.0 0 0 141.1599 203.5917
  L 141.1599 203.5917"
/>
</g>
<path fill="#5774cd" d="
  M 141.89 39.31
  Q 141.74 40.00 141.95 40.56
  Q 142.16 41.14 142.58 40.69
  L 145.71 37.33
  Q 150.48 36.56 152.48 41.01
  Q 156.19 49.27 151.52 56.01
  Q 149.56 58.82 145.81 57.96
  Q 143.84 56.72 142.67 54.98
  Q 142.36 54.51 141.92 54.85
  Q 141.40 55.24 141.82 56.61
  C 140.08 56.29 139.58 57.76 137.91 58.44
  L 135.08 58.65
  Q 129.99 54.52 130.34 49.01
  Q 130.37 50.55 131.47 51.51
  A 2.09 1.97 -81.3 0 1 132.01 52.29
  Q 133.13 55.15 135.24 56.35
  C 138.76 58.37 141.51 54.19 142.48 51.26
  Q 143.14 49.26 142.06 44.43
  Q 140.80 38.77 135.67 38.34
  Q 134.64 38.66 133.19 40.19
  Q 132.88 40.52 131.94 39.96
  Q 133.02 38.41 135.13 36.93
  Q 138.03 36.54 141.89 39.31
  Z
  M 152.12 52.12
  Q 154.39 45.50 150.79 40.66
  Q 149.31 38.68 146.63 38.55
  Q 146.38 38.54 146.36 38.79
  L 146.32 39.20
  Q 146.30 39.45 146.56 39.47
  C 152.80 40.04 153.42 53.97 146.88 56.23
  Q 146.56 56.34 146.63 56.68
  L 146.68 56.92
  Q 146.70 57.01 146.79 57.00
  Q 150.63 56.48 152.12 52.12
  Z"
/>
<path fill="#010204" d="
  M 135.13 36.93
  Q 133.02 38.41 131.94 39.96
  Q 129.80 44.08 130.34 49.01
  Q 129.99 54.52 135.08 58.65
  C 128.05 57.50 128.23 50.08 128.53 44.32
  Q 129.25 43.29 129.24 42.02
  L 131.09 39.08
  Q 132.68 36.93 135.13 36.93
  Z"
/>
<path fill="#010204" d="
  M 145.71 37.33
  L 142.58 40.69
  Q 142.16 41.14 141.95 40.56
  Q 141.74 40.00 141.89 39.31
  Q 143.68 37.42 145.71 37.33
  Z"
/>
<path fill="#9f8ced" d="
  M 118.64 41.72
  Q 115.53 42.21 113.23 41.14
  A 0.79 0.79 0.0 0 0 112.10 41.87
  Q 112.12 43.19 111.63 44.38
  Q 111.21 45.40 110.20 44.98
  Q 107.77 43.96 107.09 45.15
  Q 107.50 40.75 108.81 39.58
  Q 114.47 34.54 118.64 41.72
  Z"
/>
<path fill="#98ade6" d="
  M 135.67 38.34
  Q 139.49 40.36 140.41 43.48
  C 141.66 47.72 141.27 55.91 135.24 56.35
  Q 133.13 55.15 132.01 52.29
  A 2.09 1.97 -81.3 0 0 131.47 51.51
  Q 130.37 50.55 130.34 49.01
  Q 129.80 44.08 131.94 39.96
  Q 132.88 40.52 133.19 40.19
  Q 134.64 38.66 135.67 38.34
  Z"
/>
<path fill="#ffffff" d="
  M 135.67 38.34
  Q 140.80 38.77 142.06 44.43
  Q 143.14 49.26 142.48 51.26
  C 141.51 54.19 138.76 58.37 135.24 56.35
  C 141.27 55.91 141.66 47.72 140.41 43.48
  Q 139.49 40.36 135.67 38.34
  Z"
/>
<path fill="#ffffff" d="
  M 152.12 52.12
  Q 150.63 56.48 146.79 57.00
  Q 146.70 57.01 146.68 56.92
  L 146.63 56.68
  Q 146.56 56.34 146.88 56.23
  C 153.42 53.97 152.80 40.04 146.56 39.47
  Q 146.30 39.45 146.32 39.20
  L 146.36 38.79
  Q 146.38 38.54 146.63 38.55
  Q 149.31 38.68 150.79 40.66
  Q 154.39 45.50 152.12 52.12
  Z"
/>
<path fill="#98ade6" d="
  M 131.09 39.08
  L 129.24 42.02
  Q 128.20 42.36 128.15 43.52
  L 128.11 44.17
  Q 128.02 45.55 127.37 44.23
  Q 127.34 44.18 127.33 43.69
  L 129.16 39.87
  L 131.09 39.08
  Z"
/>
<path fill="#31319b" d="
  M 129.16 39.87
  L 127.33 43.69
  C 125.66 47.49 126.75 49.73 127.52 53.15
  Q 127.63 53.65 128.00 54.03
  Q 128.63 54.67 128.84 55.53
  A 0.23 0.23 0.0 0 1 128.45 55.74
  Q 127.98 55.25 127.38 55.06
  Q 126.85 54.91 126.85 55.46
  Q 126.85 55.82 126.91 56.18
  Q 127.11 57.31 126.69 56.26
  L 126.44 55.62
  Q 126.26 55.14 125.86 54.83
  Q 124.64 53.88 122.79 53.69
  Q 122.08 52.96 120.49 52.96
  Q 120.45 50.25 121.92 47.18
  Q 122.30 46.38 121.64 46.01
  Q 121.32 45.83 121.54 45.53
  Q 121.66 45.37 121.86 45.31
  A 0.58 0.57 -13.6 0 0 122.26 44.66
  Q 122.13 43.99 121.50 43.81
  Q 121.05 43.68 121.16 43.24
  L 121.36 42.38
  L 129.16 39.87
  Z"
/>
<path fill="#f49f8e" d="
  M 118.64 41.72
  Q 118.19 42.02 118.41 42.24
  Q 118.66 42.49 118.98 42.34
  Q 120.11 41.78 121.36 42.38
  L 121.16 43.24
  Q 121.05 43.68 121.50 43.81
  Q 122.13 43.99 122.26 44.66
  A 0.58 0.57 -13.6 0 1 121.86 45.31
  Q 121.66 45.37 121.54 45.53
  Q 121.32 45.83 121.64 46.01
  Q 122.30 46.38 121.92 47.18
  Q 120.45 50.25 120.49 52.96
  Q 120.32 53.24 120.46 53.56
  Q 120.99 56.60 120.23 59.22
  A 0.61 0.60 -64.1 0 1 119.29 59.55
  Q 116.30 57.36 115.20 54.11
  Q 116.28 53.02 115.25 52.20
  Q 114.86 51.88 113.52 51.92
  L 112.04 51.04
  Q 111.54 50.75 111.62 51.32
  Q 111.77 52.33 112.71 52.89
  Q 113.01 53.41 112.71 53.79
  Q 112.39 54.18 111.93 53.97
  Q 109.32 52.76 109.10 50.54
  L 107.09 45.15
  Q 107.77 43.96 110.20 44.98
  Q 111.21 45.40 111.63 44.38
  Q 112.12 43.19 112.10 41.87
  A 0.79 0.79 0.0 0 1 113.23 41.14
  Q 115.53 42.21 118.64 41.72
  Z
  M 115.01 46.55
  Q 115.36 47.34 114.84 48.27
  Q 114.50 48.88 114.71 49.29
  Q 115.00 49.85 115.32 49.30
  Q 116.40 47.47 115.43 46.00
  L 114.33 44.31
  Q 114.09 43.94 113.72 44.20
  Q 112.86 44.83 113.02 45.92
  Q 113.09 46.37 113.55 46.41
  L 115.01 46.55
  Z
  M 117.07 45.39
  C 117.05 45.00 117.11 44.64 117.01 44.31
  A 0.42 0.42 0.0 0 0 116.22 44.27
  Q 115.94 44.97 115.95 45.76
  A 0.40 0.39 -14.4 0 0 116.53 46.10
  Q 117.09 45.78 117.07 45.39
  Z
  M 119.23 45.36
  Q 119.12 45.46 119.32 45.75
  L 120.15 47.00
  Q 120.23 47.12 120.37 47.06
  L 120.64 46.95
  Q 120.71 46.93 120.68 46.87
  Q 120.24 46.01 119.58 45.36
  Q 119.41 45.21 119.24 45.35
  L 119.23 45.36
  Z"
/>
<path fill="#5774cd" d="
  M 129.24 42.02
  Q 129.25 43.29 128.53 44.32
  L 128.15 43.52
  Q 128.20 42.36 129.24 42.02
  Z"
/>
<path fill="#59d3c2" d="
  M 128.15 43.52
  L 128.53 44.32
  C 128.23 50.08 128.05 57.50 135.08 58.65
  L 137.91 58.44
  Q 141.27 63.92 143.50 70.74
  C 147.33 82.47 137.61 92.21 127.05 82.04
  Q 126.56 81.57 126.68 82.24
  Q 127.53 86.75 123.82 87.77
  Q 120.83 87.75 117.49 87.88
  Q 117.22 87.89 117.03 87.77
  Q 116.79 87.61 116.63 87.37
  Q 116.36 86.98 116.09 87.37
  Q 115.79 87.83 115.65 88.47
  Q 115.51 88.62 115.30 88.54
  L 115.04 88.21
  Q 114.75 87.83 114.79 87.35
  Q 114.85 86.76 114.72 86.18
  Q 114.52 85.21 114.27 86.17
  L 114.10 86.80
  Q 113.97 87.31 113.56 87.67
  Q 112.90 88.24 112.84 89.50
  Q 112.62 94.97 112.68 100.44
  Q 112.68 100.62 112.49 100.62
  L 112.49 100.62
  Q 112.38 100.62 112.37 100.50
  L 112.20 88.54
  Q 112.19 88.05 111.71 88.04
  Q 108.33 87.93 106.25 88.20
  Q 105.61 88.29 105.71 88.99
  Q 105.14 89.06 105.12 89.30
  Q 105.29 88.15 104.50 88.23
  Q 102.29 88.46 99.99 88.56
  Q 99.35 88.35 99.10 87.55
  Q 98.95 87.06 98.43 87.09
  Q 98.21 87.10 97.98 87.20
  Q 97.67 87.34 97.47 87.35
  C 91.12 87.69 88.95 81.78 89.43 76.51
  Q 90.28 67.15 94.94 57.19
  Q 98.04 50.56 104.98 52.54
  Q 105.48 52.68 105.92 52.42
  L 109.10 50.54
  Q 109.32 52.76 111.93 53.97
  Q 112.39 54.18 112.71 53.79
  Q 113.01 53.41 112.71 52.89
  L 113.53 52.67
  L 115.20 54.11
  Q 116.30 57.36 119.29 59.55
  A 0.61 0.60 -64.1 0 0 120.23 59.22
  Q 120.99 56.60 120.46 53.56
  Q 121.59 53.85 122.79 53.69
  Q 124.64 53.88 125.86 54.83
  Q 126.26 55.14 126.44 55.62
  L 126.69 56.26
  Q 127.11 57.31 126.91 56.18
  Q 126.85 55.82 126.85 55.46
  Q 126.85 54.91 127.38 55.06
  Q 127.98 55.25 128.45 55.74
  A 0.23 0.23 0.0 0 0 128.84 55.53
  Q 128.63 54.67 128.00 54.03
  Q 127.63 53.65 127.52 53.15
  C 126.75 49.73 125.66 47.49 127.33 43.69
  Q 127.34 44.18 127.37 44.23
  Q 128.02 45.55 128.11 44.17
  L 128.15 43.52
  Z"
/>
<path fill="#010204" d="
  M 115.43 46.00
  Q 115.18 46.51 115.01 46.55
  L 113.55 46.41
  Q 113.09 46.37 113.02 45.92
  Q 112.86 44.83 113.72 44.20
  Q 114.09 43.94 114.33 44.31
  L 115.43 46.00
  Z"
/>
<path fill="#31319b" d="
  M 117.07 45.39
  Q 117.09 45.78 116.53 46.10
  A 0.40 0.39 -14.4 0 1 115.95 45.76
  Q 115.94 44.97 116.22 44.27
  A 0.42 0.42 0.0 0 1 117.01 44.31
  C 117.11 44.64 117.05 45.00 117.07 45.39
  Z"
/>
<path fill="#010204" d="
  M 119.58 45.36
  Q 120.24 46.01 120.68 46.87
  Q 120.71 46.93 120.64 46.95
  L 120.37 47.06
  Q 120.23 47.12 120.15 47.00
  L 119.32 45.75
  Q 119.12 45.46 119.23 45.36
  L 119.24 45.35
  Q 119.41 45.21 119.58 45.36
  Z"
/>
<path fill="#31319b" d="
  M 115.43 46.00
  Q 116.40 47.47 115.32 49.30
  Q 115.00 49.85 114.71 49.29
  Q 114.50 48.88 114.84 48.27
  Q 115.36 47.34 115.01 46.55
  Q 115.18 46.51 115.43 46.00
  Z"
/>
<path fill="#010204" d="
  M 113.52 51.92
  Q 113.06 52.02 113.53 52.67
  L 112.71 52.89
  Q 111.77 52.33 111.62 51.32
  Q 111.54 50.75 112.04 51.04
  L 113.52 51.92
  Z"
/>
<path fill="#010204" d="
  M 145.81 57.96
  Q 143.88 58.31 141.82 56.61
  Q 141.40 55.24 141.92 54.85
  Q 142.36 54.51 142.67 54.98
  Q 143.84 56.72 145.81 57.96
  Z"
/>
<path fill="#31319b" d="
  M 115.30 88.54
  L 115.34 100.46
  Q 115.34 100.64 115.52 100.64
  L 115.53 100.64
  Q 115.71 100.64 115.71 100.46
  L 115.65 88.47
  Q 115.79 87.83 116.09 87.37
  Q 116.36 86.98 116.63 87.37
  Q 116.79 87.61 117.03 87.77
  Q 117.22 87.89 117.49 87.88
  Q 120.83 87.75 123.82 87.77
  L 128.79 177.32
  Q 128.82 177.84 128.31 177.93
  L 127.06 178.14
  Q 126.28 177.86 125.47 178.26
  Q 124.41 178.07 123.57 178.33
  Q 123.02 178.22 122.38 178.31
  Q 121.26 178.04 120.53 178.51
  Q 120.05 178.22 119.46 178.48
  Q 118.27 178.06 117.33 178.37
  Q 116.59 178.30 116.03 178.61
  Q 115.22 178.27 113.77 178.29
  Q 113.23 178.30 113.18 177.76
  L 109.60 136.34
  Q 109.37 133.71 108.85 136.30
  L 100.32 178.96
  Q 100.23 179.40 99.79 179.31
  L 96.05 178.57
  L 94.16 177.88
  L 93.21 177.62
  L 91.26 177.26
  Q 90.58 176.69 89.99 176.78
  L 88.27 176.31
  Q 87.44 175.84 86.84 176.03
  Q 85.92 175.50 85.37 175.76
  L 84.17 174.95
  Q 83.77 174.68 83.86 174.20
  L 100.26 89.59
  Q 100.31 89.34 100.48 89.15
  Q 100.61 89.01 100.75 88.88
  A 0.06 0.06 0.0 0 0 100.72 88.78
  L 99.99 88.56
  Q 102.29 88.46 104.50 88.23
  Q 105.29 88.15 105.12 89.30
  C 103.70 94.01 104.18 99.90 99.41 102.67
  Q 99.22 102.78 99.31 102.98
  L 99.31 102.98
  Q 99.41 103.18 99.61 103.09
  C 104.28 101.07 104.51 93.51 105.71 88.99
  Q 105.61 88.29 106.25 88.20
  Q 108.33 87.93 111.71 88.04
  Q 112.19 88.05 112.20 88.54
  L 112.37 100.50
  Q 112.38 100.62 112.49 100.62
  L 112.49 100.62
  Q 112.68 100.62 112.68 100.44
  Q 112.62 94.97 112.84 89.50
  Q 112.90 88.24 113.56 87.67
  Q 113.97 87.31 114.10 86.80
  L 114.27 86.17
  Q 114.52 85.21 114.72 86.18
  Q 114.85 86.76 114.79 87.35
  Q 114.75 87.83 115.04 88.21
  L 115.30 88.54
  Z
  M 111.31 121.61
  Q 111.11 122.02 111.39 122.00
  A 0.12 0.12 0.0 0 0 111.49 121.91
  L 112.89 112.45
  Q 112.92 112.28 112.75 112.29
  L 112.50 112.31
  Q 112.35 112.32 112.35 112.47
  C 112.42 115.26 111.06 117.96 111.40 121.07
  Q 111.43 121.35 111.31 121.61
  Z
  M 110.3845 128.0546
  A 1.69 0.25 94.6 0 0 110.7692 126.3900
  A 1.69 0.25 94.6 0 0 110.6555 124.6854
  A 1.69 0.25 94.6 0 0 110.2708 126.3500
  A 1.69 0.25 94.6 0 0 110.3845 128.0546
  Z
  M 109.4748 133.7195
  A 1.26 0.21 91.6 0 0 109.7199 132.4659
  A 1.26 0.21 91.6 0 0 109.5452 131.2005
  A 1.26 0.21 91.6 0 0 109.3001 132.4541
  A 1.26 0.21 91.6 0 0 109.4748 133.7195
  Z"
/>
<path fill="#9f8ced" d="
  M 115.30 88.54
  Q 115.51 88.62 115.65 88.47
  L 115.71 100.46
  Q 115.71 100.64 115.53 100.64
  L 115.52 100.64
  Q 115.34 100.64 115.34 100.46
  L 115.30 88.54
  Z"
/>
<path fill="#98ade6" d="
  M 105.71 88.99
  C 104.51 93.51 104.28 101.07 99.61 103.09
  Q 99.41 103.18 99.31 102.98
  L 99.31 102.98
  Q 99.22 102.78 99.41 102.67
  C 104.18 99.90 103.70 94.01 105.12 89.30
  Q 105.14 89.06 105.71 88.99
  Z"
/>
<path fill="#98ade6" d="
  M 111.40 121.07
  C 111.06 117.96 112.42 115.26 112.35 112.47
  Q 112.35 112.32 112.50 112.31
  L 112.75 112.29
  Q 112.92 112.28 112.89 112.45
  L 111.49 121.91
  A 0.12 0.12 0.0 0 1 111.39 122.00
  Q 111.11 122.02 111.31 121.61
  Q 111.43 121.35 111.40 121.07
  Z"
/>
<ellipse fill="#98ade6" cx="0.00" cy="0.00" transform="translate(110.52,126.37) rotate(94.6)" rx="1.69" ry="0.25"/>
<ellipse fill="#98ade6" cx="0.00" cy="0.00" transform="translate(109.51,132.46) rotate(91.6)" rx="1.26" ry="0.21"/>
<path fill="#9f8ced" d="
  M 85.37 175.76
  Q 85.92 175.50 86.84 176.03
  Q 86.08 181.16 84.86 186.25
  Q 84.52 187.64 83.29 187.34
  Q 83.26 187.57 82.93 187.31
  L 85.37 175.76
  Z"
/>
<path fill="#98ade6" d="
  M 86.84 176.03
  Q 87.44 175.84 88.27 176.31
  Q 88.43 176.72 88.00 177.08
  Q 87.63 177.38 87.55 177.86
  L 86.00 187.67
  L 83.29 187.34
  Q 84.52 187.64 84.86 186.25
  Q 86.08 181.16 86.84 176.03
  Z"
/>
<path fill="#9f8ced" d="
  M 88.27 176.31
  L 89.99 176.78
  L 88.05 187.82
  Q 87.61 188.26 86.00 187.67
  L 87.55 177.86
  Q 87.63 177.38 88.00 177.08
  Q 88.43 176.72 88.27 176.31
  Z"
/>
<path fill="#98ade6" d="
  M 89.99 176.78
  Q 90.58 176.69 91.26 177.26
  L 88.88 187.80
  Q 88.60 187.91 88.05 187.82
  L 89.99 176.78
  Z"
/>
<path fill="#9f8ced" d="
  M 91.26 177.26
  L 93.21 177.62
  L 91.22 188.23
  Q 90.16 188.82 88.88 187.80
  L 91.26 177.26
  Z"
/>
<path fill="#98ade6" d="
  M 93.21 177.62
  L 94.16 177.88
  L 91.95 188.32
  Q 91.62 188.45 91.22 188.23
  L 93.21 177.62
  Z"
/>
<path fill="#9f8ced" d="
  M 94.16 177.88
  L 96.05 178.57
  Q 95.58 184.14 93.49 188.85
  L 91.95 188.32
  L 94.16 177.88
  Z"
/>
<path fill="#9f8ced" d="
  M 127.06 178.14
  L 127.68 188.25
  Q 126.85 188.81 126.16 188.64
  C 125.53 186.31 124.16 180.24 125.47 178.26
  Q 126.28 177.86 127.06 178.14
  Z"
/>
<path fill="#9f8ced" d="
  M 117.33 178.37
  Q 118.04 182.71 118.13 189.25
  Q 118.13 189.82 118.71 189.58
  Q 117.71 189.86 116.76 189.79
  L 116.03 178.61
  Q 116.59 178.30 117.33 178.37
  Z"
/>
<path fill="#98ade6" d="
  M 117.33 178.37
  Q 118.27 178.06 119.46 178.48
  Q 119.37 178.85 119.09 179.18
  A 1.28 1.27 64.9 0 0 118.78 180.04
  L 119.00 189.53
  Q 118.86 189.55 118.71 189.58
  Q 118.13 189.82 118.13 189.25
  Q 118.04 182.71 117.33 178.37
  Z"
/>
<path fill="#98ade6" d="
  M 122.38 178.31
  L 122.13 187.92
  Q 122.13 188.04 122.00 188.05
  L 121.72 188.06
  A 0.34 0.34 0.0 0 1 121.36 187.73
  L 121.20 179.93
  Q 121.19 179.49 120.90 179.17
  Q 120.62 178.87 120.53 178.51
  Q 121.26 178.04 122.38 178.31
  Z"
/>
<path fill="#9f8ced" d="
  M 122.38 178.31
  Q 123.02 178.22 123.57 178.33
  L 124.87 188.83
  L 119.00 189.53
  L 118.78 180.04
  A 1.28 1.27 64.9 0 1 119.09 179.18
  Q 119.37 178.85 119.46 178.48
  Q 120.05 178.22 120.53 178.51
  Q 120.62 178.87 120.90 179.17
  Q 121.19 179.49 121.20 179.93
  L 121.36 187.73
  A 0.34 0.34 0.0 0 0 121.72 188.06
  L 122.00 188.05
  Q 122.13 188.04 122.13 187.92
  L 122.38 178.31
  Z"
/>
<path fill="#98ade6" d="
  M 123.57 178.33
  Q 124.41 178.07 125.47 178.26
  C 124.16 180.24 125.53 186.31 126.16 188.64
  Q 125.49 188.59 124.87 188.83
  L 123.57 178.33
  Z"
/>
<path fill="#ffab66" d="
  M 82.93 187.31
  Q 83.26 187.57 83.29 187.34
  L 86.00 187.67
  Q 87.61 188.26 88.05 187.82
  Q 88.60 187.91 88.88 187.80
  Q 90.16 188.82 91.22 188.23
  Q 91.62 188.45 91.95 188.32
  L 93.49 188.85
  Q 96.65 188.37 94.03 192.85
  Q 93.78 193.27 93.81 193.75
  Q 93.88 194.92 92.93 195.41
  Q 92.18 195.79 93.00 195.99
  L 95.01 196.49
  Q 95.58 197.34 98.19 196.69
  Q 101.79 196.88 104.06 199.07
  A 1.24 1.22 -71.1 0 1 104.44 199.86
  L 104.98 205.73
  Q 105.03 206.24 104.52 206.25
  L 77.98 206.79
  Q 77.38 206.80 77.50 206.22
  L 81.07 187.77
  Q 81.17 187.23 81.72 187.25
  L 82.93 187.31
  Z
  M 83.9725 196.7051
  A 2.97 2.09 102.0 0 0 86.6343 194.2345
  A 2.97 2.09 102.0 0 0 85.2075 190.8949
  A 2.97 2.09 102.0 0 0 82.5457 193.3655
  A 2.97 2.09 102.0 0 0 83.9725 196.7051
  Z
  M 91.48 192.77
  Q 92.13 193.21 92.90 193.38
  Q 93.32 193.47 92.98 193.20
  Q 92.05 192.48 90.55 192.37
  Q 90.32 192.36 90.44 192.54
  Q 90.59 192.77 90.93 192.68
  A 0.65 0.62 52.8 0 1 91.48 192.77
  Z
  M 91.30 196.91
  Q 91.31 196.77 91.31 196.64
  Q 91.29 196.26 90.93 196.40
  Q 90.18 196.68 89.63 197.27
  Q 88.84 198.10 89.90 197.67
  L 90.47 197.45
  Q 90.94 197.26 91.43 197.36
  Q 93.06 197.68 94.61 197.08
  A 0.07 0.07 0.0 0 0 94.56 196.94
  Q 93.02 197.41 91.38 197.02
  Q 91.29 197.00 91.30 196.91
  Z
  M 104.4099 203.6138
  A 0.16 0.16 0.0 0 1 104.2494 203.7732
  L 79.4695 203.6867
  A 0.16 0.16 0.0 0 1 79.3101 203.5262
  L 79.3101 203.5262
  A 0.16 0.16 0.0 0 1 79.4706 203.3668
  L 104.2505 203.4533
  A 0.16 0.16 0.0 0 1 104.4099 203.6138
  L 104.4099 203.6138
  Z"
/>
<path fill="#ffab66" d="
  M 127.68 188.25
  Q 128.91 188.55 128.94 189.75
  Q 129.01 192.44 129.31 194.95
  L 129.35 195.92
  Q 129.37 196.42 128.89 196.53
  Q 128.01 196.74 127.50 197.45
  Q 127.17 197.90 127.70 197.75
  L 131.96 196.50
  L 138.78 197.78
  Q 140.60 198.12 140.96 199.94
  L 141.83 204.36
  Q 142.20 206.24 140.28 206.24
  L 117.49 206.25
  Q 116.98 206.25 116.94 205.75
  L 115.59 191.01
  Q 115.55 190.54 115.95 190.29
  L 116.76 189.79
  Q 117.71 189.86 118.71 189.58
  Q 118.86 189.55 119.00 189.53
  L 124.87 188.83
  Q 125.49 188.59 126.16 188.64
  Q 126.85 188.81 127.68 188.25
  Z
  M 121.4757 198.1296
  A 2.91 2.41 89.1 0 0 123.8397 195.1821
  A 2.91 2.41 89.1 0 0 121.3843 192.3104
  A 2.91 2.41 89.1 0 0 119.0203 195.2579
  A 2.91 2.41 89.1 0 0 121.4757 198.1296
  Z
  M 141.1599 203.5917
  A 0.18 0.18 0.0 0 1 140.9793 203.7710
  L 117.4594 203.6889
  A 0.18 0.18 0.0 0 1 117.2801 203.5083
  L 117.2801 203.5083
  A 0.18 0.18 0.0 0 1 117.4607 203.3290
  L 140.9806 203.4111
  A 0.18 0.18 0.0 0 1 141.1599 203.5917
  L 141.1599 203.5917
  Z"
/>
<ellipse fill="#ffffff" cx="0.00" cy="0.00" transform="translate(84.59,193.80) rotate(102.0)" rx="2.97" ry="2.09"/>
<path fill="#010204" d="
  M 90.93 192.68
  Q 90.59 192.77 90.44 192.54
  Q 90.32 192.36 90.55 192.37
  Q 92.05 192.48 92.98 193.20
  Q 93.32 193.47 92.90 193.38
  Q 92.13 193.21 91.48 192.77
  A 0.65 0.62 52.8 0 0 90.93 192.68
  Z"
/>
<ellipse fill="#ffffff" cx="0.00" cy="0.00" transform="translate(121.43,195.22) rotate(89.1)" rx="2.91" ry="2.41"/>
<path fill="#010204" d="
  M 131.98 193.78
  L 130.93 194.44
  Q 130.57 194.67 130.43 194.26
  Q 130.39 194.12 130.30 194.01
  Q 130.18 193.85 130.35 193.73
  Q 131.01 193.25 131.81 193.23
  A 0.30 0.30 0.0 0 1 131.98 193.78
  Z"
/>
<path fill="#010204" d="
  M 129.31 194.95
  L 129.95 195.94
  Q 130.24 196.37 130.74 196.26
  Q 131.59 196.08 131.96 196.50
  L 127.70 197.75
  Q 127.17 197.90 127.50 197.45
  Q 128.01 196.74 128.89 196.53
  Q 129.37 196.42 129.35 195.92
  L 129.31 194.95
  Z"
/>
<path fill="#010204" d="
  M 91.38 197.02
  Q 93.02 197.41 94.56 196.94
  A 0.07 0.07 0.0 0 1 94.61 197.08
  Q 93.06 197.68 91.43 197.36
  Q 90.94 197.26 90.47 197.45
  L 89.90 197.67
  Q 88.84 198.10 89.63 197.27
  Q 90.18 196.68 90.93 196.40
  Q 91.29 196.26 91.31 196.64
  Q 91.31 196.77 91.30 196.91
  Q 91.29 197.00 91.38 197.02
  Z"
/>
<path fill="#010204" d="
  M 95.01 196.49
  L 98.19 196.69
  Q 95.58 197.34 95.01 196.49
  Z"
/>
<rect fill="#010204" x="-12.55" y="-0.16" transform="translate(91.86,203.57) rotate(0.2)" width="25.10" height="0.32" rx="0.16"/>
<rect fill="#010204" x="-11.94" y="-0.18" transform="translate(129.22,203.55) rotate(0.2)" width="23.88" height="0.36" rx="0.18"/>
</svg>
