  <svg
    xmlns="http://www.w3.org/2000/svg"
    width="48"
    height="48"
    viewBox="0 0 49 49"
    fill="none"
  >
    <path
      fill-rule="evenodd"
      clip-rule="evenodd"
      d="M7.79297 12.7135C7.79297 11.388 8.86749 10.3135 10.193 10.3135H38.993C40.3185 10.3135 41.393 11.388 41.393 12.7135C41.393 14.039 40.3185 15.1135 38.993 15.1135H10.193C8.86749 15.1135 7.79297 14.039 7.79297 12.7135Z"
      fill="#F7F7F7"
    />
    <path
      fill-rule="evenodd"
      clip-rule="evenodd"
      d="M7.79297 24.7135C7.79297 23.388 8.86749 22.3135 10.193 22.3135H38.993C40.3185 22.3135 41.393 23.388 41.393 24.7135C41.393 26.039 40.3185 27.1135 38.993 27.1135H10.193C8.86749 27.1135 7.79297 26.039 7.79297 24.7135Z"
      fill="#F7F7F7"
    />
    <path
      fill-rule="evenodd"
      clip-rule="evenodd"
      d="M7.79297 36.7135C7.79297 35.388 8.86749 34.3135 10.193 34.3135H38.993C40.3185 34.3135 41.393 35.388 41.393 36.7135C41.393 38.039 40.3185 39.1135 38.993 39.1135H10.193C8.86749 39.1135 7.79297 38.039 7.79297 36.7135Z"
      fill="#F7F7F7"
    />
  </svg>