<?xml version="1.0" encoding="UTF-8" standalone="no"?>
<!DOCTYPE svg PUBLIC "-//W3C//DTD SVG 1.1//EN" "http://www.w3.org/Graphics/SVG/1.1/DTD/svg11.dtd">
<svg xmlns="http://www.w3.org/2000/svg" version="1.1" viewBox="0.00 0.00 850.00 575.00" width="850.00" height="575.00">
<path fill="#2c3b57" fill-opacity="0.341" d="
  M 837.16 16.74
  C 838.12 17.77 839.12 18.55 839.75 19.73
  C 842.37 24.64 839.61 30.84 834.21 31.99
  Q 833.49 32.14 827.76 32.29
  Q 811.20 32.72 806.00 32.16
  C 787.94 30.22 789.91 2.36 807.44 4.86
  C 808.33 4.99 809.71 5.62 810.92 5.78
  A 0.75 0.74 -72.4 0 0 811.66 5.39
  Q 813.21 2.36 815.74 1.51
  Q 824.52 -1.44 828.59 6.75
  A 1.42 1.42 0.0 0 0 830.00 7.52
  C 835.05 7.00 838.22 10.92 836.94 15.86
  Q 836.81 16.36 837.16 16.74
  Z"
/>
<ellipse fill="#2c3b57" fill-opacity="0.341" cx="0.00" cy="0.00" transform="translate(447.23,126.05) rotate(-25.0)" rx="1.78" ry="0.51"/>
<path fill="#2c3b57" fill-opacity="0.341" d="
  M 452.87 129.38
  Q 452.07 128.62 451.85 127.53
  A 0.40 0.40 0.0 0 1 452.57 127.23
  L 454.16 129.64
  A 0.31 0.31 0.0 0 1 454.00 130.11
  Q 453.58 130.27 453.38 129.87
  Q 453.38 129.87 452.87 129.38
  Z"
/>
<ellipse fill="#2c3b57" fill-opacity="0.341" cx="0.00" cy="0.00" transform="translate(440.44,128.50) rotate(-15.9)" rx="1.86" ry="0.49"/>
<path fill="#2c3b57" fill-opacity="0.341" d="
  M 455.91 133.25
  Q 455.58 132.45 456.30 132.93
  Q 457.16 133.50 457.77 134.74
  Q 458.03 135.28 457.90 135.67
  A 0.24 0.24 0.0 0 1 457.49 135.76
  Q 456.47 134.65 455.91 133.25
  Z"
/>
<path fill="#2c3b57" fill-opacity="0.341" d="
  M 469.50 152.96
  L 468.03 150.55
  Q 467.67 149.96 468.31 150.24
  Q 470.31 151.14 470.25 152.77
  Q 470.21 154.12 469.50 152.96
  Z"
/>
<path fill="#2c3b57" fill-opacity="0.341" d="
  M 440.55 150.38
  Q 441.02 151.06 441.01 151.98
  A 0.23 0.23 0.0 0 1 440.63 152.14
  Q 439.94 151.47 440.13 150.47
  A 0.23 0.23 0.0 0 1 440.55 150.38
  Z"
/>
<ellipse fill="#084174" fill-opacity="0.514" cx="0.00" cy="0.00" transform="translate(498.35,152.26) rotate(-19.0)" rx="1.40" ry="0.34"/>
<path fill="#2c3b57" fill-opacity="0.341" d="
  M 491.63 154.35
  Q 492.17 153.78 493.03 153.91
  Q 493.81 154.02 493.17 154.48
  Q 491.75 155.49 490.03 155.40
  A 0.25 0.25 0.0 0 1 489.99 154.90
  L 490.99 154.71
  A 1.23 1.20 14.8 0 0 491.63 154.35
  Z"
/>
<path fill="#2c3b57" fill-opacity="0.341" d="
  M 472.46 155.51
  Q 474.12 156.81 474.67 158.81
  A 0.13 0.12 63.8 0 1 474.63 158.94
  Q 474.41 159.10 474.20 159.12
  Q 473.89 159.15 473.72 158.90
  L 471.83 156.23
  Q 471.68 156.01 471.83 155.80
  L 472.00 155.57
  A 0.33 0.33 0.0 0 1 472.46 155.51
  Z"
/>
<path fill="#2c3b57" fill-opacity="0.341" d="
  M 400.38 163.46
  Q 399.91 163.74 399.32 163.62
  A 0.28 0.28 0.0 0 1 399.22 163.11
  Q 400.07 162.55 400.92 163.10
  A 0.16 0.15 -31.8 0 1 400.85 163.38
  Q 400.69 163.40 400.59 163.40
  Q 400.48 163.40 400.38 163.46
  Z"
/>
<path fill="#2c3b57" fill-opacity="0.341" d="
  M 439.25 173.36
  L 440.96 172.79
  Q 441.78 172.52 441.30 173.24
  Q 440.59 174.32 439.26 173.93
  A 0.30 0.30 0.0 0 1 439.25 173.36
  Z"
/>
<path fill="#2c3b57" fill-opacity="0.341" d="
  M 392.65 177.82
  Q 391.94 177.32 392.13 176.44
  Q 392.27 175.76 392.74 176.27
  Q 393.33 176.94 393.12 177.66
  Q 392.99 178.06 392.65 177.82
  Z"
/>
<path fill="#2c3b57" fill-opacity="0.341" d="
  M 414.47 177.50
  Q 414.12 177.45 414.09 177.16
  Q 414.05 176.72 414.46 176.87
  Q 415.52 177.26 415.98 178.22
  Q 416.27 178.82 415.64 178.59
  Q 414.83 178.30 414.47 177.50
  Z"
/>
<path fill="#2c3b57" fill-opacity="0.341" d="
  M 427.69 177.64
  Q 427.87 177.59 428.07 177.59
  Q 428.51 177.59 428.27 177.96
  Q 427.51 179.12 426.43 178.99
  Q 424.57 178.77 426.27 177.98
  Q 426.39 177.92 426.76 177.89
  Q 426.85 177.89 427.69 177.64
  Z"
/>
<path fill="#2c3b57" fill-opacity="0.341" d="
  M 419.84 181.36
  Q 419.59 181.44 419.25 181.37
  A 0.29 0.28 31.8 0 1 419.13 180.87
  Q 420.15 180.04 421.47 179.87
  A 0.35 0.35 0.0 0 1 421.78 180.45
  Q 421.34 180.95 420.73 181.08
  A 1.05 0.01 -18.1 0 0 419.84 181.36
  Z"
/>
<path fill="#2c3b57" fill-opacity="0.341" d="
  M 395.07 184.59
  Q 394.50 183.82 394.33 182.90
  A 0.43 0.42 68.1 0 1 394.50 182.49
  Q 394.82 182.27 395.19 182.51
  Q 395.35 182.61 395.44 182.84
  Q 395.81 183.77 396.11 184.76
  Q 396.15 184.90 396.14 185.02
  Q 396.12 185.34 395.80 185.34
  Q 395.01 185.34 395.13 184.98
  Q 395.20 184.77 395.07 184.59
  Z"
/>
<ellipse fill="#2c3b57" fill-opacity="0.341" cx="0.00" cy="0.00" transform="translate(397.55,190.27) rotate(71.2)" rx="2.02" ry="0.59"/>
<path fill="#2c3b57" fill-opacity="0.341" d="
  M 399.73 195.48
  L 400.95 198.04
  Q 401.14 198.43 400.72 198.57
  L 400.46 198.65
  Q 400.38 198.68 400.33 198.62
  Q 399.06 197.06 399.13 195.60
  Q 399.20 194.36 399.73 195.48
  Z"
/>
<ellipse fill="#2c3b57" fill-opacity="0.341" cx="0.00" cy="0.00" transform="translate(402.41,203.49) rotate(70.9)" rx="2.02" ry="0.53"/>
<ellipse fill="#2c3b57" fill-opacity="0.341" cx="0.00" cy="0.00" transform="translate(408.21,206.06) rotate(1.0)" rx="2.14" ry="0.50"/>
<ellipse fill="#2c3b57" fill-opacity="0.341" cx="0.00" cy="0.00" transform="translate(415.35,206.00) rotate(-1.8)" rx="2.20" ry="0.43"/>
<path fill="#2c3b57" fill-opacity="0.341" d="
  M 463.73 213.77
  Q 464.22 214.66 464.37 215.95
  Q 464.44 216.53 464.00 216.15
  Q 462.80 215.09 463.13 213.85
  Q 463.33 213.05 463.73 213.77
  Z"
/>
<path fill="#2c3b57" fill-opacity="0.341" d="
  M 489.09 216.56
  Q 489.22 216.81 489.21 216.86
  Q 488.99 218.19 488.57 216.91
  Q 488.34 216.23 488.40 215.36
  Q 488.45 214.74 488.87 215.20
  Q 489.23 215.58 489.07 216.02
  Q 488.96 216.30 489.09 216.56
  Z"
/>
<path fill="#2c3b57" fill-opacity="0.341" d="
  M 467.84 227.19
  A 0.33 0.33 0.0 0 1 468.41 226.94
  Q 469.13 227.68 469.06 228.91
  Q 469.02 229.68 468.55 229.07
  Q 467.90 228.25 467.84 227.19
  Z"
/>
<path fill="#196084" fill-opacity="0.616" d="
  M 707.16 244.40
  Q 706.21 245.27 708.54 245.63
  Q 708.88 245.69 708.88 246.04
  L 708.88 250.18
  Q 708.88 250.54 709.10 250.84
  Q 709.23 251.01 709.42 251.08
  Q 709.88 251.25 709.88 251.74
  L 709.88 256.18
  Q 709.88 256.54 710.10 256.84
  Q 710.23 257.01 710.42 257.08
  Q 710.88 257.25 710.88 257.74
  L 710.88 262.18
  Q 710.88 262.54 711.10 262.84
  Q 711.23 263.01 711.42 263.08
  Q 711.88 263.25 711.88 263.74
  L 711.88 268.17
  Q 711.88 268.54 712.09 268.83
  Q 712.22 269.01 712.42 269.08
  Q 712.88 269.25 712.88 269.74
  L 712.88 273.17
  Q 712.88 273.54 713.09 273.83
  Q 713.22 274.01 713.42 274.09
  Q 713.88 274.25 713.88 274.74
  L 713.88 279.17
  Q 713.88 279.53 714.09 279.83
  Q 714.22 280.01 714.42 280.09
  Q 714.88 280.25 714.88 280.74
  L 714.88 285.17
  Q 714.88 285.53 715.09 285.83
  Q 715.22 286.01 715.42 286.09
  Q 715.88 286.25 715.88 286.74
  L 715.88 291.17
  Q 715.88 291.53 716.09 291.83
  Q 716.22 292.01 716.42 292.09
  Q 716.88 292.25 716.88 292.74
  L 716.88 296.18
  Q 716.88 296.54 717.10 296.84
  Q 717.23 297.01 717.42 297.08
  Q 717.88 297.25 717.88 297.74
  L 717.88 301.08
  A 1.57 1.57 0.0 0 1 715.74 302.54
  Q 713.76 301.77 712.41 303.20
  C 689.07 301.64 667.47 301.46 644.46 304.48
  Q 643.71 303.22 642.53 303.34
  Q 642.12 303.39 642.12 302.97
  L 642.12 298.83
  Q 642.12 298.47 641.91 298.18
  Q 641.78 297.99 641.58 297.91
  Q 641.12 297.75 641.12 297.26
  L 641.12 293.83
  Q 641.12 293.47 640.91 293.17
  Q 640.78 292.99 640.58 292.91
  Q 640.12 292.75 640.12 292.26
  L 640.12 287.83
  Q 640.12 287.47 639.91 287.17
  Q 639.78 286.99 639.58 286.91
  Q 639.12 286.75 639.12 286.26
  L 639.12 281.83
  Q 639.12 281.47 638.91 281.17
  Q 638.78 280.99 638.58 280.91
  Q 638.12 280.75 638.12 280.26
  L 638.12 275.83
  Q 638.12 275.47 637.91 275.17
  Q 637.78 274.99 637.58 274.91
  Q 637.12 274.75 637.12 274.26
  L 637.12 270.83
  Q 637.12 270.47 636.91 270.17
  Q 636.78 269.99 636.58 269.91
  Q 636.12 269.75 636.12 269.26
  L 636.12 264.83
  Q 636.12 264.47 635.91 264.18
  Q 635.78 263.99 635.58 263.91
  Q 635.12 263.75 635.12 263.26
  L 635.12 258.83
  Q 635.12 258.47 634.91 258.18
  Q 634.78 257.99 634.58 257.91
  Q 634.12 257.75 634.12 257.26
  L 634.12 252.78
  Q 634.12 252.35 633.75 252.13
  C 632.85 251.59 633.04 248.92 632.73 247.16
  Q 669.96 242.50 707.16 244.40
  Z"
/>
<path fill="#11537e" fill-opacity="0.573" d="
  M 707.16 244.40
  Q 749.78 246.57 791.02 257.46
  Q 790.83 258.74 791.69 258.59
  A 1.01 1.01 0.0 0 1 792.88 259.58
  L 792.88 264.19
  Q 792.88 264.58 793.13 264.88
  Q 793.25 265.03 793.42 265.09
  Q 793.88 265.25 793.88 265.74
  L 793.88 270.17
  Q 793.88 270.53 794.09 270.82
  Q 794.22 271.01 794.42 271.09
  Q 794.88 271.25 794.88 271.74
  L 794.88 276.17
  Q 794.88 276.53 795.09 276.82
  Q 795.22 277.01 795.42 277.09
  Q 795.88 277.25 795.88 277.74
  L 795.88 281.17
  Q 795.88 281.53 796.09 281.83
  Q 796.22 282.01 796.42 282.09
  Q 796.88 282.25 796.88 282.74
  L 796.88 287.17
  Q 796.88 287.53 797.09 287.82
  Q 797.22 288.01 797.42 288.09
  Q 797.88 288.25 797.88 288.74
  L 797.88 293.17
  Q 797.88 293.53 798.09 293.82
  Q 798.22 294.01 798.42 294.09
  Q 798.88 294.25 798.88 294.74
  L 798.88 299.17
  Q 798.88 299.53 799.09 299.82
  Q 799.22 300.01 799.42 300.09
  Q 799.88 300.25 799.88 300.74
  L 799.88 304.17
  Q 799.88 304.53 800.09 304.83
  Q 800.22 305.01 800.42 305.09
  Q 800.88 305.25 800.88 305.74
  L 800.88 310.17
  Q 800.88 310.53 801.09 310.82
  Q 801.22 311.01 801.42 311.09
  Q 801.88 311.25 801.88 311.74
  L 801.88 316.10
  Q 801.88 316.45 802.05 316.76
  Q 802.17 316.99 802.39 317.07
  Q 802.88 317.27 802.95 317.79
  Q 803.44 321.79 801.76 323.33
  C 779.09 315.15 758.39 309.78 734.81 305.89
  C 727.73 304.72 719.92 304.08 712.41 303.20
  Q 713.76 301.77 715.74 302.54
  A 1.57 1.57 0.0 0 0 717.88 301.08
  L 717.88 297.74
  Q 717.88 297.25 717.42 297.08
  Q 717.23 297.01 717.10 296.84
  Q 716.88 296.54 716.88 296.18
  L 716.88 292.74
  Q 716.88 292.25 716.42 292.09
  Q 716.22 292.01 716.09 291.83
  Q 715.88 291.53 715.88 291.17
  L 715.88 286.74
  Q 715.88 286.25 715.42 286.09
  Q 715.22 286.01 715.09 285.83
  Q 714.88 285.53 714.88 285.17
  L 714.88 280.74
  Q 714.88 280.25 714.42 280.09
  Q 714.22 280.01 714.09 279.83
  Q 713.88 279.53 713.88 279.17
  L 713.88 274.74
  Q 713.88 274.25 713.42 274.09
  Q 713.22 274.01 713.09 273.83
  Q 712.88 273.54 712.88 273.17
  L 712.88 269.74
  Q 712.88 269.25 712.42 269.08
  Q 712.22 269.01 712.09 268.83
  Q 711.88 268.54 711.88 268.17
  L 711.88 263.74
  Q 711.88 263.25 711.42 263.08
  Q 711.23 263.01 711.10 262.84
  Q 710.88 262.54 710.88 262.18
  L 710.88 257.74
  Q 710.88 257.25 710.42 257.08
  Q 710.23 257.01 710.10 256.84
  Q 709.88 256.54 709.88 256.18
  L 709.88 251.74
  Q 709.88 251.25 709.42 251.08
  Q 709.23 251.01 709.10 250.84
  Q 708.88 250.54 708.88 250.18
  L 708.88 246.04
  Q 708.88 245.69 708.54 245.63
  Q 706.21 245.27 707.16 244.40
  Z"
/>
<path fill="#216e8a" fill-opacity="0.659" d="
  M 632.73 247.16
  C 633.04 248.92 632.85 251.59 633.75 252.13
  Q 634.12 252.35 634.12 252.78
  L 634.12 257.26
  Q 634.12 257.75 634.58 257.91
  Q 634.78 257.99 634.91 258.18
  Q 635.12 258.47 635.12 258.83
  L 635.12 263.26
  Q 635.12 263.75 635.58 263.91
  Q 635.78 263.99 635.91 264.18
  Q 636.12 264.47 636.12 264.83
  L 636.12 269.26
  Q 636.12 269.75 636.58 269.91
  Q 636.78 269.99 636.91 270.17
  Q 637.12 270.47 637.12 270.83
  L 637.12 274.26
  Q 637.12 274.75 637.58 274.91
  Q 637.78 274.99 637.91 275.17
  Q 638.12 275.47 638.12 275.83
  L 638.12 280.26
  Q 638.12 280.75 638.58 280.91
  Q 638.78 280.99 638.91 281.17
  Q 639.12 281.47 639.12 281.83
  L 639.12 286.26
  Q 639.12 286.75 639.58 286.91
  Q 639.78 286.99 639.91 287.17
  Q 640.12 287.47 640.12 287.83
  L 640.12 292.26
  Q 640.12 292.75 640.58 292.91
  Q 640.78 292.99 640.91 293.17
  Q 641.12 293.47 641.12 293.83
  L 641.12 297.26
  Q 641.12 297.75 641.58 297.91
  Q 641.78 297.99 641.91 298.18
  Q 642.12 298.47 642.12 298.83
  L 642.12 302.97
  Q 642.12 303.39 642.53 303.34
  Q 643.71 303.22 644.46 304.48
  Q 628.93 306.04 613.72 309.46
  L 612.82 309.09
  Q 612.46 308.94 612.14 309.17
  Q 611.65 309.51 611.05 309.32
  Q 610.46 309.13 610.75 308.58
  Q 610.98 308.15 610.37 308.05
  Q 609.88 307.96 609.88 307.47
  L 609.88 302.74
  Q 609.88 302.25 609.43 302.09
  Q 609.25 302.03 609.13 301.87
  A 1.14 0.71 36.3 0 1 608.88 301.25
  L 608.88 296.74
  Q 608.88 296.26 608.42 296.09
  Q 608.24 296.03 608.13 295.87
  A 1.14 0.71 36.3 0 1 607.88 295.25
  L 607.88 291.74
  Q 607.88 291.26 607.42 291.09
  Q 607.25 291.03 607.13 290.87
  A 1.14 0.71 36.3 0 1 606.88 290.25
  L 606.88 285.74
  Q 606.88 285.26 606.42 285.09
  Q 606.25 285.03 606.13 284.87
  A 1.14 0.71 36.3 0 1 605.88 284.25
  L 605.88 279.74
  Q 605.88 279.26 605.42 279.09
  Q 605.25 279.03 605.13 278.87
  A 1.14 0.71 36.3 0 1 604.88 278.25
  L 604.88 273.74
  Q 604.88 273.26 604.42 273.09
  Q 604.24 273.03 604.13 272.87
  A 1.14 0.71 36.3 0 1 603.88 272.25
  L 603.88 268.74
  Q 603.88 268.26 603.42 268.09
  Q 603.25 268.03 603.13 267.87
  A 1.14 0.71 36.3 0 1 602.88 267.25
  L 602.88 262.74
  Q 602.88 262.26 602.42 262.09
  Q 602.25 262.03 602.13 261.87
  A 1.14 0.71 36.3 0 1 601.88 261.25
  L 601.88 256.99
  Q 601.88 256.49 601.50 256.18
  Q 600.51 255.35 600.92 253.99
  Q 601.00 253.73 600.75 253.62
  Q 600.64 253.57 600.52 253.51
  Q 600.41 253.47 600.30 253.50
  Q 599.73 253.67 599.15 253.64
  Q 598.73 253.62 598.43 253.92
  Q 596.95 255.44 596.06 253.41
  Q 614.42 249.32 632.73 247.16
  Z"
/>
<path fill="#2c7f91" fill-opacity="0.706" d="
  M 613.72 309.46
  Q 575.57 317.52 540.27 334.22
  Q 540.03 332.67 541.95 332.72
  Q 542.43 332.73 542.80 332.42
  Q 544.24 331.24 545.98 330.59
  Q 546.42 330.42 546.63 329.99
  Q 547.07 329.10 547.82 329.53
  Q 548.22 329.75 548.46 329.37
  Q 549.46 327.80 548.33 326.95
  Q 547.88 326.61 547.88 326.04
  L 547.88 321.74
  Q 547.88 321.25 547.43 321.09
  Q 547.25 321.03 547.13 320.87
  A 1.14 0.71 36.3 0 1 546.88 320.25
  L 546.88 315.74
  Q 546.88 315.26 546.42 315.09
  Q 546.25 315.02 546.13 314.87
  A 1.14 0.71 36.3 0 1 545.88 314.25
  L 545.88 310.74
  Q 545.88 310.25 545.42 310.09
  Q 545.25 310.02 545.13 309.87
  A 1.14 0.71 36.3 0 1 544.88 309.25
  L 544.88 304.74
  Q 544.88 304.25 544.42 304.09
  Q 544.25 304.02 544.13 303.87
  A 1.14 0.71 36.3 0 1 543.88 303.25
  L 543.88 298.74
  Q 543.88 298.25 543.42 298.09
  Q 543.25 298.02 543.13 297.87
  A 1.14 0.71 36.3 0 1 542.88 297.25
  L 542.88 292.74
  Q 542.88 292.25 542.42 292.09
  Q 542.25 292.02 542.13 291.87
  A 1.14 0.71 36.3 0 1 541.88 291.25
  L 541.88 287.74
  Q 541.88 287.25 541.42 287.09
  Q 541.25 287.02 541.13 286.87
  A 1.14 0.71 36.3 0 1 540.88 286.25
  L 540.88 281.74
  Q 540.88 281.26 540.42 281.09
  Q 540.25 281.02 540.13 280.87
  A 1.12 0.76 34.0 0 1 539.88 280.25
  L 539.88 276.27
  Q 539.88 275.76 539.56 275.35
  Q 538.44 273.93 538.96 272.05
  Q 539.16 271.33 538.61 271.85
  Q 537.43 272.97 535.77 272.58
  Q 535.43 272.50 535.40 272.85
  Q 535.37 273.05 535.24 273.20
  Q 535.07 273.40 534.70 273.40
  Q 532.79 273.38 532.93 272.76
  Q 563.88 260.38 596.06 253.41
  Q 596.95 255.44 598.43 253.92
  Q 598.73 253.62 599.15 253.64
  Q 599.73 253.67 600.30 253.50
  Q 600.41 253.47 600.52 253.51
  Q 600.64 253.57 600.75 253.62
  Q 601.00 253.73 600.92 253.99
  Q 600.51 255.35 601.50 256.18
  Q 601.88 256.49 601.88 256.99
  L 601.88 261.25
  A 1.14 0.71 36.3 0 0 602.13 261.87
  Q 602.25 262.03 602.42 262.09
  Q 602.88 262.26 602.88 262.74
  L 602.88 267.25
  A 1.14 0.71 36.3 0 0 603.13 267.87
  Q 603.25 268.03 603.42 268.09
  Q 603.88 268.26 603.88 268.74
  L 603.88 272.25
  A 1.14 0.71 36.3 0 0 604.13 272.87
  Q 604.24 273.03 604.42 273.09
  Q 604.88 273.26 604.88 273.74
  L 604.88 278.25
  A 1.14 0.71 36.3 0 0 605.13 278.87
  Q 605.25 279.03 605.42 279.09
  Q 605.88 279.26 605.88 279.74
  L 605.88 284.25
  A 1.14 0.71 36.3 0 0 606.13 284.87
  Q 606.25 285.03 606.42 285.09
  Q 606.88 285.26 606.88 285.74
  L 606.88 290.25
  A 1.14 0.71 36.3 0 0 607.13 290.87
  Q 607.25 291.03 607.42 291.09
  Q 607.88 291.26 607.88 291.74
  L 607.88 295.25
  A 1.14 0.71 36.3 0 0 608.13 295.87
  Q 608.24 296.03 608.42 296.09
  Q 608.88 296.26 608.88 296.74
  L 608.88 301.25
  A 1.14 0.71 36.3 0 0 609.13 301.87
  Q 609.25 302.03 609.43 302.09
  Q 609.88 302.25 609.88 302.74
  L 609.88 307.47
  Q 609.88 307.96 610.37 308.05
  Q 610.98 308.15 610.75 308.58
  Q 610.46 309.13 611.05 309.32
  Q 611.65 309.51 612.14 309.17
  Q 612.46 308.94 612.82 309.09
  L 613.72 309.46
  Z"
/>
<path fill="#084174" fill-opacity="0.514" d="
  M 791.02 257.46
  Q 821.29 265.37 850.00 278.10
  L 850.00 345.08
  Q 846.38 343.34 842.93 341.48
  C 829.76 334.36 815.67 328.50 801.76 323.33
  Q 803.44 321.79 802.95 317.79
  Q 802.88 317.27 802.39 317.07
  Q 802.17 316.99 802.05 316.76
  Q 801.88 316.45 801.88 316.10
  L 801.88 311.74
  Q 801.88 311.25 801.42 311.09
  Q 801.22 311.01 801.09 310.82
  Q 800.88 310.53 800.88 310.17
  L 800.88 305.74
  Q 800.88 305.25 800.42 305.09
  Q 800.22 305.01 800.09 304.83
  Q 799.88 304.53 799.88 304.17
  L 799.88 300.74
  Q 799.88 300.25 799.42 300.09
  Q 799.22 300.01 799.09 299.82
  Q 798.88 299.53 798.88 299.17
  L 798.88 294.74
  Q 798.88 294.25 798.42 294.09
  Q 798.22 294.01 798.09 293.82
  Q 797.88 293.53 797.88 293.17
  L 797.88 288.74
  Q 797.88 288.25 797.42 288.09
  Q 797.22 288.01 797.09 287.82
  Q 796.88 287.53 796.88 287.17
  L 796.88 282.74
  Q 796.88 282.25 796.42 282.09
  Q 796.22 282.01 796.09 281.83
  Q 795.88 281.53 795.88 281.17
  L 795.88 277.74
  Q 795.88 277.25 795.42 277.09
  Q 795.22 277.01 795.09 276.82
  Q 794.88 276.53 794.88 276.17
  L 794.88 271.74
  Q 794.88 271.25 794.42 271.09
  Q 794.22 271.01 794.09 270.82
  Q 793.88 270.53 793.88 270.17
  L 793.88 265.74
  Q 793.88 265.25 793.42 265.09
  Q 793.25 265.03 793.13 264.88
  Q 792.88 264.58 792.88 264.19
  L 792.88 259.58
  A 1.01 1.01 0.0 0 0 791.69 258.59
  Q 790.83 258.74 791.02 257.46
  Z"
/>
<path fill="#338a94" fill-opacity="0.733" d="
  M 540.27 334.22
  Q 522.00 343.13 504.75 353.99
  L 504.95 353.44
  A 0.23 0.23 0.0 0 0 504.74 353.13
  Q 504.61 353.13 504.48 353.12
  Q 504.20 353.10 504.18 352.83
  C 504.03 351.12 503.12 349.96 503.12 348.31
  Q 503.12 346.56 503.13 344.81
  Q 503.13 344.37 502.82 344.06
  Q 502.72 343.96 502.58 343.91
  Q 502.12 343.75 502.12 343.26
  L 502.12 338.83
  Q 502.12 338.48 501.92 338.18
  Q 501.78 337.99 501.58 337.91
  Q 501.12 337.75 501.12 337.26
  L 501.12 333.83
  Q 501.12 333.47 500.91 333.17
  Q 500.78 332.98 500.58 332.91
  Q 500.12 332.75 500.12 332.26
  L 500.12 327.83
  Q 500.12 327.47 499.91 327.17
  Q 499.78 326.99 499.58 326.91
  Q 499.12 326.74 499.12 326.26
  L 499.12 322.76
  Q 499.12 322.45 499.43 322.39
  Q 499.85 322.30 499.99 321.89
  Q 500.20 321.32 499.65 321.07
  Q 499.22 320.88 498.74 320.87
  Q 498.12 320.87 498.12 320.25
  L 498.12 315.83
  Q 498.12 315.46 497.91 315.17
  Q 497.78 314.98 497.58 314.91
  Q 497.12 314.74 497.12 314.26
  L 497.12 310.84
  Q 497.12 310.48 496.92 310.18
  Q 496.79 309.99 496.58 309.91
  Q 496.12 309.75 496.12 309.26
  L 496.12 304.83
  Q 496.12 304.47 495.91 304.18
  Q 495.78 303.99 495.58 303.91
  Q 495.12 303.75 495.12 303.26
  L 495.12 298.84
  Q 495.12 298.48 494.92 298.18
  Q 494.79 297.99 494.58 297.91
  Q 494.12 297.75 494.12 297.26
  L 494.12 292.50
  A 0.58 0.58 0.0 0 0 493.26 291.99
  Q 491.06 293.20 491.95 291.70
  Q 511.93 280.81 532.93 272.76
  Q 532.79 273.38 534.70 273.40
  Q 535.07 273.40 535.24 273.20
  Q 535.37 273.05 535.40 272.85
  Q 535.43 272.50 535.77 272.58
  Q 537.43 272.97 538.61 271.85
  Q 539.16 271.33 538.96 272.05
  Q 538.44 273.93 539.56 275.35
  Q 539.88 275.76 539.88 276.27
  L 539.88 280.25
  A 1.12 0.76 34.0 0 0 540.13 280.87
  Q 540.25 281.02 540.42 281.09
  Q 540.88 281.26 540.88 281.74
  L 540.88 286.25
  A 1.14 0.71 36.3 0 0 541.13 286.87
  Q 541.25 287.02 541.42 287.09
  Q 541.88 287.25 541.88 287.74
  L 541.88 291.25
  A 1.14 0.71 36.3 0 0 542.13 291.87
  Q 542.25 292.02 542.42 292.09
  Q 542.88 292.25 542.88 292.74
  L 542.88 297.25
  A 1.14 0.71 36.3 0 0 543.13 297.87
  Q 543.25 298.02 543.42 298.09
  Q 543.88 298.25 543.88 298.74
  L 543.88 303.25
  A 1.14 0.71 36.3 0 0 544.13 303.87
  Q 544.25 304.02 544.42 304.09
  Q 544.88 304.25 544.88 304.74
  L 544.88 309.25
  A 1.14 0.71 36.3 0 0 545.13 309.87
  Q 545.25 310.02 545.42 310.09
  Q 545.88 310.25 545.88 310.74
  L 545.88 314.25
  A 1.14 0.71 36.3 0 0 546.13 314.87
  Q 546.25 315.02 546.42 315.09
  Q 546.88 315.26 546.88 315.74
  L 546.88 320.25
  A 1.14 0.71 36.3 0 0 547.13 320.87
  Q 547.25 321.03 547.43 321.09
  Q 547.88 321.25 547.88 321.74
  L 547.88 326.04
  Q 547.88 326.61 548.33 326.95
  Q 549.46 327.80 548.46 329.37
  Q 548.22 329.75 547.82 329.53
  Q 547.07 329.10 546.63 329.99
  Q 546.42 330.42 545.98 330.59
  Q 544.24 331.24 542.80 332.42
  Q 542.43 332.73 541.95 332.72
  Q 540.03 332.67 540.27 334.22
  Z"
/>
<path fill="#3a9598" fill-opacity="0.757" d="
  M 491.95 291.70
  Q 491.06 293.20 493.26 291.99
  A 0.58 0.58 0.0 0 1 494.12 292.50
  L 494.12 297.26
  Q 494.12 297.75 494.58 297.91
  Q 494.79 297.99 494.92 298.18
  Q 495.12 298.48 495.12 298.84
  L 495.12 303.26
  Q 495.12 303.75 495.58 303.91
  Q 495.78 303.99 495.91 304.18
  Q 496.12 304.47 496.12 304.83
  L 496.12 309.26
  Q 496.12 309.75 496.58 309.91
  Q 496.79 309.99 496.92 310.18
  Q 497.12 310.48 497.12 310.84
  L 497.12 314.26
  Q 497.12 314.74 497.58 314.91
  Q 497.78 314.98 497.91 315.17
  Q 498.12 315.46 498.12 315.83
  L 498.12 320.25
  Q 498.12 320.87 498.74 320.87
  Q 499.22 320.88 499.65 321.07
  Q 500.20 321.32 499.99 321.89
  Q 499.85 322.30 499.43 322.39
  Q 499.12 322.45 499.12 322.76
  L 499.12 326.26
  Q 499.12 326.74 499.58 326.91
  Q 499.78 326.99 499.91 327.17
  Q 500.12 327.47 500.12 327.83
  L 500.12 332.26
  Q 500.12 332.75 500.58 332.91
  Q 500.78 332.98 500.91 333.17
  Q 501.12 333.47 501.12 333.83
  L 501.12 337.26
  Q 501.12 337.75 501.58 337.91
  Q 501.78 337.99 501.92 338.18
  Q 502.12 338.48 502.12 338.83
  L 502.12 343.26
  Q 502.12 343.75 502.58 343.91
  Q 502.72 343.96 502.82 344.06
  Q 503.13 344.37 503.13 344.81
  Q 503.12 346.56 503.12 348.31
  C 503.12 349.96 504.03 351.12 504.18 352.83
  Q 504.20 353.10 504.48 353.12
  Q 504.61 353.13 504.74 353.13
  A 0.23 0.23 0.0 0 1 504.95 353.44
  L 504.75 353.99
  L 484.97 368.09
  Q 484.34 367.84 484.37 367.25
  Q 484.39 366.89 484.60 366.62
  Q 484.90 366.25 484.45 366.10
  Q 484.25 366.04 484.13 365.87
  A 1.14 0.71 36.3 0 1 483.88 365.25
  L 483.88 360.74
  Q 483.88 360.26 483.42 360.09
  Q 483.24 360.03 483.13 359.87
  A 1.14 0.71 36.3 0 1 482.88 359.25
  L 482.88 354.99
  Q 482.88 354.50 482.50 354.20
  Q 481.51 353.41 481.90 352.03
  Q 482.45 350.08 481.18 348.73
  Q 480.88 348.41 480.88 347.96
  L 480.88 343.74
  Q 480.88 343.25 480.43 343.09
  Q 480.25 343.03 480.13 342.87
  A 1.14 0.71 36.3 0 1 479.88 342.25
  L 479.88 337.74
  Q 479.88 337.26 479.42 337.09
  Q 479.25 337.03 479.13 336.87
  A 1.14 0.71 36.3 0 1 478.88 336.25
  L 478.88 331.97
  Q 478.88 331.36 478.36 331.04
  Q 477.66 330.61 477.89 329.76
  A 0.52 0.52 0.0 0 0 477.26 329.11
  Q 476.73 329.24 476.37 328.87
  Q 476.00 328.49 476.38 328.12
  Q 476.73 327.78 477.23 327.86
  Q 477.66 327.93 477.80 327.53
  Q 478.37 325.83 477.28 324.88
  Q 476.88 324.54 476.88 324.01
  L 476.88 320.74
  Q 476.88 320.25 476.43 320.09
  Q 476.25 320.03 476.13 319.87
  A 1.14 0.71 36.3 0 1 475.88 319.25
  L 475.88 314.74
  Q 475.88 314.26 475.42 314.09
  Q 475.25 314.03 475.13 313.87
  A 1.14 0.71 36.3 0 1 474.88 313.25
  L 474.88 309.02
  Q 474.88 308.56 474.54 308.23
  Q 473.53 307.27 473.89 305.89
  Q 474.00 305.45 473.60 305.24
  Q 472.98 304.92 472.38 304.89
  Q 471.93 304.86 471.88 304.42
  Q 471.83 303.98 471.94 303.47
  L 491.95 291.70
  Z"
/>
<path fill="#43a39c" fill-opacity="0.792" d="
  M 471.94 303.47
  Q 471.83 303.98 471.88 304.42
  Q 471.93 304.86 472.38 304.89
  Q 472.98 304.92 473.60 305.24
  Q 474.00 305.45 473.89 305.89
  Q 473.53 307.27 474.54 308.23
  Q 474.88 308.56 474.88 309.02
  L 474.88 313.25
  A 1.14 0.71 36.3 0 0 475.13 313.87
  Q 475.25 314.03 475.42 314.09
  Q 475.88 314.26 475.88 314.74
  L 475.88 319.25
  A 1.14 0.71 36.3 0 0 476.13 319.87
  Q 476.25 320.03 476.43 320.09
  Q 476.88 320.25 476.88 320.74
  L 476.88 324.01
  Q 476.88 324.54 477.28 324.88
  Q 478.37 325.83 477.80 327.53
  Q 477.66 327.93 477.23 327.86
  Q 476.73 327.78 476.38 328.12
  Q 476.00 328.49 476.37 328.87
  Q 476.73 329.24 477.26 329.11
  A 0.52 0.52 0.0 0 1 477.89 329.76
  Q 477.66 330.61 478.36 331.04
  Q 478.88 331.36 478.88 331.97
  L 478.88 336.25
  A 1.14 0.71 36.3 0 0 479.13 336.87
  Q 479.25 337.03 479.42 337.09
  Q 479.88 337.26 479.88 337.74
  L 479.88 342.25
  A 1.14 0.71 36.3 0 0 480.13 342.87
  Q 480.25 343.03 480.43 343.09
  Q 480.88 343.25 480.88 343.74
  L 480.88 347.96
  Q 480.88 348.41 481.18 348.73
  Q 482.45 350.08 481.90 352.03
  Q 481.51 353.41 482.50 354.20
  Q 482.88 354.50 482.88 354.99
  L 482.88 359.25
  A 1.14 0.71 36.3 0 0 483.13 359.87
  Q 483.24 360.03 483.42 360.09
  Q 483.88 360.26 483.88 360.74
  L 483.88 365.25
  A 1.14 0.71 36.3 0 0 484.13 365.87
  Q 484.25 366.04 484.45 366.10
  Q 484.90 366.25 484.60 366.62
  Q 484.39 366.89 484.37 367.25
  Q 484.34 367.84 484.97 368.09
  Q 462.73 384.99 444.23 406.14
  Q 441.13 406.51 441.93 400.62
  Q 441.99 400.19 441.56 400.08
  Q 441.42 400.05 441.30 399.98
  Q 440.96 399.76 440.96 399.36
  L 440.98 394.75
  Q 440.98 394.55 440.78 394.22
  Q 440.66 394.03 440.42 394.08
  A 0.35 0.35 0.0 0 1 439.99 393.74
  L 439.92 389.40
  Q 439.91 389.29 439.82 389.23
  L 439.43 388.99
  Q 438.98 388.70 438.98 388.17
  L 438.97 383.75
  Q 438.97 383.34 438.61 383.15
  Q 438.40 383.03 438.23 382.86
  Q 437.97 382.60 437.98 382.09
  Q 438.02 379.74 437.91 377.39
  Q 437.91 377.29 437.82 377.23
  L 437.43 376.99
  Q 436.98 376.70 436.98 376.16
  L 436.96 371.74
  Q 436.96 371.34 436.60 371.14
  Q 436.39 371.03 436.23 370.86
  Q 435.97 370.60 435.97 370.09
  Q 435.98 368.51 435.93 366.91
  Q 435.91 366.43 435.58 366.09
  Q 434.99 365.46 434.99 364.00
  Q 435.00 362.20 434.93 360.39
  Q 434.93 360.29 434.84 360.24
  L 434.21 359.89
  A 0.43 0.40 -77.7 0 1 434.00 359.54
  L 433.91 354.44
  A 0.37 0.37 0.0 0 0 433.60 354.09
  Q 433.35 354.05 433.15 353.84
  A 0.68 0.66 -66.5 0 1 432.98 353.39
  L 432.93 348.40
  Q 432.92 348.28 432.82 348.23
  L 432.26 347.91
  A 0.42 0.41 -77.6 0 1 432.04 347.56
  L 431.93 343.48
  Q 431.92 343.19 431.67 343.06
  L 431.27 342.85
  A 0.54 0.54 0.0 0 1 430.98 342.37
  L 430.97 337.75
  Q 430.97 337.34 430.65 337.07
  Q 429.89 336.43 429.30 334.64
  Q 449.03 317.14 471.94 303.47
  Z"
/>
<path fill="#3c5075" fill-opacity="0.459" d="
  M 362.92 347.77
  C 369.29 352.91 367.09 362.96 358.50 363.34
  Q 346.51 363.86 334.54 363.56
  Q 328.37 363.41 325.30 361.81
  C 311.55 354.64 318.48 329.69 335.98 336.63
  Q 336.46 336.82 336.71 336.37
  C 340.89 328.85 350.99 330.02 354.17 337.74
  Q 354.37 338.23 354.90 338.24
  C 356.47 338.28 357.96 338.05 359.35 338.79
  Q 364.24 341.42 362.69 347.04
  Q 362.57 347.48 362.92 347.77
  Z"
/>
<path fill="#48ab9d" fill-opacity="0.812" d="
  M 429.30 334.64
  Q 429.89 336.43 430.65 337.07
  Q 430.97 337.34 430.97 337.75
  L 430.98 342.37
  A 0.54 0.54 0.0 0 0 431.27 342.85
  L 431.67 343.06
  Q 431.92 343.19 431.93 343.48
  L 432.04 347.56
  A 0.42 0.41 -77.6 0 0 432.26 347.91
  L 432.82 348.23
  Q 432.92 348.28 432.93 348.40
  L 432.98 353.39
  A 0.68 0.66 -66.5 0 0 433.15 353.84
  Q 433.35 354.05 433.60 354.09
  A 0.37 0.37 0.0 0 1 433.91 354.44
  L 434.00 359.54
  A 0.43 0.40 -77.7 0 0 434.21 359.89
  L 434.84 360.24
  Q 434.93 360.29 434.93 360.39
  Q 435.00 362.20 434.99 364.00
  Q 434.99 365.46 435.58 366.09
  Q 435.91 366.43 435.93 366.91
  Q 435.98 368.51 435.97 370.09
  Q 435.97 370.60 436.23 370.86
  Q 436.39 371.03 436.60 371.14
  Q 436.96 371.34 436.96 371.74
  L 436.98 376.16
  Q 436.98 376.70 437.43 376.99
  L 437.82 377.23
  Q 437.91 377.29 437.91 377.39
  Q 438.02 379.74 437.98 382.09
  Q 437.97 382.60 438.23 382.86
  Q 438.40 383.03 438.61 383.15
  Q 438.97 383.34 438.97 383.75
  L 438.98 388.17
  Q 438.98 388.70 439.43 388.99
  L 439.82 389.23
  Q 439.91 389.29 439.92 389.40
  L 439.99 393.74
  A 0.35 0.35 0.0 0 0 440.42 394.08
  Q 440.66 394.03 440.78 394.22
  Q 440.98 394.55 440.98 394.75
  L 440.96 399.36
  Q 440.96 399.76 441.30 399.98
  Q 441.42 400.05 441.56 400.08
  Q 441.99 400.19 441.93 400.62
  Q 441.13 406.51 444.23 406.14
  Q 414.70 439.56 397.70 480.71
  C 386.13 508.72 380.11 538.83 379.51 569.14
  Q 379.50 569.63 379.02 569.66
  L 314.25 574.19
  Q 314.05 574.20 314.06 574.00
  C 314.31 555.03 315.61 537.32 319.35 517.58
  C 324.67 489.55 333.70 463.59 346.13 438.83
  C 366.13 398.98 394.84 363.00 429.30 334.64
  Z"
/>
<path fill="#196084" fill-opacity="0.616" d="
  M 697.20 347.34
  L 694.60 348.25
  A 0.72 0.70 81.0 0 0 694.12 348.93
  L 694.12 351.01
  Q 694.12 351.50 694.49 351.82
  Q 695.70 352.84 694.81 354.25
  Q 694.75 354.34 694.65 354.35
  Q 694.52 354.37 694.37 354.37
  A 0.15 0.09 -25.0 0 0 694.23 354.58
  Q 695.41 354.82 695.18 355.76
  Q 694.77 357.50 695.72 358.24
  Q 696.08 358.53 696.11 359.00
  Q 696.18 360.50 696.07 362.00
  Q 696.01 362.82 696.72 363.15
  Q 697.11 363.33 697.11 363.77
  L 697.12 368.26
  Q 697.12 368.75 697.57 368.91
  Q 697.75 368.98 697.87 369.13
  A 1.14 0.71 36.3 0 1 698.12 369.75
  L 698.12 374.26
  Q 698.12 374.75 698.58 374.92
  Q 698.75 374.98 698.87 375.13
  A 1.14 0.71 36.3 0 1 699.12 375.75
  L 699.12 379.26
  Q 699.12 379.75 699.58 379.91
  Q 699.75 379.98 699.87 380.13
  A 1.14 0.71 36.3 0 1 700.12 380.75
  L 700.12 385.26
  Q 700.12 385.75 700.58 385.91
  Q 700.75 385.98 700.87 386.13
  A 1.14 0.71 36.3 0 1 701.12 386.75
  L 701.12 391.26
  Q 701.12 391.75 701.58 391.91
  Q 701.75 391.98 701.87 392.13
  A 1.14 0.71 36.3 0 1 702.12 392.75
  L 702.12 396.26
  Q 702.12 396.75 702.58 396.91
  Q 702.75 396.98 702.87 397.13
  A 1.17 0.73 36.8 0 1 703.11 397.75
  L 703.12 402.25
  Q 703.12 402.69 703.51 402.89
  Q 704.41 403.34 704.07 404.36
  Q 703.99 404.60 703.75 404.69
  Q 703.59 404.77 703.41 404.84
  Q 703.01 405.00 703.17 405.41
  L 703.30 405.77
  Q 678.90 404.30 654.82 407.26
  Q 655.37 404.94 655.04 402.41
  Q 655.00 402.14 654.76 402.01
  Q 654.62 401.94 654.46 401.87
  Q 654.12 401.74 654.12 401.37
  L 654.12 397.83
  Q 654.12 397.47 653.91 397.17
  Q 653.78 396.99 653.58 396.91
  Q 653.12 396.74 653.12 396.26
  L 653.12 391.83
  Q 653.12 391.47 652.92 391.18
  Q 652.78 390.99 652.58 390.91
  Q 652.12 390.74 652.12 390.26
  L 652.12 385.83
  Q 652.12 385.47 651.92 385.18
  Q 651.78 384.99 651.58 384.91
  Q 651.12 384.74 651.12 384.26
  L 651.12 379.83
  Q 651.12 379.47 650.92 379.18
  Q 650.78 378.99 650.58 378.91
  Q 650.12 378.74 650.12 378.26
  L 650.12 374.83
  Q 650.12 374.47 649.91 374.17
  Q 649.78 373.99 649.58 373.91
  Q 649.12 373.74 649.12 373.26
  L 649.12 368.83
  Q 649.12 368.47 648.92 368.18
  Q 648.78 367.99 648.58 367.91
  Q 648.12 367.74 648.12 367.26
  L 648.12 362.83
  Q 648.12 362.47 647.92 362.18
  Q 647.78 361.99 647.58 361.91
  Q 647.12 361.74 647.12 361.26
  L 647.12 357.84
  Q 647.12 357.48 646.92 357.18
  Q 646.79 356.99 646.60 356.92
  Q 646.10 356.72 646.15 356.19
  Q 646.51 352.81 645.26 349.89
  Q 671.10 346.32 697.20 347.34
  Z"
/>
<path fill="#11537e" fill-opacity="0.573" d="
  M 697.20 347.34
  Q 726.19 347.64 754.67 352.09
  Q 754.70 352.50 754.25 352.67
  Q 753.85 352.84 754.15 353.15
  Q 754.32 353.33 754.57 353.38
  Q 754.88 353.44 754.88 353.76
  L 754.88 356.17
  Q 754.88 356.54 755.10 356.84
  Q 755.22 357.02 755.42 357.09
  Q 755.88 357.25 755.88 357.74
  L 755.88 362.17
  Q 755.88 362.53 756.09 362.83
  Q 756.22 363.01 756.42 363.09
  Q 756.88 363.25 756.88 363.74
  L 756.88 367.17
  Q 756.88 367.53 757.09 367.83
  Q 757.22 368.01 757.42 368.09
  Q 757.88 368.25 757.88 368.74
  L 757.88 373.17
  Q 757.88 373.53 758.09 373.83
  Q 758.22 374.01 758.42 374.09
  Q 758.88 374.25 758.88 374.74
  L 758.88 379.17
  Q 758.88 379.53 759.09 379.83
  Q 759.22 380.01 759.42 380.09
  Q 759.88 380.25 759.88 380.74
  L 759.88 385.17
  Q 759.88 385.53 760.09 385.83
  Q 760.22 386.01 760.42 386.09
  Q 760.88 386.25 760.88 386.74
  L 760.88 390.17
  Q 760.88 390.54 761.09 390.83
  Q 761.22 391.01 761.42 391.09
  Q 761.88 391.25 761.88 391.74
  L 761.88 396.17
  Q 761.88 396.53 762.09 396.83
  Q 762.22 397.01 762.42 397.09
  Q 762.88 397.25 762.88 397.74
  L 762.88 402.17
  Q 762.88 402.53 763.09 402.83
  Q 763.22 403.01 763.42 403.09
  Q 763.88 403.25 763.88 403.74
  L 763.88 407.17
  Q 763.88 407.54 764.09 407.83
  Q 764.22 408.01 764.42 408.09
  Q 764.88 408.25 764.88 408.74
  L 764.88 412.95
  Q 764.88 413.39 765.18 413.71
  Q 766.37 414.97 765.94 417.24
  Q 749.49 412.34 741.00 410.53
  Q 724.49 407.01 703.30 405.77
  L 703.17 405.41
  Q 703.01 405.00 703.41 404.84
  Q 703.59 404.77 703.75 404.69
  Q 703.99 404.60 704.07 404.36
  Q 704.41 403.34 703.51 402.89
  Q 703.12 402.69 703.12 402.25
  L 703.11 397.75
  A 1.17 0.73 36.8 0 0 702.87 397.13
  Q 702.75 396.98 702.58 396.91
  Q 702.12 396.75 702.12 396.26
  L 702.12 392.75
  A 1.14 0.71 36.3 0 0 701.87 392.13
  Q 701.75 391.98 701.58 391.91
  Q 701.12 391.75 701.12 391.26
  L 701.12 386.75
  A 1.14 0.71 36.3 0 0 700.87 386.13
  Q 700.75 385.98 700.58 385.91
  Q 700.12 385.75 700.12 385.26
  L 700.12 380.75
  A 1.14 0.71 36.3 0 0 699.87 380.13
  Q 699.75 379.98 699.58 379.91
  Q 699.12 379.75 699.12 379.26
  L 699.12 375.75
  A 1.14 0.71 36.3 0 0 698.87 375.13
  Q 698.75 374.98 698.58 374.92
  Q 698.12 374.75 698.12 374.26
  L 698.12 369.75
  A 1.14 0.71 36.3 0 0 697.87 369.13
  Q 697.75 368.98 697.57 368.91
  Q 697.12 368.75 697.12 368.26
  L 697.11 363.77
  Q 697.11 363.33 696.72 363.15
  Q 696.01 362.82 696.07 362.00
  Q 696.18 360.50 696.11 359.00
  Q 696.08 358.53 695.72 358.24
  Q 694.77 357.50 695.18 355.76
  Q 695.41 354.82 694.23 354.58
  A 0.15 0.09 -25.0 0 1 694.37 354.37
  Q 694.52 354.37 694.65 354.35
  Q 694.75 354.34 694.81 354.25
  Q 695.70 352.84 694.49 351.82
  Q 694.12 351.50 694.12 351.01
  L 694.12 348.93
  A 0.72 0.70 81.0 0 1 694.60 348.25
  L 697.20 347.34
  Z"
/>
<path fill="#216e8a" fill-opacity="0.659" d="
  M 645.26 349.89
  Q 646.51 352.81 646.15 356.19
  Q 646.10 356.72 646.60 356.92
  Q 646.79 356.99 646.92 357.18
  Q 647.12 357.48 647.12 357.84
  L 647.12 361.26
  Q 647.12 361.74 647.58 361.91
  Q 647.78 361.99 647.92 362.18
  Q 648.12 362.47 648.12 362.83
  L 648.12 367.26
  Q 648.12 367.74 648.58 367.91
  Q 648.78 367.99 648.92 368.18
  Q 649.12 368.47 649.12 368.83
  L 649.12 373.26
  Q 649.12 373.74 649.58 373.91
  Q 649.78 373.99 649.91 374.17
  Q 650.12 374.47 650.12 374.83
  L 650.12 378.26
  Q 650.12 378.74 650.58 378.91
  Q 650.78 378.99 650.92 379.18
  Q 651.12 379.47 651.12 379.83
  L 651.12 384.26
  Q 651.12 384.74 651.58 384.91
  Q 651.78 384.99 651.92 385.18
  Q 652.12 385.47 652.12 385.83
  L 652.12 390.26
  Q 652.12 390.74 652.58 390.91
  Q 652.78 390.99 652.92 391.18
  Q 653.12 391.47 653.12 391.83
  L 653.12 396.26
  Q 653.12 396.74 653.58 396.91
  Q 653.78 396.99 653.91 397.17
  Q 654.12 397.47 654.12 397.83
  L 654.12 401.37
  Q 654.12 401.74 654.46 401.87
  Q 654.62 401.94 654.76 402.01
  Q 655.00 402.14 655.04 402.41
  Q 655.37 404.94 654.82 407.26
  L 632.83 411.47
  L 632.89 405.71
  Q 632.89 405.24 632.45 405.10
  Q 632.25 405.04 632.13 404.87
  A 1.14 0.71 36.3 0 1 631.88 404.25
  L 631.88 400.74
  Q 631.88 400.26 631.42 400.09
  Q 631.25 400.03 631.13 399.87
  A 1.14 0.71 36.3 0 1 630.88 399.25
  L 630.88 395.24
  Q 630.88 395.12 630.76 395.12
  Q 630.59 395.12 630.42 395.12
  A 0.43 0.42 89.3 0 1 630.00 394.70
  L 629.84 388.72
  Q 629.82 388.26 629.39 388.08
  Q 629.24 388.01 629.13 387.87
  A 1.14 0.71 36.3 0 1 628.88 387.25
  L 628.88 383.74
  Q 628.88 383.26 628.42 383.09
  Q 628.25 383.03 628.13 382.87
  A 1.14 0.71 36.3 0 1 627.88 382.25
  L 627.88 377.74
  Q 627.88 377.26 627.42 377.09
  Q 627.25 377.03 627.13 376.87
  A 1.14 0.71 36.3 0 1 626.88 376.25
  L 626.88 371.74
  Q 626.88 371.26 626.42 371.09
  Q 625.94 370.91 625.88 370.07
  Q 625.88 370.06 625.88 370.06
  L 625.88 365.51
  A 0.35 0.33 -65.8 0 0 625.81 365.30
  Q 625.60 365.04 625.30 365.11
  A 0.35 0.34 83.4 0 1 624.88 364.77
  L 624.88 360.74
  Q 624.88 360.26 624.42 360.09
  Q 624.25 360.03 624.13 359.87
  A 1.14 0.71 36.3 0 1 623.88 359.25
  L 623.88 355.00
  Q 623.88 354.57 623.45 354.62
  Q 622.18 354.77 621.92 353.95
  L 645.26 349.89
  Z"
/>
<path fill="#084174" fill-opacity="0.514" d="
  M 754.67 352.09
  Q 804.99 359.37 850.00 381.47
  L 850.00 473.26
  C 828.15 445.90 799.05 427.85 765.94 417.24
  Q 766.37 414.97 765.18 413.71
  Q 764.88 413.39 764.88 412.95
  L 764.88 408.74
  Q 764.88 408.25 764.42 408.09
  Q 764.22 408.01 764.09 407.83
  Q 763.88 407.54 763.88 407.17
  L 763.88 403.74
  Q 763.88 403.25 763.42 403.09
  Q 763.22 403.01 763.09 402.83
  Q 762.88 402.53 762.88 402.17
  L 762.88 397.74
  Q 762.88 397.25 762.42 397.09
  Q 762.22 397.01 762.09 396.83
  Q 761.88 396.53 761.88 396.17
  L 761.88 391.74
  Q 761.88 391.25 761.42 391.09
  Q 761.22 391.01 761.09 390.83
  Q 760.88 390.54 760.88 390.17
  L 760.88 386.74
  Q 760.88 386.25 760.42 386.09
  Q 760.22 386.01 760.09 385.83
  Q 759.88 385.53 759.88 385.17
  L 759.88 380.74
  Q 759.88 380.25 759.42 380.09
  Q 759.22 380.01 759.09 379.83
  Q 758.88 379.53 758.88 379.17
  L 758.88 374.74
  Q 758.88 374.25 758.42 374.09
  Q 758.22 374.01 758.09 373.83
  Q 757.88 373.53 757.88 373.17
  L 757.88 368.74
  Q 757.88 368.25 757.42 368.09
  Q 757.22 368.01 757.09 367.83
  Q 756.88 367.53 756.88 367.17
  L 756.88 363.74
  Q 756.88 363.25 756.42 363.09
  Q 756.22 363.01 756.09 362.83
  Q 755.88 362.53 755.88 362.17
  L 755.88 357.74
  Q 755.88 357.25 755.42 357.09
  Q 755.22 357.02 755.10 356.84
  Q 754.88 356.54 754.88 356.17
  L 754.88 353.76
  Q 754.88 353.44 754.57 353.38
  Q 754.32 353.33 754.15 353.15
  Q 753.85 352.84 754.25 352.67
  Q 754.70 352.50 754.67 352.09
  Z"
/>
<path fill="#2c7f91" fill-opacity="0.706" d="
  M 621.92 353.95
  Q 622.18 354.77 623.45 354.62
  Q 623.88 354.57 623.88 355.00
  L 623.88 359.25
  A 1.14 0.71 36.3 0 0 624.13 359.87
  Q 624.25 360.03 624.42 360.09
  Q 624.88 360.26 624.88 360.74
  L 624.88 364.77
  A 0.35 0.34 83.4 0 0 625.30 365.11
  Q 625.60 365.04 625.81 365.30
  A 0.35 0.33 -65.8 0 1 625.88 365.51
  L 625.88 370.06
  Q 625.88 370.06 625.88 370.07
  Q 625.94 370.91 626.42 371.09
  Q 626.88 371.26 626.88 371.74
  L 626.88 376.25
  A 1.14 0.71 36.3 0 0 627.13 376.87
  Q 627.25 377.03 627.42 377.09
  Q 627.88 377.26 627.88 377.74
  L 627.88 382.25
  A 1.14 0.71 36.3 0 0 628.13 382.87
  Q 628.25 383.03 628.42 383.09
  Q 628.88 383.26 628.88 383.74
  L 628.88 387.25
  A 1.14 0.71 36.3 0 0 629.13 387.87
  Q 629.24 388.01 629.39 388.08
  Q 629.82 388.26 629.84 388.72
  L 630.00 394.70
  A 0.43 0.42 89.3 0 0 630.42 395.12
  Q 630.59 395.12 630.76 395.12
  Q 630.88 395.12 630.88 395.24
  L 630.88 399.25
  A 1.14 0.71 36.3 0 0 631.13 399.87
  Q 631.25 400.03 631.42 400.09
  Q 631.88 400.26 631.88 400.74
  L 631.88 404.25
  A 1.14 0.71 36.3 0 0 632.13 404.87
  Q 632.25 405.04 632.45 405.10
  Q 632.89 405.24 632.89 405.71
  L 632.83 411.47
  Q 617.01 415.69 601.56 421.96
  C 596.95 423.83 592.30 426.34 587.64 428.63
  Q 587.13 428.48 588.53 427.32
  Q 588.90 427.02 589.34 426.85
  Q 591.78 425.89 590.92 423.21
  A 0.25 0.25 0.0 0 0 590.76 423.05
  Q 590.58 422.98 590.40 422.91
  Q 590.09 422.80 590.09 422.47
  L 590.05 417.43
  A 0.40 0.38 11.3 0 0 589.80 417.07
  Q 589.67 417.02 589.53 416.96
  Q 589.07 416.78 589.07 416.28
  L 589.05 411.45
  A 0.41 0.41 0.0 0 0 588.76 411.06
  Q 588.63 411.02 588.49 410.97
  Q 588.07 410.84 588.07 410.40
  Q 588.06 408.59 588.07 406.77
  Q 588.07 406.45 587.91 406.25
  Q 587.69 405.98 587.36 405.78
  Q 587.03 405.59 587.04 405.22
  L 587.08 401.00
  A 1.54 0.58 51.0 0 0 586.81 400.19
  Q 586.71 400.01 586.53 399.94
  Q 586.08 399.74 586.08 399.25
  L 586.07 395.00
  A 1.67 1.25 -68.3 0 0 585.84 394.16
  Q 585.70 393.95 585.44 393.90
  A 0.48 0.48 0.0 0 1 585.05 393.44
  L 585.03 389.54
  Q 585.03 389.17 584.68 389.03
  Q 584.56 388.97 584.41 388.97
  Q 584.10 388.97 584.09 388.66
  L 584.03 383.44
  A 0.49 0.49 0.0 0 0 583.70 382.99
  L 583.35 382.86
  Q 583.08 382.76 583.08 382.48
  L 583.06 377.49
  A 0.47 0.46 -82.1 0 0 582.74 377.06
  Q 582.60 377.01 582.45 376.96
  Q 582.11 376.85 582.10 376.49
  L 582.00 372.07
  Q 581.99 371.58 581.68 371.21
  Q 580.69 370.02 581.03 368.29
  Q 581.13 367.81 580.84 367.41
  Q 580.54 367.01 580.14 367.26
  A 0.14 0.14 0.0 0 0 580.07 367.41
  Q 580.17 367.92 579.85 368.15
  Q 579.53 368.38 579.13 368.19
  Q 578.80 368.04 578.51 367.68
  C 592.26 361.62 607.34 357.39 621.92 353.95
  Z"
/>
<path fill="#338a94" fill-opacity="0.733" d="
  M 587.64 428.63
  L 571.86 437.64
  Q 569.21 437.38 569.84 432.73
  Q 569.91 432.24 569.45 432.10
  Q 569.25 432.03 569.13 431.87
  A 1.14 0.71 36.3 0 1 568.88 431.25
  L 568.88 426.74
  Q 568.88 426.25 568.42 426.09
  Q 568.25 426.02 568.13 425.87
  A 1.14 0.71 36.3 0 1 567.88 425.25
  L 567.88 420.74
  Q 567.88 420.25 567.42 420.09
  Q 567.25 420.02 567.13 419.87
  A 1.20 1.07 28.4 0 1 566.88 419.17
  C 566.88 417.53 567.08 416.38 566.44 414.73
  Q 565.57 412.51 565.91 410.06
  Q 565.96 409.68 565.85 409.47
  Q 565.67 409.12 565.29 408.91
  Q 564.88 408.69 564.88 408.22
  L 564.88 403.74
  Q 564.88 403.25 564.43 403.09
  Q 564.25 403.03 564.13 402.87
  A 1.14 0.71 36.3 0 1 563.88 402.25
  L 563.88 397.74
  Q 563.88 397.25 563.42 397.09
  Q 563.25 397.02 563.13 396.87
  A 1.14 0.71 36.3 0 1 562.88 396.25
  L 562.88 392.74
  Q 562.88 392.25 562.42 392.09
  Q 562.25 392.02 562.13 391.87
  A 1.14 0.71 36.3 0 1 561.88 391.25
  L 561.88 386.74
  Q 561.88 386.25 561.42 386.09
  Q 561.25 386.02 561.13 385.87
  A 1.14 0.71 36.3 0 1 560.88 385.25
  L 560.88 381.01
  Q 560.88 380.48 560.48 380.14
  Q 559.57 379.37 559.89 378.13
  Q 559.98 377.78 559.64 377.65
  Q 558.93 377.40 558.49 376.67
  L 578.51 367.68
  Q 578.80 368.04 579.13 368.19
  Q 579.53 368.38 579.85 368.15
  Q 580.17 367.92 580.07 367.41
  A 0.14 0.14 0.0 0 1 580.14 367.26
  Q 580.54 367.01 580.84 367.41
  Q 581.13 367.81 581.03 368.29
  Q 580.69 370.02 581.68 371.21
  Q 581.99 371.58 582.00 372.07
  L 582.10 376.49
  Q 582.11 376.85 582.45 376.96
  Q 582.60 377.01 582.74 377.06
  A 0.47 0.46 -82.1 0 1 583.06 377.49
  L 583.08 382.48
  Q 583.08 382.76 583.35 382.86
  L 583.70 382.99
  A 0.49 0.49 0.0 0 1 584.03 383.44
  L 584.09 388.66
  Q 584.10 388.97 584.41 388.97
  Q 584.56 388.97 584.68 389.03
  Q 585.03 389.17 585.03 389.54
  L 585.05 393.44
  A 0.48 0.48 0.0 0 0 585.44 393.90
  Q 585.70 393.95 585.84 394.16
  A 1.67 1.25 -68.3 0 1 586.07 395.00
  L 586.08 399.25
  Q 586.08 399.74 586.53 399.94
  Q 586.71 400.01 586.81 400.19
  A 1.54 0.58 51.0 0 1 587.08 401.00
  L 587.04 405.22
  Q 587.03 405.59 587.36 405.78
  Q 587.69 405.98 587.91 406.25
  Q 588.07 406.45 588.07 406.77
  Q 588.06 408.59 588.07 410.40
  Q 588.07 410.84 588.49 410.97
  Q 588.63 411.02 588.76 411.06
  A 0.41 0.41 0.0 0 1 589.05 411.45
  L 589.07 416.28
  Q 589.07 416.78 589.53 416.96
  Q 589.67 417.02 589.80 417.07
  A 0.40 0.38 11.3 0 1 590.05 417.43
  L 590.09 422.47
  Q 590.09 422.80 590.40 422.91
  Q 590.58 422.98 590.76 423.05
  A 0.25 0.25 0.0 0 1 590.92 423.21
  Q 591.78 425.89 589.34 426.85
  Q 588.90 427.02 588.53 427.32
  Q 587.13 428.48 587.64 428.63
  Z"
/>
<path fill="#3a9598" fill-opacity="0.757" d="
  M 558.49 376.67
  Q 558.93 377.40 559.64 377.65
  Q 559.98 377.78 559.89 378.13
  Q 559.57 379.37 560.48 380.14
  Q 560.88 380.48 560.88 381.01
  L 560.88 385.25
  A 1.14 0.71 36.3 0 0 561.13 385.87
  Q 561.25 386.02 561.42 386.09
  Q 561.88 386.25 561.88 386.74
  L 561.88 391.25
  A 1.14 0.71 36.3 0 0 562.13 391.87
  Q 562.25 392.02 562.42 392.09
  Q 562.88 392.25 562.88 392.74
  L 562.88 396.25
  A 1.14 0.71 36.3 0 0 563.13 396.87
  Q 563.25 397.02 563.42 397.09
  Q 563.88 397.25 563.88 397.74
  L 563.88 402.25
  A 1.14 0.71 36.3 0 0 564.13 402.87
  Q 564.25 403.03 564.43 403.09
  Q 564.88 403.25 564.88 403.74
  L 564.88 408.22
  Q 564.88 408.69 565.29 408.91
  Q 565.67 409.12 565.85 409.47
  Q 565.96 409.68 565.91 410.06
  Q 565.57 412.51 566.44 414.73
  C 567.08 416.38 566.88 417.53 566.88 419.17
  A 1.20 1.07 28.4 0 0 567.13 419.87
  Q 567.25 420.02 567.42 420.09
  Q 567.88 420.25 567.88 420.74
  L 567.88 425.25
  A 1.14 0.71 36.3 0 0 568.13 425.87
  Q 568.25 426.02 568.42 426.09
  Q 568.88 426.25 568.88 426.74
  L 568.88 431.25
  A 1.14 0.71 36.3 0 0 569.13 431.87
  Q 569.25 432.03 569.45 432.10
  Q 569.91 432.24 569.84 432.73
  Q 569.21 437.38 571.86 437.64
  Q 557.29 447.23 544.15 459.64
  L 543.83 455.66
  Q 543.80 455.27 543.45 455.10
  Q 543.25 454.99 543.10 454.83
  Q 542.90 454.59 542.90 454.10
  Q 542.91 451.93 542.89 449.73
  Q 542.89 449.24 542.43 449.09
  Q 542.30 449.04 542.20 448.95
  Q 541.91 448.68 541.91 448.28
  L 541.88 443.74
  Q 541.88 443.25 541.42 443.08
  Q 540.96 442.91 540.89 442.12
  A 0.09 0.09 0.0 0 1 540.89 442.06
  Q 540.91 439.88 540.89 437.71
  Q 540.88 437.24 540.43 437.09
  Q 540.25 437.03 540.13 436.87
  A 1.17 0.73 36.8 0 1 539.89 436.25
  L 539.88 432.30
  Q 539.88 432.16 539.75 432.14
  Q 539.63 432.11 539.49 432.11
  A 0.62 0.62 0.0 0 1 538.90 431.49
  L 538.90 426.74
  Q 538.89 426.25 538.43 426.09
  Q 538.25 426.02 538.13 425.87
  A 1.19 0.68 39.2 0 1 537.89 425.25
  L 537.89 420.33
  Q 537.89 420.16 537.72 420.13
  Q 537.55 420.10 537.37 420.11
  A 0.44 0.44 0.0 0 1 536.93 419.68
  L 536.87 415.73
  Q 536.86 415.25 536.42 415.08
  Q 535.97 414.91 535.89 414.14
  Q 535.89 414.13 535.89 414.12
  L 535.89 409.53
  Q 535.89 409.18 535.54 409.11
  Q 535.38 409.08 535.25 408.98
  Q 534.91 408.72 534.90 408.29
  L 534.89 403.73
  Q 534.88 403.25 534.43 403.09
  Q 533.98 402.92 533.89 402.15
  Q 533.89 402.14 533.89 402.13
  L 533.89 398.74
  Q 533.89 398.25 533.42 398.08
  Q 533.25 398.02 533.13 397.87
  A 1.13 0.86 32.3 0 1 532.90 397.25
  L 532.89 392.75
  Q 532.89 392.61 532.75 392.61
  Q 532.60 392.61 532.45 392.61
  Q 532.39 392.60 532.38 392.66
  Q 532.29 393.68 531.10 393.37
  Q 530.81 393.30 530.74 393.02
  Q 530.70 392.88 530.68 392.71
  Q 544.01 383.82 558.49 376.67
  Z"
/>
<path fill="#43a39c" fill-opacity="0.792" d="
  M 544.15 459.64
  C 535.45 468.70 528.43 476.26 520.21 488.25
  Q 519.51 487.72 519.91 487.09
  Q 519.98 486.98 520.09 486.94
  Q 520.22 486.91 520.35 486.90
  Q 520.71 486.88 520.86 486.56
  Q 522.42 483.22 521.85 479.50
  Q 521.81 479.21 521.55 479.08
  Q 521.43 479.02 521.29 478.96
  Q 520.99 478.82 520.98 478.49
  L 520.94 473.40
  Q 520.94 473.28 520.83 473.23
  L 520.37 473.00
  A 0.65 0.64 -78.1 0 1 519.99 472.41
  L 519.96 468.79
  A 0.70 0.68 18.4 0 0 519.67 468.23
  Q 518.82 467.61 518.97 466.25
  Q 519.06 465.37 518.95 462.78
  Q 518.93 462.38 518.60 462.15
  Q 518.40 462.02 518.25 461.84
  Q 518.03 461.59 518.02 461.11
  Q 517.96 459.07 517.92 456.97
  Q 517.92 456.52 517.58 456.23
  Q 516.82 455.56 516.96 454.25
  Q 517.08 453.19 516.92 450.37
  Q 516.91 450.28 516.83 450.23
  L 516.28 449.93
  A 0.64 0.63 14.7 0 1 515.96 449.40
  L 515.92 445.41
  Q 515.92 445.30 515.83 445.24
  L 515.45 445.00
  Q 515.00 444.72 515.00 444.19
  L 514.96 439.74
  Q 514.96 439.34 514.60 439.14
  Q 514.39 439.03 514.23 438.86
  Q 513.98 438.60 513.97 438.09
  Q 513.95 435.87 513.93 433.63
  Q 513.92 433.21 513.53 433.06
  Q 513.39 433.00 513.25 432.94
  Q 512.98 432.81 512.98 432.51
  L 512.94 428.41
  Q 512.94 428.29 512.84 428.23
  L 512.25 427.91
  A 0.43 0.40 -77.7 0 1 512.04 427.56
  L 511.92 422.96
  Q 511.91 422.51 511.57 422.21
  Q 510.82 421.55 510.96 420.25
  Q 511.08 419.23 510.92 416.54
  A 0.45 0.06 59.2 0 0 510.78 416.22
  Q 510.67 416.04 510.45 416.08
  A 0.33 0.32 84.4 0 1 510.08 415.77
  L 509.90 411.72
  Q 509.88 411.22 509.42 411.02
  Q 509.21 410.92 509.05 410.75
  Q 508.62 410.31 508.22 410.78
  Q 507.15 412.06 506.00 411.49
  Q 517.66 401.28 530.68 392.71
  Q 530.70 392.88 530.74 393.02
  Q 530.81 393.30 531.10 393.37
  Q 532.29 393.68 532.38 392.66
  Q 532.39 392.60 532.45 392.61
  Q 532.60 392.61 532.75 392.61
  Q 532.89 392.61 532.89 392.75
  L 532.90 397.25
  A 1.13 0.86 32.3 0 0 533.13 397.87
  Q 533.25 398.02 533.42 398.08
  Q 533.89 398.25 533.89 398.74
  L 533.89 402.13
  Q 533.89 402.14 533.89 402.15
  Q 533.98 402.92 534.43 403.09
  Q 534.88 403.25 534.89 403.73
  L 534.90 408.29
  Q 534.91 408.72 535.25 408.98
  Q 535.38 409.08 535.54 409.11
  Q 535.89 409.18 535.89 409.53
  L 535.89 414.12
  Q 535.89 414.13 535.89 414.14
  Q 535.97 414.91 536.42 415.08
  Q 536.86 415.25 536.87 415.73
  L 536.93 419.68
  A 0.44 0.44 0.0 0 0 537.37 420.11
  Q 537.55 420.10 537.72 420.13
  Q 537.89 420.16 537.89 420.33
  L 537.89 425.25
  A 1.19 0.68 39.2 0 0 538.13 425.87
  Q 538.25 426.02 538.43 426.09
  Q 538.89 426.25 538.90 426.74
  L 538.90 431.49
  A 0.62 0.62 0.0 0 0 539.49 432.11
  Q 539.63 432.11 539.75 432.14
  Q 539.88 432.16 539.88 432.30
  L 539.89 436.25
  A 1.17 0.73 36.8 0 0 540.13 436.87
  Q 540.25 437.03 540.43 437.09
  Q 540.88 437.24 540.89 437.71
  Q 540.91 439.88 540.89 442.06
  A 0.09 0.09 0.0 0 0 540.89 442.12
  Q 540.96 442.91 541.42 443.08
  Q 541.88 443.25 541.88 443.74
  L 541.91 448.28
  Q 541.91 448.68 542.20 448.95
  Q 542.30 449.04 542.43 449.09
  Q 542.89 449.24 542.89 449.73
  Q 542.91 451.93 542.90 454.10
  Q 542.90 454.59 543.10 454.83
  Q 543.25 454.99 543.45 455.10
  Q 543.80 455.27 543.83 455.66
  L 544.15 459.64
  Z"
/>
<path fill="#48ab9d" fill-opacity="0.812" d="
  M 520.21 488.25
  Q 505.02 511.37 498.60 538.18
  C 497.10 544.47 496.24 551.47 495.34 558.21
  Q 495.28 558.71 494.77 558.76
  Q 468.37 561.39 442.01 564.08
  Q 437.23 564.56 429.94 564.86
  Q 429.47 564.88 429.49 564.41
  C 432.58 503.35 460.59 451.35 506.00 411.49
  Q 507.15 412.06 508.22 410.78
  Q 508.62 410.31 509.05 410.75
  Q 509.21 410.92 509.42 411.02
  Q 509.88 411.22 509.90 411.72
  L 510.08 415.77
  A 0.33 0.32 84.4 0 0 510.45 416.08
  Q 510.67 416.04 510.78 416.22
  A 0.45 0.06 59.2 0 1 510.92 416.54
  Q 511.08 419.23 510.96 420.25
  Q 510.82 421.55 511.57 422.21
  Q 511.91 422.51 511.92 422.96
  L 512.04 427.56
  A 0.43 0.40 -77.7 0 0 512.25 427.91
  L 512.84 428.23
  Q 512.94 428.29 512.94 428.41
  L 512.98 432.51
  Q 512.98 432.81 513.25 432.94
  Q 513.39 433.00 513.53 433.06
  Q 513.92 433.21 513.93 433.63
  Q 513.95 435.87 513.97 438.09
  Q 513.98 438.60 514.23 438.86
  Q 514.39 439.03 514.60 439.14
  Q 514.96 439.34 514.96 439.74
  L 515.00 444.19
  Q 515.00 444.72 515.45 445.00
  L 515.83 445.24
  Q 515.92 445.30 515.92 445.41
  L 515.96 449.40
  A 0.64 0.63 14.7 0 0 516.28 449.93
  L 516.83 450.23
  Q 516.91 450.28 516.92 450.37
  Q 517.08 453.19 516.96 454.25
  Q 516.82 455.56 517.58 456.23
  Q 517.92 456.52 517.92 456.97
  Q 517.96 459.07 518.02 461.11
  Q 518.03 461.59 518.25 461.84
  Q 518.40 462.02 518.60 462.15
  Q 518.93 462.38 518.95 462.78
  Q 519.06 465.37 518.97 466.25
  Q 518.82 467.61 519.67 468.23
  A 0.70 0.68 18.4 0 1 519.96 468.79
  L 519.99 472.41
  A 0.65 0.64 -78.1 0 0 520.37 473.00
  L 520.83 473.23
  Q 520.94 473.28 520.94 473.40
  L 520.98 478.49
  Q 520.99 478.82 521.29 478.96
  Q 521.43 479.02 521.55 479.08
  Q 521.81 479.21 521.85 479.50
  Q 522.42 483.22 520.86 486.56
  Q 520.71 486.88 520.35 486.90
  Q 520.22 486.91 520.09 486.94
  Q 519.98 486.98 519.91 487.09
  Q 519.51 487.72 520.21 488.25
  Z"
/>
<path fill="#3c5075" fill-opacity="0.459" d="
  M 0.00 511.12
  L 0.00 508.50
  C 0.96 494.28 14.64 484.31 28.06 490.86
  Q 28.78 491.20 29.22 490.54
  Q 32.71 485.30 36.96 483.67
  C 45.00 480.60 54.72 484.19 57.33 492.71
  A 1.26 1.26 0.0 0 0 58.70 493.59
  C 67.06 492.49 73.82 498.98 70.70 507.50
  A 0.67 0.65 28.4 0 0 70.94 508.27
  C 79.35 514.21 79.20 527.60 70.18 532.02
  Q 66.77 533.69 58.09 533.79
  Q 39.54 534.00 21.00 533.63
  C 8.68 533.37 0.30 522.97 0.00 511.12
  Z"
/>
</svg>
