<svg xmlns="http://www.w3.org/2000/svg" width="25" height="24" viewBox="0 0 25 24" fill="none">
<path d="M18.7247 13.351L18.725 13.3513L23.7761 18.4037L23.7765 18.4041C23.8473 18.4748 23.9036 18.5588 23.9419 18.6513C23.9803 18.7437 24 18.8429 24 18.943C24 19.0431 23.9803 19.1422 23.9419 19.2347C23.9036 19.3272 23.8473 19.4112 23.7765 19.4819L23.7762 19.4822L20.3515 22.9069C19.9667 23.2917 19.4632 23.5005 18.9308 23.5005H18.8997C17.1411 23.4703 11.0626 23.0007 6.28133 18.2194C1.4965 13.4346 1.02855 7.35065 1.00021 5.5988C0.99225 5.06309 1.20817 4.53369 1.59383 4.14803L5.01853 0.723319L5.01883 0.723018C5.08957 0.652165 5.17358 0.595955 5.26605 0.557604C5.35853 0.519252 5.45766 0.499512 5.55778 0.499512C5.65789 0.499512 5.75703 0.519252 5.8495 0.557604C5.94198 0.595955 6.02599 0.652165 6.09672 0.723018L6.09702 0.723319L11.1482 5.77451L11.1485 5.77481C11.2194 5.84554 11.2756 5.92955 11.3139 6.02203C11.3523 6.11451 11.372 6.21364 11.372 6.31376C11.372 6.41387 11.3523 6.513 11.3139 6.60548C11.2756 6.69796 11.2194 6.78197 11.1485 6.8527L11.1482 6.853L9.13531 8.8659L8.92465 9.07657L9.00965 9.36211C9.29025 10.3047 9.94964 12.1527 11.1482 13.3513C12.3468 14.5499 14.1949 15.2093 15.1374 15.4899L15.4229 15.5749L15.6336 15.3642L17.6465 13.3513L17.6468 13.351C17.7175 13.2801 17.8016 13.2239 17.894 13.1856C17.9865 13.1472 18.0856 13.1275 18.1858 13.1275C18.2859 13.1275 18.385 13.1472 18.4775 13.1856C18.57 13.2239 18.654 13.2801 18.7247 13.351ZM18.9098 21.9736L19.1217 21.9771L19.2716 21.8273L21.8048 19.2954L22.1585 18.9418L21.8049 18.5882L18.5393 15.3226L18.1859 14.9692L17.8323 15.3224L16.1983 16.9552L16.1967 16.9568C16.1079 17.0464 15.998 17.1121 15.8772 17.148C15.7564 17.1839 15.6284 17.1888 15.5052 17.1623L15.5022 17.1617C15.4467 17.1501 14.579 16.9643 13.4729 16.527C12.3607 16.0873 11.0474 15.4087 10.0685 14.4298C9.08953 13.4509 8.41098 12.1376 7.97126 11.0253C7.53398 9.91927 7.34813 9.05157 7.33655 8.99608L7.33652 8.99591C7.31058 8.87185 7.31597 8.74327 7.35219 8.62181C7.38842 8.50035 7.45434 8.38983 7.544 8.30024L7.54413 8.30011L9.17693 6.66731L9.53048 6.31376L9.17693 5.9602L5.91133 2.69461L5.55778 2.34105L5.20423 2.69461L2.67232 5.22652L2.52247 5.37636L2.52594 5.58824C2.55195 7.17893 2.9718 12.7517 7.35982 17.1397C11.7336 21.5148 17.287 21.9463 18.9098 21.9736Z" fill="#F7F7F7" stroke="#F7F7F7"/>
</svg>