<svg xmlns="http://www.w3.org/2000/svg" width="24" height="24" viewBox="0 0 25 25" fill="none">
<path fillRule="evenodd" clipRule="evenodd" d="M21.2966 4.1308C20.1896 3.02179 18.8724 2.14244 17.4215 1.54367C15.9706 0.94491 14.4147 0.638643 12.844 0.642616C6.25767 0.642616 0.895953 5.97756 0.89329 12.5353C0.89329 14.6311 1.44304 16.6766 2.48796 18.481L0.793457 24.6426L7.12822 22.9879C8.88049 23.9373 10.8436 24.435 12.8387 24.4359H12.844C19.429 24.4359 24.7907 19.101 24.7934 12.5432C24.7979 10.9806 24.4912 9.43261 23.891 7.98868C23.2908 6.54474 22.409 5.23352 21.2966 4.1308ZM12.844 22.4288H12.84C11.061 22.429 9.31475 21.9527 7.78446 21.0497L7.42239 20.8351L3.66333 21.8168L4.66566 18.1696L4.43005 17.796C3.43543 16.2201 2.9089 14.3963 2.91126 12.5353C2.91392 7.08509 7.36915 2.651 12.848 2.651C14.1528 2.64812 15.4453 2.90282 16.6505 3.40037C17.8558 3.89793 18.9499 4.62845 19.8696 5.54965C20.7942 6.46646 21.5271 7.55658 22.0259 8.75698C22.5246 9.95737 22.7794 11.2443 22.7754 12.5432C22.7728 17.9934 18.3175 22.4288 12.844 22.4288ZM18.2923 15.0246C17.9928 14.8749 16.5259 14.1568 16.2517 14.0575C15.9788 13.9581 15.7804 13.9091 15.5808 14.2059C15.3811 14.5026 14.8087 15.1716 14.6344 15.3703C14.46 15.5691 14.2856 15.5929 13.9874 15.4445C13.6893 15.2962 12.7269 14.9822 11.5861 13.97C10.6983 13.1818 10.0993 12.2094 9.92488 11.9113C9.75051 11.6132 9.90625 11.4529 10.0567 11.3046C10.1911 11.1721 10.3548 10.9575 10.5039 10.7839C10.653 10.6104 10.7023 10.4872 10.8021 10.2884C10.9019 10.0897 10.8527 9.91617 10.7768 9.76779C10.7023 9.61809 10.1046 8.15552 9.85567 7.56069C9.61474 6.9844 9.36848 7.06124 9.18479 7.05329C8.99454 7.04555 8.80414 7.04201 8.61374 7.04269C8.46233 7.04653 8.31336 7.08147 8.17615 7.1453C8.03895 7.20913 7.91647 7.30049 7.8164 7.41364C7.5422 7.71172 6.77148 8.42975 6.77148 9.89233C6.77148 11.3549 7.84169 12.7685 7.99078 12.9672C8.13986 13.1659 10.0966 16.1665 13.0916 17.4542C13.8051 17.7603 14.3615 17.9431 14.7941 18.0809C15.5089 18.3074 16.1598 18.2743 16.675 18.1988C17.2487 18.114 18.4413 17.4807 18.6903 16.7866C18.9392 16.0924 18.9392 15.4975 18.8646 15.373C18.7901 15.2485 18.5891 15.173 18.2923 15.0246Z" fill="white"/>
</svg>