<svg viewBox="0 0 887 701" fill="none" xmlns="http://www.w3.org/2000/svg">
<g clip-path="url(#clip0_2819_38225)">
<path d="M596.792 258.465C594.653 252.886 588.658 249.75 582.797 251.148L574.668 246.233C571.602 244.393 567.865 244.032 564.498 245.243L534.769 255.964L510.355 221.78C509.74 220.919 508.621 220.574 507.622 220.935L494.33 225.73C493.101 226.169 492.466 227.509 492.914 228.726L506.628 266.102L477.066 276.756L461.192 259.161C460.552 258.455 459.537 258.202 458.637 258.522L449.752 261.724C448.524 262.163 447.889 263.503 448.337 264.72L461.26 299.889C461.598 300.812 462.488 301.431 463.477 301.431H463.503L513.535 300.822C513.8 300.822 514.065 300.771 514.315 300.678L518.75 299.074L531.667 334.248C532.11 335.465 533.463 336.094 534.691 335.651L548.005 330.85C549.004 330.489 549.639 329.509 549.55 328.457L546.245 289.158L589.735 273.466C595.861 271.254 599.02 264.545 596.787 258.476C596.787 258.47 596.787 258.465 596.782 258.46H596.792V258.465Z" stroke="white" stroke-opacity="0.19" stroke-width="1.54" stroke-linecap="round" stroke-linejoin="round" stroke-dasharray="3.07 4"/>
<g opacity="0.46">
<path d="M116.982 608.74H98.0462C95.1543 608.74 92.3196 607.942 89.8588 606.437C87.398 604.932 85.4081 602.778 84.1114 600.217C82.8148 597.656 82.2625 594.788 82.5162 591.934C82.7699 589.08 83.8197 586.352 85.5483 584.054C87.2768 581.757 89.616 579.982 92.3045 578.926C94.9929 577.87 97.9247 577.576 100.772 578.076C103.62 578.576 106.271 579.851 108.429 581.758C110.587 583.665 112.168 586.129 112.994 588.875H116.982C119.641 588.875 122.191 589.922 124.071 591.784C125.951 593.647 127.007 596.173 127.007 598.808C127.007 601.442 125.951 603.968 124.071 605.831C122.191 607.694 119.641 608.74 116.982 608.74Z" fill="#699DFF"/>
<path d="M118.782 629.072H92.4737C88.4558 629.071 84.5174 627.963 81.0985 625.871C77.6796 623.78 74.9149 620.788 73.1134 617.23C71.3119 613.672 70.5445 609.687 70.897 605.722C71.2496 601.756 72.7081 597.966 75.1096 594.774C77.5112 591.583 80.7612 589.116 84.4963 587.649C88.2315 586.182 92.3048 585.773 96.261 586.468C100.217 587.163 103.9 588.934 106.899 591.584C109.898 594.233 112.094 597.657 113.242 601.472H118.782C122.476 601.472 126.019 602.926 128.631 605.514C131.243 608.102 132.71 611.612 132.71 615.272C132.71 618.932 131.243 622.442 128.631 625.03C126.019 627.618 122.476 629.072 118.782 629.072Z" fill="#82AEFF"/>
<path d="M102.963 629.072H76.6543C72.6365 629.071 68.698 627.963 65.2791 625.871C61.8602 623.78 59.0956 620.788 57.294 617.23C55.4925 613.672 54.7252 609.687 55.0777 605.722C55.4302 601.756 56.8888 597.966 59.2903 594.774C61.6919 591.583 64.9418 589.116 68.677 587.649C72.4122 586.182 76.4855 585.773 80.4417 586.468C84.3978 587.163 88.0811 588.934 91.0798 591.584C94.0785 594.233 96.2745 597.657 97.4225 601.472H102.963C106.657 601.472 110.199 602.926 112.811 605.514C115.423 608.102 116.891 611.612 116.891 615.272C116.891 618.932 115.423 622.442 112.811 625.03C110.199 627.618 106.657 629.072 102.963 629.072Z" fill="#82AEFF"/>
<ellipse cx="74.632" cy="603.76" rx="19.6379" ry="19.4572" fill="#82AEFF"/>
</g>
<g opacity="0.46">
<path d="M414.991 446.216H403.065C401.244 446.216 399.458 445.713 397.908 444.765C396.359 443.817 395.105 442.461 394.289 440.848C393.472 439.235 393.124 437.429 393.284 435.631C393.444 433.834 394.105 432.115 395.194 430.669C396.282 429.222 397.756 428.103 399.449 427.439C401.142 426.774 402.988 426.588 404.782 426.903C406.575 427.218 408.245 428.021 409.604 429.222C410.964 430.423 411.959 431.975 412.479 433.705H414.991C416.665 433.705 418.271 434.364 419.455 435.537C420.639 436.71 421.305 438.301 421.305 439.96C421.305 441.619 420.639 443.211 419.455 444.384C418.271 445.557 416.665 446.216 414.991 446.216Z" fill="#699DFF"/>
<path d="M416.125 459.021H399.556C397.025 459.02 394.545 458.323 392.392 457.006C390.238 455.689 388.497 453.804 387.363 451.563C386.228 449.322 385.745 446.813 385.967 444.315C386.189 441.817 387.107 439.43 388.62 437.42C390.132 435.41 392.179 433.856 394.532 432.933C396.884 432.009 399.45 431.751 401.941 432.189C404.433 432.627 406.753 433.742 408.641 435.411C410.53 437.08 411.913 439.236 412.636 441.638H416.125C418.452 441.638 420.683 442.554 422.328 444.184C423.973 445.814 424.897 448.025 424.897 450.33C424.897 452.635 423.973 454.846 422.328 456.475C420.683 458.105 418.452 459.021 416.125 459.021Z" fill="#82AEFF"/>
<path d="M406.161 459.021H389.592C387.062 459.02 384.581 458.323 382.428 457.006C380.275 455.689 378.533 453.804 377.399 451.563C376.264 449.322 375.781 446.813 376.003 444.315C376.225 441.817 377.143 439.43 378.656 437.42C380.168 435.41 382.215 433.856 384.568 432.933C386.92 432.009 389.486 431.751 391.977 432.189C394.469 432.627 396.789 433.742 398.677 435.411C400.566 437.08 401.949 439.236 402.672 441.638H406.161C408.488 441.638 410.719 442.554 412.364 444.184C414.009 445.814 414.933 448.025 414.933 450.33C414.933 452.635 414.009 454.846 412.364 456.475C410.719 458.105 408.488 459.021 406.161 459.021Z" fill="#82AEFF"/>
<ellipse cx="388.318" cy="443.08" rx="12.3682" ry="12.2544" fill="#82AEFF"/>
</g>
<g opacity="0.46">
<path d="M843.994 505.199H832.359C830.582 505.199 828.84 504.709 827.328 503.784C825.816 502.859 824.593 501.536 823.796 499.962C823 498.389 822.66 496.626 822.816 494.873C822.972 493.119 823.617 491.443 824.679 490.031C825.741 488.62 827.179 487.529 828.831 486.88C830.483 486.231 832.284 486.05 834.034 486.358C835.783 486.665 837.412 487.448 838.738 488.62C840.065 489.792 841.036 491.306 841.543 492.993H843.994C845.627 492.993 847.194 493.636 848.349 494.781C849.504 495.925 850.153 497.478 850.153 499.096C850.153 500.715 849.504 502.267 848.349 503.412C847.194 504.556 845.627 505.199 843.994 505.199Z" fill="#699DFF"/>
<path d="M845.101 517.692H828.936C826.467 517.691 824.047 517.01 821.947 515.725C819.846 514.44 818.147 512.602 817.04 510.416C815.933 508.229 815.462 505.781 815.678 503.344C815.895 500.908 816.791 498.579 818.267 496.618C819.742 494.657 821.739 493.141 824.034 492.24C826.329 491.338 828.832 491.087 831.263 491.514C833.694 491.941 835.957 493.029 837.8 494.657C839.642 496.285 840.992 498.389 841.697 500.733H845.101C847.371 500.733 849.548 501.626 851.153 503.217C852.758 504.807 853.659 506.963 853.659 509.212C853.659 511.461 852.758 513.618 851.153 515.208C849.548 516.798 847.371 517.692 845.101 517.692Z" fill="#82AEFF"/>
<path d="M835.38 517.692H819.215C816.747 517.691 814.327 517.01 812.226 515.725C810.125 514.44 808.426 512.602 807.319 510.416C806.212 508.229 805.741 505.781 805.958 503.344C806.174 500.908 807.07 498.579 808.546 496.618C810.022 494.657 812.019 493.141 814.314 492.24C816.609 491.338 819.112 491.087 821.542 491.514C823.973 491.941 826.236 493.029 828.079 494.657C829.922 496.285 831.271 498.389 831.976 500.733H835.38C837.65 500.733 839.827 501.626 841.432 503.217C843.037 504.807 843.938 506.963 843.938 509.212C843.938 511.461 843.037 513.618 841.432 515.208C839.827 516.798 837.65 517.692 835.38 517.692Z" fill="#82AEFF"/>
<ellipse cx="817.973" cy="502.139" rx="12.0665" ry="11.9555" fill="#82AEFF"/>
</g>
<g clip-path="url(#clip1_2819_38225)">
<path fill-rule="evenodd" clip-rule="evenodd" d="M720.651 441.118C842.391 440.474 945.561 484.111 971.471 570.457C969.731 570.893 899.781 588.458 899.781 588.458C871.371 531.154 801.411 498.835 720.871 499.261C621.311 499.788 539.911 566.145 532.028 652.805C531.593 652.869 468.046 659.547 466.124 659.186C471.001 537.723 583.001 441.847 720.651 441.118Z" fill="url(#paint0_radial_2819_38225)" fill-opacity="0.81"/>
<path fill-rule="evenodd" clip-rule="evenodd" d="M720.241 337.879C838.421 337.254 943.901 385.932 1012.17 462.288C1012.17 462.288 1011.76 555.393 1012.16 556.073C960.821 468.077 843.711 395.37 720.461 396.022C553.331 396.907 418.605 515.422 416.26 663.743C416.259 663.814 414.857 663.743 407.639 664.425L350.855 668.286C350.148 485.571 515.242 338.964 720.241 337.879Z" fill="url(#paint1_radial_2819_38225)" fill-opacity="0.81"/>
</g>
</g>
<defs>
<radialGradient id="paint0_radial_2819_38225" cx="0" cy="0" r="1" gradientUnits="userSpaceOnUse" gradientTransform="translate(876.662 192.536) rotate(126.591) scale(581.212 579.743)">
<stop stop-color="#006FE8" stop-opacity="0.56"/>
<stop offset="0.621472" stop-color="#49C1C9" stop-opacity="0.918782"/>
<stop offset="0.81625" stop-color="#51CAC5" stop-opacity="0.437791"/>
<stop offset="1" stop-color="#59D3C2" stop-opacity="0"/>
</radialGradient>
<radialGradient id="paint1_radial_2819_38225" cx="0" cy="0" r="1" gradientUnits="userSpaceOnUse" gradientTransform="translate(873.121 242.099) rotate(128.424) scale(606.016 616.561)">
<stop stop-color="#006FE8" stop-opacity="0.56"/>
<stop offset="0.0895537" stop-color="#1486DF" stop-opacity="0.658945"/>
<stop offset="0.498453" stop-color="#49C1C9" stop-opacity="0.918782"/>
<stop offset="0.759528" stop-color="#51CAC5" stop-opacity="0.437791"/>
<stop offset="1" stop-color="#59D3C2" stop-opacity="0"/>
</radialGradient>
<clipPath id="clip0_2819_38225">
<rect width="887" height="701" fill="white"/>
</clipPath>
<clipPath id="clip1_2819_38225">
<rect width="663" height="331" fill="white" transform="translate(350.117 337.281)"/>
</clipPath>
</defs>
</svg>
