<svg xmlns="http://www.w3.org/2000/svg" version="1.1" viewBox="0.00 0.00 459.00 455.00">
<g stroke-width="2.00" fill="none" stroke-linecap="butt">
<path stroke="#7888b9" vector-effect="non-scaling-stroke" d="
  M 352.49 77.81
  Q 355.44 82.16 354.05 86.12"
/>
<path stroke="#65a6f4" vector-effect="non-scaling-stroke" d="
  M 354.05 86.12
  L 344.69 71.09
  A 1.21 1.20 -25.7 0 0 343.27 70.60
  L 342.89 70.74
  Q 341.36 71.30 342.24 72.67
  L 346.90 79.97"
/>
<path stroke="#7888b9" vector-effect="non-scaling-stroke" d="
  M 346.90 79.97
  L 345.68 80.40"
/>
<path stroke="#a4baa6" vector-effect="non-scaling-stroke" d="
  M 361.68 104.22
  L 360.74 104.13
  Q 360.65 104.12 360.70 104.04
  Q 360.73 103.99 360.73 103.93
  Q 360.73 103.85 360.62 103.77
  Q 355.70 99.94 351.19 96.29"
/>
<path stroke="#ddbfc4" vector-effect="non-scaling-stroke" d="
  M 354.05 86.12
  Q 354.71 87.57 354.10 88.99
  Q 353.84 89.59 353.54 89.01
  C 351.94 85.98 350.77 81.55 346.90 79.97"
/>
<path stroke="#2d6a61" vector-effect="non-scaling-stroke" d="
  M 360.11 110.46
  Q 351.69 106.23 346.68 98.31"
/>
<path stroke="#2d6a61" vector-effect="non-scaling-stroke" d="
  M 359.97 111.05
  Q 359.73 111.18 359.53 111.07
  C 355.65 108.99 347.20 102.93 346.20 98.47"
/>
<path stroke="#2d6a61" vector-effect="non-scaling-stroke" d="
  M 312.24 153.64
  Q 308.04 155.72 303.41 156.20
  Q 303.17 156.23 303.18 156.47
  L 303.18 156.48
  Q 303.19 156.71 303.43 156.72
  C 307.44 156.78 309.21 155.14 312.21 154.63"
/>
<path stroke="#59d3c2" vector-effect="non-scaling-stroke" d="
  M 304.77 179.07
  Q 304.74 178.93 304.71 178.79"
/>
<path stroke="#2d6a61" vector-effect="non-scaling-stroke" d="
  M 304.71 178.79
  Q 290.20 176.17 275.75 174.89
  Q 272.80 174.62 272.04 171.64
  Q 269.55 161.84 271.17 151.71"
/>
<path stroke="#559791" vector-effect="non-scaling-stroke" d="
  M 271.17 151.71
  Q 271.06 151.21 271.40 150.87
  Q 271.63 150.63 272.14 150.61
  Q 277.47 150.34 281.81 147.81
  A 2.10 2.10 0.0 0 0 282.00 144.30
  L 279.42 142.40
  A 1.32 1.31 -41.4 0 1 279.56 140.19
  C 282.02 138.82 284.40 137.87 286.69 136.19
  Q 286.76 136.14 286.84 136.18
  Q 286.95 136.24 287.06 136.30"
/>
<path stroke="#2d6a61" vector-effect="non-scaling-stroke" d="
  M 287.06 136.30
  C 286.41 141.19 286.16 150.34 291.49 153.19
  Q 291.58 153.24 291.63 153.15
  L 291.76 152.93
  A 0.30 0.29 34.6 0 0 291.69 152.55
  C 287.07 148.92 286.85 141.55 287.86 136.20"
/>
<path stroke="#559791" vector-effect="non-scaling-stroke" d="
  M 287.86 136.20
  L 289.56 130.49"
/>
<path stroke="#a4baa6" vector-effect="non-scaling-stroke" d="
  M 289.56 130.49
  L 295.01 129.37"
/>
<path stroke="#2d6a61" vector-effect="non-scaling-stroke" d="
  M 324.21 274.06
  C 309.61 273.14 301.04 270.57 285.24 265.84
  Q 275.84 263.04 266.27 261.51"
/>
<path stroke="#a4baa6" vector-effect="non-scaling-stroke" d="
  M 233.76 252.68
  Q 235.56 245.95 237.77 239.23
  Q 237.97 238.63 237.26 238.44"
/>
<path stroke="#2d6a61" vector-effect="non-scaling-stroke" d="
  M 237.26 238.44
  L 237.82 237.79"
/>
<path stroke="#a4baa6" vector-effect="non-scaling-stroke" d="
  M 237.82 237.79
  C 238.26 237.54 238.57 237.30 238.73 236.79
  Q 241.42 228.35 245.68 220.73"
/>
<path stroke="#292d30" vector-effect="non-scaling-stroke" d="
  M 287.86 136.20
  Q 287.75 135.74 287.06 136.30"
/>
<path stroke="#292d30" vector-effect="non-scaling-stroke" d="
  M 271.17 151.71
  Q 271.14 151.57 271.09 151.44
  A 0.46 0.46 0.0 0 0 270.74 151.17
  Q 270.55 151.15 270.32 151.21"
/>
<path stroke="#559791" vector-effect="non-scaling-stroke" d="
  M 270.32 151.21
  Q 268.39 150.78 266.89 151.24"
/>
<path stroke="#2d6a61" vector-effect="non-scaling-stroke" d="
  M 304.71 178.79
  L 274.00 175.39
  Q 273.51 175.34 273.21 175.74
  Q 259.64 194.02 250.96 210.75
  Q 247.17 218.07 245.68 220.73"
/>
<path stroke="#785145" vector-effect="non-scaling-stroke" d="
  M 245.68 220.73
  L 245.55 219.69"
/>
<path stroke="#2d6a61" vector-effect="non-scaling-stroke" d="
  M 245.55 219.69
  Q 253.02 204.22 262.54 189.94
  Q 262.67 189.74 262.49 189.59
  L 262.29 189.44
  Q 262.27 189.42 262.26 189.44
  Q 260.14 192.29 256.97 193.84
  A 1.28 1.28 0.0 0 1 255.16 193.00
  Q 254.32 189.60 255.96 186.53
  A 0.33 0.33 0.0 0 0 255.54 186.08
  L 248.59 189.22"
/>
<path stroke="#785145" vector-effect="non-scaling-stroke" d="
  M 295.92 124.54
  L 292.26 124.51
  Q 291.76 124.51 292.17 124.81
  Q 293.63 125.87 295.46 126.37"
/>
<path stroke="#a07e75" vector-effect="non-scaling-stroke" d="
  M 289.56 130.49
  L 289.10 122.64
  A 1.75 1.74 2.4 0 0 287.60 121.01
  Q 284.34 120.55 284.54 116.67"
/>
<path stroke="#785145" vector-effect="non-scaling-stroke" d="
  M 285.89 116.22
  Q 287.34 117.43 287.15 119.06
  Q 287.08 119.65 287.60 119.35
  Q 287.87 119.19 287.97 118.79
  Q 288.09 118.31 288.58 118.37
  L 289.05 118.42
  Q 290.09 118.55 289.21 117.98
  L 285.98 115.87"
/>
<path stroke="#a07e75" vector-effect="non-scaling-stroke" d="
  M 287.69 114.12
  Q 288.76 114.46 289.03 114.08
  Q 289.05 114.06 289.24 113.44
  Q 289.45 112.75 289.06 112.72"
/>
<path stroke="#785145" vector-effect="non-scaling-stroke" d="
  M 293.65 107.68
  L 296.67 106.57
  Q 297.29 106.34 296.77 105.92
  Q 296.59 105.77 296.22 105.68"
/>
<path stroke="#785145" vector-effect="non-scaling-stroke" d="
  M 237.82 237.79
  Q 237.81 237.64 237.73 237.50
  Q 237.41 236.99 237.07 237.48
  L 233.35 242.88
  Q 233.27 242.99 233.39 243.06
  L 233.65 243.23
  Q 233.87 243.36 234.02 243.15
  L 237.26 238.44"
/>
<path stroke="#785145" vector-effect="non-scaling-stroke" d="
  M 324.56 276.77
  L 287.13 270.19
  A 0.42 0.41 -3.5 0 0 286.66 270.72
  Q 290.87 283.88 295.14 297.25
  Q 295.32 297.81 295.05 298.27"
/>
<path stroke="#785145" vector-effect="non-scaling-stroke" d="
  M 294.65 298.32
  L 287.35 275.36
  Q 287.21 274.91 286.79 274.72
  L 265.68 265.25"
/>
<path stroke="#2d6a61" vector-effect="non-scaling-stroke" d="
  M 270.32 151.21
  C 269.48 159.16 269.20 166.54 272.07 173.56
  Q 272.29 174.09 271.71 174.12
  Q 262.86 174.63 254.10 177.38"
/>
<path stroke="#805633" vector-effect="non-scaling-stroke" d="
  M 300.58 106.06
  Q 299.65 103.76 297.47 103.47
  A 0.54 0.53 6.6 0 0 296.86 103.95
  Q 296.84 104.16 297.01 104.40"
/>
<path stroke="#f7a678" vector-effect="non-scaling-stroke" d="
  M 297.01 104.40
  L 296.22 105.68"
/>
<path stroke="#805633" vector-effect="non-scaling-stroke" d="
  M 296.22 105.68
  Q 294.89 106.34 293.65 107.68"
/>
<path stroke="#f7a678" vector-effect="non-scaling-stroke" d="
  M 293.65 107.68
  L 289.06 112.72"
/>
<path stroke="#a88363" vector-effect="non-scaling-stroke" d="
  M 289.06 112.72
  Q 288.07 113.46 287.69 114.12"
/>
<path stroke="#f7a678" vector-effect="non-scaling-stroke" d="
  M 287.69 114.12
  L 285.98 115.87"
/>
<path stroke="#805633" vector-effect="non-scaling-stroke" d="
  M 285.98 115.87
  Q 286.48 115.78 285.89 116.22"
/>
<path stroke="#f7a678" vector-effect="non-scaling-stroke" d="
  M 285.89 116.22
  Q 285.63 116.02 284.54 116.67"
/>
<path stroke="#a88363" vector-effect="non-scaling-stroke" d="
  M 284.54 116.67
  Q 279.32 119.05 278.19 124.68
  Q 278.08 125.21 277.66 125.54
  Q 274.58 127.99 270.62 128.91"
/>
<path stroke="#805633" vector-effect="non-scaling-stroke" d="
  M 279.25 116.29
  Q 279.80 116.28 279.94 116.19
  Q 288.02 110.49 295.14 103.64
  Q 295.59 103.21 295.77 102.28"
/>
<path stroke="#a4baa6" vector-effect="non-scaling-stroke" d="
  M 245.55 219.69
  Q 243.05 219.12 241.05 216.76"
/>
<path stroke="#785145" vector-effect="non-scaling-stroke" d="
  M 300.14 107.34
  L 297.01 104.40"
/>
<path stroke="#785145" vector-effect="non-scaling-stroke" d="
  M 255.27 354.15
  L 249.93 372.31
  Q 249.78 372.81 249.26 372.74
  L 235.38 370.80"
/>
<path stroke="#f7b978" vector-effect="non-scaling-stroke" d="
  M 228.69 364.06
  Q 229.20 363.73 229.34 363.35
  A 0.20 0.17 -88.2 0 1 229.44 363.24
  L 245.40 355.24
  A 0.54 0.54 0.0 0 0 245.63 354.48
  L 243.16 350.33
  A 1.11 1.06 -1.4 0 0 242.72 349.93
  L 241.99 349.58"
/>
<path stroke="#785145" vector-effect="non-scaling-stroke" d="
  M 241.99 349.58
  Q 242.06 349.15 241.82 349.03"
/>
<path stroke="#f7b978" vector-effect="non-scaling-stroke" d="
  M 241.82 349.03
  Q 242.00 348.38 241.59 347.73
  Q 236.62 339.90 228.07 340.62
  C 224.14 340.95 219.35 343.38 215.29 344.96"
/>
<path stroke="#785145" vector-effect="non-scaling-stroke" d="
  M 351.10 353.48
  L 353.23 367.73
  Q 353.31 368.27 352.78 368.43
  L 324.14 377.13"
/>
<path stroke="#806833" vector-effect="non-scaling-stroke" d="
  M 198.29 327.22
  L 189.22 328.76
  Q 188.97 328.80 189.01 329.05
  L 189.07 329.31
  A 0.12 0.12 0.0 0 0 189.21 329.41
  L 198.44 328.11"
/>
<path stroke="#806833" vector-effect="non-scaling-stroke" d="
  M 199.26 329.72
  L 192.68 335.82
  A 0.64 0.64 0.0 0 0 193.15 336.93
  L 201.72 336.42"
/>
<path stroke="#806833" vector-effect="non-scaling-stroke" d="
  M 202.65 338.56
  L 198.33 346.07
  Q 197.39 347.69 199.17 347.10
  L 205.19 345.11"
/>
<path stroke="#806833" vector-effect="non-scaling-stroke" d="
  M 241.82 349.03
  L 193.52 373.12
  Q 192.67 373.55 192.27 372.68
  L 172.21 329.21"
/>
<path stroke="#806833" vector-effect="non-scaling-stroke" d="
  M 219.02 368.51
  L 207.32 374.35"
/>
<path stroke="#785145" vector-effect="non-scaling-stroke" d="
  M 266.21 364.23
  L 265.33 374.37
  Q 265.29 374.90 265.82 374.96
  L 275.47 376.11"
/>
<path stroke="#806833" vector-effect="non-scaling-stroke" d="
  M 241.99 349.58
  L 184.06 379.01"
/>
<path stroke="#806833" vector-effect="non-scaling-stroke" d="
  M 183.71 378.01
  L 191.53 374.10
  Q 192.02 373.86 191.79 373.37
  L 171.20 329.22"
/>
<path stroke="#805633" vector-effect="non-scaling-stroke" d="
  M 295.42 102.23
  Q 288.12 109.62 279.38 115.60"
/>
<path stroke="#806833" vector-effect="non-scaling-stroke" d="
  M 199.55 330.86
  L 194.06 335.66
  A 0.24 0.24 0.0 0 0 194.23 336.08
  L 201.38 335.47"
/>
<path stroke="#806833" vector-effect="non-scaling-stroke" d="
  M 203.07 339.88
  L 199.63 345.45
  Q 199.19 346.16 199.98 345.87
  L 204.76 344.10"
/>
<path stroke="#f1a45e" vector-effect="non-scaling-stroke" d="
  M 194.61 318.83
  L 172.21 329.21"
/>
<path stroke="#713c2b" vector-effect="non-scaling-stroke" d="
  M 172.21 329.21
  L 171.73 328.73
  Q 171.36 328.35 171.26 328.87
  L 171.20 329.22"
/>
<path stroke="#f1a45e" vector-effect="non-scaling-stroke" d="
  M 171.20 329.22
  L 164.05 332.13"
/>
<path stroke="#785145" vector-effect="non-scaling-stroke" d="
  M 378.48 360.54
  L 369.30 363.36
  Q 368.77 363.52 368.62 362.99
  L 365.06 350.31"
/>
<path stroke="#003874" vector-effect="non-scaling-stroke" d="
  M 170.34 185.10
  L 161.48 186.14
  Q 160.97 186.20 160.97 186.72
  C 161.05 204.86 140.34 211.59 126.05 212.88
  A 0.48 0.46 77.2 0 0 125.66 213.52
  L 142.54 257.60
  A 0.64 0.64 0.0 0 0 143.42 257.94
  L 167.68 246.02
  Q 168.15 245.79 167.98 245.30
  L 158.71 218.50
  A 0.71 0.71 0.0 0 1 159.02 217.67
  Q 162.41 215.70 165.97 213.53
  Q 166.12 213.44 166.36 213.50
  Q 166.85 213.62 166.45 213.93
  L 165.66 214.56"
/>
<path stroke="#002270" vector-effect="non-scaling-stroke" d="
  M 165.66 214.56
  L 160.24 217.89
  A 1.12 1.11 -25.4 0 0 159.77 219.20
  L 166.85 239.65
  A 1.21 1.21 0.0 0 0 167.85 240.45
  L 176.25 241.42"
/>
<path stroke="#003874" vector-effect="non-scaling-stroke" d="
  M 176.25 241.42
  L 181.26 242.22"
/>
<path stroke="#003874" vector-effect="non-scaling-stroke" d="
  M 181.01 242.78
  L 176.71 242.31"
/>
<path stroke="#002270" vector-effect="non-scaling-stroke" d="
  M 176.71 242.31
  L 167.57 241.08
  A 0.16 0.16 0.0 0 0 167.40 241.29
  L 170.77 250.88
  A 0.41 0.40 82.1 0 0 171.12 251.15
  L 179.07 251.98"
/>
<path stroke="#003874" vector-effect="non-scaling-stroke" d="
  M 179.07 251.98
  L 179.80 252.38"
/>
<path stroke="#713c2b" vector-effect="non-scaling-stroke" d="
  M 179.03 256.98
  L 174.06 259.04
  A 0.67 0.66 -22.9 0 0 173.70 259.91
  Q 175.16 263.30 176.12 267.01
  Q 176.22 267.39 176.81 267.73"
/>
<path stroke="#713c2b" vector-effect="non-scaling-stroke" d="
  M 176.63 269.05
  Q 176.09 268.90 175.96 268.51
  Q 174.08 263.05 172.20 257.43
  A 0.48 0.48 0.0 0 0 171.49 257.18
  L 141.96 275.71
  A 0.62 0.62 0.0 0 0 141.72 276.47
  Q 149.14 294.36 156.66 312.25
  Q 156.83 312.65 156.47 313.20"
/>
<path stroke="#713c2b" vector-effect="non-scaling-stroke" d="
  M 156.10 313.51
  L 140.08 274.55"
/>
<path stroke="#003874" vector-effect="non-scaling-stroke" d="
  M 139.16 271.70
  L 144.36 269.19
  Q 145.87 268.47 145.28 266.90
  L 142.86 260.52
  Q 142.37 259.22 141.13 259.85
  L 127.33 266.84"
/>
<path stroke="#003874" vector-effect="non-scaling-stroke" d="
  M 127.01 266.13
  L 141.72 258.87
  A 0.50 0.49 66.2 0 0 141.96 258.24
  L 124.84 213.50
  Q 124.64 212.99 124.11 213.03
  Q 118.32 213.42 113.00 212.13"
/>
<path stroke="#805633" vector-effect="non-scaling-stroke" d="
  M 136.71 188.75
  L 152.55 187.18
  A 0.32 0.31 -79.1 0 1 152.86 187.64
  L 150.53 192.12
  A 0.63 0.62 -68.6 0 0 150.91 193.01
  L 155.75 194.33
  A 0.53 0.53 0.0 0 0 156.41 193.71
  L 155.15 187.76
  Q 154.99 187.03 155.73 186.96
  L 157.73 186.78
  Q 157.98 186.76 157.97 186.52
  L 157.95 186.21
  Q 157.94 185.96 157.69 185.98
  L 136.72 187.69"
/>
<path stroke="#f1a45e" vector-effect="non-scaling-stroke" d="
  M 140.05 337.21
  L 125.92 324.63"
/>
<path stroke="#713c2b" vector-effect="non-scaling-stroke" d="
  M 125.92 324.63
  Q 125.93 324.43 125.74 324.24
  Q 125.64 324.13 125.47 324.15
  Q 125.36 324.16 125.31 324.16"
/>
<path stroke="#f1a45e" vector-effect="non-scaling-stroke" d="
  M 125.31 324.16
  L 116.25 316.09"
/>
<path stroke="#80a0a7" vector-effect="non-scaling-stroke" d="
  M 173.68 192.14
  Q 172.91 192.84 172.04 192.97
  Q 171.51 193.04 171.43 192.51
  L 170.34 185.10"
/>
<path stroke="#806833" vector-effect="non-scaling-stroke" d="
  M 170.34 185.10
  L 169.03 177.31"
/>
<path stroke="#0059e4" vector-effect="non-scaling-stroke" d="
  M 176.71 242.31
  C 177.37 245.12 179.24 249.28 179.07 251.98"
/>
<path stroke="#806833" vector-effect="non-scaling-stroke" d="
  M 137.59 180.31
  L 136.19 187.40
  Q 136.13 187.69 136.40 187.82
  Q 136.69 187.95 136.72 187.69"
/>
<path stroke="#ffbe66" vector-effect="non-scaling-stroke" d="
  M 136.72 187.69
  Q 136.53 188.26 136.71 188.75"
/>
<path stroke="#806833" vector-effect="non-scaling-stroke" d="
  M 136.71 188.75
  Q 135.47 188.59 135.20 191.42
  Q 135.08 192.64 133.86 192.72
  L 107.94 194.37"
/>
<path stroke="#abc4b3" vector-effect="non-scaling-stroke" d="
  M 165.73 155.48
  L 169.03 177.31"
/>
<path stroke="#2c5c80" vector-effect="non-scaling-stroke" d="
  M 169.03 177.31
  L 137.59 180.31"
/>
<path stroke="#abc4b3" vector-effect="non-scaling-stroke" d="
  M 137.59 180.31
  L 142.49 155.86"
/>
<path stroke="#0059e4" vector-effect="non-scaling-stroke" d="
  M 176.25 241.42
  L 168.64 214.72
  Q 168.49 214.18 167.95 214.35
  Q 166.78 214.70 165.66 214.56"
/>
<path stroke="#806833" vector-effect="non-scaling-stroke" d="
  M 125.92 324.63
  L 101.17 352.86
  Q 100.75 353.34 101.09 353.88
  L 115.91 377.56
  A 0.85 0.83 -16.3 0 0 116.64 377.95
  Q 131.04 377.78 145.64 377.74
  Q 146.00 377.74 146.04 378.40"
/>
<path stroke="#806833" vector-effect="non-scaling-stroke" d="
  M 146.04 378.40
  L 116.36 378.64
  A 1.10 1.09 73.5 0 1 115.41 378.12
  L 100.47 354.29
  A 0.37 0.37 0.0 0 0 99.88 354.24
  L 94.48 360.23"
/>
<path stroke="#806833" vector-effect="non-scaling-stroke" d="
  M 94.11 359.59
  L 99.42 353.61
  Q 99.75 353.24 99.48 352.82
  L 93.75 343.69"
/>
<path stroke="#806833" vector-effect="non-scaling-stroke" d="
  M 136.46 341.84
  L 126.60 336.21
  A 0.45 0.45 0.0 0 0 126.03 336.88
  L 132.58 345.11
  Q 132.82 345.42 132.85 345.81
  L 132.88 346.32"
/>
<path stroke="#806833" vector-effect="non-scaling-stroke" d="
  M 129.12 350.98
  L 116.43 351.33
  Q 112.82 351.43 116.25 352.58
  L 129.60 357.08"
/>
<path stroke="#806833" vector-effect="non-scaling-stroke" d="
  M 130.58 364.00
  C 127.01 364.32 122.60 363.61 118.82 366.28
  Q 118.58 366.45 118.74 366.69
  L 118.88 366.90
  Q 118.90 366.94 118.95 366.92
  C 123.42 364.26 126.83 365.12 131.31 364.63"
/>
<path stroke="#ffd066" vector-effect="non-scaling-stroke" d="
  M 146.74 378.22
  Q 145.84 378.20 146.04 378.40"
/>
<path stroke="#806833" vector-effect="non-scaling-stroke" d="
  M 125.31 324.16
  L 100.74 352.20
  A 0.52 0.51 49.5 0 1 99.92 352.13
  L 94.22 343.07"
/>
<path stroke="#713c2b" vector-effect="non-scaling-stroke" d="
  M 183.59 151.76
  Q 183.94 153.17 184.77 153.87"
/>
<path stroke="#f1915e" vector-effect="non-scaling-stroke" d="
  M 196.29 163.41
  L 202.06 168.30"
/>
<path stroke="#713c2b" vector-effect="non-scaling-stroke" d="
  M 202.06 168.30
  Q 203.59 170.33 205.98 172.09
  Q 207.59 173.27 206.51 171.59
  Q 206.40 171.43 205.95 170.97
  Q 205.58 170.59 205.95 170.21
  L 213.04 162.90"
/>
<path stroke="#f1a45e" vector-effect="non-scaling-stroke" d="
  M 187.21 185.22
  L 166.36 155.18
  Q 166.20 154.95 166.06 155.19
  Q 165.96 155.38 165.73 155.48"
/>
<path stroke="#9d97ab" vector-effect="non-scaling-stroke" d="
  M 165.73 155.48
  L 165.31 153.97"
/>
<path stroke="#713c2b" vector-effect="non-scaling-stroke" d="
  M 165.31 153.97
  L 164.28 151.14
  Q 164.10 150.67 163.59 150.63
  L 160.59 150.41
  A 0.37 0.37 0.0 0 0 160.20 150.84
  Q 160.23 150.99 160.33 151.12
  Q 160.58 151.47 160.97 151.26
  Q 161.48 150.98 161.93 151.29
  A 0.43 0.42 39.8 0 1 161.99 151.94
  L 161.62 152.29
  A 0.27 0.26 36.2 0 0 161.69 152.72
  Q 161.85 152.80 162.00 152.87
  Q 162.19 152.97 162.29 152.78
  L 162.83 151.81
  A 0.51 0.51 0.0 0 1 163.63 151.70
  Q 164.19 152.26 164.19 153.44"
/>
<path stroke="#9d97ab" vector-effect="non-scaling-stroke" d="
  M 164.19 153.44
  Q 162.94 154.06 160.94 153.95"
/>
<path stroke="#713c2b" vector-effect="non-scaling-stroke" d="
  M 160.94 153.95
  Q 159.75 153.38 158.55 152.18"
/>
<path stroke="#d6aaab" vector-effect="non-scaling-stroke" d="
  M 158.55 152.18
  Q 157.31 150.36 157.02 148.12"
/>
<path stroke="#713c2b" vector-effect="non-scaling-stroke" d="
  M 157.02 148.12
  L 164.27 147.50
  A 0.24 0.24 0.0 0 0 164.48 147.29
  L 164.50 147.01
  Q 164.51 146.97 164.47 146.97
  L 157.71 147.07"
/>
<path stroke="#d6aaab" vector-effect="non-scaling-stroke" d="
  M 157.71 147.07
  L 157.87 144.72"
/>
<path stroke="#713c2b" vector-effect="non-scaling-stroke" d="
  M 157.87 144.72
  Q 160.71 143.19 165.25 143.84
  A 0.40 0.40 0.0 0 0 165.70 143.36
  Q 165.64 143.12 165.25 143.10
  Q 161.91 143.00 158.47 143.24"
/>
<path stroke="#d6aaab" vector-effect="non-scaling-stroke" d="
  M 158.47 143.24
  Q 158.76 141.57 159.88 140.11"
/>
<path stroke="#713c2b" vector-effect="non-scaling-stroke" d="
  M 159.88 140.11
  Q 160.91 140.29 161.96 139.53
  Q 162.34 139.25 162.79 139.37
  C 164.30 139.78 167.04 139.75 168.19 140.88
  Q 169.36 142.04 168.81 140.48
  Q 168.56 139.78 167.25 139.48
  Q 165.09 138.99 162.87 138.94
  Q 162.39 138.93 162.08 138.57
  Q 160.68 136.92 158.89 137.49"
/>
<path stroke="#d6aaab" vector-effect="non-scaling-stroke" d="
  M 158.89 137.49
  Q 158.95 137.82 157.78 137.23"
/>
<path stroke="#713c2b" vector-effect="non-scaling-stroke" d="
  M 157.78 137.23
  Q 158.31 136.76 157.96 136.57
  Q 156.11 135.57 153.76 135.46"
/>
<path stroke="#656f80" vector-effect="non-scaling-stroke" d="
  M 151.50 136.89
  L 157.78 137.23"
/>
<path stroke="#656f80" vector-effect="non-scaling-stroke" d="
  M 158.89 137.49
  L 159.88 140.11"
/>
<path stroke="#656f80" vector-effect="non-scaling-stroke" d="
  M 158.47 143.24
  Q 157.72 143.99 157.87 144.72"
/>
<path stroke="#656f80" vector-effect="non-scaling-stroke" d="
  M 157.71 147.07
  Q 156.89 147.43 157.02 148.12"
/>
<path stroke="#656f80" vector-effect="non-scaling-stroke" d="
  M 158.55 152.18
  C 158.17 154.24 158.74 155.50 156.88 156.96"
/>
<path stroke="#91caff" vector-effect="non-scaling-stroke" d="
  M 156.88 156.96
  L 142.49 155.86"
/>
<path stroke="#e5d7b3" vector-effect="non-scaling-stroke" d="
  M 142.49 155.86
  L 134.10 155.03"
/>
<path stroke="#8e9cb0" vector-effect="non-scaling-stroke" d="
  M 131.46 154.85
  L 130.77 154.80"
/>
<path stroke="#656f80" vector-effect="non-scaling-stroke" d="
  M 129.37 145.00
  Q 130.10 142.22 129.63 139.77"
/>
<path stroke="#713c2b" vector-effect="non-scaling-stroke" d="
  M 128.20 135.27
  Q 127.71 135.26 127.85 135.88
  Q 128.85 140.36 129.37 145.00"
/>
<path stroke="#d6aaab" vector-effect="non-scaling-stroke" d="
  M 129.37 145.00
  C 129.30 147.74 127.33 153.67 130.77 154.80"
/>
<path stroke="#9a695b" vector-effect="non-scaling-stroke" d="
  M 130.77 154.80
  L 131.44 155.99
  Q 131.74 156.52 132.13 156.06
  Q 132.31 155.85 132.39 155.56
  Q 132.51 155.09 132.03 154.98
  L 131.46 154.85"
/>
<path stroke="#d6aaab" vector-effect="non-scaling-stroke" d="
  M 131.46 154.85
  L 134.10 155.03"
/>
<path stroke="#f1a45e" vector-effect="non-scaling-stroke" d="
  M 134.10 155.03
  Q 131.79 162.83 126.23 168.18
  C 119.18 174.96 112.48 182.14 105.67 189.02"
/>
<path stroke="#713c2b" vector-effect="non-scaling-stroke" d="
  M 77.80 169.21
  L 83.56 174.83
  Q 84.85 176.09 83.07 175.97
  Q 82.45 175.93 81.80 176.77
  Q 81.22 177.53 82.11 177.16
  L 88.94 174.38"
/>
<path stroke="#f1915e" vector-effect="non-scaling-stroke" d="
  M 88.94 174.38
  L 95.85 170.82"
/>
<path stroke="#713c2b" vector-effect="non-scaling-stroke" d="
  M 122.65 138.25
  Q 125.35 143.55 125.10 150.18
  Q 125.09 150.36 125.26 150.44
  Q 125.40 150.51 125.54 150.58
  A 0.08 0.08 0.0 0 0 125.66 150.51
  Q 126.38 143.19 123.28 138.12"
/>
<path stroke="#713c2b" vector-effect="non-scaling-stroke" d="
  M 124.19 135.40
  C 127.20 137.04 127.38 147.04 127.31 149.82
  Q 127.31 149.88 127.37 149.89
  L 127.66 149.94
  Q 127.91 149.98 127.88 149.73
  Q 127.76 148.76 127.89 145.00
  Q 128.05 140.76 125.72 135.29
  Q 125.54 134.87 124.76 134.65"
/>
<path stroke="#2c5c80" vector-effect="non-scaling-stroke" d="
  M 165.31 153.97
  L 164.19 153.44"
/>
<path stroke="#2c5c80" vector-effect="non-scaling-stroke" d="
  M 160.94 153.95
  C 161.49 156.65 159.25 158.06 156.88 156.96"
/>
<path stroke="#806833" vector-effect="non-scaling-stroke" d="
  M 135.64 342.89
  L 128.78 338.61
  Q 127.83 338.01 128.53 338.89
  L 133.76 345.35"
/>
<path stroke="#806833" vector-effect="non-scaling-stroke" d="
  M 128.69 351.84
  L 118.53 352.03
  Q 116.89 352.06 118.45 352.56
  L 129.31 356.07"
/>
<path stroke="#805633" vector-effect="non-scaling-stroke" d="
  M 211.43 158.88
  L 202.06 168.30"
/>
<path stroke="#806833" vector-effect="non-scaling-stroke" d="
  M 183.59 124.94
  L 181.16 138.80
  Q 181.12 139.04 181.35 139.04
  L 181.69 139.04
  Q 181.70 139.04 181.70 139.03
  Q 183.13 132.94 183.97 126.75
  Q 184.02 126.36 184.65 125.51"
/>
<path stroke="#ffbe66" vector-effect="non-scaling-stroke" d="
  M 207.50 152.61
  L 196.29 163.41"
/>
<path stroke="#f1a45e" vector-effect="non-scaling-stroke" d="
  M 196.29 163.41
  L 184.77 153.87"
/>
<path stroke="#806833" vector-effect="non-scaling-stroke" d="
  M 184.77 153.87
  L 182.96 147.42
  Q 182.90 147.20 182.71 147.32
  L 182.45 147.48
  Q 182.29 147.58 182.35 147.76
  L 183.59 151.76"
/>
<path stroke="#f1a45e" vector-effect="non-scaling-stroke" d="
  M 183.59 151.76
  Q 183.62 152.06 183.49 152.21
  A 0.48 0.48 0.0 0 1 182.84 152.27
  Q 178.71 149.06 174.61 145.60
  C 172.16 143.52 171.33 140.00 169.06 137.74
  Q 166.07 134.75 162.08 133.33"
/>
<path stroke="#abc4b3" vector-effect="non-scaling-stroke" d="
  M 162.08 133.33
  L 160.98 126.52"
/>
<path stroke="#9d97ab" vector-effect="non-scaling-stroke" d="
  M 162.08 133.33
  L 155.36 132.48
  A 1.41 1.41 0.0 0 0 153.78 133.85
  L 153.76 135.46"
/>
<path stroke="#2c5c80" vector-effect="non-scaling-stroke" d="
  M 153.76 135.46
  L 151.81 135.26
  Q 151.28 135.21 151.08 135.70
  Q 150.76 136.45 151.50 136.89"
/>
<path stroke="#91caff" vector-effect="non-scaling-stroke" d="
  M 151.50 136.89
  Q 151.25 137.10 151.17 137.30
  Q 150.94 137.84 151.53 137.85
  Q 152.47 137.87 152.73 138.62
  Q 152.97 139.30 152.25 139.28
  L 149.46 139.19
  A 0.65 0.64 1.4 0 1 148.83 138.54
  Q 148.84 138.02 149.08 137.59
  Q 149.93 136.11 148.42 136.49
  Q 147.56 136.71 146.55 136.02"
/>
<path stroke="#abc4b3" vector-effect="non-scaling-stroke" d="
  M 147.85 129.82
  L 146.55 136.02"
/>
<path stroke="#e5d7b3" vector-effect="non-scaling-stroke" d="
  M 146.55 136.02
  L 131.75 135.11
  A 0.84 0.83 -70.7 0 0 131.01 135.47
  Q 129.68 137.32 129.63 139.77"
/>
<path stroke="#806833" vector-effect="non-scaling-stroke" d="
  M 129.63 139.77
  Q 129.33 136.74 128.20 135.27"
/>
<path stroke="#f1a45e" vector-effect="non-scaling-stroke" d="
  M 128.20 135.27
  L 126.61 133.81
  Q 126.21 133.44 125.78 133.79
  L 124.76 134.65"
/>
<path stroke="#806833" vector-effect="non-scaling-stroke" d="
  M 124.76 134.65
  Q 124.18 135.12 124.19 135.40"
/>
<path stroke="#f1a45e" vector-effect="non-scaling-stroke" d="
  M 124.19 135.40
  Q 121.46 137.46 123.28 138.12"
/>
<path stroke="#806833" vector-effect="non-scaling-stroke" d="
  M 123.28 138.12
  Q 122.96 138.19 122.65 138.25"
/>
<path stroke="#f1a45e" vector-effect="non-scaling-stroke" d="
  M 122.65 138.25
  Q 120.45 139.27 120.80 141.00
  Q 122.84 150.84 118.82 159.30
  Q 118.41 160.18 117.53 160.59
  L 95.85 170.82"
/>
<path stroke="#ffbe66" vector-effect="non-scaling-stroke" d="
  M 95.85 170.82
  L 83.79 159.41"
/>
<path stroke="#806833" vector-effect="non-scaling-stroke" d="
  M 116.38 128.74
  L 119.36 138.96
  A 0.26 0.25 -15.9 0 0 119.68 139.13
  L 119.94 139.05
  Q 120.04 139.02 120.01 138.92
  L 116.94 128.49"
/>
<path stroke="#805633" vector-effect="non-scaling-stroke" d="
  M 88.94 174.38
  L 79.16 166.27"
/>
<path stroke="#806833" vector-effect="non-scaling-stroke" d="
  M 158.72 117.95
  C 159.45 119.71 159.81 121.37 161.09 122.82
  Q 163.44 125.48 165.90 128.21
  Q 166.49 128.85 166.45 127.98
  L 166.18 122.09"
/>
<path stroke="#806833" vector-effect="non-scaling-stroke" d="
  M 167.00 122.36
  L 167.34 129.62
  Q 167.41 130.97 166.51 129.96
  L 161.21 123.98"
/>
<path stroke="#71739f" vector-effect="non-scaling-stroke" d="
  M 148.63 95.55
  Q 149.57 97.18 151.76 99.01"
/>
<path stroke="#713c2b" vector-effect="non-scaling-stroke" d="
  M 151.76 99.01
  Q 145.92 99.55 154.24 100.75
  Q 154.63 100.81 154.74 100.43
  Q 154.80 100.26 154.68 100.08"
/>
<path stroke="#71739f" vector-effect="non-scaling-stroke" d="
  M 154.68 100.08
  Q 155.81 99.65 156.51 100.04
  Q 156.95 100.30 156.92 100.81
  Q 156.68 105.32 159.74 106.54"
/>
<path stroke="#715d9b" vector-effect="non-scaling-stroke" d="
  M 161.56 113.63
  Q 158.88 112.48 157.56 113.99
  Q 157.27 114.33 157.33 114.76
  L 157.68 117.49"
/>
<path stroke="#713c2b" vector-effect="non-scaling-stroke" d="
  M 157.68 117.49
  L 158.55 123.99
  Q 158.62 124.47 159.11 124.45
  Q 160.16 124.40 161.21 123.98"
/>
<path stroke="#f1a45e" vector-effect="non-scaling-stroke" d="
  M 161.21 123.98
  Q 160.80 124.73 160.98 126.52"
/>
<path stroke="#9d97ab" vector-effect="non-scaling-stroke" d="
  M 160.98 126.52
  Q 156.13 132.27 147.85 129.82"
/>
<path stroke="#f1a45e" vector-effect="non-scaling-stroke" d="
  M 147.85 129.82
  Q 148.35 126.97 147.47 124.52"
/>
<path stroke="#713c2b" vector-effect="non-scaling-stroke" d="
  M 147.47 124.52
  L 148.66 121.44
  Q 148.85 120.96 149.33 120.81
  Q 153.77 119.46 156.55 115.78
  Q 157.64 114.35 156.13 115.32
  Q 152.16 117.86 146.88 117.18"
/>
<path stroke="#715d9b" vector-effect="non-scaling-stroke" d="
  M 146.88 117.18
  Q 142.99 116.21 140.47 113.74"
/>
<path stroke="#713c2b" vector-effect="non-scaling-stroke" d="
  M 140.59 102.73
  Q 141.60 104.54 142.88 104.52"
/>
<path stroke="#d6aaab" vector-effect="non-scaling-stroke" d="
  M 142.88 104.52
  Q 144.29 105.57 145.21 104.53"
/>
<path stroke="#713c2b" vector-effect="non-scaling-stroke" d="
  M 145.21 104.53
  Q 144.97 105.22 145.33 105.82
  Q 145.48 106.06 145.74 105.96
  Q 145.90 105.90 145.95 105.75
  Q 146.13 105.31 146.62 105.64
  Q 146.86 105.79 147.12 105.83
  Q 147.71 105.92 147.36 105.44
  Q 146.78 104.64 146.27 103.87
  Q 146.08 103.58 145.88 103.50
  Q 145.53 103.38 145.31 103.72"
/>
<path stroke="#d6aaab" vector-effect="non-scaling-stroke" d="
  M 145.31 103.72
  Q 145.16 102.93 144.64 102.76"
/>
<path stroke="#713c2b" vector-effect="non-scaling-stroke" d="
  M 144.64 102.76
  Q 144.41 100.47 140.98 101.01"
/>
<path stroke="#713c2b" vector-effect="non-scaling-stroke" d="
  M 141.55 100.11
  Q 143.12 99.37 144.85 99.66
  Q 145.10 99.70 145.15 99.46
  L 145.20 99.21
  Q 145.22 99.11 145.12 99.08
  Q 143.67 98.72 142.26 99.00"
/>
<path stroke="#806833" vector-effect="non-scaling-stroke" d="
  M 147.47 124.52
  L 143.02 133.78
  Q 142.62 134.62 142.05 133.89
  L 134.23 123.95"
/>
<path stroke="#806833" vector-effect="non-scaling-stroke" d="
  M 134.79 123.66
  L 141.92 132.62
  A 0.52 0.52 0.0 0 0 142.80 132.52
  L 147.83 122.00
  A 0.75 0.74 27.1 0 0 147.51 121.03
  L 140.80 117.38"
/>
<path stroke="#808aa3" vector-effect="non-scaling-stroke" d="
  M 161.69 119.52
  Q 160.25 118.34 158.72 117.95"
/>
<path stroke="#002270" vector-effect="non-scaling-stroke" d="
  M 158.72 117.95
  Q 158.31 117.61 157.68 117.49"
/>
<path stroke="#656f80" vector-effect="non-scaling-stroke" d="
  M 144.64 102.76
  Q 144.07 103.80 142.88 104.52"
/>
<path stroke="#002270" vector-effect="non-scaling-stroke" d="
  M 146.88 117.18
  Q 144.52 117.84 140.80 117.38"
/>
<path stroke="#808aa3" vector-effect="non-scaling-stroke" d="
  M 140.80 117.38
  Q 141.56 117.72 140.33 117.66"
/>
<path stroke="#9ea58c" vector-effect="non-scaling-stroke" d="
  M 162.16 106.16
  Q 160.33 105.62 159.74 106.54"
/>
<path stroke="#2da1d5" vector-effect="non-scaling-stroke" d="
  M 159.74 106.54
  Q 159.61 104.20 157.95 101.50
  Q 154.69 96.18 148.63 95.55"
/>
<path stroke="#9ea58c" vector-effect="non-scaling-stroke" d="
  M 148.63 95.55
  Q 145.13 95.41 142.26 99.00"
/>
<path stroke="#2d6a61" vector-effect="non-scaling-stroke" d="
  M 142.26 99.00
  Q 142.04 98.87 141.82 98.74"
/>
<path stroke="#003874" vector-effect="non-scaling-stroke" d="
  M 154.68 100.08
  L 151.76 99.01"
/>
<path stroke="#656f80" vector-effect="non-scaling-stroke" d="
  M 145.31 103.72
  Q 145.17 104.11 145.21 104.53"
/>
<path stroke="#2965a4" vector-effect="non-scaling-stroke" d="
  M 348.64 73.00
  Q 348.21 72.08 347.78 71.17
  Q 347.46 70.51 346.75 70.63
  A 0.64 0.64 0.0 0 0 346.28 71.51
  Q 346.66 72.43 347.38 73.13
  Q 347.74 73.49 347.84 73.99
  Q 348.11 75.35 349.37 76.03
  Q 350.02 76.37 350.09 75.64
  Q 350.20 74.51 349.24 73.75
  Q 348.85 73.44 348.64 73.00"
/>
<path stroke="#d6aaab" vector-effect="non-scaling-stroke" d="
  M 152.42 105.65
  Q 153.43 106.14 154.89 104.80
  Q 155.60 104.15 154.89 103.50
  Q 154.11 102.79 153.19 102.83"
/>
<path stroke="#713c2b" vector-effect="non-scaling-stroke" d="
  M 153.19 102.83
  Q 152.18 101.85 149.23 103.08
  A 1.37 1.37 0.0 0 0 148.65 105.14
  Q 150.14 107.22 152.42 105.65"
/>
<path stroke="#656f80" vector-effect="non-scaling-stroke" d="
  M 153.19 102.83
  Q 153.50 104.37 152.42 105.65"
/>
<path stroke="#713c2b" vector-effect="non-scaling-stroke" d="
  M 160.83 110.71
  L 161.24 111.16
  A 0.31 0.31 0.0 0 0 161.74 111.08
  Q 161.91 110.75 161.76 110.40
  A 0.69 0.67 88.4 0 0 161.42 110.07
  Q 161.18 109.96 161.07 109.76
  Q 160.93 109.51 161.15 109.33
  L 161.71 108.85
  A 0.35 0.34 5.5 0 0 161.27 108.32
  Q 160.23 109.15 159.36 110.16
  A 0.35 0.35 0.0 0 0 159.78 110.70
  L 160.06 110.57
  Q 160.50 110.35 160.83 110.71"
/>
<path stroke="#713c2b" vector-effect="non-scaling-stroke" d="
  M 146.28 109.19
  L 145.60 108.46
  Q 145.19 108.03 144.73 108.40
  Q 144.39 108.67 144.35 109.06
  Q 144.27 109.70 144.91 109.71
  L 146.03 109.74
  A 0.33 0.33 0.0 0 0 146.28 109.19"
/>
<path stroke="#785145" vector-effect="non-scaling-stroke" d="
  M 295.87 112.00
  Q 298.28 112.95 299.89 110.73
  Q 300.22 110.28 299.80 109.90
  Q 297.91 108.20 295.23 108.88"
/>
<path stroke="#ddbfc4" vector-effect="non-scaling-stroke" d="
  M 295.23 108.88
  Q 293.61 109.54 292.76 111.04
  Q 292.52 111.48 292.94 111.74
  Q 294.85 112.92 295.87 112.00"
/>
<path stroke="#656f80" vector-effect="non-scaling-stroke" d="
  M 295.23 108.88
  Q 295.04 110.68 295.87 112.00"
/>
<path stroke="#e98c70" vector-effect="non-scaling-stroke" d="
  M 301.06 115.34
  L 297.81 115.43
  Q 297.31 115.45 297.62 115.84
  Q 299.66 118.44 301.60 116.74
  Q 303.26 115.28 301.06 115.34"
/>
<path stroke="#713c2b" vector-effect="non-scaling-stroke" d="
  M 124.84 165.00
  C 127.56 162.40 128.77 158.49 128.16 154.78
  Q 128.14 154.69 128.05 154.70
  L 127.80 154.73
  A 0.28 0.27 83.8 0 0 127.56 155.04
  Q 128.03 160.58 124.24 164.64
  Q 124.18 164.70 124.24 164.76
  L 124.44 164.98
  A 0.28 0.28 0.0 0 0 124.84 165.00"
/>
<path stroke="#65a6f4" vector-effect="non-scaling-stroke" d="
  M 157.9343 138.5584
  A 0.40 0.40 0.0 0 0 157.5661 138.1289
  L 154.5351 137.8957
  A 0.40 0.40 0.0 0 0 154.1056 138.2638
  L 154.0457 139.0416
  A 0.40 0.40 0.0 0 0 154.4139 139.4711
  L 157.4449 139.7043
  A 0.40 0.40 0.0 0 0 157.8744 139.3362
  L 157.9343 138.5584"
/>
<path stroke="#656f80" vector-effect="non-scaling-stroke" d="
  M 154.1418 148.2267
  A 7.72 7.37 5.7 0 0 147.1920 140.1264
  A 7.72 7.37 5.7 0 0 138.7782 146.6933
  A 7.72 7.37 5.7 0 0 145.7280 154.7936
  A 7.72 7.37 5.7 0 0 154.1418 148.2267"
/>
<path stroke="#656f80" vector-effect="non-scaling-stroke" d="
  M 152.39 147.43
  A 6.34 6.34 0.0 0 0 146.05 141.09
  A 6.34 6.34 0.0 0 0 139.71 147.43
  A 6.34 6.34 0.0 0 0 146.05 153.77
  A 6.34 6.34 0.0 0 0 152.39 147.43"
/>
<path stroke="#656f80" vector-effect="non-scaling-stroke" d="
  M 150.35 147.41
  A 4.31 4.31 0.0 0 0 146.04 143.10
  A 4.31 4.31 0.0 0 0 141.73 147.41
  A 4.31 4.31 0.0 0 0 146.04 151.72
  A 4.31 4.31 0.0 0 0 150.35 147.41"
/>
<path stroke="#2d6a61" vector-effect="non-scaling-stroke" d="
  M 249.00 188.13
  C 253.23 186.64 256.01 185.30 259.59 181.96
  Q 264.18 177.67 269.65 175.94
  Q 272.19 175.13 269.53 175.21
  Q 261.11 175.44 253.31 178.79"
/>
<path stroke="#2d6a61" vector-effect="non-scaling-stroke" d="
  M 270.64 176.86
  C 267.47 178.87 264.32 181.23 260.17 183.40
  Q 255.05 186.09 255.66 192.14
  A 1.19 1.19 0.0 0 0 257.63 192.92
  Q 265.46 186.04 270.93 177.15
  Q 271.40 176.39 270.64 176.86"
/>
<path stroke="#2d6a61" vector-effect="non-scaling-stroke" d="
  M 267.3018 177.8827
  A 3.67 0.36 -32.6 0 0 264.0160 179.5567
  A 3.67 0.36 -32.6 0 0 261.1182 181.8373
  A 3.67 0.36 -32.6 0 0 264.4040 180.1633
  A 3.67 0.36 -32.6 0 0 267.3018 177.8827"
/>
<path stroke="#003874" vector-effect="non-scaling-stroke" d="
  M 171.05 255.63
  A 0.57 0.57 0.0 0 0 171.34 254.94
  L 168.61 247.13
  A 0.57 0.57 0.0 0 0 167.82 246.80
  L 143.55 258.69
  A 0.57 0.57 0.0 0 0 143.27 259.40
  L 146.28 267.41
  A 0.57 0.57 0.0 0 0 147.07 267.71
  L 171.05 255.63"
/>
<path stroke="#785145" vector-effect="non-scaling-stroke" d="
  M 230.6904 238.5003
  A 2.37 0.42 127.1 0 0 232.4550 236.8633
  A 2.37 0.42 127.1 0 0 233.5496 234.7197
  A 2.37 0.42 127.1 0 0 231.7850 236.3567
  A 2.37 0.42 127.1 0 0 230.6904 238.5003"
/>
</g>
<path fill="#006fe8" d="
  M 352.49 77.81
  Q 355.44 82.16 354.05 86.12
  L 344.69 71.09
  A 1.21 1.20 -25.7 0 0 343.27 70.60
  L 342.89 70.74
  Q 341.36 71.30 342.24 72.67
  L 346.90 79.97
  L 345.68 80.40
  L 341.36 72.92
  Q 340.51 71.44 341.96 70.55
  L 344.96 68.71
  Q 346.43 67.81 347.33 69.29
  L 352.49 77.81
  Z
  M 348.64 73.00
  Q 348.21 72.08 347.78 71.17
  Q 347.46 70.51 346.75 70.63
  A 0.64 0.64 0.0 0 0 346.28 71.51
  Q 346.66 72.43 347.38 73.13
  Q 347.74 73.49 347.84 73.99
  Q 348.11 75.35 349.37 76.03
  Q 350.02 76.37 350.09 75.64
  Q 350.20 74.51 349.24 73.75
  Q 348.85 73.44 348.64 73.00
  Z"
/>
<path fill="#caddff" d="
  M 354.05 86.12
  Q 354.71 87.57 354.10 88.99
  Q 353.84 89.59 353.54 89.01
  C 351.94 85.98 350.77 81.55 346.90 79.97
  L 342.24 72.67
  Q 341.36 71.30 342.89 70.74
  L 343.27 70.60
  A 1.21 1.20 -25.7 0 1 344.69 71.09
  L 354.05 86.12
  Z"
/>
<path fill="#515a60" d="
  M 349.24 73.75
  Q 350.20 74.51 350.09 75.64
  Q 350.02 76.37 349.37 76.03
  Q 348.11 75.35 347.84 73.99
  Q 347.74 73.49 347.38 73.13
  Q 346.66 72.43 346.28 71.51
  A 0.64 0.64 0.0 0 1 346.75 70.63
  Q 347.46 70.51 347.78 71.17
  Q 348.21 72.08 348.64 73.00
  Q 348.85 73.44 349.24 73.75
  Z"
/>
<rect fill="#ffd066" x="-4.96" y="-0.41" transform="translate(333.18,75.16) rotate(-5.3)" width="9.92" height="0.82" rx="0.40"/>
<rect fill="#ffd066" x="-3.99" y="-0.44" transform="translate(335.41,78.50) rotate(-29.8)" width="7.98" height="0.88" rx="0.42"/>
<path fill="#efa189" d="
  M 361.68 104.22
  L 360.74 104.13
  Q 360.65 104.12 360.70 104.04
  Q 360.73 103.99 360.73 103.93
  Q 360.73 103.85 360.62 103.77
  Q 355.70 99.94 351.19 96.29
  Q 345.62 88.54 345.68 80.40
  L 346.90 79.97
  C 350.77 81.55 351.94 85.98 353.54 89.01
  Q 353.84 89.59 354.10 88.99
  Q 354.71 87.57 354.05 86.12
  Q 355.44 82.16 352.49 77.81
  C 358.48 75.09 364.26 84.40 365.58 88.76
  C 366.92 93.23 363.83 100.33 361.68 104.22
  Z"
/>
<path fill="#59d3c2" d="
  M 162.16 106.16
  Q 160.33 105.62 159.74 106.54
  Q 159.61 104.20 157.95 101.50
  Q 154.69 96.18 148.63 95.55
  Q 145.13 95.41 142.26 99.00
  Q 142.04 98.87 141.82 98.74
  C 140.32 96.58 136.27 91.71 141.12 90.43
  Q 147.98 88.62 153.00 93.48
  A 1.85 1.80 -15.2 0 0 153.83 93.94
  C 159.23 95.27 163.49 100.29 162.16 106.16
  Z"
/>
<path fill="#ffab66" d="
  M 300.58 106.06
  Q 299.65 103.76 297.47 103.47
  A 0.54 0.53 6.6 0 0 296.86 103.95
  Q 296.84 104.16 297.01 104.40
  L 296.22 105.68
  Q 294.89 106.34 293.65 107.68
  L 289.06 112.72
  Q 288.07 113.46 287.69 114.12
  L 285.98 115.87
  Q 286.48 115.78 285.89 116.22
  Q 285.63 116.02 284.54 116.67
  Q 279.32 119.05 278.19 124.68
  Q 278.08 125.21 277.66 125.54
  Q 274.58 127.99 270.62 128.91
  C 266.91 127.90 266.34 124.70 269.67 122.67
  Q 273.29 120.45 279.25 116.29
  Q 279.80 116.28 279.94 116.19
  Q 288.02 110.49 295.14 103.64
  Q 295.59 103.21 295.77 102.28
  C 298.54 99.32 300.96 93.67 304.44 91.80
  A 1.67 1.67 0.0 0 1 306.90 93.22
  C 307.04 97.96 303.46 102.57 300.58 106.06
  Z"
/>
<path fill="#e27756" d="
  M 148.63 95.55
  Q 149.57 97.18 151.76 99.01
  Q 145.92 99.55 154.24 100.75
  Q 154.63 100.81 154.74 100.43
  Q 154.80 100.26 154.68 100.08
  Q 155.81 99.65 156.51 100.04
  Q 156.95 100.30 156.92 100.81
  Q 156.68 105.32 159.74 106.54
  Q 160.33 105.62 162.16 106.16
  Q 166.15 109.12 161.56 113.63
  Q 158.88 112.48 157.56 113.99
  Q 157.27 114.33 157.33 114.76
  L 157.68 117.49
  L 158.55 123.99
  Q 158.62 124.47 159.11 124.45
  Q 160.16 124.40 161.21 123.98
  Q 160.80 124.73 160.98 126.52
  Q 156.13 132.27 147.85 129.82
  Q 148.35 126.97 147.47 124.52
  L 148.66 121.44
  Q 148.85 120.96 149.33 120.81
  Q 153.77 119.46 156.55 115.78
  Q 157.64 114.35 156.13 115.32
  Q 152.16 117.86 146.88 117.18
  Q 142.99 116.21 140.47 113.74
  Q 138.90 108.14 140.59 102.73
  Q 141.60 104.54 142.88 104.52
  Q 144.29 105.57 145.21 104.53
  Q 144.97 105.22 145.33 105.82
  Q 145.48 106.06 145.74 105.96
  Q 145.90 105.90 145.95 105.75
  Q 146.13 105.31 146.62 105.64
  Q 146.86 105.79 147.12 105.83
  Q 147.71 105.92 147.36 105.44
  Q 146.78 104.64 146.27 103.87
  Q 146.08 103.58 145.88 103.50
  Q 145.53 103.38 145.31 103.72
  Q 145.16 102.93 144.64 102.76
  Q 144.41 100.47 140.98 101.01
  Q 141.46 100.46 141.55 100.11
  Q 143.12 99.37 144.85 99.66
  Q 145.10 99.70 145.15 99.46
  L 145.20 99.21
  Q 145.22 99.11 145.12 99.08
  Q 143.67 98.72 142.26 99.00
  Q 145.13 95.41 148.63 95.55
  Z
  M 152.42 105.65
  Q 153.43 106.14 154.89 104.80
  Q 155.60 104.15 154.89 103.50
  Q 154.11 102.79 153.19 102.83
  Q 152.18 101.85 149.23 103.08
  A 1.37 1.37 0.0 0 0 148.65 105.14
  Q 150.14 107.22 152.42 105.65
  Z
  M 160.83 110.71
  L 161.24 111.16
  A 0.31 0.31 0.0 0 0 161.74 111.08
  Q 161.91 110.75 161.76 110.40
  A 0.69 0.67 88.4 0 0 161.42 110.07
  Q 161.18 109.96 161.07 109.76
  Q 160.93 109.51 161.15 109.33
  L 161.71 108.85
  A 0.35 0.34 5.5 0 0 161.27 108.32
  Q 160.23 109.15 159.36 110.16
  A 0.35 0.35 0.0 0 0 159.78 110.70
  L 160.06 110.57
  Q 160.50 110.35 160.83 110.71
  Z
  M 146.28 109.19
  L 145.60 108.46
  Q 145.19 108.03 144.73 108.40
  Q 144.39 108.67 144.35 109.06
  Q 144.27 109.70 144.91 109.71
  L 146.03 109.74
  A 0.33 0.33 0.0 0 0 146.28 109.19
  Z"
/>
<path fill="#006fe8" d="
  M 148.63 95.55
  Q 154.69 96.18 157.95 101.50
  Q 159.61 104.20 159.74 106.54
  Q 156.68 105.32 156.92 100.81
  Q 156.95 100.30 156.51 100.04
  Q 155.81 99.65 154.68 100.08
  L 151.76 99.01
  Q 149.57 97.18 148.63 95.55
  Z"
/>
<path fill="#59d3c2" d="
  M 351.19 96.29
  Q 355.70 99.94 360.62 103.77
  Q 360.73 103.85 360.73 103.93
  Q 360.73 103.99 360.70 104.04
  Q 360.65 104.12 360.74 104.13
  L 361.68 104.22
  Q 361.93 107.33 360.11 110.46
  Q 351.69 106.23 346.68 98.31
  Q 348.76 96.68 351.19 96.29
  Z"
/>
<path fill="#000000" d="
  M 346.68 98.31
  Q 351.69 106.23 360.11 110.46
  Q 360.37 110.66 359.97 111.05
  Q 359.73 111.18 359.53 111.07
  C 355.65 108.99 347.20 102.93 346.20 98.47
  Q 346.30 98.04 346.68 98.31
  Z"
/>
<path fill="#59d3c2" d="
  M 346.20 98.47
  C 347.20 102.93 355.65 108.99 359.53 111.07
  Q 359.73 111.18 359.97 111.05
  C 354.37 120.09 346.16 127.66 337.81 134.57
  Q 325.45 144.79 312.24 153.64
  Q 308.04 155.72 303.41 156.20
  Q 303.17 156.23 303.18 156.47
  L 303.18 156.48
  Q 303.19 156.71 303.43 156.72
  C 307.44 156.78 309.21 155.14 312.21 154.63
  Q 311.34 167.68 304.77 179.07
  Q 304.74 178.93 304.71 178.79
  Q 290.20 176.17 275.75 174.89
  Q 272.80 174.62 272.04 171.64
  Q 269.55 161.84 271.17 151.71
  Q 271.06 151.21 271.40 150.87
  Q 271.63 150.63 272.14 150.61
  Q 277.47 150.34 281.81 147.81
  A 2.10 2.10 0.0 0 0 282.00 144.30
  L 279.42 142.40
  A 1.32 1.31 -41.4 0 1 279.56 140.19
  C 282.02 138.82 284.40 137.87 286.69 136.19
  Q 286.76 136.14 286.84 136.18
  Q 286.95 136.24 287.06 136.30
  C 286.41 141.19 286.16 150.34 291.49 153.19
  Q 291.58 153.24 291.63 153.15
  L 291.76 152.93
  A 0.30 0.29 34.6 0 0 291.69 152.55
  C 287.07 148.92 286.85 141.55 287.86 136.20
  L 289.56 130.49
  L 295.01 129.37
  Q 296.20 129.49 296.75 129.06
  Q 319.88 111.30 346.20 98.47
  Z"
/>
<path fill="#000000" d="
  M 141.82 98.74
  Q 142.04 98.87 142.26 99.00
  Q 143.67 98.72 145.12 99.08
  Q 145.22 99.11 145.20 99.21
  L 145.15 99.46
  Q 145.10 99.70 144.85 99.66
  Q 143.12 99.37 141.55 100.11
  Q 141.35 99.40 141.82 98.74
  Z"
/>
<path fill="#000000" d="
  M 151.76 99.01
  L 154.68 100.08
  Q 154.80 100.26 154.74 100.43
  Q 154.63 100.81 154.24 100.75
  Q 145.92 99.55 151.76 99.01
  Z"
/>
<path fill="#000000" d="
  M 144.64 102.76
  Q 144.07 103.80 142.88 104.52
  Q 141.60 104.54 140.59 102.73
  Q 140.33 101.61 140.98 101.01
  Q 144.41 100.47 144.64 102.76
  Z"
/>
<path fill="#ffab66" d="
  M 295.42 102.23
  Q 288.12 109.62 279.38 115.60
  Q 278.39 106.26 286.25 101.82
  Q 290.62 99.34 295.42 102.23
  Z"
/>
<path fill="#000000" d="
  M 153.19 102.83
  Q 153.50 104.37 152.42 105.65
  Q 150.14 107.22 148.65 105.14
  A 1.37 1.37 0.0 0 1 149.23 103.08
  Q 152.18 101.85 153.19 102.83
  Z"
/>
<path fill="#000000" d="
  M 295.42 102.23
  Q 295.46 102.15 295.77 102.28
  Q 295.59 103.21 295.14 103.64
  Q 288.02 110.49 279.94 116.19
  Q 279.80 116.28 279.25 116.29
  Q 279.26 115.80 279.38 115.60
  Q 288.12 109.62 295.42 102.23
  Z"
/>
<path fill="#caddff" d="
  M 144.64 102.76
  Q 145.16 102.93 145.31 103.72
  Q 145.17 104.11 145.21 104.53
  Q 144.29 105.57 142.88 104.52
  Q 144.07 103.80 144.64 102.76
  Z"
/>
<path fill="#caddff" d="
  M 153.19 102.83
  Q 154.11 102.79 154.89 103.50
  Q 155.60 104.15 154.89 104.80
  Q 153.43 106.14 152.42 105.65
  Q 153.50 104.37 153.19 102.83
  Z"
/>
<path fill="#000000" d="
  M 145.21 104.53
  Q 145.17 104.11 145.31 103.72
  Q 145.53 103.38 145.88 103.50
  Q 146.08 103.58 146.27 103.87
  Q 146.78 104.64 147.36 105.44
  Q 147.71 105.92 147.12 105.83
  Q 146.86 105.79 146.62 105.64
  Q 146.13 105.31 145.95 105.75
  Q 145.90 105.90 145.74 105.96
  Q 145.48 106.06 145.33 105.82
  Q 144.97 105.22 145.21 104.53
  Z"
/>
<path fill="#000000" d="
  M 300.58 106.06
  Q 300.23 106.49 300.14 107.34
  L 297.01 104.40
  Q 296.84 104.16 296.86 103.95
  A 0.54 0.53 6.6 0 1 297.47 103.47
  Q 299.65 103.76 300.58 106.06
  Z"
/>
<path fill="#efa189" d="
  M 297.01 104.40
  L 300.14 107.34
  L 302.04 110.18
  Q 302.36 110.67 302.87 110.38
  L 304.01 109.76
  Q 304.80 109.32 304.39 110.12
  L 303.33 112.20
  Q 303.11 112.65 303.21 113.14
  Q 305.08 122.34 295.92 124.54
  L 292.26 124.51
  Q 291.76 124.51 292.17 124.81
  Q 293.63 125.87 295.46 126.37
  L 295.01 129.37
  L 289.56 130.49
  L 289.10 122.64
  A 1.75 1.74 2.4 0 0 287.60 121.01
  Q 284.34 120.55 284.54 116.67
  Q 285.63 116.02 285.89 116.22
  Q 287.34 117.43 287.15 119.06
  Q 287.08 119.65 287.60 119.35
  Q 287.87 119.19 287.97 118.79
  Q 288.09 118.31 288.58 118.37
  L 289.05 118.42
  Q 290.09 118.55 289.21 117.98
  L 285.98 115.87
  L 287.69 114.12
  Q 288.76 114.46 289.03 114.08
  Q 289.05 114.06 289.24 113.44
  Q 289.45 112.75 289.06 112.72
  L 293.65 107.68
  L 296.67 106.57
  Q 297.29 106.34 296.77 105.92
  Q 296.59 105.77 296.22 105.68
  L 297.01 104.40
  Z
  M 295.87 112.00
  Q 298.28 112.95 299.89 110.73
  Q 300.22 110.28 299.80 109.90
  Q 297.91 108.20 295.23 108.88
  Q 293.61 109.54 292.76 111.04
  Q 292.52 111.48 292.94 111.74
  Q 294.85 112.92 295.87 112.00
  Z
  M 301.06 115.34
  L 297.81 115.43
  Q 297.31 115.45 297.62 115.84
  Q 299.66 118.44 301.60 116.74
  Q 303.26 115.28 301.06 115.34
  Z"
/>
<path fill="#000000" d="
  M 296.22 105.68
  Q 296.59 105.77 296.77 105.92
  Q 297.29 106.34 296.67 106.57
  L 293.65 107.68
  Q 294.89 106.34 296.22 105.68
  Z"
/>
<path fill="#000000" d="
  M 160.06 110.57
  L 159.78 110.70
  A 0.35 0.35 0.0 0 1 159.36 110.16
  Q 160.23 109.15 161.27 108.32
  A 0.35 0.34 5.5 0 1 161.71 108.85
  L 161.15 109.33
  Q 160.93 109.51 161.07 109.76
  Q 161.18 109.96 161.42 110.07
  A 0.69 0.67 88.4 0 1 161.76 110.40
  Q 161.91 110.75 161.74 111.08
  A 0.31 0.31 0.0 0 1 161.24 111.16
  L 160.83 110.71
  Q 160.50 110.35 160.06 110.57
  Z"
/>
<path fill="#000000" d="
  M 146.28 109.19
  A 0.33 0.33 0.0 0 1 146.03 109.74
  L 144.91 109.71
  Q 144.27 109.70 144.35 109.06
  Q 144.39 108.67 144.73 108.40
  Q 145.19 108.03 145.60 108.46
  L 146.28 109.19
  Z"
/>
<path fill="#caddff" d="
  M 295.23 108.88
  Q 295.04 110.68 295.87 112.00
  Q 294.85 112.92 292.94 111.74
  Q 292.52 111.48 292.76 111.04
  Q 293.61 109.54 295.23 108.88
  Z"
/>
<path fill="#000000" d="
  M 295.87 112.00
  Q 295.04 110.68 295.23 108.88
  Q 297.91 108.20 299.80 109.90
  Q 300.22 110.28 299.89 110.73
  Q 298.28 112.95 295.87 112.00
  Z"
/>
<path fill="#515a60" d="
  M 289.06 112.72
  Q 289.45 112.75 289.24 113.44
  Q 289.05 114.06 289.03 114.08
  Q 288.76 114.46 287.69 114.12
  Q 288.07 113.46 289.06 112.72
  Z"
/>
<path fill="#0043df" d="
  M 161.56 113.63
  L 161.69 119.52
  Q 160.25 118.34 158.72 117.95
  Q 158.31 117.61 157.68 117.49
  L 157.33 114.76
  Q 157.27 114.33 157.56 113.99
  Q 158.88 112.48 161.56 113.63
  Z"
/>
<path fill="#0043df" d="
  M 140.47 113.74
  Q 142.99 116.21 146.88 117.18
  Q 144.52 117.84 140.80 117.38
  Q 141.56 117.72 140.33 117.66
  L 140.47 113.74
  Z"
/>
<path fill="#000000" d="
  M 147.47 124.52
  L 143.02 133.78
  Q 142.62 134.62 142.05 133.89
  L 134.23 123.95
  Q 134.85 123.82 134.79 123.66
  L 141.92 132.62
  A 0.52 0.52 0.0 0 0 142.80 132.52
  L 147.83 122.00
  A 0.75 0.74 27.1 0 0 147.51 121.03
  L 140.80 117.38
  Q 144.52 117.84 146.88 117.18
  Q 152.16 117.86 156.13 115.32
  Q 157.64 114.35 156.55 115.78
  Q 153.77 119.46 149.33 120.81
  Q 148.85 120.96 148.66 121.44
  L 147.47 124.52
  Z"
/>
<path fill="#e27756" d="
  M 301.06 115.34
  Q 303.26 115.28 301.60 116.74
  Q 299.66 118.44 297.62 115.84
  Q 297.31 115.45 297.81 115.43
  L 301.06 115.34
  Z"
/>
<path fill="#000000" d="
  M 285.98 115.87
  L 289.21 117.98
  Q 290.09 118.55 289.05 118.42
  L 288.58 118.37
  Q 288.09 118.31 287.97 118.79
  Q 287.87 119.19 287.60 119.35
  Q 287.08 119.65 287.15 119.06
  Q 287.34 117.43 285.89 116.22
  Q 286.48 115.78 285.98 115.87
  Z"
/>
<path fill="#515a60" d="
  M 284.54 116.67
  Q 284.34 120.55 287.60 121.01
  A 1.75 1.74 2.4 0 1 289.10 122.64
  L 289.56 130.49
  L 287.86 136.20
  Q 287.75 135.74 287.06 136.30
  Q 286.95 136.24 286.84 136.18
  Q 286.76 136.14 286.69 136.19
  C 284.40 137.87 282.02 138.82 279.56 140.19
  A 1.32 1.31 -41.4 0 0 279.42 142.40
  L 282.00 144.30
  A 2.10 2.10 0.0 0 1 281.81 147.81
  Q 277.47 150.34 272.14 150.61
  Q 271.63 150.63 271.40 150.87
  Q 271.06 151.21 271.17 151.71
  Q 271.14 151.57 271.09 151.44
  A 0.46 0.46 0.0 0 0 270.74 151.17
  Q 270.55 151.15 270.32 151.21
  Q 268.39 150.78 266.89 151.24
  C 263.85 151.24 258.71 151.43 258.32 147.03
  C 257.83 141.52 260.95 141.05 265.03 139.64
  A 1.43 1.42 -25.1 0 0 265.79 137.56
  C 264.60 135.58 262.24 133.34 265.56 131.62
  Q 268.05 130.33 270.62 128.91
  Q 274.58 127.99 277.66 125.54
  Q 278.08 125.21 278.19 124.68
  Q 279.32 119.05 284.54 116.67
  Z"
/>
<path fill="#000000" d="
  M 157.68 117.49
  Q 158.31 117.61 158.72 117.95
  C 159.45 119.71 159.81 121.37 161.09 122.82
  Q 163.44 125.48 165.90 128.21
  Q 166.49 128.85 166.45 127.98
  L 166.18 122.09
  Q 166.72 122.04 167.00 122.36
  L 167.34 129.62
  Q 167.41 130.97 166.51 129.96
  L 161.21 123.98
  Q 160.16 124.40 159.11 124.45
  Q 158.62 124.47 158.55 123.99
  L 157.68 117.49
  Z"
/>
<path fill="#ffd066" d="
  M 140.33 117.66
  Q 141.56 117.72 140.80 117.38
  L 147.51 121.03
  A 0.75 0.74 27.1 0 1 147.83 122.00
  L 142.80 132.52
  A 0.52 0.52 0.0 0 1 141.92 132.62
  L 134.79 123.66
  L 140.33 117.66
  Z"
/>
<path fill="#ffd066" d="
  M 158.72 117.95
  Q 160.25 118.34 161.69 119.52
  L 166.18 122.09
  L 166.45 127.98
  Q 166.49 128.85 165.90 128.21
  Q 163.44 125.48 161.09 122.82
  C 159.81 121.37 159.45 119.71 158.72 117.95
  Z"
/>
<path fill="#ffd066" d="
  M 167.00 122.36
  Q 175.65 121.99 183.59 124.94
  L 181.16 138.80
  Q 181.12 139.04 181.35 139.04
  L 181.69 139.04
  Q 181.70 139.04 181.70 139.03
  Q 183.13 132.94 183.97 126.75
  Q 184.02 126.36 184.65 125.51
  Q 187.93 127.25 191.13 130.87
  Q 200.78 141.83 207.50 152.61
  L 196.29 163.41
  L 184.77 153.87
  L 182.96 147.42
  Q 182.90 147.20 182.71 147.32
  L 182.45 147.48
  Q 182.29 147.58 182.35 147.76
  L 183.59 151.76
  Q 183.62 152.06 183.49 152.21
  A 0.48 0.48 0.0 0 1 182.84 152.27
  Q 178.71 149.06 174.61 145.60
  C 172.16 143.52 171.33 140.00 169.06 137.74
  Q 166.07 134.75 162.08 133.33
  L 160.98 126.52
  Q 160.80 124.73 161.21 123.98
  L 166.51 129.96
  Q 167.41 130.97 167.34 129.62
  L 167.00 122.36
  Z"
/>
<path fill="#ffd066" d="
  M 134.23 123.95
  L 142.05 133.89
  Q 142.62 134.62 143.02 133.78
  L 147.47 124.52
  Q 148.35 126.97 147.85 129.82
  L 146.55 136.02
  L 131.75 135.11
  A 0.84 0.83 -70.7 0 0 131.01 135.47
  Q 129.68 137.32 129.63 139.77
  Q 129.33 136.74 128.20 135.27
  L 126.61 133.81
  Q 126.21 133.44 125.78 133.79
  L 124.76 134.65
  Q 124.18 135.12 124.19 135.40
  Q 121.46 137.46 123.28 138.12
  Q 122.96 138.19 122.65 138.25
  Q 120.45 139.27 120.80 141.00
  Q 122.84 150.84 118.82 159.30
  Q 118.41 160.18 117.53 160.59
  L 95.85 170.82
  L 83.79 159.41
  C 91.98 147.60 103.59 134.14 116.38 128.74
  L 119.36 138.96
  A 0.26 0.25 -15.9 0 0 119.68 139.13
  L 119.94 139.05
  Q 120.04 139.02 120.01 138.92
  L 116.94 128.49
  Q 125.52 125.01 134.23 123.95
  Z"
/>
<path fill="#000000" d="
  M 295.92 124.54
  L 295.46 126.37
  Q 293.63 125.87 292.17 124.81
  Q 291.76 124.51 292.26 124.51
  L 295.92 124.54
  Z"
/>
<path fill="#000000" d="
  M 184.65 125.51
  Q 184.02 126.36 183.97 126.75
  Q 183.13 132.94 181.70 139.03
  Q 181.70 139.04 181.69 139.04
  L 181.35 139.04
  Q 181.12 139.04 181.16 138.80
  L 183.59 124.94
  Q 183.74 124.75 184.10 124.93
  Q 184.49 125.12 184.65 125.51
  Z"
/>
<path fill="#57b7ff" d="
  M 160.98 126.52
  L 162.08 133.33
  L 155.36 132.48
  A 1.41 1.41 0.0 0 0 153.78 133.85
  L 153.76 135.46
  L 151.81 135.26
  Q 151.28 135.21 151.08 135.70
  Q 150.76 136.45 151.50 136.89
  Q 151.25 137.10 151.17 137.30
  Q 150.94 137.84 151.53 137.85
  Q 152.47 137.87 152.73 138.62
  Q 152.97 139.30 152.25 139.28
  L 149.46 139.19
  A 0.65 0.64 1.4 0 1 148.83 138.54
  Q 148.84 138.02 149.08 137.59
  Q 149.93 136.11 148.42 136.49
  Q 147.56 136.71 146.55 136.02
  L 147.85 129.82
  Q 156.13 132.27 160.98 126.52
  Z"
/>
<path fill="#000000" d="
  M 116.94 128.49
  L 120.01 138.92
  Q 120.04 139.02 119.94 139.05
  L 119.68 139.13
  A 0.26 0.25 -15.9 0 1 119.36 138.96
  L 116.38 128.74
  L 116.94 128.49
  Z"
/>
<path fill="#e27756" d="
  M 162.08 133.33
  Q 166.07 134.75 169.06 137.74
  C 171.33 140.00 172.16 143.52 174.61 145.60
  Q 178.71 149.06 182.84 152.27
  A 0.48 0.48 0.0 0 0 183.49 152.21
  Q 183.62 152.06 183.59 151.76
  Q 183.94 153.17 184.77 153.87
  L 196.29 163.41
  L 202.06 168.30
  Q 203.59 170.33 205.98 172.09
  Q 207.59 173.27 206.51 171.59
  Q 206.40 171.43 205.95 170.97
  Q 205.58 170.59 205.95 170.21
  L 213.04 162.90
  C 216.19 170.64 218.43 178.26 215.22 186.00
  C 211.55 194.83 198.85 195.67 192.14 190.15
  Q 190.66 188.94 187.21 185.22
  L 166.36 155.18
  Q 166.20 154.95 166.06 155.19
  Q 165.96 155.38 165.73 155.48
  L 165.31 153.97
  L 164.28 151.14
  Q 164.10 150.67 163.59 150.63
  L 160.59 150.41
  A 0.37 0.37 0.0 0 0 160.20 150.84
  Q 160.23 150.99 160.33 151.12
  Q 160.58 151.47 160.97 151.26
  Q 161.48 150.98 161.93 151.29
  A 0.43 0.42 39.8 0 1 161.99 151.94
  L 161.62 152.29
  A 0.27 0.26 36.2 0 0 161.69 152.72
  Q 161.85 152.80 162.00 152.87
  Q 162.19 152.97 162.29 152.78
  L 162.83 151.81
  A 0.51 0.51 0.0 0 1 163.63 151.70
  Q 164.19 152.26 164.19 153.44
  Q 162.94 154.06 160.94 153.95
  Q 159.75 153.38 158.55 152.18
  Q 157.31 150.36 157.02 148.12
  L 164.27 147.50
  A 0.24 0.24 0.0 0 0 164.48 147.29
  L 164.50 147.01
  Q 164.51 146.97 164.47 146.97
  L 157.71 147.07
  L 157.87 144.72
  Q 160.71 143.19 165.25 143.84
  A 0.40 0.40 0.0 0 0 165.70 143.36
  Q 165.64 143.12 165.25 143.10
  Q 161.91 143.00 158.47 143.24
  Q 158.76 141.57 159.88 140.11
  Q 160.91 140.29 161.96 139.53
  Q 162.34 139.25 162.79 139.37
  C 164.30 139.78 167.04 139.75 168.19 140.88
  Q 169.36 142.04 168.81 140.48
  Q 168.56 139.78 167.25 139.48
  Q 165.09 138.99 162.87 138.94
  Q 162.39 138.93 162.08 138.57
  Q 160.68 136.92 158.89 137.49
  Q 158.95 137.82 157.78 137.23
  Q 158.31 136.76 157.96 136.57
  Q 156.11 135.57 153.76 135.46
  L 153.78 133.85
  A 1.41 1.41 0.0 0 1 155.36 132.48
  L 162.08 133.33
  Z"
/>
<path fill="#e27756" d="
  M 128.20 135.27
  Q 127.71 135.26 127.85 135.88
  Q 128.85 140.36 129.37 145.00
  C 129.30 147.74 127.33 153.67 130.77 154.80
  L 131.44 155.99
  Q 131.74 156.52 132.13 156.06
  Q 132.31 155.85 132.39 155.56
  Q 132.51 155.09 132.03 154.98
  L 131.46 154.85
  L 134.10 155.03
  Q 131.79 162.83 126.23 168.18
  C 119.18 174.96 112.48 182.14 105.67 189.02
  Q 103.38 190.91 101.06 192.31
  C 94.14 196.50 78.39 199.77 74.02 190.73
  C 71.02 184.53 74.42 174.74 77.80 169.21
  L 83.56 174.83
  Q 84.85 176.09 83.07 175.97
  Q 82.45 175.93 81.80 176.77
  Q 81.22 177.53 82.11 177.16
  L 88.94 174.38
  L 95.85 170.82
  L 117.53 160.59
  Q 118.41 160.18 118.82 159.30
  Q 122.84 150.84 120.80 141.00
  Q 120.45 139.27 122.65 138.25
  Q 125.35 143.55 125.10 150.18
  Q 125.09 150.36 125.26 150.44
  Q 125.40 150.51 125.54 150.58
  A 0.08 0.08 0.0 0 0 125.66 150.51
  Q 126.38 143.19 123.28 138.12
  Q 121.46 137.46 124.19 135.40
  C 127.20 137.04 127.38 147.04 127.31 149.82
  Q 127.31 149.88 127.37 149.89
  L 127.66 149.94
  Q 127.91 149.98 127.88 149.73
  Q 127.76 148.76 127.89 145.00
  Q 128.05 140.76 125.72 135.29
  Q 125.54 134.87 124.76 134.65
  L 125.78 133.79
  Q 126.21 133.44 126.61 133.81
  L 128.20 135.27
  Z
  M 124.84 165.00
  C 127.56 162.40 128.77 158.49 128.16 154.78
  Q 128.14 154.69 128.05 154.70
  L 127.80 154.73
  A 0.28 0.27 83.8 0 0 127.56 155.04
  Q 128.03 160.58 124.24 164.64
  Q 124.18 164.70 124.24 164.76
  L 124.44 164.98
  A 0.28 0.28 0.0 0 0 124.84 165.00
  Z"
/>
<path fill="#000000" d="
  M 124.76 134.65
  Q 125.54 134.87 125.72 135.29
  Q 128.05 140.76 127.89 145.00
  Q 127.76 148.76 127.88 149.73
  Q 127.91 149.98 127.66 149.94
  L 127.37 149.89
  Q 127.31 149.88 127.31 149.82
  C 127.38 147.04 127.20 137.04 124.19 135.40
  Q 124.18 135.12 124.76 134.65
  Z"
/>
<path fill="#caddff" d="
  M 146.55 136.02
  Q 147.56 136.71 148.42 136.49
  Q 149.93 136.11 149.08 137.59
  Q 148.84 138.02 148.83 138.54
  A 0.65 0.64 1.4 0 0 149.46 139.19
  L 152.25 139.28
  Q 152.97 139.30 152.73 138.62
  Q 152.47 137.87 151.53 137.85
  Q 150.94 137.84 151.17 137.30
  Q 151.25 137.10 151.50 136.89
  L 157.78 137.23
  Q 158.95 137.82 158.89 137.49
  L 159.88 140.11
  Q 158.76 141.57 158.47 143.24
  Q 157.72 143.99 157.87 144.72
  L 157.71 147.07
  Q 156.89 147.43 157.02 148.12
  Q 157.31 150.36 158.55 152.18
  C 158.17 154.24 158.74 155.50 156.88 156.96
  L 142.49 155.86
  L 134.10 155.03
  L 131.46 154.85
  L 130.77 154.80
  C 127.33 153.67 129.30 147.74 129.37 145.00
  Q 130.10 142.22 129.63 139.77
  Q 129.68 137.32 131.01 135.47
  A 0.84 0.83 -70.7 0 1 131.75 135.11
  L 146.55 136.02
  Z
  M 157.9343 138.5584
  A 0.40 0.40 0.0 0 0 157.5661 138.1289
  L 154.5351 137.8957
  A 0.40 0.40 0.0 0 0 154.1056 138.2638
  L 154.0457 139.0416
  A 0.40 0.40 0.0 0 0 154.4139 139.4711
  L 157.4449 139.7043
  A 0.40 0.40 0.0 0 0 157.8744 139.3362
  L 157.9343 138.5584
  Z
  M 154.1418 148.2267
  A 7.72 7.37 5.7 0 0 147.1920 140.1264
  A 7.72 7.37 5.7 0 0 138.7782 146.6933
  A 7.72 7.37 5.7 0 0 145.7280 154.7936
  A 7.72 7.37 5.7 0 0 154.1418 148.2267
  Z"
/>
<path fill="#000000" d="
  M 128.20 135.27
  Q 129.33 136.74 129.63 139.77
  Q 130.10 142.22 129.37 145.00
  Q 128.85 140.36 127.85 135.88
  Q 127.71 135.26 128.20 135.27
  Z"
/>
<path fill="#000000" d="
  M 153.76 135.46
  Q 156.11 135.57 157.96 136.57
  Q 158.31 136.76 157.78 137.23
  L 151.50 136.89
  Q 150.76 136.45 151.08 135.70
  Q 151.28 135.21 151.81 135.26
  L 153.76 135.46
  Z"
/>
<path fill="#000000" d="
  M 287.86 136.20
  C 286.85 141.55 287.07 148.92 291.69 152.55
  A 0.30 0.29 34.6 0 1 291.76 152.93
  L 291.63 153.15
  Q 291.58 153.24 291.49 153.19
  C 286.16 150.34 286.41 141.19 287.06 136.30
  Q 287.75 135.74 287.86 136.20
  Z"
/>
<path fill="#000000" d="
  M 159.88 140.11
  L 158.89 137.49
  Q 160.68 136.92 162.08 138.57
  Q 162.39 138.93 162.87 138.94
  Q 165.09 138.99 167.25 139.48
  Q 168.56 139.78 168.81 140.48
  Q 169.36 142.04 168.19 140.88
  C 167.04 139.75 164.30 139.78 162.79 139.37
  Q 162.34 139.25 161.96 139.53
  Q 160.91 140.29 159.88 140.11
  Z"
/>
<rect fill="#006fe8" x="-1.92" y="-0.79" transform="translate(155.99,138.80) rotate(4.4)" width="3.84" height="1.58" rx="0.40"/>
<path fill="#000000" d="
  M 122.65 138.25
  Q 122.96 138.19 123.28 138.12
  Q 126.38 143.19 125.66 150.51
  A 0.08 0.08 0.0 0 1 125.54 150.58
  Q 125.40 150.51 125.26 150.44
  Q 125.09 150.36 125.10 150.18
  Q 125.35 143.55 122.65 138.25
  Z"
/>
<path fill="#000000" d="
  M 154.1418 148.2267
  A 7.72 7.37 5.7 0 1 145.7280 154.7936
  A 7.72 7.37 5.7 0 1 138.7782 146.6933
  A 7.72 7.37 5.7 0 1 147.1920 140.1264
  A 7.72 7.37 5.7 0 1 154.1418 148.2267
  Z
  M 152.39 147.43
  A 6.34 6.34 0.0 0 0 146.05 141.09
  A 6.34 6.34 0.0 0 0 139.71 147.43
  A 6.34 6.34 0.0 0 0 146.05 153.77
  A 6.34 6.34 0.0 0 0 152.39 147.43
  Z"
/>
<path fill="#caddff" d="
  M 152.39 147.43
  A 6.34 6.34 0.0 0 1 146.05 153.77
  A 6.34 6.34 0.0 0 1 139.71 147.43
  A 6.34 6.34 0.0 0 1 146.05 141.09
  A 6.34 6.34 0.0 0 1 152.39 147.43
  Z
  M 150.35 147.41
  A 4.31 4.31 0.0 0 0 146.04 143.10
  A 4.31 4.31 0.0 0 0 141.73 147.41
  A 4.31 4.31 0.0 0 0 146.04 151.72
  A 4.31 4.31 0.0 0 0 150.35 147.41
  Z"
/>
<circle fill="#000000" cx="146.04" cy="147.41" r="4.31"/>
<path fill="#000000" d="
  M 157.87 144.72
  Q 157.72 143.99 158.47 143.24
  Q 161.91 143.00 165.25 143.10
  Q 165.64 143.12 165.70 143.36
  A 0.40 0.40 0.0 0 1 165.25 143.84
  Q 160.71 143.19 157.87 144.72
  Z"
/>
<path fill="#000000" d="
  M 157.02 148.12
  Q 156.89 147.43 157.71 147.07
  L 164.47 146.97
  Q 164.51 146.97 164.50 147.01
  L 164.48 147.29
  A 0.24 0.24 0.0 0 1 164.27 147.50
  L 157.02 148.12
  Z"
/>
<path fill="#000000" d="
  M 184.77 153.87
  Q 183.94 153.17 183.59 151.76
  L 182.35 147.76
  Q 182.29 147.58 182.45 147.48
  L 182.71 147.32
  Q 182.90 147.20 182.96 147.42
  L 184.77 153.87
  Z"
/>
<path fill="#000000" d="
  M 165.31 153.97
  L 164.19 153.44
  Q 164.19 152.26 163.63 151.70
  A 0.51 0.51 0.0 0 0 162.83 151.81
  L 162.29 152.78
  Q 162.19 152.97 162.00 152.87
  Q 161.85 152.80 161.69 152.72
  A 0.27 0.26 36.2 0 1 161.62 152.29
  L 161.99 151.94
  A 0.43 0.42 39.8 0 0 161.93 151.29
  Q 161.48 150.98 160.97 151.26
  Q 160.58 151.47 160.33 151.12
  Q 160.23 150.99 160.20 150.84
  A 0.37 0.37 0.0 0 1 160.59 150.41
  L 163.59 150.63
  Q 164.10 150.67 164.28 151.14
  L 165.31 153.97
  Z"
/>
<path fill="#59d3c2" d="
  M 270.32 151.21
  C 269.48 159.16 269.20 166.54 272.07 173.56
  Q 272.29 174.09 271.71 174.12
  Q 262.86 174.63 254.10 177.38
  L 266.89 151.24
  Q 268.39 150.78 270.32 151.21
  Z"
/>
<path fill="#000000" d="
  M 270.32 151.21
  Q 270.55 151.15 270.74 151.17
  A 0.46 0.46 0.0 0 1 271.09 151.44
  Q 271.14 151.57 271.17 151.71
  Q 269.55 161.84 272.04 171.64
  Q 272.80 174.62 275.75 174.89
  Q 290.20 176.17 304.71 178.79
  L 274.00 175.39
  Q 273.51 175.34 273.21 175.74
  Q 259.64 194.02 250.96 210.75
  Q 247.17 218.07 245.68 220.73
  L 245.55 219.69
  Q 253.02 204.22 262.54 189.94
  Q 262.67 189.74 262.49 189.59
  L 262.29 189.44
  Q 262.27 189.42 262.26 189.44
  Q 260.14 192.29 256.97 193.84
  A 1.28 1.28 0.0 0 1 255.16 193.00
  Q 254.32 189.60 255.96 186.53
  A 0.33 0.33 0.0 0 0 255.54 186.08
  L 248.59 189.22
  Q 246.25 189.68 245.72 189.22
  A 3.18 1.78 36.7 0 1 244.45 186.37
  C 246.58 181.41 249.76 179.80 254.10 177.38
  Q 262.86 174.63 271.71 174.12
  Q 272.29 174.09 272.07 173.56
  C 269.20 166.54 269.48 159.16 270.32 151.21
  Z
  M 253.31 178.79
  C 249.98 180.13 245.12 183.75 245.23 187.66
  Q 245.27 188.98 246.58 188.79
  Q 248.16 188.57 249.00 188.13
  C 253.23 186.64 256.01 185.30 259.59 181.96
  Q 264.18 177.67 269.65 175.94
  Q 272.19 175.13 269.53 175.21
  Q 261.11 175.44 253.31 178.79
  Z
  M 270.64 176.86
  C 267.47 178.87 264.32 181.23 260.17 183.40
  Q 255.05 186.09 255.66 192.14
  A 1.19 1.19 0.0 0 0 257.63 192.92
  Q 265.46 186.04 270.93 177.15
  Q 271.40 176.39 270.64 176.86
  Z
  M 267.3018 177.8827
  A 3.67 0.36 -32.6 0 0 264.0160 179.5567
  A 3.67 0.36 -32.6 0 0 261.1182 181.8373
  A 3.67 0.36 -32.6 0 0 264.4040 180.1633
  A 3.67 0.36 -32.6 0 0 267.3018 177.8827
  Z"
/>
<path fill="#000000" d="
  M 158.55 152.18
  Q 159.75 153.38 160.94 153.95
  C 161.49 156.65 159.25 158.06 156.88 156.96
  C 158.74 155.50 158.17 154.24 158.55 152.18
  Z"
/>
<path fill="#ffab66" d="
  M 207.50 152.61
  Q 208.68 152.34 209.20 153.00
  Q 212.19 156.90 211.43 158.88
  L 202.06 168.30
  L 196.29 163.41
  L 207.50 152.61
  Z"
/>
<path fill="#57b7ff" d="
  M 164.19 153.44
  L 165.31 153.97
  L 165.73 155.48
  L 169.03 177.31
  L 137.59 180.31
  L 142.49 155.86
  L 156.88 156.96
  C 159.25 158.06 161.49 156.65 160.94 153.95
  Q 162.94 154.06 164.19 153.44
  Z"
/>
<path fill="#000000" d="
  M 312.24 153.64
  Q 312.12 154.36 312.21 154.63
  C 309.21 155.14 307.44 156.78 303.43 156.72
  Q 303.19 156.71 303.18 156.48
  L 303.18 156.47
  Q 303.17 156.23 303.41 156.20
  Q 308.04 155.72 312.24 153.64
  Z"
/>
<path fill="#000000" d="
  M 128.16 154.78
  C 128.77 158.49 127.56 162.40 124.84 165.00
  A 0.28 0.28 0.0 0 1 124.44 164.98
  L 124.24 164.76
  Q 124.18 164.70 124.24 164.64
  Q 128.03 160.58 127.56 155.04
  A 0.28 0.27 83.8 0 1 127.80 154.73
  L 128.05 154.70
  Q 128.14 154.69 128.16 154.78
  Z"
/>
<path fill="#515a60" d="
  M 130.77 154.80
  L 131.46 154.85
  L 132.03 154.98
  Q 132.51 155.09 132.39 155.56
  Q 132.31 155.85 132.13 156.06
  Q 131.74 156.52 131.44 155.99
  L 130.77 154.80
  Z"
/>
<path fill="#ffd066" d="
  M 187.21 185.22
  L 173.68 192.14
  Q 172.91 192.84 172.04 192.97
  Q 171.51 193.04 171.43 192.51
  L 170.34 185.10
  L 169.03 177.31
  L 165.73 155.48
  Q 165.96 155.38 166.06 155.19
  Q 166.20 154.95 166.36 155.18
  L 187.21 185.22
  Z"
/>
<path fill="#ffd066" d="
  M 134.10 155.03
  L 142.49 155.86
  L 137.59 180.31
  L 136.19 187.40
  Q 136.13 187.69 136.40 187.82
  Q 136.69 187.95 136.72 187.69
  Q 136.53 188.26 136.71 188.75
  Q 135.47 188.59 135.20 191.42
  Q 135.08 192.64 133.86 192.72
  L 107.94 194.37
  L 105.76 194.48
  Q 105.21 194.50 105.26 193.95
  L 105.67 189.02
  C 112.48 182.14 119.18 174.96 126.23 168.18
  Q 131.79 162.83 134.10 155.03
  Z"
/>
<path fill="#ffab66" d="
  M 83.79 159.41
  L 95.85 170.82
  L 88.94 174.38
  L 79.16 166.27
  Q 78.31 165.34 79.08 163.55
  Q 81.30 158.33 83.79 159.41
  Z"
/>
<path fill="#000000" d="
  M 211.43 158.88
  Q 211.86 161.20 213.04 162.90
  L 205.95 170.21
  Q 205.58 170.59 205.95 170.97
  Q 206.40 171.43 206.51 171.59
  Q 207.59 173.27 205.98 172.09
  Q 203.59 170.33 202.06 168.30
  L 211.43 158.88
  Z"
/>
<path fill="#000000" d="
  M 79.16 166.27
  L 88.94 174.38
  L 82.11 177.16
  Q 81.22 177.53 81.80 176.77
  Q 82.45 175.93 83.07 175.97
  Q 84.85 176.09 83.56 174.83
  L 77.80 169.21
  L 79.16 166.27
  Z"
/>
<path fill="#59d3c2" d="
  M 249.00 188.13
  L 253.31 178.79
  Q 261.11 175.44 269.53 175.21
  Q 272.19 175.13 269.65 175.94
  Q 264.18 177.67 259.59 181.96
  C 256.01 185.30 253.23 186.64 249.00 188.13
  Z"
/>
<path fill="#59d3c2" d="
  M 304.71 178.79
  Q 304.74 178.93 304.77 179.07
  Q 307.60 183.43 308.29 185.48
  Q 313.29 200.46 316.34 217.87
  Q 321.56 247.63 324.21 274.06
  C 309.61 273.14 301.04 270.57 285.24 265.84
  Q 275.84 263.04 266.27 261.51
  C 254.87 259.55 241.82 260.45 231.35 265.92
  Q 230.84 266.18 230.96 265.62
  L 233.76 252.68
  Q 235.56 245.95 237.77 239.23
  Q 237.97 238.63 237.26 238.44
  L 237.82 237.79
  C 238.26 237.54 238.57 237.30 238.73 236.79
  Q 241.42 228.35 245.68 220.73
  Q 247.17 218.07 250.96 210.75
  Q 259.64 194.02 273.21 175.74
  Q 273.51 175.34 274.00 175.39
  L 304.71 178.79
  Z"
/>
<path fill="#59d3c2" d="
  M 260.17 183.40
  C 264.32 181.23 267.47 178.87 270.64 176.86
  Q 271.40 176.39 270.93 177.15
  Q 265.46 186.04 257.63 192.92
  A 1.19 1.19 0.0 0 1 255.66 192.14
  Q 255.05 186.09 260.17 183.40
  Z"
/>
<path fill="#000000" d="
  M 169.03 177.31
  L 170.34 185.10
  L 161.48 186.14
  Q 160.97 186.20 160.97 186.72
  C 161.05 204.86 140.34 211.59 126.05 212.88
  A 0.48 0.46 77.2 0 0 125.66 213.52
  L 142.54 257.60
  A 0.64 0.64 0.0 0 0 143.42 257.94
  L 167.68 246.02
  Q 168.15 245.79 167.98 245.30
  L 158.71 218.50
  A 0.71 0.71 0.0 0 1 159.02 217.67
  Q 162.41 215.70 165.97 213.53
  Q 166.12 213.44 166.36 213.50
  Q 166.85 213.62 166.45 213.93
  L 165.66 214.56
  L 160.24 217.89
  A 1.12 1.11 -25.4 0 0 159.77 219.20
  L 166.85 239.65
  A 1.21 1.21 0.0 0 0 167.85 240.45
  L 176.25 241.42
  L 181.26 242.22
  Q 181.11 242.26 181.01 242.78
  L 176.71 242.31
  L 167.57 241.08
  A 0.16 0.16 0.0 0 0 167.40 241.29
  L 170.77 250.88
  A 0.41 0.40 82.1 0 0 171.12 251.15
  L 179.07 251.98
  L 179.80 252.38
  L 179.03 256.98
  L 174.06 259.04
  A 0.67 0.66 -22.9 0 0 173.70 259.91
  Q 175.16 263.30 176.12 267.01
  Q 176.22 267.39 176.81 267.73
  Q 176.92 268.43 176.63 269.05
  Q 176.09 268.90 175.96 268.51
  Q 174.08 263.05 172.20 257.43
  A 0.48 0.48 0.0 0 0 171.49 257.18
  L 141.96 275.71
  A 0.62 0.62 0.0 0 0 141.72 276.47
  Q 149.14 294.36 156.66 312.25
  Q 156.83 312.65 156.47 313.20
  Q 156.19 313.16 156.10 313.51
  L 140.08 274.55
  Q 140.09 273.26 139.16 271.70
  L 144.36 269.19
  Q 145.87 268.47 145.28 266.90
  L 142.86 260.52
  Q 142.37 259.22 141.13 259.85
  L 127.33 266.84
  L 127.01 266.13
  L 141.72 258.87
  A 0.50 0.49 66.2 0 0 141.96 258.24
  L 124.84 213.50
  Q 124.64 212.99 124.11 213.03
  Q 118.32 213.42 113.00 212.13
  C 106.31 209.54 106.67 200.10 107.94 194.37
  L 133.86 192.72
  Q 135.08 192.64 135.20 191.42
  Q 135.47 188.59 136.71 188.75
  L 152.55 187.18
  A 0.32 0.31 -79.1 0 1 152.86 187.64
  L 150.53 192.12
  A 0.63 0.62 -68.6 0 0 150.91 193.01
  L 155.75 194.33
  A 0.53 0.53 0.0 0 0 156.41 193.71
  L 155.15 187.76
  Q 154.99 187.03 155.73 186.96
  L 157.73 186.78
  Q 157.98 186.76 157.97 186.52
  L 157.95 186.21
  Q 157.94 185.96 157.69 185.98
  L 136.72 187.69
  Q 136.69 187.95 136.40 187.82
  Q 136.13 187.69 136.19 187.40
  L 137.59 180.31
  L 169.03 177.31
  Z
  M 171.05 255.63
  A 0.57 0.57 0.0 0 0 171.34 254.94
  L 168.61 247.13
  A 0.57 0.57 0.0 0 0 167.82 246.80
  L 143.55 258.69
  A 0.57 0.57 0.0 0 0 143.27 259.40
  L 146.28 267.41
  A 0.57 0.57 0.0 0 0 147.07 267.71
  L 171.05 255.63
  Z"
/>
<ellipse fill="#59d3c2" cx="0.00" cy="0.00" transform="translate(264.21,179.86) rotate(-32.6)" rx="3.67" ry="0.36"/>
<path fill="#006fe8" d="
  M 170.34 185.10
  L 171.43 192.51
  Q 171.51 193.04 172.04 192.97
  Q 172.91 192.84 173.68 192.14
  Q 181.15 216.76 181.26 242.22
  L 176.25 241.42
  L 168.64 214.72
  Q 168.49 214.18 167.95 214.35
  Q 166.78 214.70 165.66 214.56
  L 166.45 213.93
  Q 166.85 213.62 166.36 213.50
  Q 166.12 213.44 165.97 213.53
  Q 162.41 215.70 159.02 217.67
  A 0.71 0.71 0.0 0 0 158.71 218.50
  L 167.98 245.30
  Q 168.15 245.79 167.68 246.02
  L 143.42 257.94
  A 0.64 0.64 0.0 0 1 142.54 257.60
  L 125.66 213.52
  A 0.48 0.46 77.2 0 1 126.05 212.88
  C 140.34 211.59 161.05 204.86 160.97 186.72
  Q 160.97 186.20 161.48 186.14
  L 170.34 185.10
  Z"
/>
<path fill="#ffab66" d="
  M 136.71 188.75
  Q 136.53 188.26 136.72 187.69
  L 157.69 185.98
  Q 157.94 185.96 157.95 186.21
  L 157.97 186.52
  Q 157.98 186.76 157.73 186.78
  L 155.73 186.96
  Q 154.99 187.03 155.15 187.76
  L 156.41 193.71
  A 0.53 0.53 0.0 0 1 155.75 194.33
  L 150.91 193.01
  A 0.63 0.62 -68.6 0 1 150.53 192.12
  L 152.86 187.64
  A 0.32 0.31 -79.1 0 0 152.55 187.18
  L 136.71 188.75
  Z"
/>
<path fill="#59d3c2" d="
  M 245.55 219.69
  Q 243.05 219.12 241.05 216.76
  Q 238.96 213.58 240.12 209.87
  Q 243.01 200.70 248.59 189.22
  L 255.54 186.08
  A 0.33 0.33 0.0 0 1 255.96 186.53
  Q 254.32 189.60 255.16 193.00
  A 1.28 1.28 0.0 0 0 256.97 193.84
  Q 260.14 192.29 262.26 189.44
  Q 262.27 189.42 262.29 189.44
  L 262.49 189.59
  Q 262.67 189.74 262.54 189.94
  Q 253.02 204.22 245.55 219.69
  Z"
/>
<path fill="#006fe8" d="
  M 113.00 212.13
  Q 118.32 213.42 124.11 213.03
  Q 124.64 212.99 124.84 213.50
  L 141.96 258.24
  A 0.50 0.49 66.2 0 1 141.72 258.87
  L 127.01 266.13
  C 120.92 248.65 116.56 230.27 113.00 212.13
  Z"
/>
<path fill="#0043df" d="
  M 176.25 241.42
  L 167.85 240.45
  A 1.21 1.21 0.0 0 1 166.85 239.65
  L 159.77 219.20
  A 1.12 1.11 -25.4 0 1 160.24 217.89
  L 165.66 214.56
  Q 166.78 214.70 167.95 214.35
  Q 168.49 214.18 168.64 214.72
  L 176.25 241.42
  Z"
/>
<path fill="#efa189" d="
  M 241.05 216.76
  Q 243.05 219.12 245.55 219.69
  L 245.68 220.73
  Q 241.42 228.35 238.73 236.79
  C 238.57 237.30 238.26 237.54 237.82 237.79
  Q 237.81 237.64 237.73 237.50
  Q 237.41 236.99 237.07 237.48
  L 233.35 242.88
  Q 233.27 242.99 233.39 243.06
  L 233.65 243.23
  Q 233.87 243.36 234.02 243.15
  L 237.26 238.44
  Q 237.97 238.63 237.77 239.23
  Q 235.56 245.95 233.76 252.68
  L 232.21 254.34
  A 2.06 2.06 0.0 0 1 229.42 254.54
  C 226.94 252.58 229.96 249.12 231.24 247.31
  Q 231.32 247.19 231.21 247.10
  L 231.20 247.10
  Q 231.01 246.94 230.87 247.14
  L 228.96 249.92
  A 2.15 2.14 -56.3 0 1 226.04 250.51
  L 225.58 250.21
  A 1.77 1.76 -58.0 0 1 225.03 247.80
  L 228.78 241.74
  Q 228.85 241.63 228.78 241.59
  L 228.55 241.46
  Q 228.34 241.34 228.27 241.58
  Q 227.25 244.87 224.54 243.81
  A 1.81 1.81 0.0 0 1 223.73 241.07
  L 241.05 216.76
  Z
  M 230.6904 238.5003
  A 2.37 0.42 127.1 0 0 232.4550 236.8633
  A 2.37 0.42 127.1 0 0 233.5496 234.7197
  A 2.37 0.42 127.1 0 0 231.7850 236.3567
  A 2.37 0.42 127.1 0 0 230.6904 238.5003
  Z"
/>
<ellipse fill="#000000" cx="0.00" cy="0.00" transform="translate(232.12,236.61) rotate(127.1)" rx="2.37" ry="0.42"/>
<path fill="#000000" d="
  M 237.82 237.79
  L 237.26 238.44
  L 234.02 243.15
  Q 233.87 243.36 233.65 243.23
  L 233.39 243.06
  Q 233.27 242.99 233.35 242.88
  L 237.07 237.48
  Q 237.41 236.99 237.73 237.50
  Q 237.81 237.64 237.82 237.79
  Z"
/>
<path fill="#0043df" d="
  M 176.71 242.31
  C 177.37 245.12 179.24 249.28 179.07 251.98
  L 171.12 251.15
  A 0.41 0.40 82.1 0 1 170.77 250.88
  L 167.40 241.29
  A 0.16 0.16 0.0 0 1 167.57 241.08
  L 176.71 242.31
  Z"
/>
<path fill="#006fe8" d="
  M 176.71 242.31
  L 181.01 242.78
  Q 181.11 247.72 179.80 252.38
  L 179.07 251.98
  C 179.24 249.28 177.37 245.12 176.71 242.31
  Z"
/>
<path fill="#006fe8" d="
  M 171.05 255.63
  L 147.07 267.71
  A 0.57 0.57 0.0 0 1 146.28 267.41
  L 143.27 259.40
  A 0.57 0.57 0.0 0 1 143.55 258.69
  L 167.82 246.80
  A 0.57 0.57 0.0 0 1 168.61 247.13
  L 171.34 254.94
  A 0.57 0.57 0.0 0 1 171.05 255.63
  Z"
/>
<path fill="#e27756" d="
  M 176.63 269.05
  L 194.61 318.83
  L 172.21 329.21
  L 171.73 328.73
  Q 171.36 328.35 171.26 328.87
  L 171.20 329.22
  L 164.05 332.13
  Q 160.99 322.34 156.47 313.20
  Q 156.83 312.65 156.66 312.25
  Q 149.14 294.36 141.72 276.47
  A 0.62 0.62 0.0 0 1 141.96 275.71
  L 171.49 257.18
  A 0.48 0.48 0.0 0 1 172.20 257.43
  Q 174.08 263.05 175.96 268.51
  Q 176.09 268.90 176.63 269.05
  Z"
/>
<path fill="#e27756" d="
  M 179.03 256.98
  L 176.81 267.73
  Q 176.22 267.39 176.12 267.01
  Q 175.16 263.30 173.70 259.91
  A 0.67 0.66 -22.9 0 1 174.06 259.04
  L 179.03 256.98
  Z"
/>
<path fill="#006fe8" d="
  M 139.16 271.70
  L 131.32 275.55
  Q 130.81 275.80 130.61 275.27
  L 127.33 266.84
  L 141.13 259.85
  Q 142.37 259.22 142.86 260.52
  L 145.28 266.90
  Q 145.87 268.47 144.36 269.19
  L 139.16 271.70
  Z"
/>
<path fill="#000000" d="
  M 266.27 261.51
  Q 275.84 263.04 285.24 265.84
  C 301.04 270.57 309.61 273.14 324.21 274.06
  Q 323.94 274.98 324.56 276.77
  L 287.13 270.19
  A 0.42 0.41 -3.5 0 0 286.66 270.72
  Q 290.87 283.88 295.14 297.25
  Q 295.32 297.81 295.05 298.27
  L 294.91 298.00
  Q 294.86 297.91 294.83 298.00
  Q 294.74 298.24 294.65 298.32
  L 287.35 275.36
  Q 287.21 274.91 286.79 274.72
  L 265.68 265.25
  L 266.27 261.51
  Z"
/>
<path fill="#efa189" d="
  M 265.68 265.25
  L 286.79 274.72
  Q 287.21 274.91 287.35 275.36
  L 294.65 298.32
  C 285.89 316.50 271.60 330.88 255.33 343.34
  C 251.01 346.65 252.91 350.45 255.27 354.15
  L 249.93 372.31
  Q 249.78 372.81 249.26 372.74
  L 235.38 370.80
  L 228.69 364.06
  Q 229.20 363.73 229.34 363.35
  A 0.20 0.17 -88.2 0 1 229.44 363.24
  L 245.40 355.24
  A 0.54 0.54 0.0 0 0 245.63 354.48
  L 243.16 350.33
  A 1.11 1.06 -1.4 0 0 242.72 349.93
  L 241.99 349.58
  Q 242.06 349.15 241.82 349.03
  Q 242.00 348.38 241.59 347.73
  Q 236.62 339.90 228.07 340.62
  C 224.14 340.95 219.35 343.38 215.29 344.96
  Q 215.94 342.13 217.08 341.08
  Q 234.28 325.08 247.47 307.72
  C 257.48 294.53 263.70 281.69 265.68 265.25
  Z"
/>
<path fill="#efa189" d="
  M 324.56 276.77
  Q 332.44 311.70 340.27 346.76
  Q 342.17 355.27 351.10 353.48
  L 353.23 367.73
  Q 353.31 368.27 352.78 368.43
  L 324.14 377.13
  Q 319.79 375.63 318.68 372.25
  Q 312.50 353.42 295.05 298.27
  Q 295.32 297.81 295.14 297.25
  Q 290.87 283.88 286.66 270.72
  A 0.42 0.41 -3.5 0 1 287.13 270.19
  L 324.56 276.77
  Z"
/>
<path fill="#e27756" d="
  M 140.08 274.55
  L 156.10 313.51
  Q 148.43 326.17 140.05 337.21
  L 125.92 324.63
  Q 125.93 324.43 125.74 324.24
  Q 125.64 324.13 125.47 324.15
  Q 125.36 324.16 125.31 324.16
  L 116.25 316.09
  Q 116.59 316.23 116.85 315.86
  C 126.03 303.05 134.38 289.35 140.08 274.55
  Z"
/>
<path fill="#ffd066" d="
  M 116.25 316.09
  L 125.31 324.16
  L 100.74 352.20
  A 0.52 0.51 49.5 0 1 99.92 352.13
  L 94.22 343.07
  L 115.63 316.32
  Q 115.76 316.16 115.97 316.12
  Q 116.09 316.10 116.25 316.09
  Z"
/>
<path fill="#ffd066" d="
  M 194.61 318.83
  L 198.29 327.22
  L 189.22 328.76
  Q 188.97 328.80 189.01 329.05
  L 189.07 329.31
  A 0.12 0.12 0.0 0 0 189.21 329.41
  L 198.44 328.11
  L 199.26 329.72
  L 192.68 335.82
  A 0.64 0.64 0.0 0 0 193.15 336.93
  L 201.72 336.42
  L 202.65 338.56
  L 198.33 346.07
  Q 197.39 347.69 199.17 347.10
  L 205.19 345.11
  Q 205.48 346.81 206.15 347.96
  Q 206.43 348.43 206.94 348.23
  L 215.29 344.96
  C 219.35 343.38 224.14 340.95 228.07 340.62
  Q 236.62 339.90 241.59 347.73
  Q 242.00 348.38 241.82 349.03
  L 193.52 373.12
  Q 192.67 373.55 192.27 372.68
  L 172.21 329.21
  L 194.61 318.83
  Z"
/>
<path fill="#000000" d="
  M 125.92 324.63
  L 101.17 352.86
  Q 100.75 353.34 101.09 353.88
  L 115.91 377.56
  A 0.85 0.83 -16.3 0 0 116.64 377.95
  Q 131.04 377.78 145.64 377.74
  Q 146.00 377.74 146.04 378.40
  L 116.36 378.64
  A 1.10 1.09 73.5 0 1 115.41 378.12
  L 100.47 354.29
  A 0.37 0.37 0.0 0 0 99.88 354.24
  L 94.48 360.23
  Q 94.06 359.68 94.11 359.59
  L 99.42 353.61
  Q 99.75 353.24 99.48 352.82
  L 93.75 343.69
  Q 93.80 343.45 94.22 343.07
  L 99.92 352.13
  A 0.52 0.51 49.5 0 0 100.74 352.20
  L 125.31 324.16
  Q 125.36 324.16 125.47 324.15
  Q 125.64 324.13 125.74 324.24
  Q 125.93 324.43 125.92 324.63
  Z"
/>
<path fill="#ffd066" d="
  M 125.92 324.63
  L 140.05 337.21
  L 136.46 341.84
  L 126.60 336.21
  A 0.45 0.45 0.0 0 0 126.03 336.88
  L 132.58 345.11
  Q 132.82 345.42 132.85 345.81
  L 132.88 346.32
  L 129.12 350.98
  L 116.43 351.33
  Q 112.82 351.43 116.25 352.58
  L 129.60 357.08
  L 130.58 364.00
  C 127.01 364.32 122.60 363.61 118.82 366.28
  Q 118.58 366.45 118.74 366.69
  L 118.88 366.90
  Q 118.90 366.94 118.95 366.92
  C 123.42 364.26 126.83 365.12 131.31 364.63
  C 139.61 366.06 145.99 368.53 146.74 378.22
  Q 145.84 378.20 146.04 378.40
  Q 146.00 377.74 145.64 377.74
  Q 131.04 377.78 116.64 377.95
  A 0.85 0.83 -16.3 0 1 115.91 377.56
  L 101.09 353.88
  Q 100.75 353.34 101.17 352.86
  L 125.92 324.63
  Z"
/>
<path fill="#000000" d="
  M 199.55 330.86
  L 194.06 335.66
  A 0.24 0.24 0.0 0 0 194.23 336.08
  L 201.38 335.47
  L 204.82 335.37
  A 0.45 0.45 0.0 0 1 205.18 336.10
  Q 203.73 337.91 203.07 339.88
  L 199.63 345.45
  Q 199.19 346.16 199.98 345.87
  L 204.76 344.10
  Q 206.21 344.15 207.47 343.10
  Q 207.62 342.97 207.74 343.14
  L 207.90 343.38
  Q 208.05 343.60 207.82 343.72
  L 205.19 345.11
  L 199.17 347.10
  Q 197.39 347.69 198.33 346.07
  L 202.65 338.56
  Q 203.51 337.79 203.70 336.82
  Q 203.80 336.31 203.28 336.25
  Q 202.44 336.16 201.72 336.42
  L 193.15 336.93
  A 0.64 0.64 0.0 0 1 192.68 335.82
  L 199.26 329.72
  Q 200.51 329.26 201.36 328.06
  Q 201.67 327.63 201.14 327.62
  Q 199.69 327.59 198.44 328.11
  L 189.21 329.41
  A 0.12 0.12 0.0 0 1 189.07 329.31
  L 189.01 329.05
  Q 188.97 328.80 189.22 328.76
  L 198.29 327.22
  L 202.30 326.58
  Q 204.57 326.21 202.88 327.78
  L 199.55 330.86
  Z"
/>
<path fill="#000000" d="
  M 172.21 329.21
  L 192.27 372.68
  Q 192.67 373.55 193.52 373.12
  L 241.82 349.03
  Q 242.06 349.15 241.99 349.58
  L 184.06 379.01
  Q 183.51 378.42 183.71 378.01
  L 191.53 374.10
  Q 192.02 373.86 191.79 373.37
  L 171.20 329.22
  L 171.26 328.87
  Q 171.36 328.35 171.73 328.73
  L 172.21 329.21
  Z"
/>
<path fill="#ffd066" d="
  M 171.20 329.22
  L 191.79 373.37
  Q 192.02 373.86 191.53 374.10
  L 183.71 378.01
  L 164.05 332.13
  L 171.20 329.22
  Z"
/>
<path fill="#ffd066" d="
  M 199.55 330.86
  L 201.38 335.47
  L 194.23 336.08
  A 0.24 0.24 0.0 0 1 194.06 335.66
  L 199.55 330.86
  Z"
/>
<path fill="#000000" d="
  M 136.46 341.84
  L 139.92 344.38
  A 0.22 0.22 0.0 0 1 139.69 344.76
  L 135.64 342.89
  L 128.78 338.61
  Q 127.83 338.01 128.53 338.89
  L 133.76 345.35
  L 137.96 350.63
  A 0.44 0.43 68.8 0 1 137.65 351.34
  L 128.69 351.84
  L 118.53 352.03
  Q 116.89 352.06 118.45 352.56
  L 129.31 356.07
  L 134.56 357.96
  A 0.26 0.26 0.0 0 1 134.72 358.28
  L 134.65 358.52
  Q 134.59 358.72 134.39 358.66
  L 129.60 357.08
  L 116.25 352.58
  Q 112.82 351.43 116.43 351.33
  L 129.12 350.98
  L 136.49 350.54
  A 0.22 0.22 0.0 0 0 136.65 350.18
  Q 135.18 348.40 133.64 346.60
  Q 132.97 345.81 132.88 346.32
  L 132.85 345.81
  Q 132.82 345.42 132.58 345.11
  L 126.03 336.88
  A 0.45 0.45 0.0 0 1 126.60 336.21
  L 136.46 341.84
  Z"
/>
<path fill="#ffd066" d="
  M 135.64 342.89
  L 133.76 345.35
  L 128.53 338.89
  Q 127.83 338.01 128.78 338.61
  L 135.64 342.89
  Z"
/>
<path fill="#ffd066" d="
  M 203.07 339.88
  L 204.76 344.10
  L 199.98 345.87
  Q 199.19 346.16 199.63 345.45
  L 203.07 339.88
  Z"
/>
<path fill="#ffd066" d="
  M 93.75 343.69
  L 99.48 352.82
  Q 99.75 353.24 99.42 353.61
  L 94.11 359.59
  L 88.91 350.78
  A 1.00 0.99 49.2 0 1 88.99 349.64
  L 93.75 343.69
  Z"
/>
<path fill="#efa189" d="
  M 378.48 360.54
  L 369.30 363.36
  Q 368.77 363.52 368.62 362.99
  L 365.06 350.31
  Q 368.86 350.13 372.61 349.47
  Q 376.19 348.83 377.87 349.64
  C 382.16 351.72 381.57 357.12 378.48 360.54
  Z"
/>
<path fill="#000000" d="
  M 365.06 350.31
  L 368.62 362.99
  Q 368.77 363.52 369.30 363.36
  L 378.48 360.54
  L 382.93 359.25
  Q 385.13 358.61 385.77 360.81
  L 386.49 363.34
  Q 387.14 365.58 384.90 366.27
  L 323.42 384.96
  A 1.90 1.90 0.0 0 1 321.04 383.69
  L 320.08 380.47
  A 1.96 1.96 0.0 0 1 321.34 378.05
  L 324.14 377.13
  L 352.78 368.43
  Q 353.31 368.27 353.23 367.73
  L 351.10 353.48
  Q 351.45 351.86 352.86 351.38
  Q 359.96 348.95 365.06 350.31
  Z"
/>
<path fill="#ffd066" d="
  M 241.99 349.58
  L 242.72 349.93
  A 1.11 1.06 -1.4 0 1 243.16 350.33
  L 245.63 354.48
  A 0.54 0.54 0.0 0 1 245.40 355.24
  L 229.44 363.24
  A 0.20 0.17 -88.2 0 0 229.34 363.35
  Q 229.20 363.73 228.69 364.06
  Q 228.66 363.92 228.41 363.89
  Q 228.27 363.88 228.11 363.95
  Q 223.69 365.90 219.02 368.51
  L 207.32 374.35
  L 186.93 384.41
  A 0.45 0.44 -24.4 0 1 186.32 384.19
  L 184.06 379.01
  L 241.99 349.58
  Z"
/>
<path fill="#ffd066" d="
  M 128.69 351.84
  L 129.31 356.07
  L 118.45 352.56
  Q 116.89 352.06 118.53 352.03
  L 128.69 351.84
  Z"
/>
<path fill="#000000" d="
  M 266.21 364.23
  L 265.33 374.37
  Q 265.29 374.90 265.82 374.96
  L 275.47 376.11
  Q 277.20 376.32 278.20 377.17
  Q 278.61 377.53 278.55 378.07
  L 278.07 382.17
  A 1.68 1.67 -82.8 0 1 276.18 383.64
  L 207.32 374.35
  L 219.02 368.51
  L 235.38 370.80
  L 249.26 372.74
  Q 249.78 372.81 249.93 372.31
  L 255.27 354.15
  Q 255.74 352.46 256.93 352.39
  Q 257.71 352.33 258.69 353.28
  Q 262.32 356.79 265.94 360.28
  Q 266.31 360.63 266.29 361.14
  L 266.21 364.23
  Z"
/>
<path fill="#ffd066" d="
  M 146.04 378.40
  Q 145.84 378.20 146.74 378.22
  L 146.94 383.72
  Q 146.96 384.18 146.50 384.18
  L 109.03 384.18
  Q 108.57 384.18 108.34 383.79
  L 94.48 360.23
  L 99.88 354.24
  A 0.37 0.37 0.0 0 1 100.47 354.29
  L 115.41 378.12
  A 1.10 1.09 73.5 0 0 116.36 378.64
  L 146.04 378.40
  Z"
/>
<path fill="#000000" d="
  M 130.58 364.00
  Q 130.80 364.06 131.31 364.63
  C 126.83 365.12 123.42 364.26 118.95 366.92
  Q 118.90 366.94 118.88 366.90
  L 118.74 366.69
  Q 118.58 366.45 118.82 366.28
  C 122.60 363.61 127.01 364.32 130.58 364.00
  Z"
/>
<path fill="#efa189" d="
  M 266.21 364.23
  Q 271.59 365.58 276.74 367.06
  C 281.96 368.57 279.41 374.69 275.47 376.11
  L 265.82 374.96
  Q 265.29 374.90 265.33 374.37
  L 266.21 364.23
  Z"
/>
</svg>
