<?xml version="1.0" encoding="UTF-8" standalone="no"?>
<!DOCTYPE svg PUBLIC "-//W3C//DTD SVG 1.1//EN" "http://www.w3.org/Graphics/SVG/1.1/DTD/svg11.dtd">
<svg xmlns="http://www.w3.org/2000/svg" version="1.1" viewBox="0.00 0.00 459.00 455.00">
<g stroke-width="2.00" fill="none" stroke-linecap="butt">
<path stroke="#6c3a30" vector-effect="non-scaling-stroke" d="
  M 271.48 83.11
  Q 270.88 82.34 270.65 81.14
  A 2.23 2.22 -14.4 0 0 267.79 79.45
  Q 261.73 81.38 255.52 80.21
  A 1.58 1.57 1.2 0 0 253.67 81.98
  Q 254.31 86.52 251.39 89.89
  Q 251.04 90.29 250.61 89.98
  Q 248.81 88.66 246.26 89.49"
/>
<path stroke="#ecb9b0" vector-effect="non-scaling-stroke" d="
  M 272.17 88.30
  Q 270.22 87.31 269.39 88.53"
/>
<path stroke="#6c3a30" vector-effect="non-scaling-stroke" d="
  M 269.39 88.53
  Q 267.56 88.58 266.57 91.53
  Q 266.33 92.26 267.07 92.43
  Q 269.74 93.05 271.37 91.40"
/>
<path stroke="#ecb9b0" vector-effect="non-scaling-stroke" d="
  M 271.37 91.40
  Q 271.40 91.21 272.26 91.19"
/>
<path stroke="#6c3a30" vector-effect="non-scaling-stroke" d="
  M 261.18 103.25
  L 257.78 102.05
  Q 256.92 101.75 257.49 102.47
  L 260.19 105.86"
/>
<path stroke="#85527e" vector-effect="non-scaling-stroke" d="
  M 258.84 109.34
  L 249.26 105.59"
/>
<path stroke="#6c3a30" vector-effect="non-scaling-stroke" d="
  M 251.54 99.03
  Q 252.36 97.80 251.81 96.43
  Q 251.62 95.98 251.14 95.95
  Q 250.13 95.89 249.40 96.68"
/>
<path stroke="#19194e" vector-effect="non-scaling-stroke" d="
  M 261.82 115.28
  Q 260.98 115.12 260.74 114.99
  C 254.71 111.55 249.54 110.62 242.69 112.01"
/>
<path stroke="#808080" vector-effect="non-scaling-stroke" d="
  M 271.37 91.40
  Q 271.24 89.23 269.39 88.53"
/>
<path stroke="#19194e" vector-effect="non-scaling-stroke" d="
  M 263.75 117.71
  Q 257.39 113.19 250.50 112.18
  Q 246.51 111.59 240.82 113.41"
/>
<path stroke="#19194e" vector-effect="non-scaling-stroke" d="
  M 269.47 171.74
  L 252.82 172.01
  Q 252.31 172.02 252.29 171.52
  Q 252.18 169.27 252.80 167.15
  C 253.25 165.64 253.03 164.44 253.14 162.93
  Q 253.14 162.88 253.08 162.87
  Q 253.05 162.87 253.02 162.87
  Q 252.91 162.87 252.90 163.00
  C 252.66 164.74 252.72 166.19 252.16 167.96
  Q 251.65 169.59 251.86 170.59
  Q 252.15 171.94 250.77 171.97
  L 243.90 172.12
  Q 242.61 172.15 242.90 170.89
  L 248.65 145.76
  Q 248.77 145.24 249.23 144.96
  L 252.74 142.77
  A 0.29 0.29 0.0 0 0 252.51 142.24
  Q 251.04 142.65 249.83 143.60
  Q 249.13 144.15 249.35 143.28
  L 250.15 140.14
  Q 250.38 139.26 249.63 139.77
  Q 248.98 140.22 248.78 141.12
  Q 245.31 156.58 241.77 172.47
  Q 241.62 173.15 242.32 173.13
  L 269.72 172.47"
/>
<path stroke="#19194e" vector-effect="non-scaling-stroke" d="
  M 279.07 172.07
  L 280.14 198.93"
/>
<path stroke="#1950c2" vector-effect="non-scaling-stroke" d="
  M 270.35 201.20
  L 264.43 202.29
  Q 263.97 202.38 263.95 202.84
  L 263.53 213.67
  Q 263.52 213.94 263.29 214.08
  Q 263.19 214.14 263.07 214.22"
/>
<path stroke="#19194e" vector-effect="non-scaling-stroke" d="
  M 263.07 214.22
  Q 263.15 213.81 262.18 213.70"
/>
<path stroke="#1950c2" vector-effect="non-scaling-stroke" d="
  M 262.18 213.70
  L 262.48 203.20
  Q 262.50 202.63 261.94 202.72
  Q 250.46 204.56 238.97 204.25"
/>
<path stroke="#19194e" vector-effect="non-scaling-stroke" d="
  M 238.97 204.25
  L 237.78 204.05"
/>
<path stroke="#1950c2" vector-effect="non-scaling-stroke" d="
  M 237.78 204.05
  Q 231.60 203.77 225.98 201.55
  Q 225.78 201.47 225.64 201.80"
/>
<path stroke="#19194e" vector-effect="non-scaling-stroke" d="
  M 279.88 172.04
  L 281.00 198.64"
/>
<path stroke="#003874" vector-effect="non-scaling-stroke" d="
  M 237.78 204.05
  L 238.00 236.00"
/>
<path stroke="#774636" vector-effect="non-scaling-stroke" d="
  M 238.89 239.74
  Q 238.11 239.42 237.69 238.48"
/>
<path stroke="#003874" vector-effect="non-scaling-stroke" d="
  M 262.18 213.70
  Q 262.01 226.40 262.12 231.75
  Q 262.14 232.57 261.54 232.70"
/>
<path stroke="#6c71a4" vector-effect="non-scaling-stroke" d="
  M 261.54 232.70
  Q 257.23 230.87 254.62 234.46"
/>
<path stroke="#777eaa" vector-effect="non-scaling-stroke" d="
  M 254.62 234.46
  Q 252.29 238.29 253.08 243.22"
/>
<path stroke="#6c71a4" vector-effect="non-scaling-stroke" d="
  M 253.08 243.22
  Q 252.99 244.30 253.30 245.51"
/>
<path stroke="#003874" vector-effect="non-scaling-stroke" d="
  M 253.30 245.51
  Q 252.86 246.92 252.33 246.79"
/>
<path stroke="#777eaa" vector-effect="non-scaling-stroke" d="
  M 252.33 246.79
  C 248.42 242.10 244.46 241.36 238.89 239.74"
/>
<path stroke="#003874" vector-effect="non-scaling-stroke" d="
  M 238.89 239.74
  L 238.97 204.25"
/>
<path stroke="#809c99" vector-effect="non-scaling-stroke" d="
  M 289.05 239.53
  L 286.60 239.67"
/>
<path stroke="#80918a" vector-effect="non-scaling-stroke" d="
  M 286.60 239.67
  L 277.04 239.74"
/>
<path stroke="#809c99" vector-effect="non-scaling-stroke" d="
  M 277.04 239.74
  Q 275.86 239.48 274.69 239.71"
/>
<path stroke="#80918a" vector-effect="non-scaling-stroke" d="
  M 274.69 239.71
  L 268.76 239.69"
/>
<path stroke="#6c71a4" vector-effect="non-scaling-stroke" d="
  M 268.76 239.69
  Q 266.82 237.37 264.03 237.08
  Q 263.58 237.04 263.43 236.61
  Q 262.92 235.19 262.96 234.10"
/>
<path stroke="#003874" vector-effect="non-scaling-stroke" d="
  M 262.96 234.10
  L 263.07 214.22"
/>
<path stroke="#6c3a30" vector-effect="non-scaling-stroke" d="
  M 262.96 234.10
  L 261.54 232.70"
/>
<path stroke="#85527e" vector-effect="non-scaling-stroke" d="
  M 285.40 180.00
  L 286.30 192.17"
/>
<path stroke="#2da1d5" vector-effect="non-scaling-stroke" d="
  M 225.28 221.82
  L 238.00 236.00"
/>
<path stroke="#2d6a61" vector-effect="non-scaling-stroke" d="
  M 238.00 236.00
  L 237.69 238.48"
/>
<path stroke="#a3b097" vector-effect="non-scaling-stroke" d="
  M 237.69 238.48
  C 235.65 239.43 232.98 244.93 231.64 247.67"
/>
<path stroke="#2da1d5" vector-effect="non-scaling-stroke" d="
  M 231.64 247.67
  Q 230.62 248.60 230.30 249.77
  A 0.74 0.74 0.0 0 1 229.03 250.05
  Q 227.09 247.79 224.89 246.82"
/>
<path stroke="#2d6a61" vector-effect="non-scaling-stroke" d="
  M 200.17 225.54
  Q 199.05 218.98 198.12 212.00
  Q 198.02 211.29 197.49 210.92"
/>
<path stroke="#774636" vector-effect="non-scaling-stroke" d="
  M 252.33 246.79
  Q 252.13 247.64 251.50 247.92
  A 0.71 0.70 63.8 0 1 250.60 247.61
  L 249.53 245.68
  Q 249.28 245.21 248.79 245.02
  Q 246.61 244.18 245.06 245.85
  Q 244.68 246.26 244.13 246.19
  L 242.81 246.02
  Q 242.11 245.94 241.62 246.44
  Q 240.56 247.53 240.54 249.10
  Q 240.53 249.66 239.99 249.78
  Q 238.63 250.08 237.84 251.21
  A 1.27 1.25 8.2 0 1 237.20 251.68
  Q 236.09 252.03 235.20 253.36"
/>
<path stroke="#777eaa" vector-effect="non-scaling-stroke" d="
  M 235.20 253.36
  L 231.64 247.67"
/>
<path stroke="#ec9346" vector-effect="non-scaling-stroke" d="
  M 268.76 239.69
  L 268.34 240.28"
/>
<path stroke="#e38066" vector-effect="non-scaling-stroke" d="
  M 268.34 240.28
  Q 268.50 240.96 268.09 241.09
  Q 267.85 241.17 267.45 240.96
  Q 261.16 237.57 254.62 234.46"
/>
<path stroke="#003874" vector-effect="non-scaling-stroke" d="
  M 254.21 246.82
  Q 252.73 246.93 253.00 247.79"
/>
<path stroke="#774636" vector-effect="non-scaling-stroke" d="
  M 253.00 247.79
  Q 251.29 248.25 251.82 249.70
  Q 252.10 250.45 253.16 251.49"
/>
<path stroke="#003874" vector-effect="non-scaling-stroke" d="
  M 253.16 251.49
  Q 253.75 252.36 252.90 252.77"
/>
<path stroke="#774636" vector-effect="non-scaling-stroke" d="
  M 252.90 252.77
  L 248.83 246.08
  Q 248.09 244.87 246.82 245.48
  L 246.43 245.66
  Q 244.98 246.37 245.81 247.75
  L 250.12 254.92"
/>
<path stroke="#003874" vector-effect="non-scaling-stroke" d="
  M 250.12 254.92
  Q 249.94 254.99 249.77 255.06"
/>
<path stroke="#774636" vector-effect="non-scaling-stroke" d="
  M 249.77 255.06
  L 244.71 247.70
  Q 243.88 246.50 242.49 246.96
  L 241.96 247.13
  A 1.19 1.19 0.0 0 0 241.34 248.91
  L 246.61 256.92"
/>
<path stroke="#003874" vector-effect="non-scaling-stroke" d="
  M 246.61 256.92
  L 245.86 257.20"
/>
<path stroke="#774636" vector-effect="non-scaling-stroke" d="
  M 245.86 257.20
  L 241.34 250.47
  Q 241.03 250.01 240.54 250.28
  L 239.10 251.06
  Q 238.55 251.37 238.88 251.91
  L 242.73 258.04"
/>
<path stroke="#003874" vector-effect="non-scaling-stroke" d="
  M 242.73 258.04
  L 241.73 257.77"
/>
<path stroke="#774636" vector-effect="non-scaling-stroke" d="
  M 241.73 257.77
  L 238.06 252.72
  Q 237.76 252.31 237.28 252.48
  Q 235.59 253.11 236.24 254.99"
/>
<path stroke="#003874" vector-effect="non-scaling-stroke" d="
  M 236.24 254.99
  Q 235.15 254.85 235.20 253.36"
/>
<path stroke="#ec9346" vector-effect="non-scaling-stroke" d="
  M 266.85 244.89
  C 263.62 247.60 260.20 246.91 256.51 247.04"
/>
<path stroke="#6c71a4" vector-effect="non-scaling-stroke" d="
  M 256.51 247.04
  Q 255.29 246.71 254.21 246.82"
/>
<path stroke="#6c3a30" vector-effect="non-scaling-stroke" d="
  M 254.21 246.82
  L 253.30 245.51"
/>
<path stroke="#f69f4c" vector-effect="non-scaling-stroke" d="
  M 268.34 240.28
  Q 269.23 243.03 266.85 244.89"
/>
<path stroke="#e38066" vector-effect="non-scaling-stroke" d="
  M 266.85 244.89
  Q 265.42 243.81 263.77 243.05
  C 260.77 241.68 258.51 239.82 255.26 238.89
  Q 254.95 238.80 254.73 239.02
  L 254.48 239.27
  Q 254.18 239.57 254.52 239.82
  Q 258.96 243.07 263.93 245.43
  Q 264.11 245.51 264.03 245.69
  L 263.92 245.93
  Q 263.88 246.05 263.76 246.00
  L 257.33 243.54
  Q 256.90 243.38 256.48 243.55
  Q 255.91 243.80 255.44 243.58
  C 254.39 243.09 254.11 242.96 253.08 243.22"
/>
<path stroke="#003874" vector-effect="non-scaling-stroke" d="
  M 291.17 225.77
  L 291.36 239.63"
/>
<path stroke="#806425" vector-effect="non-scaling-stroke" d="
  M 291.36 239.63
  L 289.05 239.53"
/>
<path stroke="#003874" vector-effect="non-scaling-stroke" d="
  M 289.05 239.53
  L 289.09 222.86"
/>
<path stroke="#806425" vector-effect="non-scaling-stroke" d="
  M 331.81 239.71
  C 338.08 242.42 336.93 247.28 336.87 253.56"
/>
<path stroke="#ffbd3b" vector-effect="non-scaling-stroke" d="
  M 336.87 253.56
  Q 335.33 256.02 335.23 259.30
  Q 335.08 264.25 334.99 264.94
  C 334.35 269.73 334.06 275.03 333.43 279.34
  C 332.76 283.97 331.84 288.73 331.41 293.25
  C 330.36 304.42 330.16 315.80 327.48 326.74
  Q 326.28 331.63 326.71 334.51
  Q 327.27 338.18 326.78 340.31
  A 0.47 0.46 -56.5 0 1 325.95 340.48
  Q 325.42 339.73 325.65 338.78
  Q 325.84 337.97 325.19 338.48
  Q 324.77 338.81 324.74 339.50
  Q 324.43 347.59 322.94 357.59"
/>
<path stroke="#acce86" vector-effect="non-scaling-stroke" d="
  M 293.78 357.65
  Q 279.23 357.59 264.85 357.62
  Q 259.54 357.64 256.89 353.65"
/>
<path stroke="#806425" vector-effect="non-scaling-stroke" d="
  M 256.89 353.65
  Q 257.03 353.32 256.51 352.80"
/>
<path stroke="#acce86" vector-effect="non-scaling-stroke" d="
  M 256.51 352.80
  Q 256.84 350.51 256.10 347.70"
/>
<path stroke="#806425" vector-effect="non-scaling-stroke" d="
  M 256.10 347.70
  Q 256.28 347.90 256.22 347.27"
/>
<path stroke="#acce86" vector-effect="non-scaling-stroke" d="
  M 256.22 347.27
  L 256.25 329.76"
/>
<path stroke="#ec9e55" vector-effect="non-scaling-stroke" d="
  M 256.25 329.76
  Q 256.71 327.61 256.38 325.78"
/>
<path stroke="#ffe4a4" vector-effect="non-scaling-stroke" d="
  M 256.38 325.78
  L 280.86 325.76
  A 2.27 2.27 0.0 0 0 283.13 323.49
  L 283.16 307.55
  Q 283.17 304.73 280.35 304.73
  L 256.51 304.72"
/>
<path stroke="#809c99" vector-effect="non-scaling-stroke" d="
  M 256.51 304.72
  L 256.52 297.14"
/>
<path stroke="#ffbd3b" vector-effect="non-scaling-stroke" d="
  M 274.69 239.71
  Q 274.79 240.64 274.25 241.05
  Q 273.98 241.27 273.82 241.58
  L 270.48 248.34
  Q 270.25 248.81 270.31 249.34
  L 270.38 250.03
  A 0.32 0.31 0.8 0 1 270.02 250.37
  Q 269.87 250.35 269.72 250.34
  Q 269.14 250.31 269.12 250.89
  Q 269.11 251.07 269.09 251.24
  Q 269.01 251.90 269.56 251.22
  Q 270.23 250.37 271.05 251.07
  Q 271.40 251.37 271.61 250.96
  L 277.02 240.73
  A 0.78 0.75 56.1 0 0 277.10 240.28
  L 277.04 239.74"
/>
<path stroke="#ffbd3b" vector-effect="non-scaling-stroke" d="
  M 286.60 239.67
  Q 283.50 244.52 280.68 251.19
  C 279.62 253.69 277.05 257.46 276.22 261.12
  Q 275.84 262.79 275.09 264.36
  Q 274.96 264.63 275.27 264.63
  L 275.61 264.63
  A 0.30 0.30 0.0 0 0 275.90 264.27
  Q 275.67 263.24 276.52 262.90
  Q 277.00 262.70 276.89 262.20
  Q 276.79 261.71 277.14 261.36
  Q 277.71 260.79 277.88 261.58
  L 277.98 262.05
  Q 278.31 263.55 279.07 262.22
  L 280.59 259.56
  A 0.37 0.37 0.0 0 1 280.89 259.38
  L 281.38 259.36
  Q 281.65 259.35 281.52 259.59
  Q 278.82 264.49 276.23 269.26
  C 274.92 271.67 272.79 272.71 271.53 275.52
  C 270.79 277.19 269.61 280.49 267.95 281.35
  A 1.19 1.16 -88.6 0 0 267.48 281.81
  L 265.14 285.94
  Q 264.93 286.31 264.96 286.73
  C 265.11 288.43 262.71 290.72 261.76 291.68
  Q 261.40 292.04 261.27 292.53
  Q 260.86 294.02 259.48 294.69
  A 1.72 1.70 -89.3 0 0 258.71 295.45
  Q 257.86 297.17 256.52 297.14"
/>
<path stroke="#80918a" vector-effect="non-scaling-stroke" d="
  M 256.52 297.14
  L 256.51 247.04"
/>
<path stroke="#6c3a30" vector-effect="non-scaling-stroke" d="
  M 317.98 188.01
  Q 311.82 182.11 303.22 181.17
  Q 303.10 181.16 303.08 181.28
  L 303.04 181.53
  Q 303.01 181.78 303.26 181.83
  C 311.14 183.22 317.51 186.28 320.45 194.06"
/>
<path stroke="#6c3a30" vector-effect="non-scaling-stroke" d="
  M 317.08 195.63
  Q 314.45 184.70 302.95 183.43
  Q 302.30 183.35 302.79 183.79
  Q 303.29 184.23 303.98 184.32
  C 309.74 185.06 315.92 189.64 316.09 195.95"
/>
<path stroke="#6c3a30" vector-effect="non-scaling-stroke" d="
  M 313.57 196.66
  C 313.46 191.46 309.27 186.52 303.78 186.03
  Q 303.62 186.01 303.60 186.17
  L 303.56 186.44
  A 0.29 0.27 10.5 0 0 303.78 186.74
  Q 310.68 188.19 312.66 194.68
  C 312.92 195.55 312.60 196.15 311.94 196.66"
/>
<path stroke="#6c3a30" vector-effect="non-scaling-stroke" d="
  M 306.03 191.66
  Q 301.36 188.96 296.10 191.35"
/>
<path stroke="#6c3a30" vector-effect="non-scaling-stroke" d="
  M 291.81 192.50
  Q 290.70 192.15 289.52 192.51"
/>
<path stroke="#2da1d5" vector-effect="non-scaling-stroke" d="
  M 194.05 190.48
  L 191.74 190.10
  Q 191.22 190.01 191.36 190.52
  Q 194.13 200.39 196.87 210.25
  Q 196.96 210.61 197.49 210.92"
/>
<path stroke="#003874" vector-effect="non-scaling-stroke" d="
  M 197.49 210.92
  Q 196.93 211.04 197.15 211.66
  Q 198.02 214.14 197.53 217.19"
/>
<path stroke="#2da1d5" vector-effect="non-scaling-stroke" d="
  M 197.53 217.19
  L 186.38 194.49"
/>
<path stroke="#6aafde" vector-effect="non-scaling-stroke" d="
  M 186.38 194.49
  L 184.14 190.26
  Q 183.88 189.77 183.33 189.82
  Q 179.68 190.17 176.66 191.63"
/>
<path stroke="#777eaa" vector-effect="non-scaling-stroke" d="
  M 176.66 191.63
  Q 175.93 191.97 175.50 191.98
  Q 174.90 192.01 174.97 191.40
  L 175.28 188.68"
/>
<path stroke="#777eaa" vector-effect="non-scaling-stroke" d="
  M 236.24 254.99
  L 238.23 257.57"
/>
<path stroke="#003874" vector-effect="non-scaling-stroke" d="
  M 238.23 257.57
  L 238.55 319.71
  A 0.45 0.45 0.0 0 1 238.08 320.17
  L 229.76 319.75"
/>
<path stroke="#777eaa" vector-effect="non-scaling-stroke" d="
  M 249.77 255.06
  Q 250.40 256.03 249.29 257.04
  Q 247.63 258.55 246.61 256.92"
/>
<path stroke="#774636" vector-effect="non-scaling-stroke" d="
  M 239.27 258.91
  Q 239.07 258.18 238.23 257.57"
/>
<path stroke="#777eaa" vector-effect="non-scaling-stroke" d="
  M 252.90 252.77
  Q 253.75 253.42 252.86 254.37
  Q 251.64 255.67 250.12 254.92"
/>
<path stroke="#80b7f4" vector-effect="non-scaling-stroke" d="
  M 256.51 304.72
  L 245.10 304.74
  Q 242.35 304.75 242.34 307.50
  L 242.31 319.75"
/>
<path stroke="#003874" vector-effect="non-scaling-stroke" d="
  M 242.31 319.75
  Q 241.20 320.56 239.88 320.23
  Q 239.44 320.13 239.44 319.68
  L 238.86 259.60
  Q 238.85 259.35 239.06 259.20
  Q 239.28 259.05 239.27 258.91"
/>
<path stroke="#777eaa" vector-effect="non-scaling-stroke" d="
  M 239.27 258.91
  Q 241.31 258.81 241.73 257.77"
/>
<path stroke="#777eaa" vector-effect="non-scaling-stroke" d="
  M 242.73 258.04
  Q 243.78 259.29 245.86 257.20"
/>
<path stroke="#777eaa" vector-effect="non-scaling-stroke" d="
  M 253.16 251.49
  Q 253.95 251.24 253.88 250.75
  Q 253.60 248.93 253.00 247.79"
/>
<path stroke="#809c99" vector-effect="non-scaling-stroke" d="
  M 300.31 239.60
  L 291.36 239.63"
/>
<path stroke="#805916" vector-effect="non-scaling-stroke" d="
  M 331.67 357.52
  Q 336.88 355.50 336.88 349.75
  Q 336.90 301.84 336.87 253.56"
/>
<path stroke="#99a391" vector-effect="non-scaling-stroke" d="
  M 253.86 325.79
  Q 254.32 327.94 256.25 329.76"
/>
<path stroke="#2d6a61" vector-effect="non-scaling-stroke" d="
  M 256.22 347.27
  Q 256.00 347.25 255.81 347.29
  Q 255.63 347.33 255.46 347.50
  Q 250.63 352.12 245.96 356.96
  Q 245.80 357.13 245.97 357.29
  L 246.23 357.52
  Q 246.25 357.54 246.28 357.52
  L 253.87 350.16
  Q 254.24 349.80 254.76 349.78
  Q 256.21 349.74 256.10 347.70"
/>
<path stroke="#2d6a61" vector-effect="non-scaling-stroke" d="
  M 256.51 352.80
  Q 255.57 354.21 254.43 355.08
  A 0.30 0.29 80.2 0 1 253.97 354.75
  L 255.23 350.66
  Q 255.31 350.40 255.05 350.32
  L 254.73 350.22
  Q 254.54 350.16 254.48 350.36
  L 252.52 357.00
  Q 252.20 358.07 253.01 357.30
  L 256.89 353.65"
/>
<path stroke="#2d6a61" vector-effect="non-scaling-stroke" d="
  M 280.45 373.15
  Q 283.21 371.47 283.92 368.41
  Q 284.04 367.85 284.61 367.89
  Q 285.51 367.95 286.40 367.76
  Q 286.44 367.75 286.46 367.72
  Q 286.52 367.61 286.59 367.49
  A 0.11 0.10 27.6 0 0 286.54 367.34
  Q 285.61 366.91 284.62 367.13
  Q 284.01 367.27 283.91 366.66
  C 282.63 358.53 272.29 358.57 270.89 366.54
  A 0.63 0.62 -85.0 0 1 270.28 367.06
  L 223.98 367.11
  Q 223.74 367.11 223.57 366.94
  Q 223.46 366.82 223.44 366.72"
/>
<path stroke="#806425" vector-effect="non-scaling-stroke" d="
  M 323.25 239.57
  L 321.23 239.58"
/>
<path stroke="#ecb9b0" vector-effect="non-scaling-stroke" d="
  M 256.38 325.78
  L 253.86 325.79"
/>
<path stroke="#ace9e1" vector-effect="non-scaling-stroke" d="
  M 253.86 325.79
  L 252.15 325.78"
/>
<path stroke="#ecb9b0" vector-effect="non-scaling-stroke" d="
  M 252.15 325.78
  L 243.78 325.73"
/>
<path stroke="#2d6a61" vector-effect="non-scaling-stroke" d="
  M 197.53 217.19
  L 199.81 225.83"
/>
<path stroke="#7cb0d8" vector-effect="non-scaling-stroke" d="
  M 200.58 244.53
  L 148.29 249.45"
/>
<path stroke="#2d8bd1" vector-effect="non-scaling-stroke" d="
  M 148.29 249.45
  L 146.79 249.47
  Q 146.26 249.48 146.28 248.95
  L 146.92 229.89"
/>
<path stroke="#e0bea0" vector-effect="non-scaling-stroke" d="
  M 176.66 191.63
  Q 175.32 194.61 172.98 196.39
  Q 172.57 196.71 172.16 196.41
  L 166.73 192.46"
/>
<path stroke="#7768a5" vector-effect="non-scaling-stroke" d="
  M 166.73 192.46
  L 167.33 187.26"
/>
<path stroke="#003874" vector-effect="non-scaling-stroke" d="
  M 189.89 184.09
  Q 189.75 186.60 186.32 186.18
  Q 184.93 186.01 183.85 183.78
  Q 183.60 183.27 183.06 183.43
  Q 181.37 183.95 179.69 183.89"
/>
<path stroke="#96e1cb" vector-effect="non-scaling-stroke" d="
  M 186.38 194.49
  C 185.16 196.40 185.15 198.59 183.90 200.01
  C 180.04 204.40 176.26 200.41 173.53 197.48
  A 0.78 0.77 -50.4 0 0 172.30 197.60
  C 169.56 202.05 166.60 206.31 161.00 201.33"
/>
<path stroke="#6aafde" vector-effect="non-scaling-stroke" d="
  M 161.00 201.33
  L 160.06 194.44"
/>
<path stroke="#774636" vector-effect="non-scaling-stroke" d="
  M 180.07 168.13
  L 178.65 169.01
  Q 178.21 169.28 178.08 169.78
  C 177.69 171.27 176.06 171.62 176.08 173.46
  Q 176.09 174.22 176.70 173.76
  Q 177.64 173.05 177.94 171.98
  A 0.53 0.53 0.0 0 1 178.78 171.71
  Q 179.43 172.23 180.24 172.27
  Q 180.87 172.31 180.87 171.68
  Q 180.87 171.24 181.14 170.95"
/>
<path stroke="#774636" vector-effect="non-scaling-stroke" d="
  M 182.61 174.96
  Q 183.96 180.62 179.69 183.89"
/>
<path stroke="#777eaa" vector-effect="non-scaling-stroke" d="
  M 179.69 183.89
  L 175.91 185.57"
/>
<path stroke="#774636" vector-effect="non-scaling-stroke" d="
  M 178.80 166.66
  Q 177.57 166.55 176.57 167.23
  Q 176.11 167.54 176.16 166.98
  Q 176.23 166.19 176.98 166.07
  A 0.54 0.53 63.9 0 0 177.28 165.18
  Q 176.93 164.80 175.99 164.96
  C 172.64 165.53 168.61 166.51 165.26 165.54
  Q 164.93 165.44 164.82 165.77
  L 164.73 166.05
  A 0.28 0.28 0.0 0 0 164.90 166.41
  L 166.78 167.05
  Q 167.11 167.17 167.05 167.52
  L 166.97 167.93
  Q 166.92 168.24 166.60 168.17
  L 164.85 167.75
  Q 164.49 167.66 164.44 168.03
  Q 164.42 168.18 164.39 168.35
  A 0.49 0.49 0.0 0 0 164.88 168.94
  Q 167.12 168.87 166.85 170.52
  Q 166.46 172.94 165.30 175.17
  Q 165.07 175.62 164.58 175.53
  C 161.53 174.98 159.74 178.76 161.46 180.49
  Q 167.52 186.60 175.91 185.57"
/>
<path stroke="#003874" vector-effect="non-scaling-stroke" d="
  M 175.91 185.57
  L 175.28 188.68"
/>
<path stroke="#774636" vector-effect="non-scaling-stroke" d="
  M 175.28 188.68
  L 168.29 186.14
  Q 167.76 185.95 167.47 186.43
  Q 167.24 186.79 167.33 187.26"
/>
<path stroke="#002270" vector-effect="non-scaling-stroke" d="
  M 167.33 187.26
  L 164.57 188.62
  Q 164.12 188.85 164.16 189.34
  L 164.37 191.69"
/>
<path stroke="#6a786a" vector-effect="non-scaling-stroke" d="
  M 164.37 191.69
  Q 163.64 195.03 160.06 194.44"
/>
<path stroke="#003874" vector-effect="non-scaling-stroke" d="
  M 160.06 194.44
  Q 159.84 194.14 159.32 194.14
  Q 158.83 194.15 158.63 194.59
  Q 157.69 196.63 154.72 197.49"
/>
<path stroke="#2d6a61" vector-effect="non-scaling-stroke" d="
  M 154.72 197.49
  Q 152.32 199.68 149.22 200.81
  Q 148.71 201.00 148.35 200.59
  L 147.13 199.19
  Q 146.81 198.82 147.15 198.46
  L 148.63 196.90
  A 0.36 0.36 0.0 0 0 148.25 196.31
  Q 147.55 196.55 146.80 196.50
  Q 146.24 196.46 145.96 195.98
  Q 145.32 194.91 145.25 193.26"
/>
<path stroke="#003874" vector-effect="non-scaling-stroke" d="
  M 145.25 193.26
  Q 145.52 193.57 145.78 193.25"
/>
<path stroke="#2d6a61" vector-effect="non-scaling-stroke" d="
  M 145.78 193.25
  Q 152.28 194.33 152.35 190.85"
/>
<path stroke="#003874" vector-effect="non-scaling-stroke" d="
  M 152.35 190.85
  Q 153.71 189.28 155.77 189.39
  Q 156.30 189.42 156.35 188.89
  Q 156.52 186.69 158.87 185.35"
/>
<path stroke="#808080" vector-effect="non-scaling-stroke" d="
  M 242.31 319.75
  C 242.37 321.77 241.75 324.47 243.78 325.73"
/>
<path stroke="#6c3a30" vector-effect="non-scaling-stroke" d="
  M 243.78 325.73
  L 229.78 327.17"
/>
<path stroke="#2d6a61" vector-effect="non-scaling-stroke" d="
  M 274.49 373.17
  Q 271.79 371.50 270.87 368.39
  Q 270.73 367.90 270.22 367.91
  L 223.28 368.21"
/>
<path stroke="#99a391" vector-effect="non-scaling-stroke" d="
  M 252.15 325.78
  L 251.21 345.50
  A 1.50 1.50 0.0 0 1 250.47 346.72
  L 241.33 352.12
  A 1.08 1.08 0.0 0 1 240.09 352.03
  L 229.63 343.52"
/>
<path stroke="#504677" vector-effect="non-scaling-stroke" d="
  M 198.76 282.63
  L 195.58 282.68"
/>
<path stroke="#8c75ea" vector-effect="non-scaling-stroke" d="
  M 195.58 282.68
  L 195.44 277.43
  Q 195.42 276.84 194.87 276.64
  L 194.41 276.47
  Q 193.84 276.27 193.62 276.83
  Q 192.55 279.55 193.11 282.79"
/>
<path stroke="#504677" vector-effect="non-scaling-stroke" d="
  M 193.11 282.79
  L 188.01 282.94"
/>
<path stroke="#8c75ea" vector-effect="non-scaling-stroke" d="
  M 188.01 282.94
  Q 188.70 279.19 188.37 275.24
  C 188.30 274.42 187.60 273.66 187.54 272.53
  C 187.38 269.21 187.57 266.09 186.67 262.89
  Q 185.62 259.17 184.45 255.50"
/>
<path stroke="#504677" vector-effect="non-scaling-stroke" d="
  M 184.45 255.50
  L 187.50 253.17
  Q 187.73 252.99 187.53 252.79
  L 187.34 252.60
  Q 187.28 252.54 187.18 252.61
  L 182.98 255.44
  A 1.88 1.86 77.6 0 0 182.17 256.73
  L 178.33 284.85"
/>
<path stroke="#c68cac" vector-effect="non-scaling-stroke" d="
  M 178.33 284.85
  Q 178.73 289.18 177.07 289.52"
/>
<path stroke="#504677" vector-effect="non-scaling-stroke" d="
  M 174.51 288.93
  L 149.74 286.77"
/>
<path stroke="#5068e6" vector-effect="non-scaling-stroke" d="
  M 148.29 249.45
  L 147.77 254.44"
/>
<path stroke="#2da1d5" vector-effect="non-scaling-stroke" d="
  M 161.00 201.33
  C 161.15 213.02 154.80 221.88 146.92 229.89"
/>
<path stroke="#0059e4" vector-effect="non-scaling-stroke" d="
  M 146.92 229.89
  Q 146.27 230.09 146.08 230.80
  Q 146.04 230.92 145.93 230.94
  Q 145.46 231.04 145.26 230.05
  Q 145.20 229.76 145.17 229.46
  L 144.93 226.90"
/>
<path stroke="#003874" vector-effect="non-scaling-stroke" d="
  M 144.93 226.90
  Q 149.53 222.28 152.70 217.00"
/>
<path stroke="#6a99da" vector-effect="non-scaling-stroke" d="
  M 166.73 192.46
  Q 165.42 191.71 164.37 191.69"
/>
<path stroke="#2da1d5" vector-effect="non-scaling-stroke" d="
  M 152.35 190.85
  Q 150.22 191.11 147.18 192.13
  Q 146.08 192.50 145.78 193.25"
/>
<path stroke="#2da1d5" vector-effect="non-scaling-stroke" d="
  M 145.25 193.26
  Q 143.90 193.39 141.89 194.99"
/>
<path stroke="#0059e4" vector-effect="non-scaling-stroke" d="
  M 141.89 194.99
  Q 140.05 191.47 139.90 186.78"
/>
<path stroke="#2da1d5" vector-effect="non-scaling-stroke" d="
  M 154.72 197.49
  C 157.32 203.02 155.33 211.63 152.70 217.00"
/>
<path stroke="#2d6a61" vector-effect="non-scaling-stroke" d="
  M 152.70 217.00
  L 144.21 226.81"
/>
<path stroke="#2d8bd1" vector-effect="non-scaling-stroke" d="
  M 144.21 226.81
  L 135.10 235.84"
/>
<path stroke="#a3b097" vector-effect="non-scaling-stroke" d="
  M 113.67 252.44
  L 104.74 244.31"
/>
<path stroke="#3d2f73" vector-effect="non-scaling-stroke" d="
  M 184.45 255.50
  L 183.45 256.10
  A 1.17 1.15 78.9 0 0 182.91 256.92
  L 179.40 282.71
  Q 179.33 283.20 179.83 283.19
  L 188.01 282.94"
/>
<path stroke="#3d2f73" vector-effect="non-scaling-stroke" d="
  M 193.11 282.79
  L 195.58 282.68"
/>
<path stroke="#774636" vector-effect="non-scaling-stroke" d="
  M 198.80 284.78
  L 178.33 284.85"
/>
<path stroke="#774636" vector-effect="non-scaling-stroke" d="
  M 174.04 292.75
  L 149.61 288.43"
/>
<path stroke="#f6aa5a" vector-effect="non-scaling-stroke" d="
  M 197.98 350.14
  C 195.79 350.33 192.43 349.11 191.17 351.35
  Q 190.93 351.78 191.00 352.27
  L 191.86 357.86"
/>
<path stroke="#f69f4c" vector-effect="non-scaling-stroke" d="
  M 191.86 357.86
  L 184.68 359.75
  A 1.26 1.24 -25.7 0 1 183.37 359.30
  L 179.06 353.62"
/>
<path stroke="#002270" vector-effect="non-scaling-stroke" d="
  M 144.93 226.90
  Q 144.70 226.93 144.21 226.81"
/>
<path stroke="#2d8bd1" vector-effect="non-scaling-stroke" d="
  M 141.89 194.99
  L 132.76 204.04"
/>
<path stroke="#774636" vector-effect="non-scaling-stroke" d="
  M 110.61 262.48
  L 109.94 264.14"
/>
<path stroke="#774636" vector-effect="non-scaling-stroke" d="
  M 105.49 261.99
  Q 105.73 261.46 105.63 260.97
  Q 105.53 260.42 105.11 260.80
  Q 104.39 261.49 103.97 262.51"
/>
<path stroke="#774636" vector-effect="non-scaling-stroke" d="
  M 95.05 266.82
  L 101.51 260.26
  Q 101.66 260.10 101.49 259.93
  L 101.48 259.92
  Q 101.31 259.76 101.16 259.92
  L 94.73 266.65"
/>
<path stroke="#774636" vector-effect="non-scaling-stroke" d="
  M 87.15 263.65
  Q 87.48 262.60 89.08 261.20"
/>
<path stroke="#f69f4c" vector-effect="non-scaling-stroke" d="
  M 168.16 352.65
  L 160.70 358.46"
/>
<path stroke="#f6aa5a" vector-effect="non-scaling-stroke" d="
  M 160.70 358.46
  L 153.73 356.59
  Q 153.21 356.45 153.33 355.93
  C 153.65 354.46 154.78 351.48 154.37 350.16
  Q 153.93 348.74 152.02 349.08
  Q 150.11 349.43 147.99 350.06"
/>
<path stroke="#ffbd3b" vector-effect="non-scaling-stroke" d="
  M 198.82 356.52
  Q 197.10 359.50 191.86 357.86"
/>
<path stroke="#805916" vector-effect="non-scaling-stroke" d="
  M 200.18 357.31
  Q 200.35 357.80 200.82 358.22
  Q 201.27 358.62 200.72 358.89
  L 198.13 360.19
  A 0.24 0.23 67.7 0 0 198.01 360.48
  L 198.10 360.75
  Q 198.20 361.02 198.48 360.94
  L 202.81 359.73"
/>
<path stroke="#ffbd3b" vector-effect="non-scaling-stroke" d="
  M 202.81 359.73
  C 201.64 362.44 199.46 362.86 197.08 363.67
  A 1.41 1.39 -80.9 0 0 196.41 364.16
  Q 194.65 366.59 191.72 367.13
  Q 191.46 367.18 191.37 367.44
  L 191.25 367.77
  Q 191.22 367.86 191.30 367.89
  Q 191.54 367.99 191.54 368.20"
/>
<path stroke="#ec9346" vector-effect="non-scaling-stroke" d="
  M 191.54 368.20
  L 176.18 368.57"
/>
<path stroke="#805532" vector-effect="non-scaling-stroke" d="
  M 86.52 291.16
  L 85.54 291.14"
/>
<path stroke="#805532" vector-effect="non-scaling-stroke" d="
  M 111.48 291.07
  Q 110.88 290.94 110.48 291.11"
/>
<path stroke="#ffbd3b" vector-effect="non-scaling-stroke" d="
  M 156.75 372.94
  L 156.94 369.24"
/>
<path stroke="#ec9346" vector-effect="non-scaling-stroke" d="
  M 156.94 369.24
  L 168.55 369.18
  Q 168.71 369.18 168.75 369.01
  L 168.86 368.57
  Q 168.93 368.24 168.60 368.24
  L 157.79 368.15"
/>
<path stroke="#ffbd3b" vector-effect="non-scaling-stroke" d="
  M 160.70 358.46
  Q 160.52 361.94 159.39 363.11
  Q 158.25 364.27 157.47 365.72
  Q 157.24 366.14 157.37 366.60
  L 157.79 368.15"
/>
<path stroke="#ec9e55" vector-effect="non-scaling-stroke" d="
  M 157.79 368.15
  L 129.52 368.21"
/>
<path stroke="#806425" vector-effect="non-scaling-stroke" d="
  M 142.16 357.89
  L 144.56 360.39
  Q 145.03 360.88 145.02 360.20
  Q 145.02 359.35 144.56 359.06
  Q 142.67 357.83 145.00 357.93
  L 151.64 358.20
  Q 151.89 358.21 151.91 357.96
  L 151.93 357.70
  Q 151.95 357.39 151.64 357.33
  L 146.65 356.31"
/>
<path stroke="#ec9e55" vector-effect="non-scaling-stroke" d="
  M 211.59 369.87
  L 176.10 369.43"
/>
<path stroke="#ec9e55" vector-effect="non-scaling-stroke" d="
  M 211.74 368.38
  L 191.54 368.20"
/>
<path stroke="#806425" vector-effect="non-scaling-stroke" d="
  M 205.32 359.21
  L 202.81 359.73"
/>
<path stroke="#ffb956" vector-effect="non-scaling-stroke" d="
  M 128.48 351.59
  Q 127.77 349.98 127.90 348.33"
/>
<path stroke="#ffd5b1" vector-effect="non-scaling-stroke" d="
  M 127.90 348.33
  Q 127.85 327.93 127.83 307.62
  C 127.83 301.21 125.73 296.21 120.01 293.58
  Q 116.78 292.10 108.29 292.12
  Q 102.26 292.14 96.21 292.17
  C 89.56 292.20 84.82 294.10 81.98 299.97
  Q 80.49 303.05 80.41 309.78
  Q 80.20 328.02 80.31 346.23
  Q 80.38 358.76 91.14 361.94"
/>
<path stroke="#ffb956" vector-effect="non-scaling-stroke" d="
  M 91.14 361.94
  Q 89.53 362.16 92.66 363.14"
/>
<path stroke="#ec9e55" vector-effect="non-scaling-stroke" d="
  M 156.94 369.24
  L 129.55 369.04"
/>
<path stroke="#ffe4a4" vector-effect="non-scaling-stroke" d="
  M 127.90 348.33
  Q 127.38 357.00 120.74 360.40
  Q 117.36 362.13 109.97 362.23
  Q 100.61 362.35 91.14 361.94"
/>
<path stroke="#6c3a30" vector-effect="non-scaling-stroke" d="
  M 270.9804 85.4531
  A 2.24 1.05 -5.3 0 0 268.6530 84.6145
  A 2.24 1.05 -5.3 0 0 266.5196 85.8669
  A 2.24 1.05 -5.3 0 0 268.8470 86.7055
  A 2.24 1.05 -5.3 0 0 270.9804 85.4531"
/>
<path stroke="#6c3a30" vector-effect="non-scaling-stroke" d="
  M 262.1029 85.6944
  A 2.22 1.06 -16.1 0 0 259.6760 85.2916
  A 2.22 1.06 -16.1 0 0 257.8371 86.9256
  A 2.22 1.06 -16.1 0 0 260.2640 87.3284
  A 2.22 1.06 -16.1 0 0 262.1029 85.6944"
/>
<path stroke="#ecb9b0" vector-effect="non-scaling-stroke" d="
  M 259.62 92.67
  Q 260.24 93.29 261.43 92.53
  A 1.11 1.10 -35.4 0 0 261.71 90.92
  Q 260.45 89.28 259.14 89.18"
/>
<path stroke="#6c3a30" vector-effect="non-scaling-stroke" d="
  M 259.14 89.18
  Q 256.86 87.98 254.44 90.20
  A 0.54 0.54 0.0 0 0 254.43 90.99
  Q 256.98 93.41 259.62 92.67"
/>
<path stroke="#808080" vector-effect="non-scaling-stroke" d="
  M 259.14 89.18
  Q 260.11 90.87 259.62 92.67"
/>
<path stroke="#6c3a30" vector-effect="non-scaling-stroke" d="
  M 248.10 93.50
  L 247.88 94.13
  Q 247.40 95.53 248.42 94.46
  Q 249.07 93.78 249.93 93.36
  Q 250.38 93.14 249.96 92.88
  L 247.30 91.20
  Q 247.28 91.19 247.26 91.20
  L 246.99 91.41
  Q 246.71 91.63 246.99 91.86
  L 247.84 92.56
  Q 248.30 92.94 248.10 93.50"
/>
<path stroke="#6c3a30" vector-effect="non-scaling-stroke" d="
  M 264.77 93.67
  L 265.27 94.27
  A 0.31 0.30 -74.9 0 0 265.79 93.97
  Q 265.46 93.03 264.77 92.32
  A 0.49 0.48 39.2 0 0 264.00 92.39
  Q 263.42 93.31 263.36 94.33
  Q 263.32 94.89 263.73 94.50
  Q 264.01 94.24 264.09 93.84
  Q 264.25 93.06 264.77 93.67"
/>
<path stroke="#6c3a30" vector-effect="non-scaling-stroke" d="
  M 265.40 96.61
  C 265.91 96.95 266.62 97.19 267.15 97.19
  Q 267.53 97.18 267.49 96.80
  L 267.46 96.50
  A 0.43 0.43 0.0 0 0 266.98 96.11
  L 265.49 96.24
  Q 264.92 96.30 265.40 96.61"
/>
<path stroke="#774636" vector-effect="non-scaling-stroke" d="
  M 171.07 168.81
  Q 169.31 169.19 168.53 171.41
  A 0.17 0.17 0.0 0 0 168.65 171.63
  Q 168.86 171.70 169.10 171.61
  A 0.33 0.30 -84.3 0 0 169.28 171.45
  Q 169.97 170.08 171.29 169.39
  Q 173.29 168.33 171.07 168.81"
/>
<path stroke="#f6c6b5" vector-effect="non-scaling-stroke" d="
  M 169.77 173.11
  Q 168.34 173.54 167.89 174.65
  Q 167.70 175.14 168.16 175.41
  Q 169.51 176.20 171.01 176.02"
/>
<path stroke="#774636" vector-effect="non-scaling-stroke" d="
  M 171.01 176.02
  Q 173.60 176.69 174.24 174.26
  A 0.78 0.78 0.0 0 0 173.95 173.44
  Q 172.01 171.94 169.77 173.11"
/>
<path stroke="#808080" vector-effect="non-scaling-stroke" d="
  M 171.01 176.02
  Q 169.72 174.92 169.77 173.11"
/>
<path stroke="#774636" vector-effect="non-scaling-stroke" d="
  M 177.89 173.47
  Q 177.91 174.34 177.98 174.41
  Q 179.02 175.51 178.90 174.00
  Q 178.87 173.60 178.29 173.25
  Q 177.88 173.00 177.89 173.47"
/>
<path stroke="#774636" vector-effect="non-scaling-stroke" d="
  M 163.48 179.26
  L 163.17 179.96
  Q 162.85 180.69 163.56 180.34
  L 164.99 179.64
  Q 165.39 179.44 165.12 179.09
  Q 164.14 177.82 162.78 177.03
  Q 162.47 176.85 162.38 177.19
  L 162.32 177.43
  Q 162.30 177.49 162.36 177.51
  Q 163.17 177.76 163.46 178.35
  Q 163.69 178.80 163.48 179.26"
/>
<path stroke="#e38066" vector-effect="non-scaling-stroke" d="
  M 175.61 179.20
  C 176.73 180.76 179.30 179.39 180.06 178.31
  Q 180.40 177.83 179.88 177.55
  Q 178.93 177.03 178.06 177.35"
/>
<path stroke="#774636" vector-effect="non-scaling-stroke" d="
  M 178.06 177.35
  Q 176.48 177.58 175.11 178.38
  A 0.43 0.43 0.0 0 0 175.01 179.05
  Q 175.40 179.47 175.61 179.20"
/>
<path stroke="#6c3a30" vector-effect="non-scaling-stroke" d="
  M 178.06 177.35
  L 175.61 179.20"
/>
<path stroke="#ec9e55" vector-effect="non-scaling-stroke" d="
  M 295.99 270.04
  C 293.86 269.68 290.24 268.03 289.45 271.13
  Q 287.86 277.38 286.37 283.36
  Q 285.68 286.15 288.47 286.84
  L 316.10 293.70
  A 2.49 2.48 -75.9 0 0 319.11 291.89
  L 322.31 279.27
  A 2.34 2.33 -75.9 0 0 320.62 276.43
  Q 315.26 275.08 309.51 273.52
  Q 308.73 273.31 308.96 272.74"
/>
<path stroke="#ffbf89" vector-effect="non-scaling-stroke" d="
  M 308.96 272.74
  L 309.50 272.28
  Q 309.78 272.04 310.14 271.92
  L 324.38 267.35
  A 1.96 1.96 0.0 0 0 325.65 264.89
  L 322.40 254.65
  A 2.33 2.33 0.0 0 0 319.48 253.13
  L 295.81 260.66
  A 2.20 2.20 0.0 0 0 294.34 263.27
  L 295.99 270.04"
/>
<path stroke="#ec9594" vector-effect="non-scaling-stroke" d="
  M 308.96 272.74
  C 306.02 273.11 301.26 271.66 295.99 270.04"
/>
<path stroke="#774636" vector-effect="non-scaling-stroke" d="
  M 95.96 254.86
  L 93.61 256.86
  Q 92.97 257.40 93.77 257.16
  Q 95.91 256.52 96.36 255.12
  Q 96.62 254.29 95.96 254.86"
/>
<path stroke="#774636" vector-effect="non-scaling-stroke" d="
  M 95.36 260.46
  Q 94.36 261.53 95.68 260.91
  Q 97.41 260.09 99.22 257.98
  Q 99.92 257.17 98.96 257.64
  Q 97.15 258.54 95.36 260.46"
/>
<path stroke="#ffdbe4" vector-effect="non-scaling-stroke" d="
  M 318.8313 257.9335
  A 0.50 0.50 0.0 0 0 318.2036 257.6081
  L 299.5020 263.5406
  A 0.50 0.50 0.0 0 0 299.1766 264.1684
  L 299.1887 264.2065
  A 0.50 0.50 0.0 0 0 299.8164 264.5319
  L 318.5180 258.5994
  A 0.50 0.50 0.0 0 0 318.8434 257.9716
  L 318.8313 257.9335"
/>
<path stroke="#ffdbe4" vector-effect="non-scaling-stroke" d="
  M 320.2441 262.1895
  A 0.48 0.48 0.0 0 0 319.6404 261.8792
  L 300.6739 267.9687
  A 0.48 0.48 0.0 0 0 300.3637 268.5724
  L 300.3759 268.6105
  A 0.48 0.48 0.0 0 0 300.9796 268.9208
  L 319.9461 262.8313
  A 0.48 0.48 0.0 0 0 320.2563 262.2276
  L 320.2441 262.1895"
/>
<path stroke="#ecb9b0" vector-effect="non-scaling-stroke" d="
  M 321.4126 278.9547
  A 1.26 1.26 0.0 0 0 320.4948 277.4273
  L 292.0069 270.3244
  A 1.26 1.26 0.0 0 0 290.4795 271.2422
  L 287.2474 284.2053
  A 1.26 1.26 0.0 0 0 288.1652 285.7327
  L 316.6531 292.8356
  A 1.26 1.26 0.0 0 0 318.1805 291.9178
  L 321.4126 278.9547"
/>
<path stroke="#ffd5b1" vector-effect="non-scaling-stroke" d="
  M 117.24 302.24
  A 1.73 1.73 0.0 0 0 115.51 300.51
  L 97.83 300.51
  A 1.73 1.73 0.0 0 0 96.10 302.24
  L 96.10 309.52
  A 1.73 1.73 0.0 0 0 97.83 311.25
  L 115.51 311.25
  A 1.73 1.73 0.0 0 0 117.24 309.52
  L 117.24 302.24"
/>
<path stroke="#ffd5b1" vector-effect="non-scaling-stroke" d="
  M 114.0100 303.5730
  A 0.54 0.54 0.0 0 0 113.4710 303.0320
  L 99.7110 303.0080
  A 0.54 0.54 0.0 0 0 99.1700 303.5470
  L 99.1700 303.5870
  A 0.54 0.54 0.0 0 0 99.7090 304.1280
  L 113.4690 304.1520
  A 0.54 0.54 0.0 0 0 114.0100 303.6130
  L 114.0100 303.5730"
/>
<path stroke="#ffd5b1" vector-effect="non-scaling-stroke" d="
  M 113.9300 306.8729
  A 0.45 0.45 0.0 0 0 113.4808 306.4221
  L 99.6008 306.3979
  A 0.45 0.45 0.0 0 0 99.1500 306.8471
  L 99.1500 306.8871
  A 0.45 0.45 0.0 0 0 99.5992 307.3379
  L 113.4792 307.3621
  A 0.45 0.45 0.0 0 0 113.9300 306.9129
  L 113.9300 306.8729"
/>
<path stroke="#805916" vector-effect="non-scaling-stroke" d="
  M 199.92 358.38
  Q 199.88 358.07 199.55 358.10
  Q 197.00 358.35 194.63 359.38
  Q 194.54 359.42 194.50 359.51
  L 194.35 359.85
  A 0.24 0.24 0.0 0 0 194.66 360.17
  Q 197.22 359.19 199.89 358.73
  Q 199.97 358.72 199.96 358.63
  L 199.92 358.38"
/>
<path stroke="#2d6a61" vector-effect="non-scaling-stroke" d="
  M 272.06 367.07
  L 282.76 367.15
  A 0.15 0.15 0.0 0 0 282.91 367.00
  L 282.91 366.96
  A 5.40 5.29 0.4 0 0 277.55 361.63
  L 277.35 361.63
  A 5.40 5.29 0.4 0 0 271.91 366.88
  L 271.91 366.92
  A 0.15 0.15 0.0 0 0 272.06 367.07"
/>
<path stroke="#2d6a61" vector-effect="non-scaling-stroke" d="
  M 282.68 367.87
  L 272.20 367.93
  A 0.14 0.14 0.0 0 0 272.06 368.07
  L 272.06 368.10
  A 5.21 4.63 -0.3 0 0 277.29 372.70
  L 277.63 372.70
  A 5.21 4.63 -0.3 0 0 282.82 368.04
  L 282.82 368.01
  A 0.14 0.14 0.0 0 0 282.68 367.87"
/>
</g>
<path fill="#000000" d="
  M 271.48 83.11
  Q 270.88 82.34 270.65 81.14
  A 2.23 2.22 -14.4 0 0 267.79 79.45
  Q 261.73 81.38 255.52 80.21
  A 1.58 1.57 1.2 0 0 253.67 81.98
  Q 254.31 86.52 251.39 89.89
  Q 251.04 90.29 250.61 89.98
  Q 248.81 88.66 246.26 89.49
  Q 246.25 81.71 252.91 76.68
  C 256.88 73.68 261.44 73.06 265.81 75.53
  C 269.05 77.36 272.72 78.41 271.48 83.11
  Z"
/>
<path fill="#d87360" d="
  M 271.48 83.11
  L 272.17 88.30
  Q 270.22 87.31 269.39 88.53
  Q 267.56 88.58 266.57 91.53
  Q 266.33 92.26 267.07 92.43
  Q 269.74 93.05 271.37 91.40
  Q 271.40 91.21 272.26 91.19
  C 273.07 99.77 268.64 102.75 261.18 103.25
  L 257.78 102.05
  Q 256.92 101.75 257.49 102.47
  L 260.19 105.86
  L 258.84 109.34
  L 249.26 105.59
  L 251.54 99.03
  Q 252.36 97.80 251.81 96.43
  Q 251.62 95.98 251.14 95.95
  Q 250.13 95.89 249.40 96.68
  Q 243.37 95.22 246.26 89.49
  Q 248.81 88.66 250.61 89.98
  Q 251.04 90.29 251.39 89.89
  Q 254.31 86.52 253.67 81.98
  A 1.58 1.57 1.2 0 1 255.52 80.21
  Q 261.73 81.38 267.79 79.45
  A 2.23 2.22 -14.4 0 1 270.65 81.14
  Q 270.88 82.34 271.48 83.11
  Z
  M 270.9804 85.4531
  A 2.24 1.05 -5.3 0 0 268.6530 84.6145
  A 2.24 1.05 -5.3 0 0 266.5196 85.8669
  A 2.24 1.05 -5.3 0 0 268.8470 86.7055
  A 2.24 1.05 -5.3 0 0 270.9804 85.4531
  Z
  M 262.1029 85.6944
  A 2.22 1.06 -16.1 0 0 259.6760 85.2916
  A 2.22 1.06 -16.1 0 0 257.8371 86.9256
  A 2.22 1.06 -16.1 0 0 260.2640 87.3284
  A 2.22 1.06 -16.1 0 0 262.1029 85.6944
  Z
  M 259.62 92.67
  Q 260.24 93.29 261.43 92.53
  A 1.11 1.10 -35.4 0 0 261.71 90.92
  Q 260.45 89.28 259.14 89.18
  Q 256.86 87.98 254.44 90.20
  A 0.54 0.54 0.0 0 0 254.43 90.99
  Q 256.98 93.41 259.62 92.67
  Z
  M 248.10 93.50
  L 247.88 94.13
  Q 247.40 95.53 248.42 94.46
  Q 249.07 93.78 249.93 93.36
  Q 250.38 93.14 249.96 92.88
  L 247.30 91.20
  Q 247.28 91.19 247.26 91.20
  L 246.99 91.41
  Q 246.71 91.63 246.99 91.86
  L 247.84 92.56
  Q 248.30 92.94 248.10 93.50
  Z
  M 264.77 93.67
  L 265.27 94.27
  A 0.31 0.30 -74.9 0 0 265.79 93.97
  Q 265.46 93.03 264.77 92.32
  A 0.49 0.48 39.2 0 0 264.00 92.39
  Q 263.42 93.31 263.36 94.33
  Q 263.32 94.89 263.73 94.50
  Q 264.01 94.24 264.09 93.84
  Q 264.25 93.06 264.77 93.67
  Z
  M 265.40 96.61
  C 265.91 96.95 266.62 97.19 267.15 97.19
  Q 267.53 97.18 267.49 96.80
  L 267.46 96.50
  A 0.43 0.43 0.0 0 0 266.98 96.11
  L 265.49 96.24
  Q 264.92 96.30 265.40 96.61
  Z"
/>
<ellipse fill="#000000" cx="0.00" cy="0.00" transform="translate(268.75,85.66) rotate(-5.3)" rx="2.24" ry="1.05"/>
<ellipse fill="#000000" cx="0.00" cy="0.00" transform="translate(259.97,86.31) rotate(-16.1)" rx="2.22" ry="1.06"/>
<path fill="#ffffff" d="
  M 272.17 88.30
  Q 273.64 89.07 272.26 91.19
  Q 271.40 91.21 271.37 91.40
  Q 271.24 89.23 269.39 88.53
  Q 270.22 87.31 272.17 88.30
  Z"
/>
<path fill="#000000" d="
  M 269.39 88.53
  Q 271.24 89.23 271.37 91.40
  Q 269.74 93.05 267.07 92.43
  Q 266.33 92.26 266.57 91.53
  Q 267.56 88.58 269.39 88.53
  Z"
/>
<path fill="#000000" d="
  M 259.14 89.18
  Q 260.11 90.87 259.62 92.67
  Q 256.98 93.41 254.43 90.99
  A 0.54 0.54 0.0 0 1 254.44 90.20
  Q 256.86 87.98 259.14 89.18
  Z"
/>
<path fill="#ffffff" d="
  M 259.14 89.18
  Q 260.45 89.28 261.71 90.92
  A 1.11 1.10 -35.4 0 1 261.43 92.53
  Q 260.24 93.29 259.62 92.67
  Q 260.11 90.87 259.14 89.18
  Z"
/>
<path fill="#000000" d="
  M 247.84 92.56
  L 246.99 91.86
  Q 246.71 91.63 246.99 91.41
  L 247.26 91.20
  Q 247.28 91.19 247.30 91.20
  L 249.96 92.88
  Q 250.38 93.14 249.93 93.36
  Q 249.07 93.78 248.42 94.46
  Q 247.40 95.53 247.88 94.13
  L 248.10 93.50
  Q 248.30 92.94 247.84 92.56
  Z"
/>
<path fill="#000000" d="
  M 264.09 93.84
  Q 264.01 94.24 263.73 94.50
  Q 263.32 94.89 263.36 94.33
  Q 263.42 93.31 264.00 92.39
  A 0.49 0.48 39.2 0 1 264.77 92.32
  Q 265.46 93.03 265.79 93.97
  A 0.31 0.30 -74.9 0 1 265.27 94.27
  L 264.77 93.67
  Q 264.25 93.06 264.09 93.84
  Z"
/>
<path fill="#000000" d="
  M 251.54 99.03
  L 249.40 96.68
  Q 250.13 95.89 251.14 95.95
  Q 251.62 95.98 251.81 96.43
  Q 252.36 97.80 251.54 99.03
  Z"
/>
<path fill="#000000" d="
  M 267.15 97.19
  C 266.62 97.19 265.91 96.95 265.40 96.61
  Q 264.92 96.30 265.49 96.24
  L 266.98 96.11
  A 0.43 0.43 0.0 0 1 267.46 96.50
  L 267.49 96.80
  Q 267.53 97.18 267.15 97.19
  Z"
/>
<path fill="#000000" d="
  M 261.18 103.25
  L 260.19 105.86
  L 257.49 102.47
  Q 256.92 101.75 257.78 102.05
  L 261.18 103.25
  Z"
/>
<path fill="#31319b" d="
  M 249.26 105.59
  L 258.84 109.34
  Q 262.03 109.54 261.82 115.28
  Q 260.98 115.12 260.74 114.99
  C 254.71 111.55 249.54 110.62 242.69 112.01
  L 247.13 105.27
  Q 247.46 104.77 247.99 105.02
  L 249.26 105.59
  Z"
/>
<path fill="#000000" d="
  M 261.82 115.28
  C 262.36 115.90 263.36 116.18 263.67 116.73
  Q 263.90 117.16 263.75 117.71
  Q 257.39 113.19 250.50 112.18
  Q 246.51 111.59 240.82 113.41
  Q 241.86 112.30 242.69 112.01
  C 249.54 110.62 254.71 111.55 260.74 114.99
  Q 260.98 115.12 261.82 115.28
  Z"
/>
<path fill="#31319b" d="
  M 263.75 117.71
  C 264.38 119.46 265.40 121.12 265.86 122.81
  C 270.10 138.29 270.03 155.78 269.47 171.74
  L 252.82 172.01
  Q 252.31 172.02 252.29 171.52
  Q 252.18 169.27 252.80 167.15
  C 253.25 165.64 253.03 164.44 253.14 162.93
  Q 253.14 162.88 253.08 162.87
  Q 253.05 162.87 253.02 162.87
  Q 252.91 162.87 252.90 163.00
  C 252.66 164.74 252.72 166.19 252.16 167.96
  Q 251.65 169.59 251.86 170.59
  Q 252.15 171.94 250.77 171.97
  L 243.90 172.12
  Q 242.61 172.15 242.90 170.89
  L 248.65 145.76
  Q 248.77 145.24 249.23 144.96
  L 252.74 142.77
  A 0.29 0.29 0.0 0 0 252.51 142.24
  Q 251.04 142.65 249.83 143.60
  Q 249.13 144.15 249.35 143.28
  L 250.15 140.14
  Q 250.38 139.26 249.63 139.77
  Q 248.98 140.22 248.78 141.12
  Q 245.31 156.58 241.77 172.47
  Q 241.62 173.15 242.32 173.13
  L 269.72 172.47
  L 279.07 172.07
  L 280.14 198.93
  L 270.35 201.20
  L 264.43 202.29
  Q 263.97 202.38 263.95 202.84
  L 263.53 213.67
  Q 263.52 213.94 263.29 214.08
  Q 263.19 214.14 263.07 214.22
  Q 263.15 213.81 262.18 213.70
  L 262.48 203.20
  Q 262.50 202.63 261.94 202.72
  Q 250.46 204.56 238.97 204.25
  L 237.78 204.05
  Q 231.60 203.77 225.98 201.55
  Q 225.78 201.47 225.64 201.80
  Q 225.59 201.62 225.51 201.48
  Q 225.43 201.33 225.25 201.24
  C 201.56 190.07 219.40 136.29 230.74 120.99
  Q 234.98 115.26 240.82 113.41
  Q 246.51 111.59 250.50 112.18
  Q 257.39 113.19 263.75 117.71
  Z"
/>
<path fill="#000000" d="
  M 269.47 171.74
  Q 269.58 171.86 269.72 172.47
  L 242.32 173.13
  Q 241.62 173.15 241.77 172.47
  Q 245.31 156.58 248.78 141.12
  Q 248.98 140.22 249.63 139.77
  Q 250.38 139.26 250.15 140.14
  L 249.35 143.28
  Q 249.13 144.15 249.83 143.60
  Q 251.04 142.65 252.51 142.24
  A 0.29 0.29 0.0 0 1 252.74 142.77
  L 249.23 144.96
  Q 248.77 145.24 248.65 145.76
  L 242.90 170.89
  Q 242.61 172.15 243.90 172.12
  L 250.77 171.97
  Q 252.15 171.94 251.86 170.59
  Q 251.65 169.59 252.16 167.96
  C 252.72 166.19 252.66 164.74 252.90 163.00
  Q 252.91 162.87 253.02 162.87
  Q 253.05 162.87 253.08 162.87
  Q 253.14 162.88 253.14 162.93
  C 253.03 164.44 253.25 165.64 252.80 167.15
  Q 252.18 169.27 252.29 171.52
  Q 252.31 172.02 252.82 172.01
  L 269.47 171.74
  Z"
/>
<path fill="#000000" d="
  M 178.80 166.66
  Q 177.57 166.55 176.57 167.23
  Q 176.11 167.54 176.16 166.98
  Q 176.23 166.19 176.98 166.07
  A 0.54 0.53 63.9 0 0 177.28 165.18
  Q 176.93 164.80 175.99 164.96
  C 172.64 165.53 168.61 166.51 165.26 165.54
  Q 164.93 165.44 164.82 165.77
  L 164.73 166.05
  A 0.28 0.28 0.0 0 0 164.90 166.41
  L 166.78 167.05
  Q 167.11 167.17 167.05 167.52
  L 166.97 167.93
  Q 166.92 168.24 166.60 168.17
  L 164.85 167.75
  Q 164.49 167.66 164.44 168.03
  Q 164.42 168.18 164.39 168.35
  A 0.49 0.49 0.0 0 0 164.88 168.94
  Q 167.12 168.87 166.85 170.52
  Q 166.46 172.94 165.30 175.17
  Q 165.07 175.62 164.58 175.53
  C 161.53 174.98 159.74 178.76 161.46 180.49
  Q 167.52 186.60 175.91 185.57
  L 175.28 188.68
  L 168.29 186.14
  Q 167.76 185.95 167.47 186.43
  Q 167.24 186.79 167.33 187.26
  L 164.57 188.62
  Q 164.12 188.85 164.16 189.34
  L 164.37 191.69
  Q 163.64 195.03 160.06 194.44
  Q 159.84 194.14 159.32 194.14
  Q 158.83 194.15 158.63 194.59
  Q 157.69 196.63 154.72 197.49
  Q 152.32 199.68 149.22 200.81
  Q 148.71 201.00 148.35 200.59
  L 147.13 199.19
  Q 146.81 198.82 147.15 198.46
  L 148.63 196.90
  A 0.36 0.36 0.0 0 0 148.25 196.31
  Q 147.55 196.55 146.80 196.50
  Q 146.24 196.46 145.96 195.98
  Q 145.32 194.91 145.25 193.26
  Q 145.52 193.57 145.78 193.25
  Q 152.28 194.33 152.35 190.85
  Q 153.71 189.28 155.77 189.39
  Q 156.30 189.42 156.35 188.89
  Q 156.52 186.69 158.87 185.35
  L 159.82 180.89
  Q 159.91 180.44 159.73 180.02
  C 156.59 172.73 160.33 165.08 167.92 163.07
  A 0.41 0.41 0.0 0 0 168.12 162.39
  L 167.64 161.87
  A 0.53 0.52 30.3 0 1 167.51 161.38
  Q 167.80 160.13 169.11 159.72
  Q 169.73 159.52 170.16 160.01
  L 172.42 162.59
  Q 172.50 162.68 172.52 162.67
  L 172.77 162.52
  Q 172.80 162.50 172.78 162.46
  Q 171.89 161.32 172.11 159.90
  A 1.10 1.10 0.0 0 1 173.52 159.01
  Q 175.65 159.66 174.63 161.68
  Q 174.39 162.16 174.25 162.74
  Q 174.16 163.15 174.57 163.22
  Q 177.63 163.72 178.80 166.66
  Z"
/>
<path fill="#ed8c6b" d="
  M 178.80 166.66
  Q 179.35 167.62 180.07 168.13
  L 178.65 169.01
  Q 178.21 169.28 178.08 169.78
  C 177.69 171.27 176.06 171.62 176.08 173.46
  Q 176.09 174.22 176.70 173.76
  Q 177.64 173.05 177.94 171.98
  A 0.53 0.53 0.0 0 1 178.78 171.71
  Q 179.43 172.23 180.24 172.27
  Q 180.87 172.31 180.87 171.68
  Q 180.87 171.24 181.14 170.95
  L 182.61 174.96
  Q 183.96 180.62 179.69 183.89
  L 175.91 185.57
  Q 167.52 186.60 161.46 180.49
  C 159.74 178.76 161.53 174.98 164.58 175.53
  Q 165.07 175.62 165.30 175.17
  Q 166.46 172.94 166.85 170.52
  Q 167.12 168.87 164.88 168.94
  A 0.49 0.49 0.0 0 1 164.39 168.35
  Q 164.42 168.18 164.44 168.03
  Q 164.49 167.66 164.85 167.75
  L 166.60 168.17
  Q 166.92 168.24 166.97 167.93
  L 167.05 167.52
  Q 167.11 167.17 166.78 167.05
  L 164.90 166.41
  A 0.28 0.28 0.0 0 1 164.73 166.05
  L 164.82 165.77
  Q 164.93 165.44 165.26 165.54
  C 168.61 166.51 172.64 165.53 175.99 164.96
  Q 176.93 164.80 177.28 165.18
  A 0.54 0.53 63.9 0 1 176.98 166.07
  Q 176.23 166.19 176.16 166.98
  Q 176.11 167.54 176.57 167.23
  Q 177.57 166.55 178.80 166.66
  Z
  M 171.07 168.81
  Q 169.31 169.19 168.53 171.41
  A 0.17 0.17 0.0 0 0 168.65 171.63
  Q 168.86 171.70 169.10 171.61
  A 0.33 0.30 -84.3 0 0 169.28 171.45
  Q 169.97 170.08 171.29 169.39
  Q 173.29 168.33 171.07 168.81
  Z
  M 169.77 173.11
  Q 168.34 173.54 167.89 174.65
  Q 167.70 175.14 168.16 175.41
  Q 169.51 176.20 171.01 176.02
  Q 173.60 176.69 174.24 174.26
  A 0.78 0.78 0.0 0 0 173.95 173.44
  Q 172.01 171.94 169.77 173.11
  Z
  M 177.89 173.47
  Q 177.91 174.34 177.98 174.41
  Q 179.02 175.51 178.90 174.00
  Q 178.87 173.60 178.29 173.25
  Q 177.88 173.00 177.89 173.47
  Z
  M 163.48 179.26
  L 163.17 179.96
  Q 162.85 180.69 163.56 180.34
  L 164.99 179.64
  Q 165.39 179.44 165.12 179.09
  Q 164.14 177.82 162.78 177.03
  Q 162.47 176.85 162.38 177.19
  L 162.32 177.43
  Q 162.30 177.49 162.36 177.51
  Q 163.17 177.76 163.46 178.35
  Q 163.69 178.80 163.48 179.26
  Z
  M 175.61 179.20
  C 176.73 180.76 179.30 179.39 180.06 178.31
  Q 180.40 177.83 179.88 177.55
  Q 178.93 177.03 178.06 177.35
  Q 176.48 177.58 175.11 178.38
  A 0.43 0.43 0.0 0 0 175.01 179.05
  Q 175.40 179.47 175.61 179.20
  Z"
/>
<path fill="#000000" d="
  M 171.07 168.81
  Q 173.29 168.33 171.29 169.39
  Q 169.97 170.08 169.28 171.45
  A 0.33 0.30 -84.3 0 1 169.10 171.61
  Q 168.86 171.70 168.65 171.63
  A 0.17 0.17 0.0 0 1 168.53 171.41
  Q 169.31 169.19 171.07 168.81
  Z"
/>
<path fill="#000000" d="
  M 180.07 168.13
  Q 181.14 168.31 181.14 170.95
  Q 180.87 171.24 180.87 171.68
  Q 180.87 172.31 180.24 172.27
  Q 179.43 172.23 178.78 171.71
  A 0.53 0.53 0.0 0 0 177.94 171.98
  Q 177.64 173.05 176.70 173.76
  Q 176.09 174.22 176.08 173.46
  C 176.06 171.62 177.69 171.27 178.08 169.78
  Q 178.21 169.28 178.65 169.01
  L 180.07 168.13
  Z"
/>
<path fill="#000000" d="
  M 279.88 172.04
  L 281.00 198.64
  Q 280.76 199.22 280.14 198.93
  L 279.07 172.07
  Q 279.69 171.36 279.88 172.04
  Z"
/>
<path fill="#31319b" d="
  M 279.88 172.04
  L 284.21 172.08
  Q 284.77 172.08 284.82 172.64
  L 285.40 180.00
  L 286.30 192.17
  L 286.62 196.38
  Q 286.66 196.97 286.09 197.14
  L 281.00 198.64
  L 279.88 172.04
  Z"
/>
<path fill="#000000" d="
  M 171.01 176.02
  Q 169.72 174.92 169.77 173.11
  Q 172.01 171.94 173.95 173.44
  A 0.78 0.78 0.0 0 1 174.24 174.26
  Q 173.60 176.69 171.01 176.02
  Z"
/>
<path fill="#ffffff" d="
  M 169.77 173.11
  Q 169.72 174.92 171.01 176.02
  Q 169.51 176.20 168.16 175.41
  Q 167.70 175.14 167.89 174.65
  Q 168.34 173.54 169.77 173.11
  Z"
/>
<path fill="#000000" d="
  M 177.89 173.47
  Q 177.88 173.00 178.29 173.25
  Q 178.87 173.60 178.90 174.00
  Q 179.02 175.51 177.98 174.41
  Q 177.91 174.34 177.89 173.47
  Z"
/>
<path fill="#000000" d="
  M 189.89 184.09
  Q 189.75 186.60 186.32 186.18
  Q 184.93 186.01 183.85 183.78
  Q 183.60 183.27 183.06 183.43
  Q 181.37 183.95 179.69 183.89
  Q 183.96 180.62 182.61 174.96
  Q 184.03 175.40 184.81 176.81
  Q 185.08 177.29 185.59 177.09
  Q 187.93 176.18 189.59 178.13
  A 0.48 0.48 0.0 0 0 190.32 178.13
  Q 192.57 175.56 195.29 177.79
  A 0.65 0.65 0.0 0 0 196.11 177.79
  L 200.55 174.20
  Q 200.87 173.95 201.09 174.29
  Q 202.72 176.82 200.35 178.46
  Q 199.61 178.97 200.51 178.98
  L 202.48 179.01
  Q 202.95 179.01 202.94 179.48
  L 202.89 181.31
  Q 202.87 181.86 202.37 182.10
  Q 199.44 183.44 196.23 183.52
  Q 195.72 183.53 195.25 183.71
  Q 193.28 184.44 189.89 184.09
  Z"
/>
<path fill="#000000" d="
  M 163.46 178.35
  Q 163.17 177.76 162.36 177.51
  Q 162.30 177.49 162.32 177.43
  L 162.38 177.19
  Q 162.47 176.85 162.78 177.03
  Q 164.14 177.82 165.12 179.09
  Q 165.39 179.44 164.99 179.64
  L 163.56 180.34
  Q 162.85 180.69 163.17 179.96
  L 163.48 179.26
  Q 163.69 178.80 163.46 178.35
  Z"
/>
<path fill="#000000" d="
  M 178.06 177.35
  L 175.61 179.20
  Q 175.40 179.47 175.01 179.05
  A 0.43 0.43 0.0 0 1 175.11 178.38
  Q 176.48 177.58 178.06 177.35
  Z"
/>
<path fill="#d87360" d="
  M 178.06 177.35
  Q 178.93 177.03 179.88 177.55
  Q 180.40 177.83 180.06 178.31
  C 179.30 179.39 176.73 180.76 175.61 179.20
  L 178.06 177.35
  Z"
/>
<path fill="#d87360" d="
  M 317.98 188.01
  Q 311.82 182.11 303.22 181.17
  Q 303.10 181.16 303.08 181.28
  L 303.04 181.53
  Q 303.01 181.78 303.26 181.83
  C 311.14 183.22 317.51 186.28 320.45 194.06
  C 320.46 196.19 318.61 196.51 317.08 195.63
  Q 314.45 184.70 302.95 183.43
  Q 302.30 183.35 302.79 183.79
  Q 303.29 184.23 303.98 184.32
  C 309.74 185.06 315.92 189.64 316.09 195.95
  Q 315.04 197.06 313.57 196.66
  C 313.46 191.46 309.27 186.52 303.78 186.03
  Q 303.62 186.01 303.60 186.17
  L 303.56 186.44
  A 0.29 0.27 10.5 0 0 303.78 186.74
  Q 310.68 188.19 312.66 194.68
  C 312.92 195.55 312.60 196.15 311.94 196.66
  L 310.76 196.47
  A 1.02 1.00 -8.3 0 1 310.00 195.92
  Q 308.46 192.90 306.03 191.66
  Q 301.36 188.96 296.10 191.35
  L 291.81 192.50
  Q 290.70 192.15 289.52 192.51
  L 286.30 192.17
  L 285.40 180.00
  C 294.48 175.67 304.98 177.88 313.18 182.86
  Q 316.40 184.81 317.98 188.01
  Z"
/>
<path fill="#000000" d="
  M 317.98 188.01
  Q 320.88 189.50 322.25 191.73
  Q 323.25 193.37 323.25 196.97
  Q 323.25 218.17 323.25 239.57
  L 321.23 239.58
  Q 321.33 216.91 321.17 194.49
  Q 321.17 194.15 321.01 194.07
  Q 320.82 193.98 320.45 194.06
  C 317.51 186.28 311.14 183.22 303.26 181.83
  Q 303.01 181.78 303.04 181.53
  L 303.08 181.28
  Q 303.10 181.16 303.22 181.17
  Q 311.82 182.11 317.98 188.01
  Z"
/>
<path fill="#000000" d="
  M 317.08 195.63
  Q 316.24 195.72 316.09 195.95
  C 315.92 189.64 309.74 185.06 303.98 184.32
  Q 303.29 184.23 302.79 183.79
  Q 302.30 183.35 302.95 183.43
  Q 314.45 184.70 317.08 195.63
  Z"
/>
<path fill="#006fe8" d="
  M 189.89 184.09
  Q 193.72 187.81 194.05 190.48
  L 191.74 190.10
  Q 191.22 190.01 191.36 190.52
  Q 194.13 200.39 196.87 210.25
  Q 196.96 210.61 197.49 210.92
  Q 196.93 211.04 197.15 211.66
  Q 198.02 214.14 197.53 217.19
  L 186.38 194.49
  L 184.14 190.26
  Q 183.88 189.77 183.33 189.82
  Q 179.68 190.17 176.66 191.63
  Q 175.93 191.97 175.50 191.98
  Q 174.90 192.01 174.97 191.40
  L 175.28 188.68
  L 175.91 185.57
  L 179.69 183.89
  Q 181.37 183.95 183.06 183.43
  Q 183.60 183.27 183.85 183.78
  Q 184.93 186.01 186.32 186.18
  Q 189.75 186.60 189.89 184.09
  Z"
/>
<path fill="#006fe8" d="
  M 158.87 185.35
  Q 156.52 186.69 156.35 188.89
  Q 156.30 189.42 155.77 189.39
  Q 153.71 189.28 152.35 190.85
  Q 150.22 191.11 147.18 192.13
  Q 146.08 192.50 145.78 193.25
  Q 145.52 193.57 145.25 193.26
  Q 143.90 193.39 141.89 194.99
  Q 140.05 191.47 139.90 186.78
  L 158.87 185.35
  Z"
/>
<path fill="#ed8c6b" d="
  M 175.28 188.68
  L 174.97 191.40
  Q 174.90 192.01 175.50 191.98
  Q 175.93 191.97 176.66 191.63
  Q 175.32 194.61 172.98 196.39
  Q 172.57 196.71 172.16 196.41
  L 166.73 192.46
  L 167.33 187.26
  Q 167.24 186.79 167.47 186.43
  Q 167.76 185.95 168.29 186.14
  L 175.28 188.68
  Z"
/>
<path fill="#000000" d="
  M 313.57 196.66
  Q 312.52 197.22 311.94 196.66
  C 312.60 196.15 312.92 195.55 312.66 194.68
  Q 310.68 188.19 303.78 186.74
  A 0.29 0.27 10.5 0 1 303.56 186.44
  L 303.60 186.17
  Q 303.62 186.01 303.78 186.03
  C 309.27 186.52 313.46 191.46 313.57 196.66
  Z"
/>
<path fill="#0043df" d="
  M 139.90 186.78
  Q 140.05 191.47 141.89 194.99
  L 132.76 204.04
  C 132.13 196.79 130.38 189.12 139.90 186.78
  Z"
/>
<path fill="#0043df" d="
  M 167.33 187.26
  L 166.73 192.46
  Q 165.42 191.71 164.37 191.69
  L 164.16 189.34
  Q 164.12 188.85 164.57 188.62
  L 167.33 187.26
  Z"
/>
<path fill="#d3efd4" d="
  M 186.38 194.49
  C 185.16 196.40 185.15 198.59 183.90 200.01
  C 180.04 204.40 176.26 200.41 173.53 197.48
  A 0.78 0.77 -50.4 0 0 172.30 197.60
  C 169.56 202.05 166.60 206.31 161.00 201.33
  L 160.06 194.44
  Q 163.64 195.03 164.37 191.69
  Q 165.42 191.71 166.73 192.46
  L 172.16 196.41
  Q 172.57 196.71 172.98 196.39
  Q 175.32 194.61 176.66 191.63
  Q 179.68 190.17 183.33 189.82
  Q 183.88 189.77 184.14 190.26
  L 186.38 194.49
  Z"
/>
<path fill="#59d3c2" d="
  M 194.05 190.48
  C 195.94 191.62 197.91 192.45 199.48 194.05
  C 208.36 203.05 216.74 212.39 225.28 221.82
  L 238.00 236.00
  L 237.69 238.48
  C 235.65 239.43 232.98 244.93 231.64 247.67
  Q 230.62 248.60 230.30 249.77
  A 0.74 0.74 0.0 0 1 229.03 250.05
  Q 227.09 247.79 224.89 246.82
  L 224.85 246.57
  Q 224.81 246.28 224.58 246.09
  L 200.17 225.54
  Q 199.05 218.98 198.12 212.00
  Q 198.02 211.29 197.49 210.92
  Q 196.96 210.61 196.87 210.25
  Q 194.13 200.39 191.36 190.52
  Q 191.22 190.01 191.74 190.10
  L 194.05 190.48
  Z"
/>
<path fill="#000000" d="
  M 306.03 191.66
  Q 301.00 192.39 296.10 191.35
  Q 301.36 188.96 306.03 191.66
  Z"
/>
<path fill="#59d3c2" d="
  M 152.35 190.85
  Q 152.28 194.33 145.78 193.25
  Q 146.08 192.50 147.18 192.13
  Q 150.22 191.11 152.35 190.85
  Z"
/>
<path fill="#000000" d="
  M 291.81 192.50
  Q 291.23 193.50 291.22 194.50
  Q 291.01 210.16 291.17 225.77
  L 291.36 239.63
  L 289.05 239.53
  L 289.09 222.86
  L 289.52 192.51
  Q 290.70 192.15 291.81 192.50
  Z"
/>
<path fill="#59d3c2" d="
  M 145.25 193.26
  Q 145.32 194.91 145.96 195.98
  Q 146.24 196.46 146.80 196.50
  Q 147.55 196.55 148.25 196.31
  A 0.36 0.36 0.0 0 1 148.63 196.90
  L 147.15 198.46
  Q 146.81 198.82 147.13 199.19
  L 148.35 200.59
  Q 148.71 201.00 149.22 200.81
  Q 152.32 199.68 154.72 197.49
  C 157.32 203.02 155.33 211.63 152.70 217.00
  L 144.21 226.81
  L 135.10 235.84
  L 116.47 254.08
  Q 116.09 254.46 115.68 254.12
  L 113.67 252.44
  L 104.74 244.31
  L 101.34 241.10
  A 0.33 0.33 0.0 0 1 101.32 240.64
  L 132.76 204.04
  L 141.89 194.99
  Q 143.90 193.39 145.25 193.26
  Z"
/>
<path fill="#006fe8" d="
  M 160.06 194.44
  L 161.00 201.33
  C 161.15 213.02 154.80 221.88 146.92 229.89
  Q 146.27 230.09 146.08 230.80
  Q 146.04 230.92 145.93 230.94
  Q 145.46 231.04 145.26 230.05
  Q 145.20 229.76 145.17 229.46
  L 144.93 226.90
  Q 149.53 222.28 152.70 217.00
  C 155.33 211.63 157.32 203.02 154.72 197.49
  Q 157.69 196.63 158.63 194.59
  Q 158.83 194.15 159.32 194.14
  Q 159.84 194.14 160.06 194.44
  Z"
/>
<path fill="#59d3c2" d="
  M 186.38 194.49
  L 197.53 217.19
  L 199.81 225.83
  L 202.12 243.77
  Q 202.18 244.23 201.72 244.32
  L 200.58 244.53
  L 148.29 249.45
  L 146.79 249.47
  Q 146.26 249.48 146.28 248.95
  L 146.92 229.89
  C 154.80 221.88 161.15 213.02 161.00 201.33
  C 166.60 206.31 169.56 202.05 172.30 197.60
  A 0.78 0.77 -50.4 0 1 173.53 197.48
  C 176.26 200.41 180.04 204.40 183.90 200.01
  C 185.15 198.59 185.16 196.40 186.38 194.49
  Z"
/>
<path fill="#006fe8" d="
  M 270.35 201.20
  L 289.09 222.86
  L 289.05 239.53
  L 286.60 239.67
  L 277.04 239.74
  Q 275.86 239.48 274.69 239.71
  L 268.76 239.69
  Q 266.82 237.37 264.03 237.08
  Q 263.58 237.04 263.43 236.61
  Q 262.92 235.19 262.96 234.10
  L 263.07 214.22
  Q 263.19 214.14 263.29 214.08
  Q 263.52 213.94 263.53 213.67
  L 263.95 202.84
  Q 263.97 202.38 264.43 202.29
  L 270.35 201.20
  Z"
/>
<path fill="#006fe8" d="
  M 237.78 204.05
  L 238.00 236.00
  L 225.28 221.82
  L 225.64 201.80
  Q 225.78 201.47 225.98 201.55
  Q 231.60 203.77 237.78 204.05
  Z"
/>
<path fill="#006fe8" d="
  M 262.18 213.70
  Q 262.01 226.40 262.12 231.75
  Q 262.14 232.57 261.54 232.70
  Q 257.23 230.87 254.62 234.46
  Q 252.29 238.29 253.08 243.22
  Q 252.99 244.30 253.30 245.51
  Q 252.86 246.92 252.33 246.79
  C 248.42 242.10 244.46 241.36 238.89 239.74
  L 238.97 204.25
  Q 250.46 204.56 261.94 202.72
  Q 262.50 202.63 262.48 203.20
  L 262.18 213.70
  Z"
/>
<path fill="#000000" d="
  M 237.78 204.05
  L 238.97 204.25
  L 238.89 239.74
  Q 238.11 239.42 237.69 238.48
  L 238.00 236.00
  L 237.78 204.05
  Z"
/>
<path fill="#000000" d="
  M 197.49 210.92
  Q 198.02 211.29 198.12 212.00
  Q 199.05 218.98 200.17 225.54
  Q 199.99 225.68 199.81 225.83
  L 197.53 217.19
  Q 198.02 214.14 197.15 211.66
  Q 196.93 211.04 197.49 210.92
  Z"
/>
<path fill="#000000" d="
  M 262.18 213.70
  Q 263.15 213.81 263.07 214.22
  L 262.96 234.10
  L 261.54 232.70
  Q 262.14 232.57 262.12 231.75
  Q 262.01 226.40 262.18 213.70
  Z"
/>
<path fill="#000000" d="
  M 152.70 217.00
  Q 149.53 222.28 144.93 226.90
  Q 144.70 226.93 144.21 226.81
  L 152.70 217.00
  Z"
/>
<path fill="#006fe8" d="
  M 291.17 225.77
  Q 296.28 232.17 300.31 239.60
  L 291.36 239.63
  L 291.17 225.77
  Z"
/>
<path fill="#0043df" d="
  M 144.21 226.81
  Q 144.70 226.93 144.93 226.90
  L 145.17 229.46
  Q 145.20 229.76 145.26 230.05
  Q 145.46 231.04 145.93 230.94
  Q 146.04 230.92 146.08 230.80
  Q 146.27 230.09 146.92 229.89
  L 146.28 248.95
  Q 146.26 249.48 146.79 249.47
  L 148.29 249.45
  L 147.77 254.44
  C 134.68 255.99 135.98 244.58 135.10 235.84
  L 144.21 226.81
  Z"
/>
<path fill="#d87360" d="
  M 261.54 232.70
  L 262.96 234.10
  Q 262.92 235.19 263.43 236.61
  Q 263.58 237.04 264.03 237.08
  Q 266.82 237.37 268.76 239.69
  L 268.34 240.28
  Q 268.50 240.96 268.09 241.09
  Q 267.85 241.17 267.45 240.96
  Q 261.16 237.57 254.62 234.46
  Q 257.23 230.87 261.54 232.70
  Z"
/>
<path fill="#ed8c6b" d="
  M 254.62 234.46
  Q 261.16 237.57 267.45 240.96
  Q 267.85 241.17 268.09 241.09
  Q 268.50 240.96 268.34 240.28
  Q 269.23 243.03 266.85 244.89
  Q 265.42 243.81 263.77 243.05
  C 260.77 241.68 258.51 239.82 255.26 238.89
  Q 254.95 238.80 254.73 239.02
  L 254.48 239.27
  Q 254.18 239.57 254.52 239.82
  Q 258.96 243.07 263.93 245.43
  Q 264.11 245.51 264.03 245.69
  L 263.92 245.93
  Q 263.88 246.05 263.76 246.00
  L 257.33 243.54
  Q 256.90 243.38 256.48 243.55
  Q 255.91 243.80 255.44 243.58
  C 254.39 243.09 254.11 242.96 253.08 243.22
  Q 252.29 238.29 254.62 234.46
  Z"
/>
<path fill="#ed8c6b" d="
  M 237.69 238.48
  Q 238.11 239.42 238.89 239.74
  C 244.46 241.36 248.42 242.10 252.33 246.79
  Q 252.13 247.64 251.50 247.92
  A 0.71 0.70 63.8 0 1 250.60 247.61
  L 249.53 245.68
  Q 249.28 245.21 248.79 245.02
  Q 246.61 244.18 245.06 245.85
  Q 244.68 246.26 244.13 246.19
  L 242.81 246.02
  Q 242.11 245.94 241.62 246.44
  Q 240.56 247.53 240.54 249.10
  Q 240.53 249.66 239.99 249.78
  Q 238.63 250.08 237.84 251.21
  A 1.27 1.25 8.2 0 1 237.20 251.68
  Q 236.09 252.03 235.20 253.36
  L 231.64 247.67
  C 232.98 244.93 235.65 239.43 237.69 238.48
  Z"
/>
<path fill="#d87360" d="
  M 266.85 244.89
  C 263.62 247.60 260.20 246.91 256.51 247.04
  Q 255.29 246.71 254.21 246.82
  L 253.30 245.51
  Q 252.99 244.30 253.08 243.22
  C 254.11 242.96 254.39 243.09 255.44 243.58
  Q 255.91 243.80 256.48 243.55
  Q 256.90 243.38 257.33 243.54
  L 263.76 246.00
  Q 263.88 246.05 263.92 245.93
  L 264.03 245.69
  Q 264.11 245.51 263.93 245.43
  Q 258.96 243.07 254.52 239.82
  Q 254.18 239.57 254.48 239.27
  L 254.73 239.02
  Q 254.95 238.80 255.26 238.89
  C 258.51 239.82 260.77 241.68 263.77 243.05
  Q 265.42 243.81 266.85 244.89
  Z"
/>
<path fill="#ffb22c" d="
  M 274.69 239.71
  Q 274.79 240.64 274.25 241.05
  Q 273.98 241.27 273.82 241.58
  L 270.48 248.34
  Q 270.25 248.81 270.31 249.34
  L 270.38 250.03
  A 0.32 0.31 0.8 0 1 270.02 250.37
  Q 269.87 250.35 269.72 250.34
  Q 269.14 250.31 269.12 250.89
  Q 269.11 251.07 269.09 251.24
  Q 269.01 251.90 269.56 251.22
  Q 270.23 250.37 271.05 251.07
  Q 271.40 251.37 271.61 250.96
  L 277.02 240.73
  A 0.78 0.75 56.1 0 0 277.10 240.28
  L 277.04 239.74
  L 286.60 239.67
  Q 283.50 244.52 280.68 251.19
  C 279.62 253.69 277.05 257.46 276.22 261.12
  Q 275.84 262.79 275.09 264.36
  Q 274.96 264.63 275.27 264.63
  L 275.61 264.63
  A 0.30 0.30 0.0 0 0 275.90 264.27
  Q 275.67 263.24 276.52 262.90
  Q 277.00 262.70 276.89 262.20
  Q 276.79 261.71 277.14 261.36
  Q 277.71 260.79 277.88 261.58
  L 277.98 262.05
  Q 278.31 263.55 279.07 262.22
  L 280.59 259.56
  A 0.37 0.37 0.0 0 1 280.89 259.38
  L 281.38 259.36
  Q 281.65 259.35 281.52 259.59
  Q 278.82 264.49 276.23 269.26
  C 274.92 271.67 272.79 272.71 271.53 275.52
  C 270.79 277.19 269.61 280.49 267.95 281.35
  A 1.19 1.16 -88.6 0 0 267.48 281.81
  L 265.14 285.94
  Q 264.93 286.31 264.96 286.73
  C 265.11 288.43 262.71 290.72 261.76 291.68
  Q 261.40 292.04 261.27 292.53
  Q 260.86 294.02 259.48 294.69
  A 1.72 1.70 -89.3 0 0 258.71 295.45
  Q 257.86 297.17 256.52 297.14
  L 256.51 247.04
  C 260.20 246.91 263.62 247.60 266.85 244.89
  Q 269.23 243.03 268.34 240.28
  L 268.76 239.69
  L 274.69 239.71
  Z"
/>
<path fill="#ffc849" d="
  M 277.04 239.74
  L 277.10 240.28
  A 0.78 0.75 56.1 0 1 277.02 240.73
  L 271.61 250.96
  Q 271.40 251.37 271.05 251.07
  Q 270.23 250.37 269.56 251.22
  Q 269.01 251.90 269.09 251.24
  Q 269.11 251.07 269.12 250.89
  Q 269.14 250.31 269.72 250.34
  Q 269.87 250.35 270.02 250.37
  A 0.32 0.31 0.8 0 0 270.38 250.03
  L 270.31 249.34
  Q 270.25 248.81 270.48 248.34
  L 273.82 241.58
  Q 273.98 241.27 274.25 241.05
  Q 274.79 240.64 274.69 239.71
  Q 275.86 239.48 277.04 239.74
  Z"
/>
<path fill="#ffc849" d="
  M 286.60 239.67
  L 289.05 239.53
  L 291.36 239.63
  L 300.31 239.60
  L 321.23 239.58
  L 323.25 239.57
  L 331.81 239.71
  C 338.08 242.42 336.93 247.28 336.87 253.56
  Q 335.33 256.02 335.23 259.30
  Q 335.08 264.25 334.99 264.94
  C 334.35 269.73 334.06 275.03 333.43 279.34
  C 332.76 283.97 331.84 288.73 331.41 293.25
  C 330.36 304.42 330.16 315.80 327.48 326.74
  Q 326.28 331.63 326.71 334.51
  Q 327.27 338.18 326.78 340.31
  A 0.47 0.46 -56.5 0 1 325.95 340.48
  Q 325.42 339.73 325.65 338.78
  Q 325.84 337.97 325.19 338.48
  Q 324.77 338.81 324.74 339.50
  Q 324.43 347.59 322.94 357.59
  L 293.78 357.65
  Q 279.23 357.59 264.85 357.62
  Q 259.54 357.64 256.89 353.65
  Q 257.03 353.32 256.51 352.80
  Q 256.84 350.51 256.10 347.70
  Q 256.28 347.90 256.22 347.27
  L 256.25 329.76
  Q 256.71 327.61 256.38 325.78
  L 280.86 325.76
  A 2.27 2.27 0.0 0 0 283.13 323.49
  L 283.16 307.55
  Q 283.17 304.73 280.35 304.73
  L 256.51 304.72
  L 256.52 297.14
  Q 257.86 297.17 258.71 295.45
  A 1.72 1.70 -89.3 0 1 259.48 294.69
  Q 260.86 294.02 261.27 292.53
  Q 261.40 292.04 261.76 291.68
  C 262.71 290.72 265.11 288.43 264.96 286.73
  Q 264.93 286.31 265.14 285.94
  L 267.48 281.81
  A 1.19 1.16 -88.6 0 1 267.95 281.35
  C 269.61 280.49 270.79 277.19 271.53 275.52
  C 272.79 272.71 274.92 271.67 276.23 269.26
  Q 278.82 264.49 281.52 259.59
  Q 281.65 259.35 281.38 259.36
  L 280.89 259.38
  A 0.37 0.37 0.0 0 0 280.59 259.56
  L 279.07 262.22
  Q 278.31 263.55 277.98 262.05
  L 277.88 261.58
  Q 277.71 260.79 277.14 261.36
  Q 276.79 261.71 276.89 262.20
  Q 277.00 262.70 276.52 262.90
  Q 275.67 263.24 275.90 264.27
  A 0.30 0.30 0.0 0 1 275.61 264.63
  L 275.27 264.63
  Q 274.96 264.63 275.09 264.36
  Q 275.84 262.79 276.22 261.12
  C 277.05 257.46 279.62 253.69 280.68 251.19
  Q 283.50 244.52 286.60 239.67
  Z
  M 295.99 270.04
  C 293.86 269.68 290.24 268.03 289.45 271.13
  Q 287.86 277.38 286.37 283.36
  Q 285.68 286.15 288.47 286.84
  L 316.10 293.70
  A 2.49 2.48 -75.9 0 0 319.11 291.89
  L 322.31 279.27
  A 2.34 2.33 -75.9 0 0 320.62 276.43
  Q 315.26 275.08 309.51 273.52
  Q 308.73 273.31 308.96 272.74
  L 309.50 272.28
  Q 309.78 272.04 310.14 271.92
  L 324.38 267.35
  A 1.96 1.96 0.0 0 0 325.65 264.89
  L 322.40 254.65
  A 2.33 2.33 0.0 0 0 319.48 253.13
  L 295.81 260.66
  A 2.20 2.20 0.0 0 0 294.34 263.27
  L 295.99 270.04
  Z"
/>
<path fill="#000000" d="
  M 331.67 357.52
  Q 336.88 355.50 336.88 349.75
  Q 336.90 301.84 336.87 253.56
  C 336.93 247.28 338.08 242.42 331.81 239.71
  C 337.98 239.47 350.11 237.45 350.12 247.32
  Q 350.12 299.04 350.12 350.75
  C 350.12 359.45 337.17 357.80 331.67 357.52
  Z"
/>
<path fill="#ed8c6b" d="
  M 104.74 244.31
  L 113.67 252.44
  L 110.61 262.48
  L 109.94 264.14
  C 109.73 265.99 108.28 268.27 106.23 267.08
  C 104.23 265.90 105.36 263.72 105.49 261.99
  Q 105.73 261.46 105.63 260.97
  Q 105.53 260.42 105.11 260.80
  Q 104.39 261.49 103.97 262.51
  L 97.22 269.83
  A 1.90 1.90 0.0 0 1 94.16 269.46
  Q 93.40 268.08 95.05 266.82
  L 101.51 260.26
  Q 101.66 260.10 101.49 259.93
  L 101.48 259.92
  Q 101.31 259.76 101.16 259.92
  L 94.73 266.65
  L 91.82 268.91
  A 1.62 1.61 -35.7 0 1 89.48 268.53
  C 88.15 266.54 90.70 265.20 91.89 263.96
  Q 92.00 263.84 91.88 263.72
  L 91.87 263.72
  Q 91.76 263.62 91.57 263.82
  Q 90.60 264.81 89.31 265.32
  Q 88.80 265.53 88.33 265.24
  Q 87.53 264.74 87.15 263.65
  Q 87.48 262.60 89.08 261.20
  L 91.77 258.91
  Q 91.79 258.89 91.77 258.87
  L 91.59 258.69
  Q 91.42 258.52 91.28 258.72
  Q 90.16 260.32 88.42 259.85
  Q 87.88 259.71 87.69 259.20
  Q 87.19 257.86 88.73 256.71
  Q 92.32 254.06 104.74 244.31
  Z
  M 95.96 254.86
  L 93.61 256.86
  Q 92.97 257.40 93.77 257.16
  Q 95.91 256.52 96.36 255.12
  Q 96.62 254.29 95.96 254.86
  Z
  M 95.36 260.46
  Q 94.36 261.53 95.68 260.91
  Q 97.41 260.09 99.22 257.98
  Q 99.92 257.17 98.96 257.64
  Q 97.15 258.54 95.36 260.46
  Z"
/>
<path fill="#9f8ced" d="
  M 200.58 244.53
  L 202.72 282.03
  Q 202.75 282.57 202.20 282.58
  L 198.76 282.63
  L 195.58 282.68
  L 195.44 277.43
  Q 195.42 276.84 194.87 276.64
  L 194.41 276.47
  Q 193.84 276.27 193.62 276.83
  Q 192.55 279.55 193.11 282.79
  L 188.01 282.94
  Q 188.70 279.19 188.37 275.24
  C 188.30 274.42 187.60 273.66 187.54 272.53
  C 187.38 269.21 187.57 266.09 186.67 262.89
  Q 185.62 259.17 184.45 255.50
  L 187.50 253.17
  Q 187.73 252.99 187.53 252.79
  L 187.34 252.60
  Q 187.28 252.54 187.18 252.61
  L 182.98 255.44
  A 1.88 1.86 77.6 0 0 182.17 256.73
  L 178.33 284.85
  Q 178.73 289.18 177.07 289.52
  Q 176.98 288.86 174.51 288.93
  L 149.74 286.77
  L 145.59 286.43
  Q 145.06 286.39 145.10 285.85
  L 147.77 254.44
  L 148.29 249.45
  L 200.58 244.53
  Z"
/>
<path fill="#000000" d="
  M 252.33 246.79
  Q 252.86 246.92 253.30 245.51
  L 254.21 246.82
  Q 252.73 246.93 253.00 247.79
  Q 251.29 248.25 251.82 249.70
  Q 252.10 250.45 253.16 251.49
  Q 253.75 252.36 252.90 252.77
  L 248.83 246.08
  Q 248.09 244.87 246.82 245.48
  L 246.43 245.66
  Q 244.98 246.37 245.81 247.75
  L 250.12 254.92
  Q 249.94 254.99 249.77 255.06
  L 244.71 247.70
  Q 243.88 246.50 242.49 246.96
  L 241.96 247.13
  A 1.19 1.19 0.0 0 0 241.34 248.91
  L 246.61 256.92
  L 245.86 257.20
  L 241.34 250.47
  Q 241.03 250.01 240.54 250.28
  L 239.10 251.06
  Q 238.55 251.37 238.88 251.91
  L 242.73 258.04
  L 241.73 257.77
  L 238.06 252.72
  Q 237.76 252.31 237.28 252.48
  Q 235.59 253.11 236.24 254.99
  Q 235.15 254.85 235.20 253.36
  Q 236.09 252.03 237.20 251.68
  A 1.27 1.25 8.2 0 0 237.84 251.21
  Q 238.63 250.08 239.99 249.78
  Q 240.53 249.66 240.54 249.10
  Q 240.56 247.53 241.62 246.44
  Q 242.11 245.94 242.81 246.02
  L 244.13 246.19
  Q 244.68 246.26 245.06 245.85
  Q 246.61 244.18 248.79 245.02
  Q 249.28 245.21 249.53 245.68
  L 250.60 247.61
  A 0.71 0.70 63.8 0 0 251.50 247.92
  Q 252.13 247.64 252.33 246.79
  Z"
/>
<path fill="#ed8c6b" d="
  M 252.90 252.77
  Q 253.75 253.42 252.86 254.37
  Q 251.64 255.67 250.12 254.92
  L 245.81 247.75
  Q 244.98 246.37 246.43 245.66
  L 246.82 245.48
  Q 248.09 244.87 248.83 246.08
  L 252.90 252.77
  Z"
/>
<path fill="#006fe8" d="
  M 231.64 247.67
  L 235.20 253.36
  Q 235.15 254.85 236.24 254.99
  L 238.23 257.57
  L 238.55 319.71
  A 0.45 0.45 0.0 0 1 238.08 320.17
  L 229.76 319.75
  L 224.25 319.50
  A 0.65 0.65 0.0 0 1 223.63 318.84
  L 224.89 246.82
  Q 227.09 247.79 229.03 250.05
  A 0.74 0.74 0.0 0 0 230.30 249.77
  Q 230.62 248.60 231.64 247.67
  Z"
/>
<path fill="#ed8c6b" d="
  M 249.77 255.06
  Q 250.40 256.03 249.29 257.04
  Q 247.63 258.55 246.61 256.92
  L 241.34 248.91
  A 1.19 1.19 0.0 0 1 241.96 247.13
  L 242.49 246.96
  Q 243.88 246.50 244.71 247.70
  L 249.77 255.06
  Z"
/>
<path fill="#006fe8" d="
  M 254.21 246.82
  Q 255.29 246.71 256.51 247.04
  L 256.52 297.14
  L 256.51 304.72
  L 245.10 304.74
  Q 242.35 304.75 242.34 307.50
  L 242.31 319.75
  Q 241.20 320.56 239.88 320.23
  Q 239.44 320.13 239.44 319.68
  L 238.86 259.60
  Q 238.85 259.35 239.06 259.20
  Q 239.28 259.05 239.27 258.91
  Q 241.31 258.81 241.73 257.77
  L 242.73 258.04
  Q 243.78 259.29 245.86 257.20
  L 246.61 256.92
  Q 247.63 258.55 249.29 257.04
  Q 250.40 256.03 249.77 255.06
  Q 249.94 254.99 250.12 254.92
  Q 251.64 255.67 252.86 254.37
  Q 253.75 253.42 252.90 252.77
  Q 253.75 252.36 253.16 251.49
  Q 253.95 251.24 253.88 250.75
  Q 253.60 248.93 253.00 247.79
  Q 252.73 246.93 254.21 246.82
  Z"
/>
<path fill="#ed8c6b" d="
  M 253.00 247.79
  Q 253.60 248.93 253.88 250.75
  Q 253.95 251.24 253.16 251.49
  Q 252.10 250.45 251.82 249.70
  Q 251.29 248.25 253.00 247.79
  Z"
/>
<path fill="#ed8c6b" d="
  M 245.86 257.20
  Q 243.78 259.29 242.73 258.04
  L 238.88 251.91
  Q 238.55 251.37 239.10 251.06
  L 240.54 250.28
  Q 241.03 250.01 241.34 250.47
  L 245.86 257.20
  Z"
/>
<path fill="#ed8c6b" d="
  M 241.73 257.77
  Q 241.31 258.81 239.27 258.91
  Q 239.07 258.18 238.23 257.57
  L 236.24 254.99
  Q 235.59 253.11 237.28 252.48
  Q 237.76 252.31 238.06 252.72
  L 241.73 257.77
  Z"
/>
<path fill="#000000" d="
  M 184.45 255.50
  L 183.45 256.10
  A 1.17 1.15 78.9 0 0 182.91 256.92
  L 179.40 282.71
  Q 179.33 283.20 179.83 283.19
  L 188.01 282.94
  L 193.11 282.79
  L 195.58 282.68
  L 198.76 282.63
  Q 198.99 283.79 198.80 284.78
  L 178.33 284.85
  L 182.17 256.73
  A 1.88 1.86 77.6 0 1 182.98 255.44
  L 187.18 252.61
  Q 187.28 252.54 187.34 252.60
  L 187.53 252.79
  Q 187.73 252.99 187.50 253.17
  L 184.45 255.50
  Z"
/>
<path fill="#ffb6c8" d="
  M 308.96 272.74
  C 306.02 273.11 301.26 271.66 295.99 270.04
  L 294.34 263.27
  A 2.20 2.20 0.0 0 1 295.81 260.66
  L 319.48 253.13
  A 2.33 2.33 0.0 0 1 322.40 254.65
  L 325.65 264.89
  A 1.96 1.96 0.0 0 1 324.38 267.35
  L 310.14 271.92
  Q 309.78 272.04 309.50 272.28
  L 308.96 272.74
  Z
  M 318.8313 257.9335
  A 0.50 0.50 0.0 0 0 318.2036 257.6081
  L 299.5020 263.5406
  A 0.50 0.50 0.0 0 0 299.1766 264.1684
  L 299.1887 264.2065
  A 0.50 0.50 0.0 0 0 299.8164 264.5319
  L 318.5180 258.5994
  A 0.50 0.50 0.0 0 0 318.8434 257.9716
  L 318.8313 257.9335
  Z
  M 320.2441 262.1895
  A 0.48 0.48 0.0 0 0 319.6404 261.8792
  L 300.6739 267.9687
  A 0.48 0.48 0.0 0 0 300.3637 268.5724
  L 300.3759 268.6105
  A 0.48 0.48 0.0 0 0 300.9796 268.9208
  L 319.9461 262.8313
  A 0.48 0.48 0.0 0 0 320.2563 262.2276
  L 320.2441 262.1895
  Z"
/>
<path fill="#ffb22c" d="
  M 336.87 253.56
  Q 336.90 301.84 336.88 349.75
  Q 336.88 355.50 331.67 357.52
  L 322.94 357.59
  Q 324.43 347.59 324.74 339.50
  Q 324.77 338.81 325.19 338.48
  Q 325.84 337.97 325.65 338.78
  Q 325.42 339.73 325.95 340.48
  A 0.47 0.46 -56.5 0 0 326.78 340.31
  Q 327.27 338.18 326.71 334.51
  Q 326.28 331.63 327.48 326.74
  C 330.16 315.80 330.36 304.42 331.41 293.25
  C 331.84 288.73 332.76 283.97 333.43 279.34
  C 334.06 275.03 334.35 269.73 334.99 264.94
  Q 335.08 264.25 335.23 259.30
  Q 335.33 256.02 336.87 253.56
  Z"
/>
<path fill="#000000" d="
  M 95.96 254.86
  Q 96.62 254.29 96.36 255.12
  Q 95.91 256.52 93.77 257.16
  Q 92.97 257.40 93.61 256.86
  L 95.96 254.86
  Z"
/>
<path fill="#795ee6" d="
  M 184.45 255.50
  Q 185.62 259.17 186.67 262.89
  C 187.57 266.09 187.38 269.21 187.54 272.53
  C 187.60 273.66 188.30 274.42 188.37 275.24
  Q 188.70 279.19 188.01 282.94
  L 179.83 283.19
  Q 179.33 283.20 179.40 282.71
  L 182.91 256.92
  A 1.17 1.15 78.9 0 1 183.45 256.10
  L 184.45 255.50
  Z"
/>
<path fill="#000000" d="
  M 95.36 260.46
  Q 97.15 258.54 98.96 257.64
  Q 99.92 257.17 99.22 257.98
  Q 97.41 260.09 95.68 260.91
  Q 94.36 261.53 95.36 260.46
  Z"
/>
<path fill="#000000" d="
  M 238.23 257.57
  Q 239.07 258.18 239.27 258.91
  Q 239.28 259.05 239.06 259.20
  Q 238.85 259.35 238.86 259.60
  L 239.44 319.68
  Q 239.44 320.13 239.88 320.23
  Q 241.20 320.56 242.31 319.75
  C 242.37 321.77 241.75 324.47 243.78 325.73
  L 229.78 327.17
  L 229.76 319.75
  L 238.08 320.17
  A 0.45 0.45 0.0 0 0 238.55 319.71
  L 238.23 257.57
  Z"
/>
<rect fill="#ffffff" x="-10.31" y="-0.52" transform="translate(309.01,261.07) rotate(-17.6)" width="20.62" height="1.04" rx="0.50"/>
<path fill="#000000" d="
  M 95.05 266.82
  Q 94.89 266.74 94.73 266.65
  L 101.16 259.92
  Q 101.31 259.76 101.48 259.92
  L 101.49 259.93
  Q 101.66 260.10 101.51 260.26
  L 95.05 266.82
  Z"
/>
<path fill="#000000" d="
  M 105.49 261.99
  L 103.97 262.51
  Q 104.39 261.49 105.11 260.80
  Q 105.53 260.42 105.63 260.97
  Q 105.73 261.46 105.49 261.99
  Z"
/>
<path fill="#000000" d="
  M 89.08 261.20
  Q 87.48 262.60 87.15 263.65
  Q 86.59 264.16 86.58 264.75
  Q 86.40 273.44 86.52 291.16
  L 85.54 291.14
  Q 85.34 274.03 85.61 264.82
  Q 85.70 261.70 89.08 261.20
  Z"
/>
<rect fill="#ffffff" x="-10.44" y="-0.50" transform="translate(310.31,265.40) rotate(-17.8)" width="20.88" height="1.00" rx="0.48"/>
<path fill="#000000" d="
  M 110.61 262.48
  Q 111.47 264.37 111.47 265.00
  Q 111.54 277.93 111.48 291.07
  Q 110.88 290.94 110.48 291.11
  Q 110.57 277.76 110.38 264.75
  Q 110.37 264.30 109.94 264.14
  L 110.61 262.48
  Z"
/>
<path fill="#d87360" d="
  M 295.99 270.04
  C 301.26 271.66 306.02 273.11 308.96 272.74
  Q 308.73 273.31 309.51 273.52
  Q 315.26 275.08 320.62 276.43
  A 2.34 2.33 -75.9 0 1 322.31 279.27
  L 319.11 291.89
  A 2.49 2.48 -75.9 0 1 316.10 293.70
  L 288.47 286.84
  Q 285.68 286.15 286.37 283.36
  Q 287.86 277.38 289.45 271.13
  C 290.24 268.03 293.86 269.68 295.99 270.04
  Z
  M 321.4126 278.9547
  A 1.26 1.26 0.0 0 0 320.4948 277.4273
  L 292.0069 270.3244
  A 1.26 1.26 0.0 0 0 290.4795 271.2422
  L 287.2474 284.2053
  A 1.26 1.26 0.0 0 0 288.1652 285.7327
  L 316.6531 292.8356
  A 1.26 1.26 0.0 0 0 318.1805 291.9178
  L 321.4126 278.9547
  Z"
/>
<rect fill="#ffffff" x="-15.94" y="-7.94" transform="translate(304.33,281.58) rotate(14.0)" width="31.88" height="15.88" rx="1.26"/>
<path fill="#795ee6" d="
  M 195.58 282.68
  L 193.11 282.79
  Q 192.55 279.55 193.62 276.83
  Q 193.84 276.27 194.41 276.47
  L 194.87 276.64
  Q 195.42 276.84 195.44 277.43
  L 195.58 282.68
  Z"
/>
<path fill="#ed8c6b" d="
  M 198.80 284.78
  L 197.98 350.14
  C 195.79 350.33 192.43 349.11 191.17 351.35
  Q 190.93 351.78 191.00 352.27
  L 191.86 357.86
  L 184.68 359.75
  A 1.26 1.24 -25.7 0 1 183.37 359.30
  L 179.06 353.62
  L 177.07 289.52
  Q 178.73 289.18 178.33 284.85
  L 198.80 284.78
  Z"
/>
<path fill="#000000" d="
  M 149.74 286.77
  L 174.51 288.93
  L 174.04 292.75
  L 149.61 288.43
  Q 149.51 287.80 149.74 286.77
  Z"
/>
<path fill="#ed8c6b" d="
  M 149.61 288.43
  L 174.04 292.75
  Q 170.98 321.92 167.69 351.49
  Q 167.57 352.62 168.16 352.65
  L 160.70 358.46
  L 153.73 356.59
  Q 153.21 356.45 153.33 355.93
  C 153.65 354.46 154.78 351.48 154.37 350.16
  Q 153.93 348.74 152.02 349.08
  Q 150.11 349.43 147.99 350.06
  L 149.61 288.43
  Z"
/>
<path fill="#ffaa63" d="
  M 110.48 291.11
  Q 110.88 290.94 111.48 291.07
  Q 123.61 290.86 127.62 300.49
  Q 128.93 303.63 128.91 309.39
  Q 128.83 328.98 128.85 348.49
  Q 128.85 350.06 128.48 351.59
  Q 127.77 349.98 127.90 348.33
  Q 127.85 327.93 127.83 307.62
  C 127.83 301.21 125.73 296.21 120.01 293.58
  Q 116.78 292.10 108.29 292.12
  Q 102.26 292.14 96.21 292.17
  C 89.56 292.20 84.82 294.10 81.98 299.97
  Q 80.49 303.05 80.41 309.78
  Q 80.20 328.02 80.31 346.23
  Q 80.38 358.76 91.14 361.94
  Q 89.53 362.16 92.66 363.14
  C 83.97 363.93 76.51 362.04 72.99 354.26
  Q 71.50 350.97 71.50 343.05
  Q 71.51 326.66 71.50 310.29
  Q 71.49 303.66 72.89 300.44
  Q 76.20 292.79 85.54 291.14
  L 86.52 291.16
  L 110.48 291.11
  Z"
/>
<path fill="#ffffff" d="
  M 127.90 348.33
  Q 127.38 357.00 120.74 360.40
  Q 117.36 362.13 109.97 362.23
  Q 100.61 362.35 91.14 361.94
  Q 80.38 358.76 80.31 346.23
  Q 80.20 328.02 80.41 309.78
  Q 80.49 303.05 81.98 299.97
  C 84.82 294.10 89.56 292.20 96.21 292.17
  Q 102.26 292.14 108.29 292.12
  Q 116.78 292.10 120.01 293.58
  C 125.73 296.21 127.83 301.21 127.83 307.62
  Q 127.85 327.93 127.90 348.33
  Z
  M 117.24 302.24
  A 1.73 1.73 0.0 0 0 115.51 300.51
  L 97.83 300.51
  A 1.73 1.73 0.0 0 0 96.10 302.24
  L 96.10 309.52
  A 1.73 1.73 0.0 0 0 97.83 311.25
  L 115.51 311.25
  A 1.73 1.73 0.0 0 0 117.24 309.52
  L 117.24 302.24
  Z"
/>
<path fill="#ffaa63" d="
  M 117.24 309.52
  A 1.73 1.73 0.0 0 1 115.51 311.25
  L 97.83 311.25
  A 1.73 1.73 0.0 0 1 96.10 309.52
  L 96.10 302.24
  A 1.73 1.73 0.0 0 1 97.83 300.51
  L 115.51 300.51
  A 1.73 1.73 0.0 0 1 117.24 302.24
  L 117.24 309.52
  Z
  M 114.0100 303.5730
  A 0.54 0.54 0.0 0 0 113.4710 303.0320
  L 99.7110 303.0080
  A 0.54 0.54 0.0 0 0 99.1700 303.5470
  L 99.1700 303.5870
  A 0.54 0.54 0.0 0 0 99.7090 304.1280
  L 113.4690 304.1520
  A 0.54 0.54 0.0 0 0 114.0100 303.6130
  L 114.0100 303.5730
  Z
  M 113.9300 306.8729
  A 0.45 0.45 0.0 0 0 113.4808 306.4221
  L 99.6008 306.3979
  A 0.45 0.45 0.0 0 0 99.1500 306.8471
  L 99.1500 306.8871
  A 0.45 0.45 0.0 0 0 99.5992 307.3379
  L 113.4792 307.3621
  A 0.45 0.45 0.0 0 0 113.9300 306.9129
  L 113.9300 306.8729
  Z"
/>
<rect fill="#ffffff" x="-7.42" y="-0.56" transform="translate(106.59,303.58) rotate(0.1)" width="14.84" height="1.12" rx="0.54"/>
<path fill="#ffffff" d="
  M 256.51 304.72
  L 280.35 304.73
  Q 283.17 304.73 283.16 307.55
  L 283.13 323.49
  A 2.27 2.27 0.0 0 1 280.86 325.76
  L 256.38 325.78
  L 253.86 325.79
  L 252.15 325.78
  L 243.78 325.73
  C 241.75 324.47 242.37 321.77 242.31 319.75
  L 242.34 307.50
  Q 242.35 304.75 245.10 304.74
  L 256.51 304.72
  Z"
/>
<rect fill="#ffffff" x="-7.39" y="-0.47" transform="translate(106.54,306.88) rotate(0.1)" width="14.78" height="0.94" rx="0.45"/>
<path fill="#d87360" d="
  M 243.78 325.73
  L 252.15 325.78
  L 251.21 345.50
  A 1.50 1.50 0.0 0 1 250.47 346.72
  L 241.33 352.12
  A 1.08 1.08 0.0 0 1 240.09 352.03
  L 229.63 343.52
  L 229.78 327.17
  L 243.78 325.73
  Z"
/>
<path fill="#59d3c2" d="
  M 252.15 325.78
  L 253.86 325.79
  Q 254.32 327.94 256.25 329.76
  L 256.22 347.27
  Q 256.00 347.25 255.81 347.29
  Q 255.63 347.33 255.46 347.50
  Q 250.63 352.12 245.96 356.96
  Q 245.80 357.13 245.97 357.29
  L 246.23 357.52
  Q 246.25 357.54 246.28 357.52
  L 253.87 350.16
  Q 254.24 349.80 254.76 349.78
  Q 256.21 349.74 256.10 347.70
  Q 256.84 350.51 256.51 352.80
  Q 255.57 354.21 254.43 355.08
  A 0.30 0.29 80.2 0 1 253.97 354.75
  L 255.23 350.66
  Q 255.31 350.40 255.05 350.32
  L 254.73 350.22
  Q 254.54 350.16 254.48 350.36
  L 252.52 357.00
  Q 252.20 358.07 253.01 357.30
  L 256.89 353.65
  Q 259.54 357.64 264.85 357.62
  Q 279.23 357.59 293.78 357.65
  Q 294.14 364.42 290.25 370.06
  Q 289.95 370.49 289.47 370.29
  L 286.81 369.15
  Q 286.20 368.89 286.16 369.55
  L 285.95 372.77
  Q 285.92 373.21 285.49 373.20
  L 280.45 373.15
  Q 283.21 371.47 283.92 368.41
  Q 284.04 367.85 284.61 367.89
  Q 285.51 367.95 286.40 367.76
  Q 286.44 367.75 286.46 367.72
  Q 286.52 367.61 286.59 367.49
  A 0.11 0.10 27.6 0 0 286.54 367.34
  Q 285.61 366.91 284.62 367.13
  Q 284.01 367.27 283.91 366.66
  C 282.63 358.53 272.29 358.57 270.89 366.54
  A 0.63 0.62 -85.0 0 1 270.28 367.06
  L 223.98 367.11
  Q 223.74 367.11 223.57 366.94
  Q 223.46 366.82 223.44 366.72
  L 226.10 342.48
  Q 226.25 341.14 227.35 341.91
  L 229.63 343.52
  L 240.09 352.03
  A 1.08 1.08 0.0 0 0 241.33 352.12
  L 250.47 346.72
  A 1.50 1.50 0.0 0 0 251.21 345.50
  L 252.15 325.78
  Z"
/>
<path fill="#d87360" d="
  M 253.86 325.79
  L 256.38 325.78
  Q 256.71 327.61 256.25 329.76
  Q 254.32 327.94 253.86 325.79
  Z"
/>
<path fill="#000000" d="
  M 256.22 347.27
  Q 256.28 347.90 256.10 347.70
  Q 256.21 349.74 254.76 349.78
  Q 254.24 349.80 253.87 350.16
  L 246.28 357.52
  Q 246.25 357.54 246.23 357.52
  L 245.97 357.29
  Q 245.80 357.13 245.96 356.96
  Q 250.63 352.12 255.46 347.50
  Q 255.63 347.33 255.81 347.29
  Q 256.00 347.25 256.22 347.27
  Z"
/>
<path fill="#ffc849" d="
  M 127.90 348.33
  Q 127.77 349.98 128.48 351.59
  Q 126.43 358.59 120.68 361.48
  Q 117.38 363.13 110.05 363.23
  Q 101.26 363.35 92.66 363.14
  Q 89.53 362.16 91.14 361.94
  Q 100.61 362.35 109.97 362.23
  Q 117.36 362.13 120.74 360.40
  Q 127.38 357.00 127.90 348.33
  Z"
/>
<path fill="#ffc849" d="
  M 160.70 358.46
  Q 160.52 361.94 159.39 363.11
  Q 158.25 364.27 157.47 365.72
  Q 157.24 366.14 157.37 366.60
  L 157.79 368.15
  L 129.52 368.21
  C 129.30 359.76 135.84 359.45 142.16 357.89
  L 144.56 360.39
  Q 145.03 360.88 145.02 360.20
  Q 145.02 359.35 144.56 359.06
  Q 142.67 357.83 145.00 357.93
  L 151.64 358.20
  Q 151.89 358.21 151.91 357.96
  L 151.93 357.70
  Q 151.95 357.39 151.64 357.33
  L 146.65 356.31
  C 146.11 355.27 145.00 354.23 144.96 353.17
  Q 144.87 351.08 147.99 350.06
  Q 150.11 349.43 152.02 349.08
  Q 153.93 348.74 154.37 350.16
  C 154.78 351.48 153.65 354.46 153.33 355.93
  Q 153.21 356.45 153.73 356.59
  L 160.70 358.46
  Z"
/>
<path fill="#ffc849" d="
  M 197.98 350.14
  L 200.58 350.95
  A 1.63 1.63 0.0 0 1 201.34 353.56
  L 198.82 356.52
  Q 197.10 359.50 191.86 357.86
  L 191.00 352.27
  Q 190.93 351.78 191.17 351.35
  C 192.43 349.11 195.79 350.33 197.98 350.14
  Z"
/>
<path fill="#000000" d="
  M 256.51 352.80
  Q 257.03 353.32 256.89 353.65
  L 253.01 357.30
  Q 252.20 358.07 252.52 357.00
  L 254.48 350.36
  Q 254.54 350.16 254.73 350.22
  L 255.05 350.32
  Q 255.31 350.40 255.23 350.66
  L 253.97 354.75
  A 0.30 0.29 80.2 0 0 254.43 355.08
  Q 255.57 354.21 256.51 352.80
  Z"
/>
<path fill="#ffb22c" d="
  M 168.16 352.65
  Q 168.54 352.93 168.56 353.25
  Q 169.02 362.88 169.54 372.55
  A 0.40 0.40 0.0 0 1 169.14 372.97
  L 156.75 372.94
  L 156.94 369.24
  L 168.55 369.18
  Q 168.71 369.18 168.75 369.01
  L 168.86 368.57
  Q 168.93 368.24 168.60 368.24
  L 157.79 368.15
  L 157.37 366.60
  Q 157.24 366.14 157.47 365.72
  Q 158.25 364.27 159.39 363.11
  Q 160.52 361.94 160.70 358.46
  L 168.16 352.65
  Z"
/>
<path fill="#ffb22c" d="
  M 179.06 353.62
  L 183.37 359.30
  A 1.26 1.24 -25.7 0 0 184.68 359.75
  L 191.86 357.86
  Q 197.10 359.50 198.82 356.52
  Q 199.52 356.44 200.18 357.31
  Q 200.35 357.80 200.82 358.22
  Q 201.27 358.62 200.72 358.89
  L 198.13 360.19
  A 0.24 0.23 67.7 0 0 198.01 360.48
  L 198.10 360.75
  Q 198.20 361.02 198.48 360.94
  L 202.81 359.73
  C 201.64 362.44 199.46 362.86 197.08 363.67
  A 1.41 1.39 -80.9 0 0 196.41 364.16
  Q 194.65 366.59 191.72 367.13
  Q 191.46 367.18 191.37 367.44
  L 191.25 367.77
  Q 191.22 367.86 191.30 367.89
  Q 191.54 367.99 191.54 368.20
  L 176.18 368.57
  Q 176.91 361.26 177.95 354.09
  Q 178.02 353.63 178.28 353.54
  Q 178.57 353.45 179.06 353.62
  Z
  M 199.92 358.38
  Q 199.88 358.07 199.55 358.10
  Q 197.00 358.35 194.63 359.38
  Q 194.54 359.42 194.50 359.51
  L 194.35 359.85
  A 0.24 0.24 0.0 0 0 194.66 360.17
  Q 197.22 359.19 199.89 358.73
  Q 199.97 358.72 199.96 358.63
  L 199.92 358.38
  Z"
/>
<path fill="#000000" d="
  M 205.32 359.21
  L 202.81 359.73
  L 198.48 360.94
  Q 198.20 361.02 198.10 360.75
  L 198.01 360.48
  A 0.24 0.23 67.7 0 1 198.13 360.19
  L 200.72 358.89
  Q 201.27 358.62 200.82 358.22
  Q 200.35 357.80 200.18 357.31
  L 200.67 357.38
  Q 201.06 357.43 201.44 357.30
  L 206.36 355.64
  Q 206.63 355.55 206.71 355.81
  L 206.80 356.09
  Q 206.86 356.26 206.70 356.35
  L 203.47 358.11
  Q 203.15 358.29 203.36 358.59
  L 203.53 358.85
  Q 203.57 358.90 203.62 358.86
  Q 205.01 357.80 206.61 358.23
  A 0.26 0.25 -5.2 0 1 206.77 358.36
  Q 207.07 358.97 205.32 359.21
  Z"
/>
<path fill="#000000" d="
  M 146.65 356.31
  L 151.64 357.33
  Q 151.95 357.39 151.93 357.70
  L 151.91 357.96
  Q 151.89 358.21 151.64 358.20
  L 145.00 357.93
  Q 142.67 357.83 144.56 359.06
  Q 145.02 359.35 145.02 360.20
  Q 145.03 360.88 144.56 360.39
  L 142.16 357.89
  Q 144.46 356.05 146.65 356.31
  Z"
/>
<path fill="#000000" d="
  M 199.89 358.73
  Q 197.22 359.19 194.66 360.17
  A 0.24 0.24 0.0 0 1 194.35 359.85
  L 194.50 359.51
  Q 194.54 359.42 194.63 359.38
  Q 197.00 358.35 199.55 358.10
  Q 199.88 358.07 199.92 358.38
  L 199.96 358.63
  Q 199.97 358.72 199.89 358.73
  Z"
/>
<path fill="#ffc849" d="
  M 205.32 359.21
  Q 211.79 361.93 211.74 368.38
  L 191.54 368.20
  Q 191.54 367.99 191.30 367.89
  Q 191.22 367.86 191.25 367.77
  L 191.37 367.44
  Q 191.46 367.18 191.72 367.13
  Q 194.65 366.59 196.41 364.16
  A 1.41 1.39 -80.9 0 1 197.08 363.67
  C 199.46 362.86 201.64 362.44 202.81 359.73
  L 205.32 359.21
  Z"
/>
<path fill="#000000" d="
  M 280.45 373.15
  Q 277.35 374.38 274.49 373.17
  Q 271.79 371.50 270.87 368.39
  Q 270.73 367.90 270.22 367.91
  L 223.28 368.21
  L 222.97 367.99
  Q 222.51 367.66 222.91 367.25
  L 223.44 366.72
  Q 223.46 366.82 223.57 366.94
  Q 223.74 367.11 223.98 367.11
  L 270.28 367.06
  A 0.63 0.62 -85.0 0 0 270.89 366.54
  C 272.29 358.57 282.63 358.53 283.91 366.66
  Q 284.01 367.27 284.62 367.13
  Q 285.61 366.91 286.54 367.34
  A 0.11 0.10 27.6 0 1 286.59 367.49
  Q 286.52 367.61 286.46 367.72
  Q 286.44 367.75 286.40 367.76
  Q 285.51 367.95 284.61 367.89
  Q 284.04 367.85 283.92 368.41
  Q 283.21 371.47 280.45 373.15
  Z
  M 272.06 367.07
  L 282.76 367.15
  A 0.15 0.15 0.0 0 0 282.91 367.00
  L 282.91 366.96
  A 5.40 5.29 0.4 0 0 277.55 361.63
  L 277.35 361.63
  A 5.40 5.29 0.4 0 0 271.91 366.88
  L 271.91 366.92
  A 0.15 0.15 0.0 0 0 272.06 367.07
  Z
  M 282.68 367.87
  L 272.20 367.93
  A 0.14 0.14 0.0 0 0 272.06 368.07
  L 272.06 368.10
  A 5.21 4.63 -0.3 0 0 277.29 372.70
  L 277.63 372.70
  A 5.21 4.63 -0.3 0 0 282.82 368.04
  L 282.82 368.01
  A 0.14 0.14 0.0 0 0 282.68 367.87
  Z"
/>
<path fill="#000000" d="
  M 329.12 367.21
  A 6.57 6.57 0.0 0 1 322.55 373.78
  A 6.57 6.57 0.0 0 1 315.98 367.21
  A 6.57 6.57 0.0 0 1 322.55 360.64
  A 6.57 6.57 0.0 0 1 329.12 367.21
  Z
  M 328.16 367.20
  A 5.59 5.59 0.0 0 0 322.57 361.61
  A 5.59 5.59 0.0 0 0 316.98 367.20
  A 5.59 5.59 0.0 0 0 322.57 372.79
  A 5.59 5.59 0.0 0 0 328.16 367.20
  Z"
/>
<path fill="#59d3c2" d="
  M 272.06 367.07
  A 0.15 0.15 0.0 0 1 271.91 366.92
  L 271.91 366.88
  A 5.40 5.29 0.4 0 1 277.35 361.63
  L 277.55 361.63
  A 5.40 5.29 0.4 0 1 282.91 366.96
  L 282.91 367.00
  A 0.15 0.15 0.0 0 1 282.76 367.15
  L 272.06 367.07
  Z"
/>
<path fill="#000000" d="
  M 92.80 368.56
  A 4.17 4.17 0.0 0 1 88.63 372.73
  A 4.17 4.17 0.0 0 1 84.46 368.56
  A 4.17 4.17 0.0 0 1 88.63 364.39
  A 4.17 4.17 0.0 0 1 92.80 368.56
  Z
  M 91.76 368.56
  A 3.18 3.18 0.0 0 0 88.58 365.38
  A 3.18 3.18 0.0 0 0 85.40 368.56
  A 3.18 3.18 0.0 0 0 88.58 371.74
  A 3.18 3.18 0.0 0 0 91.76 368.56
  Z"
/>
<path fill="#000000" d="
  M 120.02 368.58
  A 4.16 4.16 0.0 0 1 115.86 372.74
  A 4.16 4.16 0.0 0 1 111.70 368.58
  A 4.16 4.16 0.0 0 1 115.86 364.42
  A 4.16 4.16 0.0 0 1 120.02 368.58
  Z
  M 119.03 368.56
  A 3.17 3.17 0.0 0 0 115.86 365.39
  A 3.17 3.17 0.0 0 0 112.69 368.56
  A 3.17 3.17 0.0 0 0 115.86 371.73
  A 3.17 3.17 0.0 0 0 119.03 368.56
  Z"
/>
<path fill="#59d3c2" d="
  M 274.49 373.17
  L 223.46 372.70
  A 0.62 0.62 0.0 0 1 222.85 372.01
  L 223.28 368.21
  L 270.22 367.91
  Q 270.73 367.90 270.87 368.39
  Q 271.79 371.50 274.49 373.17
  Z"
/>
<path fill="#d87360" d="
  M 156.94 369.24
  L 129.55 369.04
  Q 129.22 368.39 129.52 368.21
  L 157.79 368.15
  L 168.60 368.24
  Q 168.93 368.24 168.86 368.57
  L 168.75 369.01
  Q 168.71 369.18 168.55 369.18
  L 156.94 369.24
  Z"
/>
<path fill="#59d3c2" d="
  M 282.68 367.87
  A 0.14 0.14 0.0 0 1 282.82 368.01
  L 282.82 368.04
  A 5.21 4.63 -0.3 0 1 277.63 372.70
  L 277.29 372.70
  A 5.21 4.63 -0.3 0 1 272.06 368.10
  L 272.06 368.07
  A 0.14 0.14 0.0 0 1 272.20 367.93
  L 282.68 367.87
  Z"
/>
<path fill="#d87360" d="
  M 191.54 368.20
  L 211.74 368.38
  Q 211.78 369.46 211.59 369.87
  L 176.10 369.43
  L 176.18 368.57
  L 191.54 368.20
  Z"
/>
<path fill="#ffc849" d="
  M 129.55 369.04
  L 156.94 369.24
  L 156.75 372.94
  L 130.28 373.06
  Q 129.76 373.07 129.73 372.55
  L 129.55 369.04
  Z"
/>
<path fill="#ffc849" d="
  M 176.10 369.43
  L 211.59 369.87
  L 211.39 372.30
  Q 211.34 372.88 210.76 372.88
  L 176.22 372.85
  Q 175.67 372.84 175.74 372.30
  L 176.10 369.43
  Z"
/>
</svg>
