<svg width="60" height="60" viewBox="0 0 60 60" fill="none"
  xmlns="http://www.w3.org/2000/svg">
  <path d="M58.125 30C58.125 17.7187 50.3437 7.3125 39.375 3.46875V56.5312C50.3437 52.6875 58.125 42.2812 58.125 30Z" fill="#ED4C5C" />
  <path d="M1.875 30C1.875 42.2812 9.75 52.6875 20.625 56.5312V3.46875C9.75 7.3125 1.875 17.7187 1.875 30Z" fill="#75A843" />
  <path d="M39.375 3.46875C36.4688 2.4375 33.2812 1.875 30 1.875C26.7188 1.875 23.5312 2.4375 20.625 3.46875V56.5312C23.5312 57.5625 26.7188 58.125 30 58.125C33.2812 58.125 36.4688 57.5625 39.375 56.5312V3.46875Z" fill="white" />
  <path d="M38.156 29.7188C38.0623 29.4375 37.9685 29.8125 37.9685 29.9062C37.9685 29.625 37.8748 29.4375 37.6873 29.1562C37.406 29.4375 37.3123 29.8125 37.3123 30.1875C37.2185 29.9063 37.1248 29.625 36.8435 29.5312C37.031 29.8125 36.9373 30 36.9373 30.2812C36.9373 30.6562 37.2185 30.9375 37.2185 31.3125C37.2185 31.6875 37.031 31.9688 36.7498 32.25V31.9687C35.8123 32.3437 35.9998 32.8125 35.9998 33.6563C35.9998 34.5 35.531 34.3125 34.9685 34.7812C35.0623 34.5937 35.0623 34.3125 34.9685 34.125C34.9685 34.6875 34.2185 34.6875 34.1248 35.1562C34.031 35.3437 34.1248 35.7188 33.8435 35.8125C33.656 35.9063 33.3748 36.0938 33.3748 36.2813C33.1873 36.1875 32.9998 36.1875 32.7185 36.1875C32.8123 36.0937 32.906 36.0938 32.9998 36C32.0623 35.5313 31.781 36.5625 30.9373 36.6562C30.656 36.6562 29.9998 36.2812 29.9998 36.6562C30.8435 36.6562 31.2185 37.4063 31.8748 37.4063C32.4373 37.4063 32.906 36.9375 33.4685 36.9375C33.3748 36.9375 33.0935 36.75 32.8123 36.75C33.281 36.4688 33.5623 35.9062 34.1248 35.9062C35.0623 35.9062 35.531 35.7187 35.8123 34.7812C35.7185 34.7812 35.6248 34.7813 35.531 34.875C35.531 34.5 35.906 34.0312 36.281 33.8437C37.2185 33.6562 37.1248 32.9063 37.6873 32.25C37.4998 32.25 37.3123 32.3438 37.1248 32.5313C37.1248 31.9688 37.031 31.4062 37.4998 31.0312C38.4373 30.5625 38.3435 30.375 38.156 29.7188V29.7188ZM21.8435 29.7188C21.656 30.4688 21.5623 30.6563 22.3123 31.125C22.8748 31.5 22.6873 32.0625 22.6873 32.625C22.4998 32.4375 22.406 32.3437 22.1248 32.3437C22.6873 32.9062 22.5935 33.75 23.531 33.9375C23.8123 34.125 24.281 34.5937 24.281 34.9687C24.1873 34.9687 24.0935 34.875 23.9998 34.875C24.281 35.8125 24.7498 36 25.6873 36C26.2498 36 26.531 36.5625 26.9998 36.8437C26.7185 36.8437 26.4373 36.9375 26.3435 37.0312C26.906 37.0312 27.3748 37.5937 27.9373 37.5C28.5935 37.5 29.0623 36.75 29.8123 36.75C29.8123 36.375 29.156 36.75 28.8748 36.75C28.1248 36.5625 27.8435 35.625 26.8123 36C26.906 36.0938 26.9998 36.1875 27.0935 36.1875C26.906 36.1875 26.6248 36.0938 26.4373 36.2813C26.3435 36.0938 26.156 35.9063 25.9685 35.8125C25.781 35.625 25.781 35.3437 25.6873 35.1562C25.4998 34.6875 24.8435 34.5938 24.8435 34.125C24.7498 34.3125 24.7498 34.5937 24.8435 34.7812C24.281 34.3125 23.8123 34.5 23.8123 33.6563C23.8123 32.9063 23.9998 32.3437 23.0623 31.9687V32.25C22.781 31.9688 22.5935 31.7813 22.5935 31.3125C22.5935 30.9375 22.9685 30.6562 22.8748 30.2812C22.8748 30 22.781 29.8125 22.9685 29.5312C22.6873 29.625 22.5935 29.9063 22.4998 30.1875C22.4998 29.8125 22.406 29.4375 22.1248 29.1562C22.031 29.3438 21.9373 29.625 21.8435 29.9062C21.9373 29.7187 21.8435 29.4375 21.8435 29.7188V29.7188Z" fill="#75A843" />
  <path d="M32.5313 35.3438C32.3438 35.3438 32.25 35.1563 32.1562 35.0625C32.1562 34.875 32.9063 34.6875 33 34.6875V34.5C31.7813 34.875 28.125 35.1562 27.375 33.8437C27 34.4062 26.3437 34.0312 25.6875 33.5625C25.7812 33.75 26.1562 34.6875 26.1562 34.5938C26.3437 34.6875 27.5625 34.9687 27.5625 35.25L27.2813 35.5313C29.25 36.1875 30.4688 36.375 32.5313 35.3438Z" fill="#428BC1" />
  <path d="M31.3125 35.3438C31.4063 35.25 31.4062 35.1563 31.4062 34.9688L31.3125 34.6875C31.5 34.5 31.3125 34.0313 31.0312 34.125C30.8437 34.2188 30.9375 34.2188 30.75 34.125C30.6562 34.125 30.6562 34.0313 30.5625 34.0313H28.875C28.6875 34.0313 28.6875 33.9375 28.5 33.9375C28.3125 33.8438 28.2188 34.0313 28.125 34.125C28.125 34.3125 28.2188 34.3125 28.2188 34.4063C28.2188 34.5 28.125 34.5938 28.125 34.7813C28.125 34.9688 28.2188 35.0625 28.3125 35.1563C27.9375 35.4375 28.3125 35.9063 28.6875 35.625C28.7813 35.8125 29.0625 35.8125 29.3437 35.8125H30.375C30.5625 35.8125 30.9375 35.9063 31.0312 35.625C31.3125 36.0938 31.6875 35.5313 31.3125 35.3438Z" fill="#ED4C5C" />
  <path d="M34.3124 32.9062C33.5624 31.9687 33.1874 33.375 32.3437 33.2812C32.5312 32.1562 30.8437 32.5312 30.3749 32.8125C30.4687 32.7187 30.5624 32.5312 30.6562 32.3437C30.2812 32.3437 29.8124 32.5312 29.5312 32.25C28.9687 31.875 28.2187 31.6875 27.7499 32.3437C27.3749 31.7812 26.3437 31.2187 25.7812 31.7812C25.7812 31.2187 25.2187 30.375 24.5624 30.4687C23.8124 30.5625 24.0937 31.5 24.4687 31.875C24.7499 32.1562 25.1249 32.25 25.4999 32.25C25.4999 32.4375 25.5937 32.5312 25.6874 32.625C26.1562 33 27.0937 33.0937 27.5624 32.7187C27.5624 33.6562 29.4374 33.6562 29.9062 33.1875C29.7187 33.6562 29.5312 34.5937 30.1874 34.5937C30.7499 34.5937 30.5624 34.0312 31.0312 33.8437C31.4062 33.6562 31.8749 33.5625 32.2499 33.75C32.9062 34.125 34.9687 34.0312 34.3124 32.9062" fill="#428BC1" />
  <path d="M26.6252 30.5624C26.5314 30.3749 26.3439 30.1874 26.3439 30.1874C25.9689 30.2812 25.9689 29.9999 25.8752 29.7187C25.7814 29.2499 25.1252 29.0624 25.1252 28.6874C25.1252 28.3124 25.5002 27.9374 25.2189 27.5624C24.9377 27.1874 24.4689 26.9999 24.4689 27.1874C24.3752 27.3749 24.8439 27.3749 24.8439 27.8437C24.8439 28.4062 24.2814 28.8749 24.9377 29.3437C25.3127 29.9062 25.3127 30.9374 25.9689 30.9374C26.2502 30.9374 26.5314 30.8437 26.6252 30.5624" fill="#75A843" />
  <path d="M28.0316 30.0937C27.8441 29.7187 28.0316 29.1562 27.6566 28.875C27.1878 28.5 26.2503 29.25 26.1566 28.3125C26.1566 28.125 27.1878 27 27.3753 26.9062C27.6566 26.5312 27.5628 25.875 27.2816 25.6875C26.9066 25.5 26.8128 25.6875 26.5316 26.0625C26.6253 26.1562 27.0003 26.3437 27.0003 26.4375C26.7191 27.0937 25.8753 27.1875 25.6878 27.8437C25.5003 28.3125 25.5941 29.0625 26.0628 29.3437C26.3441 29.5312 26.5316 29.5312 26.8128 29.5312C27.6566 29.4375 27.1878 29.625 27.2816 29.8125C27.2816 30 27.5628 30.6562 28.0316 30.0937V30.0937ZM25.2191 25.5C25.2191 26.0625 25.7816 25.9687 26.1566 25.875C26.1566 25.6875 26.1566 25.5 26.2503 25.3125C26.0628 25.4062 25.7816 25.4062 25.6878 25.3125C25.4066 25.125 26.3441 24.75 26.2503 24.75C26.2503 24.75 25.3128 25.2187 25.6878 24.6562C25.7816 24.4687 25.9691 24.2812 26.0628 24.0937C26.1566 23.9062 25.7816 24.0937 25.7816 24.0937C25.6878 24.0937 25.5941 24.0937 25.5003 24.1875C24.9378 24.6562 25.1253 24.9375 25.2191 25.5" fill="#75A843" />
  <path d="M35.1561 25.5C34.6874 24.8438 32.9061 22.6875 30.3749 22.5C30.0936 22.5 29.3436 22.7812 29.0624 22.875C28.2186 23.4375 29.9999 23.9062 30.0936 24.2812C30.0936 24.4687 30.1874 24.5625 30.1874 24.75C29.9061 24.2812 29.6249 24 29.5311 23.8125C29.0624 24 28.3124 23.7187 28.2186 23.25C28.1249 23.4375 28.1249 23.5312 27.9374 23.7187C27.9374 23.4375 27.8436 23.4375 27.7499 23.25C27.7499 23.5312 27.7499 23.9063 27.4686 24C27.5624 23.8125 27.4686 23.625 27.3749 23.4375C27.3749 23.7187 27.3749 23.9063 27.1874 24.0938C27.2811 23.9063 27.0936 23.8125 27.0936 23.625C26.9999 24.375 25.9686 24.6563 26.9999 24.9375C27.3749 25.0313 27.5624 24.9375 27.9374 25.125C28.0311 25.2187 28.2186 25.4062 28.2186 25.3125C28.2186 25.4062 27.8436 25.7813 28.1249 25.875C28.0311 25.9688 27.7499 26.5312 27.7499 26.5312C28.0311 26.5312 27.8436 26.7188 27.6561 26.9063C27.3749 27.375 27.6561 27.8437 27.7499 28.4062C27.7499 28.2187 28.0311 28.5 28.0311 28.7813C28.0311 29.1563 28.4061 29.3437 28.4999 29.625C28.0311 29.1562 27.9374 29.625 28.4999 29.9062C28.0311 29.9062 27.9374 30.1875 28.4061 30.375C27.2811 30.375 28.2186 30.8437 28.4061 30.9375C29.1561 31.125 29.7186 30.5625 29.7186 30.4687C29.7186 30.4687 31.2186 31.9687 31.3124 31.9687C31.4061 31.9687 32.1561 31.5938 32.3436 31.7813C32.5311 32.0625 32.7186 31.7812 32.9061 31.875C33.0936 32.0625 33.8436 31.875 34.0311 31.7813C34.1249 31.7813 35.0624 31.5937 34.8749 31.4062C34.4061 31.0312 33.8436 30.6562 33.3749 30.2812C32.9061 29.9062 32.4374 29.625 32.0624 29.25C31.8749 29.0625 31.8749 28.6875 31.7811 28.4062C32.6249 29.25 33.4686 29.7187 33.3749 28.125C33.9374 28.5937 35.0624 31.2187 35.1561 31.2187C35.4374 31.2187 35.1561 28.4062 35.1561 28.125C35.5311 28.5 35.5311 31.5938 35.6249 31.5938C36.0936 31.6875 36.7499 27.5625 35.1561 25.5" fill="#89664C" />
  <path d="M28.4062 30.2812C28.3125 30.2812 27.8438 29.625 27.8438 29.5312C28.125 30.6562 27 30 27.2813 29.5312C26.9063 29.4375 25.9688 30 26.3438 30.5625C26.1563 30.9375 27.6563 30.6562 27.75 30.4687C28.125 31.3125 29.0625 30.375 28.4062 30.2812V30.2812ZM32.8125 33.0937C33.2813 32.4375 31.3125 32.25 31.5 31.5C31.2187 31.6875 30.8438 32.3437 30.4688 32.1562C30.2813 32.0625 29.5313 32.5312 29.9063 32.8125C29.9063 32.4375 30.0938 32.7187 30.375 32.625C30.2813 32.9062 30 33.1875 30.4688 33.375C30.2813 32.8125 31.0313 33.0937 30.9375 32.8125C30.75 32.625 31.5937 32.625 31.6875 32.625C31.9688 32.625 32.9063 32.9062 32.5313 33.1875C32.5313 33.1875 32.7188 33.1875 32.8125 33.0937V33.0937ZM26.5312 25.0312C26.4375 25.2187 26.0625 25.5 26.0625 25.7812C26.0625 25.9687 26.5313 26.4375 26.7188 26.1562C26.1563 25.7812 26.8125 25.5 27.0938 25.5C27.1875 25.5 27.1875 25.6875 27.1875 25.6875C27.2813 25.7812 28.0313 25.5 27.9375 25.3125C28.0313 24.9375 26.8125 24.9375 26.5312 25.0312Z" fill="#FFCE31" />
</svg>